<mxfile host="app.diagrams.net" modified="2020-07-25T19:42:28.220Z" agent="5.0 (Macintosh; Intel Mac OS X 10_14_6) AppleWebKit/537.36 (KHTML, like Gecko) Chrome/83.0.4103.116 Safari/537.36" etag="ZAtXl2Pt0uMxJWLlGyIA" version="13.5.3" type="github">
  <diagram id="h8a6W5qZrozXBWjOe43t" name="Page-1">
    <mxGraphModel dx="2368" dy="1242" grid="1" gridSize="10" guides="1" tooltips="1" connect="1" arrows="1" fold="1" page="1" pageScale="1" pageWidth="1700" pageHeight="1100" math="0" shadow="0">
      <root>
        <mxCell id="0" />
        <mxCell id="1" parent="0" />
        <mxCell id="h6RiRNKAuwsU3fVTqDMK-122" value="" style="rounded=0;whiteSpace=wrap;html=1;dashed=1;dashPattern=1 1;labelBackgroundColor=none;sketch=0;strokeWidth=1;fontSize=18;fillColor=#ffe6cc;strokeColor=#d79b00;" vertex="1" parent="1">
          <mxGeometry x="400" y="170.02" width="670" height="60" as="geometry" />
        </mxCell>
        <mxCell id="h6RiRNKAuwsU3fVTqDMK-116" value="" style="shape=image;verticalLabelPosition=bottom;labelBackgroundColor=#ffffff;verticalAlign=top;aspect=fixed;imageAspect=0;image=data:image/png,iVBORw0KGgoAAAANSUhEUgAAAggAAAFtCAYAAABiLZIXAAAgAElEQVR4XuydB3gcxfn/v+/s7hU1S7bcu7ExtrFpJnQwDpBQ3I2ABEhIAqSSTgjFHDb8CCnk94NAYhJC/gQIyB0TIKE4Dh1McwGMe++WrHp3uzvzf2bvJJ1sSXeSTs337vMYY2l2dubzzu5+95133iEp5Sal1BsAIITQf/HBBJgAE2ACTIAJZDaBs8h13b8bhnFNZnPg3jMBJsAEmAATYAI1BJRSf9cC4QnDMK5mLEyACTABJsAEmAAT0ASUUk+Q9x8iFgg8JpgAE2ACTIAJMAGPAAsEHghMgAkwASbABJjAEQRYIPCgYAJMgAkwASbABFgg8BhgAkyACTABJsAEkhNgD0JyRlyCCTABJsAEmEDGEWCBkHEm5w4zASbABJgAE0hOgAVCckZcggkwASbABJhAxhFggZBxJucOMwEmwASYABNIToAFQnJGXIIJMAEmwASYQMYRYIGQcSbnDjMBJsAEmAATSE6ABUJyRlyCCTABJsAEmEDGEWCBkHEm5w4zASbABJgAE0hOgAVCckZcggkwASbABJhAxhFggZBxJucOMwEmwASYABNIToAFQnJGXIIJMAEmwASYQMYRYIGQcSbnDjMBJsAEmAATSE6ABUJyRlyCCTABJsAEmEDGEWCBkHEm5w4zASbABJgAE0hOgAVCckZcggkwASbABJhAxhFggZBxJucOMwEmwASYABNIToAFQnJGXIIJMAEmwASYQMYRYIGQcSbnDjMBJsAEmAATSE6ABUJyRlyCCTABJsAEmEDGEWCBkHEm5w4zASbABJgAE0hOgAVCckZcggkwASbABJhAxhFggZBxJucOMwEmwASYABNIToAFQnJGXIIJMAEmwASYQMYRYIGQcSbnDjMBJsAEmAATSE6ABUJyRlyCCTABJsAEmEDGEWCBkHEm5w4zASbABJgAE0hOgAVCckZcggkwASbABJhAxhFggZBxJucOMwEmwASYABNIToAFQnJGXIIJMAEmwASYQMYRYIGQcSbnDjMBJsAEmAATSE6ABUJyRlyCCTABJsAEmEDGEWCBkHEm5w4zASbABJgAE0hOgAVCckZcggkwASbABJhAxhFggZBxJucOMwEmwASYABNIToAFQnJGXIIJMAEmwASYQMYRYIGQcSbnDjMBJsAEmAATSE6ABUJyRlyCCTABJsAEmEDGEWCBkHEm5w4zASbABJgAE0hOgAVCckZcggkwASbABJhAxhFggZBxJucOMwEmwASYABNIToAFQnJGXIIJMAEmwASYQMYRYIGQcSbnDjMBJsAEmAATSE6ABUJyRlyCCTABJsAEmEDGEWCBkHEm5w4zASbABJgAE0hOgAVCckZcggkwASbABJhAxhFggZBxJucOMwEmwASYABNIToAFQnJGXIIJMAEmwASYQMYRYIGQcSbnDjMBJsAEmAATSE6ABUJyRlyCCTABJsAEmEDGEWCBkHEm5w4zASbABJgAE0hOgAVCckZcggkwASbABJhAxhFggZBxJucOMwEmwASYABNIToAFQnJGXIIJMAEmwASYQMYRYIGQcSbnDjMBJsAEmAATSE6ABUJyRlyCCTABJsAEmEDGEWCBkHEm5w4zASbABJgAE0hOgAVCckZcggkwASbABJhAxhFggZBxJucOMwEmwASYABNIToAFQnJGXIIJMAEmwASYQMYRYIGQcSbnDjMBJsAEmAATSE6ABUJyRlyCCTABJsAEmEDGEWCBkHEm5w4zASbABJgAE0hOgAVCckZcggkwASbABJhAxhFggZBxJucOMwEmwASYABNIToAFQnJGXIIJMAEmwASYQMYRYIGQcSbnDjMBJsAEmAATSE6ABUJyRlyCCTABJsAEmEDGEWCBkHEm5w4zASbABJgAE0hOgAVCckZcggkwASbABJhAxhFggZBxJucOMwEmwASYABNIToAFQnJGXIIJMAEmwASYQMYRYIGQcSbnDjMBJsAEmAATSE6ABUJyRlyCCTABJsAEmEDGEWCBkHEm5w4zASbABJgAE0hOgAVCckZcggkwASbABJhAxhFggZBxJucOMwEmwASYABNIToAFQnJGXIIJMAEmwASYQMYRYIGQcSbnDjMBJsAEmAATSE6ABUJyRlyCCTABJsAEmEDGEWCBkHEmb9MOU2jpiqCqLig0TNlfwBjguNTfgOgjSPWMkCpQoFwCsgD4iJSPQIaCMmpaRUBUEaRSiAJUDVCFBVFqgvY7LvYoAzuUG9kRdrHNnyd3hy4eXg4i1aa94sqZQBsSWDH3FGtkwdp8n0/1cSh/UIB2DJAw+5HRrZdwVA9S4TylqrMByw+hfFAwFJFZd88oG1CSoKIAIoCsAKjMNQIlhPBeuHKnrXJ3CGVss4S965PI4JIxRZ/osnwwgSYJsEDgAdISAnTLkyvzs6ysYcIQoyOg4w2BkY6rBgui3iSoGxGCCiAlFZRSICLvOrH/JsgBAA293QkKJPR/9TkEfbpWDd6/lNC/jZpQ5VBqr6vUdpD7uSvVakvRmrCNz9eZK/bPKypyW9I5PocJtAUBVQwfrPx+LuQoEpHjQTSalHOMAvUnwyiElNnkiWUJ6LFumIhp56h+/8d+pm8g74apfyfVtTd+N3nljijjgqhKGXQQrrtLwrdJKedTUnmrq5ysTyv8O7f2m4Sqtug719k1CbBA6Jp2a9dW/+D5df5eZWpYtRU8yRDqDJLOKSCMANCdiASgX9gSWgx4jy6KvdBrDu+93oIjsY660wXIe/CRd1X9tPT+SzL2/NR/CGVKYZOC/JBAb7mufD/idz7/9ZTjylvQDD6FCTSbgNbEFS/kFAZcZwxceRoZ8nQBcTzBGQBFAQU9jl1vsMYGbsLftSogNs5jR1wgNLsltXdh7H+86uI3pIoJcIk8SFFtC9i7lbI+hfK9S7DftolWBcKTdlDRPBbaLebetU9kgdC17dcmrQ+FlpnOyaMGyqhzKhn0JaGc8wAaIgFD1HrzZe2129vBL5Q4st9U157aB6GKPQoFCelC7DFc+00A/3J8xpulZnT9g5eMiLQJQK40IwmULEJ+vhkc5bj2eYaBixzIUwxCntBf//rFnDhE4yK3Q0DV3CsN3UdCeyy010/fOMFqSPrEFeGX4dIrppv/MU3fs7dD2swX7RACLBA6BHvnu+iPi7cFcxAdbpJxEYQscmGcBJCl3fw1HxxSP+FqPQOxp117iwN9zZQEQnxaoiHS2tMhlbHOEfbCAIwllY77yX1FxxzqfFbhFnVmAtpLULUQffyW/xSpaKZQ6mJBdi/vu9xzf8U8XN49k/BPr0+dViBo8R2/yWu8GnGng4K/XKroctd0/yGjuW8G7NJtVAT2LnTmQdrKtrFAaCXArnz63LnK2tZj+xBHRKcHpPiGFDjWc93H5y6lnj1o9Djsi70dQYgWTlkkNjGxbxLYb0r7aUjr70DZJ6GiMRXt2B2+VBcjUPZUbmGW338axIHrhWl8CXADqqGv8Xi/xBHvUC26G4sh6AIwiKAEKWlbb7im+KMvWrkMq7CHQvV8JF2gI9zEZARYICQjdBT+/pYnVxZYwdwvKWX+EoYxFsolgo5fUt78PsnYwytTBELMxDqQUulvpz1Sij+5Yfsxq9+WHaHzz3eOwiHAXWomAbUMgcqKXiMDsuRngtzLIZUfWj/rP3oqK8MEAvTHQyxmWE9IONI1XlCSfm1a3T+gSTs50LGZ46uzFmeB0Fktk+Z2XV5cbAx0T+6X48ccAeMa/Q0gdZif50asu5jnDa39d1MehDQ3sDNVpwQESSWV/DBM5i8Cbul/Q0VjeFlYZ7JRO7RFTyHgBeRGnLyrTVTcSaBeShkQqNOMMUdA094A0dIo3XboY8svkTAN4QUKa1gKknDQUYFf+8LVf8LlKNPOhpZfg8/saAIsEDraAu1w/TsWrjvDkP4/g+RoSap24iB2Sx+58DDjBUKCTfSDz4BTLZ3o/+wsrbjvkRvH2+1gMr5EBxOoKkZ/MxD8HUFdLoQQUoVrp96a27SjUyAcRqE28NGCJAckhSvhfzZsVX0351Lsbi4zLt85CLBA6Bx2SH8rQiFx2/Ffn+Yj+VtFxiCdPCC+CtHziuojviix/rXjMVWxH2aoB+HwZx/poEYFkrKaSBSXC/vm304fztHc6R+1HV5jdFHWKUTOA2SYpxoqYnmRNjXrbVvoCcgMgdCAo0Avo5TCBmUtF1PLLuxw43IDmk2ABUKzkXX6E+iOxZ9f5bjmXQo0zCQS4jAvQepBfiwQGrJ2BKgUyn2RqsI/v/va4zZ1+hHBDUxKwF5UOAGwfyfM8rFCSQvxmAI9BddaH3lGCISmCBOqaLLMTmoELtDpCLBA6HQmaXmDbl+8+RIBda8AjXF0OlYvmdCRSxFZILSccZ3vRUIqVEiFJYaqvPWuojFbW1srn9/+BOzFwTNhqN8ZInIKFCzSXgJvdWJMHLNAaL1NlJDOof3oWXAdSltfG9fQngRYILQn7Ta61h3FG8YqH90PJc4TSlmxB1vd1//huQq6hkA4fBllYla5NgLZomq9t0lJVOFxJYw5904fcKBF1fBJ7UogshTHCcf4XyHciYKEVT+LUZ1AaNdGHaUXc8mvbBk4Lzi15LXELkYWZ4+NStqTO72Cp+s6qe1ZIHRSw6TSrJsf/Sw32M13t22Z34Rys414quHOLhA8l22N35YOjwGX3nJDkZCkJRYzrldbHD5ZkgqldiqjvEju7Y6h7tu3d/9cDmZsJ+7NvEx5MXoGs7uFhFv1dRCy4AXUNTR/ztNrzUTbaHFN1xVZc6xJFbMSCzmLCy4hVM+FdO8R++xH6UZwAHC6oKepHhYIaQLZntXoJYsjMW6aMAO/BcRgkAvpbWmUOJ3Q+NKrtvQgeK9Jii97UiYIDgi1mzWifzcLQ3saCPhMWJaBaNTBp7ursPOgo1MkQsJA/wIDM8b3rN2UxlUSH6wvw9ubw0kWlLWnFQ6/VixrnhRSWUq9F3Xtn825fGS9L6aObF2mX1s9P9zvOjuvMWT0TghjAHTyIi/y3kticCSeJvIadATLBD3dEZdv9TUV+d+gSdXnJIZ0VBcHhvpNfALD9ksyl0dU3k+yp+z7sNUX4wrSRoAFQtpQtk9FoQXrBkhp/poErqqZRqhJypZq2uO2EQgxUZAdIIzt70O/HgFPGGzdHcXq7RWIeA9cwheOCeKCMflYt7Ma1VEH3XNM9O0RwBvrS7B8TcQTCYO7C1x7bh88u2Ivqmzp7ep4sFThYFXHZW9Mbt2atLq6jRIKpgMVfSTqInRv0Yh9yc/nEm1FIDrfOsm0fL8lciZCaX9UzY6HTYynDhUINRmYYk2Voi6bcSzgsUb8tzZ8sq2IN6C3iMo+2OUWjk/wEmjRJp2NnwvIQbpPCqLCNa1f7a4ovH9g0fbq9msdX6kxAiwQusjY8DZQGjXkMtPEH5VCHx1ioBMd6SMxa2sqIqE1AiH2eFIImApZPhO2I1GuUwiRRI9cwlfP7o1IhLBlfxV8hsKoAXlYv6sCSz4ogysJYwZYuGRcIR54YTcqpQODFE4bko0LT+iBh1/agv1VJob3MXDVGb3xh3/uxqGwCzeW4VDvfxe3VmdMU5soEOoGlVLYKSBvGOUOe7GoiDhvfTveb2oZcpyKbj8gWXGboWQ29EZEeuOkmuPwDb7qftHGqZAN/TIEhE9viARlZgEiC1S9HlrAOAUnw/X3h6BgzCtY8SlExWeATtBEAjL/HIjwHoiqT4+gWbd0WYciuSAtVuMPhdguqIlH+wkMb/dK4WTTYdtJO0touUHq3JpbW8HU+ZrfdV1xnX9q9JN2HC58qQYIsEDoAsPCS40c8N3tUOA7hhJUt6NiyxrfGoEQ9Aucd1wWxvTPgWkIbNkfwdNvHYQpJL56dk9YPuCRZbvgSL09rYlxPS3MOKsPit/Zh/W7bYzsbWDqF3rj4X/tRmk0Fl0QEISfXDYAb20qwX9WVmBEXwtXnN4br6w8iLAt4bgS6/fbCEdqHu6JQqEziYW4SDjMLNoDIpX7V3/AueXWS9ib0LJR27yzIot7jxVGyaMkoqdqHVA7/dYumyTVvHh1plLTaziphOl1ZSA6+m4YfadCWNl692fAjQCvnQER3gFn/D8g+lwGlG8EzByQvxDumlkQWx+ENLIgJnwA2l4M+uzWw7I4Emxfd7iDvgGj+wXQU484uAJi+wKIyBpP2MfkvabhgmRNRsi2DwDWAiHs5A3MmnFwe6IlnSWBRwwKX69/Fs/w7hmLHDMiJd1orLSfpFBC6srmDQMu3UoCLBBaCbCtT7/jqS1j4MMzyhBjYh8CsfyHrTlaKhCEcPGt8/tBQOJfK/dhd5mtd0VEJCrQLWDgpi/1wYsr9+Ltrdo7GGujkCa++8XeKC0L45n3ytC3wMK15xXiz6/sxt5y/YWjYAiF71/UH3vKonjmjb04rq+Fy8/oj11lUThSBywCL3ywB7tK4/2udf+2/YOteZwbFgjCEPB2kCS1PaxwVXDlY2+GQqHOPF/SvG53otJqxSmWvf3T6w0R/S2EE/sEjwfvevdPOwgEJ2800G0CqOB0IG+4R0ftfA5iyx8h3BJvKs4d9zCo8EK4H30bIrIdFD4IIQ9CL7N0T3oM1H0C1H9GxOJaTngKRq/zoF4+EaSqgfNXQm5+EOb6X9cTCEr5ICe+BhUYBrVrPihaDqPXl6B8fUDvFoHK/wsZHA53zN2Qq38Bf+XGuOVi/rnY0bpnS6NDgQQc5VxsTcGLiWXUs+IHgHzgCIGgREzO2GI++bJvoMsOlXSiYZYxTWGB0ElNHQop4Y5aP9M0fY8pUlmxV096vpZbJhAkThzkwyUn98aD/96G8tp4gNh8qRYIP7y4L557fyfe22F7gV9E5O3rcMUp+ejZLRtzX92D7lnA9Rf2xd+W78a2kth8sF6x8NOL+2Hj/mosfO8AxvUPYPL4nvjd83tQGZbQCkGQBHnuYR1UVvMw62wCoeHBVLMgI74NsFKIhuCEf8X7O6T35lNLCnMVKhcTRSfql7C3jVDcvV475ttBIMjjHwEN+grc7c/ALl8J8veEb+j3gYqPgTengeQBOCNmQwy+Fnj1FBhS721kAzqXkFEJe/SDMPtPBl4eHBMIQ34EOvZ2qJdOAFAFMfEzyHV3wdj0YD2BEB3wA5gn/QZy+QQYFW96t4qrAqCz/g3ICMTbFwNmIeSEdyE3Pw5r/R2xGAdrCDDkm1DbimGE17SJSFBCwFX+X1mTK3+ZaPXqpdlf9Kuqlxv66PGmYXT/FXZURXxfzCuKrE3viOHakhFggZCMUAf8XosDecLm+02JHyr9+azdbzptaZra0hKBIEli6qkFGFzgx8Mv7YZb+/0be0kHLMJNX+6LTzdXYfEaLfZjAkF/sc08KRv9euZi7st7kW0pfPuC3pi/4gA27I16AeQ9c4DvfLEf/vHWTqzb42DsAC0QeuH/nt+LyojytpXS6xs80dEFBUI9s5GE8lLQqreEEpeFigYeTJNZM7qacDFGWsFuK4SszKnJaeCtpukAgWAPvAk0+pewXxmMoO1CKQeRvLPhn/ASoh//Ar7tD8Id8G3Q2F8huvYP8AXzIbIGwP50NnzlHyA66rewBl8LuXwiVM5wiBMfhCrbAPn2xRD+HqALVsFd+SNY2/9WKxCkfk5MWOXNKuC/Z0DRoVqHgBp6G8SxP4b8z1gI+yCc0X8GFYyB+d9T4FIBaOJ7UNIFvXYWhNNGw5H8UMp+mz50zkrcFrr62cAgv5JriaKBBgewfoRoEQO/60hnmn+K+1wakltm9L3SnM6zQGgOrXYoGwqFTPv4a18xDPMcSsjjpgVCuo7mCwQFl4DLTszHmP5ZePDFHYjUbmgXEwhEEl89ozt6dAvg/hd2eR5LAdcTNjec3xflVdV45u0yZPkJ37+oL17/dB+27HdwXN8ATju2AFtKI3hi+QEvlmHMgCxMPqkA6/dUwpGALQkfbyrHFr0UsqsLhAQjKqj9jnAuvWfasHfTZdtMq0drxshS8R1L0oNCxLODxQMRa8SBZlJ793gqO333UkO8nYJzYZz5POQrZ8IIr/MCD3XwHSa+Bhmuhnj9Msg+E0GnPwOUfgpUroVduQHGtr/ArF4HZ8S9MEb+3POYKVkGd9croFU3gey9UFljIM5/C84H34C1e36dQIAFumwXnJ3Pwvro21AIe03T3ZVDfgxz5CyoZV8ARbfD7TEdcvxDoOcHwTjraSDvdESWj0WgemfbsfFMY5QhN9Kbzo83TrevGD7pz/qMqGpog1aJ/1CLapJ+6ZCYbU2puivTxnlH9ZcFQkeRb+C6P3psU35uN+tdEEbE1ma3Pt6goe41XyDE3AVj+gjMOKM/Hn51J/YfqgnIjwsESBTk+/C9iX2wbnc5ln5cAtO0cOHIbIzsl41Hl+/FjhKFgOXiOxf2Q9Ak2K5CSXk13lpfjnW7HLi6z4LQrxthdP+gd03DsGCQxKptFdjmCYTELHddY4qhqSEmhKhW0vnFnTMGa38xH80gsOkxBAYV+h6T0r2CIMlo4xd/qk1zgiNgXPAe3Pe+B3PXIkBEvHvZHb8YIncssPwEuNljIM57Gc7bk+HbsxxAtDYMwDnmTohRPwFeGApCGKQigIzdb07OSTDPex3u21fCOPDP2iZJ+IFLt0FuWwBz1bdrpwm8p8ioB6AGTIFadhJMWQ1l9gNd9Ami21+H1f9suFrIRFeDZCRh+i7V3janHKHczSrMm15eL9uoszTrX4aquqjJmmpSX0NIqdTTaz9yrxsT0tD4aEsCLBDakm4z6p5T/M5QZRS+5ZLRWycLir8JWx2QmE6BoF/UP/jSAOwprUbxOwfhaFWvCL26GQiTQFlFFIO6W7js5ELkBvRyJYVd+yvxr08rsbfE+5bR4cnwCRFzBJCE/rZSUnsg9BK0WKYnKRVUveQ1sTiF2kmWLhaD0NQw0NMwrlCuq9y/3TNtyLeaMWQyuuiep3r17plV8hwJa7yi2AoBir9EOxYMwTW7QU18H2LnCxCrfg6IKKRezXDaS1D+fGD5F6D8fSAmfgTno+/Ct+NpL3DRi96HhD3kZzDHhoAX+gAqAlJurUCw804Fnfcf0OtFoNJXYtNuSmcflXDPfB3ILoR45VSQKvVuJ0d0hzj3NaiKjRArpkMIfRf5gXPeAbKHIvrmhfCVvAciLWLaPsV01DZH+WdG9ZrN2kMtMX8Hcn6SikCIlSHlSLGsrNKe1uNqlHWsvY/uq7NA6AT2vWPBhlNJ4SUhRLeYz6BtXaDN9yDEIDkCGNdXYMr4PthXEcWeQ2EUZPvQO8+HFz44iJU7Y25NyyD4LOG96KO29LI8ahdh7NbW//KeRJ4YiK918IIZm390fQ9C4nNSUvWrnzr2JfOKxvCXURODITLfN870RxcR0bDYuKpZMdO2901q41NPDFpwTlsCw8yHeP0sL/lXJGcirLMXwPn0DohND0CZvSAmrgCqD0DJKhhWNyj7IOj1i+EO+jrME38LPN8D8AIY4xtI6cWJBeeBznkRZFdDuRG4MgpR/gGMt6fByTsNxrkvwd2/HO7GP3vJIs0RN4C6n+F5KsxDb8SmEEQ2cM5KoHQF8NFXILwpmZqgorZMMS1QLfvMzJq2fUEiS2dx9nWGqPxr6gLBe5JAkfEehaOXUhE4EVlqg7PZpVggNBtZek+4fdGmCZaipQQnp8ZzEHuFtt3DrqUCITZ9SxiQb+D4QQEEfQZ2l1Zh7Z5qHKio+/rwghMPOxoTCDGt0NKHUttySq+lk9UWy0SppFxlq8AX7y3qyw+9BpCFl/S60JL7nyBT9vK250gQlkK2dBwls01zfq9fXALusNthHPN9VK+9D76eX4BReAHU7hchV38fcA+AkANnVAimlFDRfZDhraDqHbBKXoeyekDpREmVq+pe3DUrfI1cqOBQQJggMweOmQ+4ZTBLXgdgIpp7KsTIn0N0GwcpfBCVW4BP7wKVvOTlPvBerL5BEBeug7NCT4E8BiInYXVj2zKUwrjfmGT/NJGovcA8y7Dc15sMwz7iGeFlXtRTkivD1dFLsoqwozlW4rKpEWCBkBqnNil1y1Prv2z5zfkmKW+v9LpnXd0Xd1tcOHXp0fDDwltR4OWy9xYpguDG/o7fxA3oA6ia39X2MjFnQOotqs/jaBII8RGg18FLscmORC761TXD17eF/btqnWqpcYWr8IggN68hh1OnEAixZAuwe18Kc9xjkNUbgJLVwK6FQMlrIFTG0xXVONFqphb0tGLNMt7mWEjfozoZU2zFhvbX6fcmUR4U+UFuFYSsigVJknZMGXC7XwTjjHmwX9arGjbqfeHrPHgtFuuptdkR/rfN6uqzqchTK7Hvg6U9+gMH1kEhFnjU0NFgu/T9b8KB+5npOBfSDNRLwpRai7hUUwRYIHTQ+Agt2HIBKSyW5GYf8cXdDmu1U+t2Y18T+okSf5glVtTkw+XwuhpOKpRau2pKHW0Coa735NJOMqOXzJo+7OPmMTk6S6slgW8A6kEpIlmN9bAzCQQlgpBGrt4JHHBtCB1+QwnZAg/rhDeSa1RPs6fbYveWjCtzIjehrsPvEYJt5ULlngoqeRW6rJfJpPbabelBEHqq8RBF7QFUBO1zjAmE5/UaRmO1ATeWVSplgRA/X/ngkvO56Trn0HTw1tFpfASwQEgjzFSrumPe2nMgfEuFUt28wKTDP7m7gkDwAg4TnmRJ28wCIdXxoct5W14rc2/Udi6bc+Wg95pz7tFW1l3s/y4B95OI+PUwa+z92ZkEgmeD2vu6LoagsfbrW6n+UszmWLE5AqGuXdrboNMb65yF7SMQPCgKIn8gTTpQb0rAWUJLDFKTWyIQYuf4IMn97FDYPr17EeJJIJrDkMs2qMuUeoI8lUB0NSNqewJ3/GPNSZbl+5cko2fdA+Sw6yZ92bZ9O2NXaOprormZgtvyy6S9eLTfdUCxqn8AACAASURBVGpEIylxUNjy0tuvHPB2+12981wpOt//fcty7gdcvftQ06E5bewebzmV+L2S6kxaCz0Ide1LmDNogkmtx8F7bTf7oi3GYduBU30zq1YkVuAuyZotUHVH45Wm8vzQe1/Qx/vD+Wf3KtpX66FocUP5RL2ajAVCe42D0KJPh5BrLXPIHKI3XGr0ecECob1M0mmv46Wp1l+gXuZFtd8JGxfNuar/h522wW3QMGdp7vVCVj1MkGZs1UuSi7BAiAPq3ALBVb6vmVPDjyda03nWV2Qo+5km/EMpjLDYAHGV9eK2kvC0odfVJWRK4WQu0gABFgjtNCx+NXdFt2hh/jJFdJLeprnJZ12XEAjtBC6DL1PrRdDBZy7tFVJdMKtooA5tP+oPZ7ExUxj0/wDp10mQlN7nuEmRoOceYjsnNnTUue9jKbv56DgCUhU+ZEzd+/3EFkSfzTrZVFXvN/5cTMWDUFej69AfjFXuj3knyNbZmQVC6/ildHZxsTI+MTY/K0lcondCTHqwQEiKKJMKCJ1YSkepu2q3kpFzQkVH/+qGA08gr3shsiMRf16UevQ0yFdoYWsfQ6IPyOpDCPSMCl9Pn3sonwh5CjJbAX4IEkLq9Y4UX1ajtwX0EUgnC9dr/FggdPS9o0i9R2F1Rr2VDP/M7gOneiMgG1nJ0DyBoPeAsWXw+9a0iod574aWW5wFQsvZpXzmnfM3/p8SdFPMRxqbWmAPQsr4Mr5gzJOgN7/SMw7mTrey8qTQtcM5WrvxkUFqLsySgoKsal//vDzT7RaIrutFpHor5eurqFt/g6r6kCrvA0E9AcoHRB9SekODGgHPXoa2uvEUiUOl4dzB3YtKaoMJ9Z4Mym+uJtAIb2fLI45mCgR9vpsNB/YXrenhV9uqL0d7vSwQ2tjCc+Z9Pt22fM8oFfN/1gT+Nznc2YPQxlbpmtXHYhIA4YoNFTJwyn1F3TlauxWm9KIatA6YB4EcmK6dfaWA/QiR9HmeBj7ahICCAZJiOE2LbEi8QGRJcJ5F4ZkNB0y2QCB4OdiCZdFq55RAUYRzirTAmiwQWgCtOafMLt76dcd0H6vZjJEFQnPocdlEArWBi3p5mlKrum+PnHrTTSPiSfSZVToIuIuCNwvDvo8FQjpoNlIHGXAcY4I1Pax3qao9IgvFLT6h7m0473rLBIJ2uykEPqDSY86la1dWtmGvjsqqWSC0sVlve3rd6YZlvgGqv2aQPQhtDD4DqicRfmv1Ux+eM29eUW1Wuq7Y7eJiGJfPA2heXXa9jupHeXFOz2DA+NxQFfmNR9R3VOuOnuvaKut7vqkVDyf2KLwk71Ifyp9rOOVyKwQC+RAlPBy4rPp7Rw/B9ukJC4Q25nzPgk/6Riio3Vv1MsCxQGhj8B1WvVuhhPE3ZbsfCbL9JG1yrdwsKSBIIougDEUIEshQRH4pXVMAAaVg6Sz5RAgoKIMIQUMq4ZA/IBDVjqeAl6+a9N+e2PQrUuRz5b/vuHzENR3W3VZeuPrZwCC/dF4kUvkgEQaC1UoZYSBa4bqV5QSUQhSUKmUcFCg/oJxICQQORGn4QVdUHMqJHjoEu7pq+x6EB5SFIhQKtWpuYNNjEwKDur+9TiA6oJVd49MbJaAQNfr9j/+yHbclFlGLfaNB9pqGhVnLBYKXCoqkbdvGtf7p0afZMKkTYIGQOqsWlQwVr/G5RvZWIvROrKDpDZOSLfhuUVNacFILb8oWXOloOEVAbZYR9+LQV4bW2862NX0LhZRYM3oeFZQMEyW7gpQ9OEsM0RUW+kVFiSAjUGneV3RMl4xF8L7W/c4/DXJOrVt6WBfCq/Q2xzpIQCgv41/iNh6KDGWQdEgqvWN4BISIQnY14FTpLRAlnEpBRplUgTKCXQpll0qglISx3zC6v0+X7mlwueiBJ4bn5eft3yBUeSF7EFozcps+1xY5X/NNKquXC0EtzS1UsmIrQTWwkqE1zyIdu+PtJb8z7OaeFZxWurntenZ01cwCoR3sOWvRls+gMDJ1gdAOjUrpEq25KVO6wNFUSEo4X5k9Y+gzR1On2qovqrhnjmsdLBYQF+v9AJpc1kOxlMANHZ7Qrl1wkHy8etupUzACYT9qXBY5wuVcsQS9g8JYL6TKaau+Z3q9Cr6NFcI6LW9S+f5EFmuK4RvtFx8D8rgjGSW3bdNcY44lJQPPz7fDk4sSNovKdHs01X8WCGkcHZcXK2NQyecFv7txZL2BP2vhltcAnM0CIUZAP+u9VemNZtWPl1MUDzPvLB6VxgcLEUpKDjnD/ve6oaVpHFJHZVUr5sIa1zfrEUuqrwOR5BkSdaKoxH0/4lS8/QvqrUZM/SUiSSgF/1fNyZX/SISsFuEYZWINSfInb1h7mSf+BZxSgqfOcq/EE1d5O0h67h9XwSwFxNtlTuCm/BmHNjZEz1nse9Kg6FfSLxBq9svOdm0Z+b5vuv2n9rJeV74OC4Q0Wu+W4k1fNmAOuqdo4COJ1d65YMM/FJlXZpJA0I8E6UVmespdKUVVIJQQ0UEJdZBE9QHl+kpAKANE2AWqdEFB8BOUX4FySckC5aoeJKiHAHpIhQIhKFtCGDFtoetXSWRGGg3cdFW7D23BsN//ZGB1u12xC15IKZCzyHe3YZq/JKX9AvoF0hGH9iRkradJ5SOJ6rKXRRdZJxqG+76IxXm07+G9R70XvA2oMgXzIEEehFL7XQQOQoRLCa6OxNdjLLbHOhCUZGYrMruZyukOhR5Kie5EUv/JUwoBLbOTifGWd/Twuj13UJkiYw+kuUWRs0YZ5ofSrlxdYQ/b1L1oY5PTYe4i3CkMhI68qdNnDqXE3mrynZQ9pWpny/udGWeyQEiTnX+58NMeFoKfCIUFoRlDvptY7R3zNs8hg27PCIGgn7sKZaRoJ5GzWkr5jiGc96qqnHX7q6r2P3Lj+IayoCS1wuWXFxtjpp1QEAxiWDmCp0CJ04lwgqXcAVIZBXrFc9JK2rbATrhlQ0NFY45444WK1+QYrjExIrJOEHCjAuQKYVdFjKhUSoRBQkI6YUWGXr8YlrBc8iOilHAEpAtbOq5luOQ6ts/JksqsdrIsS0Wl6/gjgGuIGFPXdqoMv/RV25Whq0eUtW13W1a7etb6FmD9ETBMKAeeB6FDDtJr5Pctf7+i3/kh6IZ4R/XSwgk+VbJM+xfa5VBkS1L7FKxNIPGBK/F2VAQ/DquDW3tOQXlL27Bzbr+s7r2cvhCHxhjIP90w9o9XUo0QSvSun62wxeLBVRCVgHlAktpJ0veJK8LvI5r1fqVB6wumlTbbkxYKQcw60VxA5Ew9st/pvL0NQIilNCkypQ2VU0tN16nOY4GQBnPoz+M7Fmy4j4T4ORG9Nnva0HMTq521aMs1BPICclT8wdN0kGIaGpWWKlK7KR3Sq4jkLkuZb0hUPVO9Xyy/78b2CZy7v3hbsNxwTwfUFYCaCGUMUCQaSdeaFiiNVELbdu7ffczhAij00Joco2/u665SJ8Smy71gKW97XSn0R2DsqMmTkayFsa9BfX7MlUyJushbH6Y3Z1WbHbfq3HuKRtbbUjdZ3W39e/vZbhMFhZ+DDkJT0ttBsOElbW3dEo+49nBtFB/KERSq8yBULh04NaB2LRJtlShJT20os8w13HVCWksd6V/k61byKZ1fJ1Laqvcad3hh30GGVXkpUfUMATVWyEAPUKSJG50kSFYryHJA7VHk/8SW6m0hI+/sqhz7+eCvripJV3ujz3bT+zG8Q3Ab31QjHRcj7Xckx3XFpda0yL/TUeXRWgcLhDRY9tb5G8dZBn2oIIUg2haaOmxQYrX3Ldh0ekQYb0hAyKNAIJDSbgLpQom9powuCAN/uLto2No0oGx1Fbcu2NzXkM43lTC/TmQMNBR8ra40SQXei5/U5rumDRxGVH9W/I75654xhL+ooQ2ClN6psZkCIVacoG2gD9GQ4yQW3/EGnPIvh4rGdIptb9WiwBAY5ocw3Hzp6g/22J4IqUnQtrCghCvxjjEVZyTm6o8uMr5uGOqxtAt46a9SonqNRMH/7T9UsrjPtejwpD0qBOGcnDOBpHOzQfIMJZQfZFYrcg8oMtcYUG9U2z3fCMqta2gamu0RSGY1Tx/Og4WCgmCkuuocH5mPk1QF0HELbSXQvNtH7/vlg6LINgpPH0pF87p0HpFknFvzexYIraEHILYR08YXlaALvAc2ZMWd04bnJlZ7W/G2/qZJn4NkVlf2IMRWCsGxId90VeTme2ce+04r8bXp6aFFm4aQskJKet6FQCzPvlHzSo7/3fqgrphAwMbZ0wcOP9xledeiTWUkKVfHYxx+eN6E+I8bi9JvCFBMgjQhEPRv9VvPVU9izaPXhlqZG6C1Rtq0DIGBlQUbhars60kX7+GvOlggaN+F+ZyYEpmU2L/wQvzEMsTv0iFcXMpRBspLoKzf7jlU8ECfa/d0uChozJbLQjBPGD0su6BoY5kOL2ytzY8Y61oLzoNZBuRkZZnHQcnzSIqJBHmiEjpuwiBTjwudTtz7iEp7ExKapIM+tf0JNvJv8U/ed1+6+3u01McCoZWWvGvB5ksh8FzNi18phO+aMVQnRaod4Q888Ly/tN/oTa4h+nZFgaBdwVLfUDI6Nxo1f/mrrw4qPTx+vJUY2/T00GPLApTV5xph5PzGFdSN4EDV+vRb/yrQhpaEtXOmDzxiedacBVsqpUJWU1MIcYHRIgYNehC8mrT8iOpp/jmzrxg+q0WVp+kke7G1UpgYC3lYDqMO9CAo0okTCv8cnLLnhsRu2kvEHIPo9ob3A0gFiBZuAkrQpxV29g25K0veTJzCSKWGo6HM7sd7Z+fml480yJhAMnKBYciThJNVKIUrhKgkPXERG6V102tCb8LZzocEVX+42+02/sYGd4hq59Z0vsuxQGiFTUKPbQqoPPkekXF8jR5QMBw6WN479K0xBxOrvm3hllUm0fFdSyCQfpHKiJAPBigvFJpWoCOQ21Lat8IayU/9cfGbwWzR40um8D8KRd1jXdEPpdZ5EeLfO5/NnjFw1OGtuGvhlkql6mfRPOLrqhkxCIef27hAiJcUEYds9Y07i0b8PTmh9JbQLmw5PvgPkihSho6mPIxzBwoEbfOwsO4KTgqHEnvtLM15UKjI98lL0pTqURfo55B4K+L4v5NdULmmPeIKUm1hW5Xb/fi4bH+3/ccGUXYWCZznc91xtnD7mCLq93bH9NRS/OraORDXAJ4zTzuROlgg6AVRYdf6W2Bq1TfawnPSVtzbq14WCK0gPWvh1usE8GjC56gXI4aI+4XQVcesSKz6jvlbXiaBL9b8LO1znK3oR8Onao1Pi+1I5Ef3XDV8W9qr78AKf/b47uxgTvgKQP7eUFZea5sSEwi0cvaMASccXtesRVuqFBCsiUzwQgzTKrGa+uqKP4VJlLmR8EVzrmrfKaHoQuvHhqHuh4hnRKyB470lYq7k9v9mrGkEIULujYHJqLckOfps8O8muVeTrF3YkHR4KPJW3a6Wyv+9zyMVb48p6rC1m0nb2tICXu6KXtYYVww41aIdZwpY45Qb7iuEyFVe5kPX8OSfzlnh/e0lwKw7EkRCo23oiIVIZABSygoZ7Js7vYK3UD/MOCwQWnjH6KVrMLPfh6JjE6vQjzwp7evnXD7sL4k/v3PR1scAfL3TexCUAWmo9ZB0g5jef3lIOwOP0uNnC9f3Cir1SwO+7wKixcGMcQ/CytkzBh4pEBZvqVKqIwWCF5CgYxK2KNs5PVQ0dHd7mNNegAtMy3gBUKY8fAh1AoGg55+jhjslcBmeTeQhl+YsAaKTUxUISomDDuX9/OChg890hsDDtrKtmgsr0qvXdZZR+oCC9AsyofTeWvF4AeH9f1z3xT/Fu4xA8EJmjWfEB+GvZOJ0UFNjhgVCC++oWxbs+K5PyIf0DVL/q1DP/YpH7pox8MbEqm+bt/l2wzDm1HjoO58HwfP32bYQ/5fjK/mfX142Lm3Ll1qIuN1Ou2P+ptMUiT9AGONN2fzPe32GC6y4e8bAUw9rNN2xeEuV3m82FQ+CrqcwFzhQEUszVXs0uQayqW/wus+2mBNcvQu3/JyGcjWkE3ZkYc4on1H1FkDddGDokamsdBR5ayd2Wt1iVS1zTs+aVvZuPYHwbM4yIDIh2RSDjmFRUjweEebtWVOrjyoPW1Nkwy/mDRe27xGTSiZ4e4opnYIjPs7iAkGfn/C/sepSuq06wp8Um/ZSZLkRF8OD08K8T0Oi40epJ/TC6SeI6OpW33IZUsGPi7cFcyysEMDomnwqdS98BSL17qxpg05PXPI2a/6mq0DmUzXT3Z1NILhCbSVHfnv25UNeTPV2PprMffOjn+X68rN/KiBuFpDNyqMQD1J8b870gV9IZBIKhYRzwnVVBOj5WO9oaIrBW8FACmcdk4vzRxfg6bd2YeO+mnxL+nOsqRiJ1B+qOs5UqegzoRnHXNVWtitfmNMrx1LLIaPHebLJ6/hhb4eOcCUf1mFJSh6gocf1mrRxXX2BkPsuED61KYGgIPZJV33bcNwllIE5/Zctg3lumfgxhJgjlOM/QgA0NFw7rUCIW58MSDfrr3M+PnR9KCEvRlvdJ12lXvYgtMBSty3c9DUhrMfI+4yIVZAoEASp/XLlxr6h0Pm1E5mhBdtPd5V6g+JRZTWJblpw+bSdojPMShh6Vf1Lygp/667Jx2xNW+VdtKJQ8fqJJPxzFanhdUGMTXcmJhDEG3Om96+338YNc1dYvXv11NnwGhUIXpikBVw6JgsnDumOtdsrMKRvFv7y6k6UVGkvQvoEQkygKDcs1a33Xj741+k2kVqKLBdZTwuqnqQT7sYUUQNvhk4gEBTBqTR79cu9ZPe+RA7u0pzVpCJjjhAIyvTgKVIvh2nodVmTPu9USajSbctU6rMXmucJkx4ncgeRXqKYkghoqubUxW4q7WtWGR2LQKYdjvpHBGeUbmnWuUdxYRYIzTSu3pBplLH5LZCIu5Njg7qeBwEkC4IDsm66hGrzyIae+HiADBasBSm9BLLhBDfNbEtrimuR75JSQuJh+AfeHJpE3l4IfACh4k19YMk/Q/kv0yl3kwVheAJBiNfmTOtfL4PmxQ887x8/cIxOeexr2INAyPEDl56cj2E9A/j3Rwfx4aYwLjm9B3oGBB5/Yx/cpGsgW/JQdR2Cc9GdM4YvS5e9i4thzAiIuyHkLZ5DpClonUEgAPaOiOw2sMjb18A7dKrf28f71wsph9YXCFoZmLZyjd+K6ZW3HZ4MK10Mu2I9VYu7D/QZFU8L2Gd6ybtaleCoJWM5TdQ8gSAglXWPMbmiXlr8NF2hS1bDAqGZZrt53tovBg3/iwoUTwfagEAghcqSbXm//ubZtbnUf3z/m8FuAwesk4bq3xkEgk41KkX4ts/sD343r6ioOWu6mkmsaxb/wfPr/AWR4D0m5I+UEkZNcGlDvfFiEIhevXv6gNpVKrqct6zS7HeIiKyGBELvHIHpp/VCzzwf3l1XghdXHoIQAt1zLdx4QW888MIOlIfjXoRGMbbkoar0YptwdeTQmF99dVyDu+o112rRhYGvmUL+FWbUa1CnFwiEyPy/y+yieXoeJHZsegyBwYXmRoD66kShNYdSwVJb+r7jn17ydHO5ZEL5vcXIKfCbjxvAVPLWsrbUldCSsZwmwnGBoBQOVTrWsbyiIcaVBUIzx9esRdueh8LFh59WPwYBOBSJDrr/sOWBs+dv+0CSPCl2bsfdDIpU1Haj1//P5cP12viW3s3NJNf1ius9NuYs3HC9hO9BgBpd5RCfYnhpzvT+FyX28prffJw9ZHi+DvY8QiAM6eXD1FMLUVVt46P1hzDhhF547oNd2F0SxRdP7I3hhQH8/vmtqLaFl1wudsT2YUjX4SC6zaXoSfdOH3WgNXXaCwNnm6bzAoAcpLKlQGfwIBBVi8mu582rOUoeQ363HqbeNCm/Zu5Qwrc9HIlOy55p11u23BpeR+O5ehnkSb19cwXE10DhFj7cWnha2oBqqws4yviGb2pYrzrL+IMFQjOGQOgfn/WTgezPAOQe/lo9XCBIxz7nrqJjXk+sPrRgw3OAeWmHCgThOqZbfeXtM0ctaEbXM7roLcWffTlgBhYTTH9DngTPgyDo+bunDYjbNoZLBz76uwd1wiyzngdBKlx0Qg6651hY+N4hhG0XYwfl4LIT8uEzDdiOxJIPSrBmewV65AkM7+3Dig1VUErnnUmfQNArJSTUcuHzXRKa1K9FU0zViwJDAhb0OO/viYNU8gd0AoEAiEqa4uQkDuzKJVn9giqyDobI0q8KBVpH0ewLieekU7r/dWIs9yT/QwLqRoLdAk9CRwsE/bnkAwx3FYzBp9Il6ztqq9GUeLdHIRYIzaAcWrzt1xLi594822Hf3YkCQT/DLeXceNuMYfWSsMxetPkhKRHfCjrxZkjnQ7/hDumAREWG40Srrrj7ymMXNqPbXBTArQs2nywUvW42sFNkfBXDkjnTB9bbpvanT60tzMoK7tIT2IdPMWjru3AgvCQ72jougmQjPy+Ag2VRRMjE0IIgrjijJ8qqbTz2392IRPWsVnodPkIqOIQ/firf/kFzp5r2PtQzp0f/Q28Kg8bWbL7krVxIdqS6dWWyelrze1KHaLLKT6yifOHgUTnG9o8UWfot8WmlSeflXlJRL4ixNZfMhHNjIkE8IpT1TSK9BDJZBE8ilU4gEOKZHV2Ic6zJTr0PvEyw3+F9ZIGQutUpNH/DZhjmIKmnB5IIBFJq7p0zBn87sfpZC9b+VJDvt97Par+i0us2bqg7OnjIFZAGnJvunD7kodS7zCUTCdzx9MYTyGe9JRTqLYOML+RbMHvGwJmJ5UOPf9zLyc3fSYDRdB4Eb5fm2lP1lgVnDM3CBScWYsPeSix4Zz8cx4DSu9C1yaHgqugP58wc/kCq1ev0H2pJt1cg7PNJ6Q+t9AqXVNvR8nJqD01RfRLPP7R4yGk5tOstAtaRP3IGfRn10qW3/FqZdaZaNsF0yt+fZ6iKqc3bzrutxncz+SsdsOh7lKZUfquZZx51xVkgpGjS24q3nC1M8R/yPvniScQTzq0/xeBtZfu2WvX/zkrcSW/W/A0zhBDz21sgSNLfqFUP3DX9uB+m2F0u1giBO55ZfRaZ3V4SSBQJCi5Fn54zfXi9/AKhf3w4xA30WA+dUaaJPAixrEHxAlLh4pMLMX5ILt767ACWf1YGB7F42LoNptrAPApSOmr67CsHLUml9uizvf9uiZKv6paTVjStil5P5YrpLqPW0xQ1IrHW8LO4WID+YKmsM2lK5Z50XzGT6lPFyFE+8zUi58TU+91JBILXYCqFFTyWMtyDxAIhxdE7e+GW5xwgPsd85Fd/YuIjb6tdhb1wDw1MzFoXKl77BVi+tz2fcrt5ECQkuS8d7wy9uKiodnV6ir3mYg0RmPX02othBBcKQYGa30uKPjl7+jH1ko2lLhBitRgC+Mq5PTG0exCL392BlTsAPQXgipibltp07t7b/bFC2u7EOVeOfK8py0cW+WZbwr0tYRB3uYGiKPChmFx1cmLD7aWBCY4T3hycBs6mlwaLVi4p7BdE6WqCU5BadZ1IICgBl7pfbU7Z+2RqbT86S7FASMGuE0Ih8/wTvrbXVSI+0JMLBEC5AaOy4BdTjqtd6hhasG4Akfk5iILKS5/nPfbTHHhWv0NKyfXhA874+248Ru/EyEeaCIQWfP4VEv7HlBQ+L0jRtB+9e8qwei7J259eNYr8eav1kpVkqZYNA7hxYl/kZhOe+e9WbC01IJUJnYfBia8ZTLpzY2v7phQUOVst4NzbZwxrMFlM9ULjaz4h/yyIdMRklz1cCv7bnFz5pcQO6GkTre27bKc6YcOj863xloF3IXTQYrKjEwkEb7dP/z+Dk6ouS9bqo/n3LBBSsO5d8zZfDAPPqdpJ4NRe6hHX7HVvUd/aIKf7i7cFy4VcB0P1bwuBEIs1cKHIdIRySk2ptpIhv3P7tGH18s2n0GUukgKBO+evv0kYgfuVgiEN58+zpwy5IfG02fPXjLGNnJWpCARFhPGDTUw8sQ/+8tIOlFYpnZ3Rm3lQcXWhs2+6Ou+lcFGYA5QcApza36Xj4ao9FXq6gN5BePdFoatP10meag97iXmuIPdfgPA8J1q8dNVDSuMpY5r91a7a/q7Sbi267MXih8JUvzeS7nOSjjGcPjKuQnnUzR+dNePg9vTV2rVqYoGQgr3umL/1JdOQFzT7pW5XjAxdOerzhEvQHQs2LTaIJtfl109NbOg6dCxBbGso2ERUCmAnOdEtZPjWk3Q2uhKbhVG1S7n5+ynHX4p3V1YlpntOoatcpBkEQiEl1Jgtc4QwbpWG88BdU4fWi/GYXbzyFNvqpt31lMyD4AX2C8LFY7Mxqncu5v5nJyptwwv+c8iET9ronWtizOBsHNc3iNyAiX9+fAAfb40lAkyPdyEecU4EV2KhsXrDFTXjp3w+xmQFxDskrWwVz3XQpQWCK39vTMdPmmFuLtpCAjpHwol9Cl4zUHJa01V0LoEQe9Aa1/sm2/V25m0hhi55GguEZGYLhcSdx193SAjKiX0w1exTltxjJmX0gtmXH/NK4iVC8zeMV0QvEowesZ+TpxXqfYspbz/5Q4LUbiixDVCbIbHJcZzNZPh2KDi7bew/uBGnVMzjuIJkFmzT34eK1/iU6fsjgcpD04f/qJ6ti9d8wbVy39bRhfUmlBr88CZvtkkIiSvP6IWIHcWiFWXIzyYc19uPMQNyUJBrYVdJGNv2VeH0Ed0xf8UOrI2H0tUKBG+XxORjs2Eo9ZakKZPc398+fdhPSxbkD86zyt4hZfYG2V4ymZgo6ZoeBO9+U/JmYwp+06aDgyuvJVBe3KdnTmDPJkBlNz6J0/kEglLWUjE1MjlTTckCIYnlQ09+fiL82e8T6e0WmrOmFzCU/f07Zg47Yllhm0QlAgAAIABJREFU6KlV4+DL+xkBoyDEIaVoK0htdiU2GmRvDcPYHqiO7sf6JysSV0Fk6iDt7P2+b8lnuZXh8JmzrzjxX4ltvWXh5okWGS9rt09ygRCXi0QIGhJjhwYxqncW+vYIeNMMpREbz767FztKJaaM74FgQOCJN/bWXq4mgFGLAy8nfquO2DgXStp9xSezvmFMvwbkjj58KWOXFQhQiFC/a4OTd+hMony0EwH32Z43Cdr/eyglGhYJnU8gSKH2lZfljcz/6iGdETXjDhYISUx+9/wNjzrC/43YrnrNEwgQ9iOhacNuzLhRxR32CNwyb+NFlmm92FyBoM/tn69wxrF5eH9bOarDhMvP6Il3Pj+AveU2Lv9CXzz23x3YXa7zcegxqbzNwvSXfToFQgCVmGrejGPoOQjPa1BfeHRZgaC3tHSHX2hN+7yed4+HbdsS0PEIzou+VabjjkHCXhd1V+18AsHb/hQ0zZzsprT8t20Jtn/tLBCaYK636x3Qu9s+R1rd4t933l/6Cy0VN65D9Ia5sv+5oVCTW9e0v9X5iu1C4JYFm6dZZHhZK1P1INQ1TAebxlz4BIFj+xqYfHJvuI7Chr1VeO7DErh6vzCS6JbtYuKIfCz9uByOmw4PgoKpbFzouxen4lEvRwPJTvjwbqEVlTLfomj0HCpKJe1jCy/CpzVIwF4YPMO05DJI19+8LIsdB1Qi68/GlIp6Acgd15r2vTILhCZ461S52UHfvpqZ1lo3booCwSV3d4Wzc9jvi86s3VI2HebVwXE4b7MP+8ysAKI5lUL2MAgDbbKOdaT9wn0zR6xJx3W4jtYRuHXRliJDiWdaJhBk7ZaIsbV3EpNOLsSxvQKY++o2VEZ10KqBwQUWvnJWH/hBePr9/Vi7I9L6pIZK4GyaiwnmPTA8bavdE0eHQFCwNpaUZ5/U4+qD9VZotM7SfHZzCDjPB140bPdLKaXlbk7FbVQ2SoHVvklV4zJxCSwLhCYG1S3F26b5LLlQrx2o8Ryk7kHQE89KhaUcfe/MoXqDp5QPTwCMhhn0r/WXRoyAAbc7DGugodzRJMyxDuh4g+Qww7V6KKEMb6kbEaSizbaoGvfrhNwLKV+UC6adwK2Ltn7dUOTtCtd8D4IWCHXpFwuzTXxzQm/8d20Z3tpQ7gUInjDAj0tP7o2VG/dh3DH5+MOL+1EaTszymRhEmFpcgt4V4nhahsvM78BU1RBe9MTRIBAEIP0lMCvPpElo1v2Y9oGR4RVGiruP9gWqVkDZ8ZTlnTvYVSG3KhKJjAoWhbdmmulYIDRucfrFwt0LfAhPqwkxq31ep+hB0F9+Es5H5FR+MVQ0pjavu95GeN48iE8AoyK8xxKivCDHosGOzzdOOdGTDWGMM2AMhUD3CKRh6ZgecgChszwrqPh6Yh257u0DoMMjhIDjymvvnTGYA686yV38ywVbbjRJ/KnFAsHrh7csAZNP6o6+BX78edkeCAGcNzoXpw4L4rkV+zCsMBtD+uTiDy/t0iIxnnFRQamajZNSWUrrbTmFfrQSV1k3Ikvth16xUJshtNUeBO2B0LkdapZkprCpUxrtqJfj23ZWkX9m+eI0VstVtZCAXBp8lpScpGf4O/9UA8EWuV/zTSp9vIXd7bKnsUBoxHShZZsCdmlwt4lIt5rQxJYIBO8NLqjScsJP2BT51BWBMVDuCSAaCmF0F8ogkt4y+dpPPC0ChBCxtG7eUjL9YNUeCRkTBA0IBFPiQKV0jrmviDMmdpa78fZFm35Iyvzf1goE/RGf51Polu3HrkMRfOWMQvQtyMLj/9mJveXAj6b0x7srD+K/m6u9QWQYCqbpoDpsxAdVcoGgRWa2uQM34BrkYV1tmo50CQRdv+MfDmXlwFf+UTuaKC5MFN1pTHVmt+OF+VJNEKhcknVSENXv6I1v07uFeVtgJ0iBJ41Jbr1U6m1xpc5WJwuERixy61OrelOwcLcJBzUJwGrdxIlv82ZZNL7vX71zkj+8Y8UbX0GhazUgfzxrxlDvZcRH5yAQemxZwOk2YitB9Wz+FENNH2rGjM6gaOCaCd2RZQL/+O9eVEQUCnKB717QH//73E6U24Qcn8TXzuuHg+Eo/vHaAW9fsWTpvHXbTFTj6+Z16EMfAF4ipNgXfuIeIy2nGoC0AqBz34S99xVYa34AOnxFUKs9FI21TkCCnhYR+2oOSmy5BdN9prc92WJ6lUhNSDY+033t5tenY4CCq8SUinHNP7drn8ECoRH73fbMxnOlL7jcB9tz29Y8Zr2/O5lAgBCObVcNuado5I6uPRyPvtbfXrx7KJnOxwSVW/uqbtaUa31R2SPXRFXYQdhWOvEiLjw+DyMH5eKhf+5Cv54SRV8YgJ0Hq7Hk/T2ojOpdIGsEaOMxCEK5mOm7CcfipfjqnESB0KzGNmhAhWyoc18BqkqAj74G4e6DS0EYqKgLqGwjgaDI935JWdZEDkrsfPeW81zO5VI6xZbSeeE680FQhnXwgJszpOeU/bV763TmFqerbSwQGiE5a8GGO8mwQvoTrC5hXCySu+UCIV1mq1+Pq9wFxuq/FXFSpbbh29paZ83b8EVhWksVRDC2s3NrXro15ypYgvC9S3tjxedlqHQkvnx8d7y3sRL/XaOXO8qEDJ2Ne6n0ypyLjF/hVPpTfMVCTW9b08Y6YnqlhTrpn0Dh8cCrp0GoXbBzT4c57mHID6+DWfF+rHDt5VL1qKViFWtPxMY5gZmRdamU5jLtS0AVIyj91moBd1j7XrkFVxPCrUbeOVmTDr7VgrO77CksEBownV5FIMduWg5hnO3FcNc+vDqfQNBhitWKTr935sB3uuwozICGz1q47XpB9JBSsFonEOrep72zBa6/qDdWbyzBmKHd8cJHe/GhjkNQMc+Bqk2/0fBLV8LE6eIJXEi3QyAaX7GQXmM4Igc04i5gxA1wN8wFbfkrxGlPArv/DfHZLBCqoZSOlWhOQGUqbVTRiPJfGpgafjmV0lymYwjYS6zfmXA7/54YZEJC3mJMdu7rGFIdc1UWCA0JhOK9OcqKbFMK+fU/b+JTDSlPMdRmUGgz6zpCVXTL8vX5+Zf6VLbZRbjidBCgWQs3zyFl/FIH8re2Qh2RcuoxBi4d1xthR2Leu/uwYX9U502Kr2JI/Cw/UiC4QuE4egczcT1Moff90o2KT0O0OlWzrs2Em38yVLgKKvopxICfgY6/DXDDkPtfhfr4W7DcKkgjH2r4zaB1v4Jwa7LZprYks3GGFiSM74rJVX/KxLXrrR1b7Xl+dHHwNBP2G0RS70zWeQ/tCYO1REyumtp5G5n+lrFAaEggLFg3QMK/rS6Dfv1CyacYYpkT6raWT6fb9LAGG/ZfQlOH3lC3aD79g6Stahw+fHieEQ6fKaUcS0R9QZQHIKyUKiXgcyj17uc7d65NdECn0pZBgwYV+IGCmrKG6x76bMeOA6mc25ZlLi9WxihsmUtCfFOvUGnNIYngNx3MOLUQL68qw76KKGJ7fTaUSfHI8ddLbcY11pUIiF3QYXyeQKidvWjNeNWj3kRkyE/gP+5ncD+7E8bWh0CuD26/KyFOvB/OwfdBK78BEa2CO+5hULehwJuTYEb3J2yG1jI6sYgN649id+SHdCPsltXCZ7UXAVUMn8qy3icpj09w1bbX5Zt7nU9oihzT3JO6cnkWCA1Yb3bx+lMc07eiseU3jQmEGlGQFTBhGQrhiIOIk7j7Y+teCg0NNKHck2fNHPJhFxqE4riBAy+USn0HwCVQykrS9o9A9JAMBP6+fv36SCr9HNG//20E3F1Tloh+u3b79p+ncm5bl/lx8ZvBXNHzGSGCk1r9QNQiQye49/JtuF62xeQCgeCng/i2WYRu4rN6TUiPQDDgdL8AOP0Z0MffAe2YByH0ezqmPuzCS2GeMBdueDfkobWwCs+A+9ZlMKs/iaNvqTiJ3VuOQW+UVDlf7lWkIyD56AoE7EX++wwRvTmV9PUd2x/agw/dfhRq5q59HdvoVl2dBUID+GY9s+kqWOKpxjzBjQkEvx+45IRuOK5vDgwBhMMOVu8sw+vrK1FRqb/StBctrSLBPeQi9/dFA9OayrlVI6qJk48bMGCsVOrPAJLsC39kJQpYrZS6dv3OnUnFUGcWCLpntzy5siAYyHsOZJ5Z09NYvovWHKlsJEYwRSWuUT/FQOOF2EisSe6ReGlviqFl41RvGOWMfwZEFoz3rwCJMKToDdV9PEj44R74D8h/LMT4v4DMQjjvXgur9N8tvl5ts5UBqcQeoSLjaDrqtrlsDVI+t10I2M+aE03lvOJ5bNMyvdVGzSZUVYR7Dckt2r2vja7Q6aplgdCASe5YsPkekHWr/i5r6GhIIBiCcO3Z3REMGPh4QwUqHRcDe/gxom8WbKnwt1d3oyysMyK37MHbUDsk1Adi1V9P7QqrF0YOGHC1VOpvFFNJ9V5HUKocRDrTpJ6EzgbQPf6n3lw9AVUAJq3dsePVpu6kzi4QdNtvK17b37JyXhFKjtQTA20tEHQGQ72c7DLjNxiLR2HUCgNvWcVhFmm5QNCi2j3xb0CP8xH96Lvw5Y6GGPE9wMyFEj6o/W9DvT8Ttq8AvuBQiP0vp+WeUBBROyLG+4uiqzrdU5Yb1CQB9WJed4Ttz0F2j06eVVE6SpxjTXXezBSTskBowNKzFm16liRNUlTzfqr/Um9IIAzuYeCK03vi//61DdWOH0Su5/7Ntghfn9gbm3f+f/auAz6O4np/b2b37tTcqyTLsrFlYwPGYIoJYEIgCc0VO0AIvaRBkn8glSIgkIR0SEIgoRoIyA3bQAIJvRNsqg2WjatO7rasene7O+//m7076dRPd6fqG0IA3057Mzv7zSvfq8HTH1fFeKfFttlx0OAS47JzzW3nFv65p2/WCXl532fgD03GGQDwusN82efl5duazuHQIUNGOl6vpo0+EYA35vc6Gzhyo99f2tq8ewNA0GP/6ROfFvm8Ga8R1DClPB11tWiGs9raB0wOTuSFOE3cCRY1jbORtggQEttVOgOlkzEO4vinAG8BYAWg/I+AN/0NKnM8zOlPgt+dA+x+0fV9cBOgdXz7NxkcOSEaeoF35o6SxEbdLbVkfn6+XnSUlZVp01k8KqBuGWhXdGoty3pWysAZqYjw6czxKmV+W84J3tOZffSkttMAoclq3Hvve6Z/6OCPAZrQcHI1djpvDhAYpx6eg0FZJp545wAM1kQzDeXE8T5MGDUA/3ipPIZPORZ8JHRCOpaD0bcvGNWjyZHG5+cfR8wacccK8QPb6z1l48aNB9p7GSYMHz6GDeN/AAbHPOsv9fsLWjtUewtA0PMpfmLtUeTp/zrAbuKa5DUJzSWqweTh9Bxmy29BpjzDMYNFpsu8SBx0U1S7XjdOBiwzE+zUQrpqI4GQOQLmqe+C35wPeeAVuDz89SC8vZ3Q6u+sFP4i56hrEm6hCyrm5+dnZBvGcNuyrhTAXAATm3T7GZR6RAmxcIPfvyNCZxnPyGh8bu558Two9K1FqUqhVAUbxj7LtivIsgIb9nV/ZsvgCs+PTTi/6vEAAf3vkbP2fzseefeFZ9IAockqFj+6vp/yiW0Qsl+8AEGnxL381BH4cMt+rPq8GpYyQPUHH2NqYTamFGbi4ZfK3aRKbqlnjktUnct1xfMK9MnckwsV5eVpe139x52B99f7/cfUc/nGMfrxBQVjyXG0xiDWPHFHqd//85aq9yaAoMd/Y8mmGVKaLxLpJI3J+iI0l0ghfYjzzK/BUDUu1wGl0M7rSB+caUsgsgqhSn8PubMEwqnWCCGyzz0Ae6A0iDjhabBTBfH2GRAqyp6XeMSnNs0oct4wZrpaph5ZTgGM8ry8awH8pglIbmu8QQEc8Znfrwme2twQkfaTitZg5q0sxEUbyspe6y5NhrV0+KlS7H1B55vpsUXfDB3+L83B6T12jCkeWBogNBGotg1Lw7sl/DGK3uzb0iAwMr0K3/nKKPikgMOMA3U2NvgP4BN/HbZXODjzyP6wYeBf7+9rrNp1+04MIAghtt00J0/fontsGZ+X91cCdLRCuBDtyCkrK1iFjoefjc/Pv4aY74qZ7L5Svz9Wq1D/U28DCHrgNy3ePM8UYrHeP+GS+IczKgjd0kAqw6XG19APkUy1KaY0doyhEDP+h1BgK8ysQ0BmP6g9b0B9+lsYNS+AtM4iezJ4+rNA4AD4nTMgg5vddNXhT1/i82QyNm/ZGzp0zKXQ5qoeV4pGjDgGUuqPbqyJLP5xMr9ZWl5+cltgOhUAoX5AzFUEHLMuHFrcpYX/5SuEZW0ASIbTi6ceKCc9IWIoZa6Vs0MHTahjGiA02TW3Ld84wXJEJF98PABBf/fgRi1keBRGDclwoxjGDvMi0xSwHOVee59evRsfuKbGpiURgKDvTlh587yCmUlv+k5soCgvT4eaaadDtzDzBevLy/+ZSJeTJk3y2AcOaHPKkGh9Yj5xXXn5G03b640AQacAv2nxuu9JkRHx1Uj8wxmVh0/swgXG1cilVZDRjGMpBgi6L1V4PXjctxB64xTIjIkQE38CMfgEILgPzrZ/gDf9HRgyA2LXckinSqcjDftFJgwQ3Pzm+4MhcaxvQXBDIvups+tMyM39MRP9ssXwDOZNAN5mId4WSmWA6AQGpgMY2sK41tUSTS0rK2sxUimlACHcubaPXlHq9z/c2TKKbZ9XHp3JWFNKcPL0/uipAAFM5TRL5XWlbLqzrzRAaCL9Xyz+fJol5P/cT3B9ac8HAW6ee13czz0DhgSyTGD4AIHxw314fUM19tc2tJNMljxt5TUo9KMb547TasseWYoKCk6E4+jbU7SUGf37H7J27dqEM7NMyMu7kYGvE/CYAlZyXd3GluynvREgaCFpim86vOyPIP4uc3LhLhIhzDO/jwniWZByWvB9SXzb6P2n6SsEhX1tbHMIxBdehdq1Etjwa/DxK0BKgPe9A6PwYqi6HcArJ4DcIJXwm5UUQCARCmHYAu/M8uWJz6Lzahbl5f0AwO8b9cBsg+gK2+t9qhXfGzEhP/8wZv5LxDG3vjoDi9f7/fNbGnFLAEE5zmHSNKO0lI2q2Y4jhWGYBnOm4ziTiegGBg5r0rYF5gWl5eVPdZ6UmrVMaoXxHxB9yc302UM1CAD20kyuv6R0oXy6pas0QGgi9luWbjydhXjezeDYJAdD9NGWohiaAoTos1JvdKlguaFs9WS2SaXR1fcvD0Kn3DBv7Kvdsmvi6HRCXt6bkVuR+7RivnlDefmtcVRt6xGNsNo1UvZWgKAnPr+kRE4ypy8WDmYn4iqg8y9IJXCG+CWmGvdCCB1NExPJmKQGgckDS0cpTLgR9PFVELZObkdwRl0FedhtsCvfg/AWgN/8IqS1C44c5qapJqu8/n1qIGTSM+6gpoQkK8u8Wc6r1URYPU4PPT439zQiei52Ygy8ZYZCX167e3c85E1yQn7+d5m5Uep2Bs5Z7/c/3fTlaAkgCGBIR5hDx+XmziKixwmI9WmqEUTTPysr67KwUWtF1p8Msq+FdvLuuQChctHCcwctWLQomjwkySOtZ1dPA4Qm63PT0i3zibjEveckDBAacjBMyBU4/pD+ePjN3XC082Kkv2Q0CASEakI85s7zC8p74vY6GjCr8vIaaQpYiBnrt23rEkDTmwGCq0l4aZPP3ouXDJLHdywGkN2b+bHGw/gibocpNPFGg1bL3StJAAQ3hNHIB530AtTu/4DW/BCSg67TozL6AdNfALIK4bx2Coy6j8O8N1FXgxhOpnrdXEdNDKwT5jiPi/wjL6Fpq5JyzOuM9yY3NzczG1gDosKY9l8s9fu1U1u7wDamjijKy1uEcLRDtPirmYvKy8s1F0h9SQVA0I2NGzXqEOE4qyN05277BCxZ5/ef2xmyaqnN0FP4jkHiz2FGxR6H/VyUzaC61dunDpl29apG69BVMurqftIAoYnEi5dsuEqRcW/4dIv+2LaJwVW5uhphl/ImhndG4KTJWRidY2DhO/uhGtLhJKVBAHPN3vLg4LuvHR8X9XBXb6ojhg/PChhGo9sSCZG3btu2LgE0vR0g6PX66dJPBxvK+7qAMTFeci2GgwniVcym/4OJPXADZlIEEPSrEDL6Qx6/0nU2pNUXg5wKqKzjIKz1EPYu2MMXQB79AKy3vgZzn2Zq1Jmj2th9HQAIYU4S491KEfjqgLNdW0WPK0W5ud8F0d0xA9sfcaRN5GsnIz48vmh7DJy93u9/pjMAgm6zKD9/DpQqAZFOB6qLI5Q67rPt2yM5uTtX5IElQ2Z6xJ7lFI306rTu9IktItE8Dpj0xS0OhUBYdRysrssalbOg+qBgU0wDhCab8KbFpddDeO6MFyAYknF4QQaqQhb211gIBAAryLCY4DDh3OMHoq42hKc/0apYbWIIn5jJaBBAvL94boFmG+yRpbCwcIDHshod4rVEma05WqV6En0BIGiZ3LZ47XiLvC8JmHnxaBLyxMc437gSmewPO4JHcG29zV83mqAGQSeHcg77CzDmMvArZ0JU/hd29nEwj10EtfanMMqfgPJ4wdOehiAD4o1T4KaW1KU1kBAvQGABJl95KEin+hZUdbmHfZz7U9/6dUKJCdHnCbhpnd9/W5z1mz02Pi/vQQIuifwQYuDX6/3+mzoLILggITd3GYjqMxa25f+Q6Lxaq2ctzZhuSOvN8M0sEUzV3oi0pmsYnGGnQWRPAaSEssogd74OqnovJrleK+2EOT5sCnARLYB2NO3zJQ0QmizxjUu33ELgm+IDCA4yfQJXnDISWR4BIQnKYdTV2dgXUKioCuCQ4Rl4qbQSqzZXgVx7a/jUFgke1O4ZT9h1y9xRw3vq7pycnz/IYo7NnlhX6vd3GWdDXwEIen1vLVk/w5FiOcHs3xZIyMZeXOpZgEHcKsFkeLskuu+IYPsKII57GuQdiNAnP4KY+DPwjlchPv0+BAJgyoTqfwww4iwYa34MainPQ7NNG4cPAvvqbGXOMuce+E9P3fPj8vKOF8BbMePbU+r3txSVEPcUxo4d21+GQjdIx/lvtZSvtgSwU2ViiA6qKDd3Iog00AnDOubNpeXlY+IedBIP8lLPYZDq47CFoSMWmXg6FbBzjgUd9QBEzmhwYA+036gwcwBhwFl7O+SWP4HcII5I303flfB+dkI2H+mdi0/i6bW3P5MGCE1WsHjR5t8qg3/ofsjjMDEIYhgC8JqMfj6JQdkGhgzwoX+mxMBMA5legZWrd2LTXitMKxvhPUgGICiibbfOze+xHAhFublDQNSgguvCQ0YvZ18CCHo+v1i84WKbvPcBcKl5mxYTdbhYfgMjxbthfoFoaenmnihAcNsksBgEnr4INOhEqP2rgTe+DKIDgE7INPXPoC1PAnuXhSMn4nI0axcgsGLzu3J28K89+bAtys+/Bcyxt/t3Sv3+4zt7zKkGCJH3p5SA8dGxS6UKP92+XXPDdGoJLPeO88JeH76cpRYgKHjhHP8shJkN/ug6yMrPALagzGyo8deBDrka/OKxYd+ZaN8tAwRVFzCmZy6w3u1UYfSQxtMAoclC3Lx4890s+bvxAgT32HRtZmGKWR1u7v63Y4MVQUjl0s+GN7wbvx05ats9GFvdIgpYf+u8UUU9ZA81G0ZBQcFAn+Po5EvRUl3q9+d01Xj7GkDQciteXP4LEs7Pwqwb4eKGuyKAc+gXmGw8AumG0rR3sCa+78IODdrfJgPW1IUwR34V/NFN4G0PA0f+ASJ7KvidWSB7MyhKN96uprid8TjyXtjWd2hBPEbirtphzfuZkJe3QkcaxGCzpMwL8c6kMwBCUV7ekiYOkj8s9fsbh23GO8AOPFf71CGjfFS2hWDHOoB1oIXWHhVwMiZAnPI67LfPgXHgfyCO+FAzwRYK8ovr4Wy4F3Lbb+stYw0au2gMu0vgxLYYcKp5TsXLKRhYj28iDRCaLFHxki1/V0JdES9AGNLPQOFgLwJBG3WWjdqQguUIBB0bjiPgKEbI1iChqdoq8YNaQay5dV5e09jlHrPZJgwZksNeb2XsgFRGhm/Dhg1d4lTZFwGCDn+cLKcvEqA50fBH7RA73bgPX1K3g0QMMGjzoxzvviPY/U6CrC0F2To1QMynT2dlZAV78p0wCq+CU70BpG9mr50FEdrkOnw1HMDtbcvWxiPBbLy3Qw6ckXtOY8/99lrsjt8j/geHRvuWtn34pzt3droaujMAwoT8/N8w83Uxcvxrqd//nc6Wa83yCbletWmrFHbTjK9Jdk1w+k2FmP4vWK9Mg7C2NPcBm/46eOfbkBuub8H/IUJm5170mAOi/+kZ5xx4IclB9YrqaYDQDCBsfkAJvjRegHBEYSbOOmKAm8ZcJ6XRTojhO57+p0LIBu7+9xbUWBEUWq+2ivegbr6PFGj1rfPyj+6pO0wnpslkbhQG1NHY7GTm1hcBgpbHD0q2DepniFVEXKidXA8T/8FMcbl74xEpBgh2xgiIGe+Ag/tAr38ZIrQvkl+BAGG6h6jiEHjMdaCiHyD49nnw7HsHJGxXg0YciUJsE6y0wiLK2pSBA1UeZ2z/ryJWE5XMtujUukV5edrnpt5xeH8olLM7Pt6DpMbVGQChGa050bLSsrLYkMukxtxa5eqSSSMyzA1bhbD1BktZ0Wez4x0Fecp7cFZfCakJvdxcIeHIMwUT9OUtsD79Bbzb/taCeaMxQAhi+GzfrJ0rUjbAHtxQGiAkCRD0JlNKhW9NBkEKRoZB8Bo+ZHkIHi+waWcATjO7Vt8FCBFa5EbaAuU4kzfs2KGdnzq99FWAoAX38+XlJ3uYXxlBH+MS+hoMbf9vGhWTpAZBGy70ARrKmgR5wjOQlIHa109FVvW68MEqdBScQChzMoyaD91ElMyVLjjWyaCSLdp1ISg8YzNmBnqNp3hRXp7e71EfkWCp318fnpisPNqq3ykAIS/vEgIejOkAVL19AAAgAElEQVT3hVK//7TOnIduu7qkcESmWb6VUgwQdNs6rNE5+klg6BdgffwjGNvfBIsgrKzR8B7xB4gBh8J5fhKMUFk4PDdcKVLSAOFRIrqwszdAb2i/eMmWvymhro5Xg6Dn1F6cOrtpbQ8eE4OWSVMmRWb++vry8seT2QOThg7NdkzzFSb6Y6nf/1hfSPfcUXmcUvyScd5h1tMXei//ShaX62yGKQUIji8f+MIL4LU/htyxEpY5DOILT4N9RaDX58CoetV1ownlng/PlD9CvT4b8oDO5p0a3iJHeJVNao7v7GCvuqFNyMuzNMN6ZD27zOemMwDCuPz8rwvmR+v3JvPrpeXlJ3V0r3b0+c4zMehvvQcsh4Kn/R1yyGkxIbgSbFfA1inIK98CKAShz+vWAIJiDtCAL2XMqnipo/Prjc+nNQhNVq148da7lXTiclLUn/yxwwRy+3tcsCmEgKEJXRiocxx8sq0WtSH936kFCCxowy1z8uu9jHvixjt05MijHCFiCVaeKfX7z05mrBPz809RzNEXU8cjbS31+w9p2mZf1iDwwzmD7QGhtwSp8bEOiY2iFxIQsqb4cuRgyOkrYQV3wlx9AaCC0ORLtsyFPOZ+0KBTEPrgWsjajTCmL4Hz0fXA9n/AUPpNSD47oyMMbOVTnx87899fSWAK3VqlKC9Pk4CNjAxClfr9Giy066KZ7KA7AyCMz829hohiM6f+p9Tv/3KyY22vft2KsQWmKtsiIzk+2nu+w7/rs1l44fjy4HjHg4QXHNoJUfshDKfapbnTfj0NwCj6bzEaBA0QOPvUjDnVaSfFDi9AH6hw86Jtv2ZD/agxgmyZSVEfnmce1Q9H5PULP86AimTNMwxGgAUee2sX9uy1XEtX+KFoW8mYGOC/dd6o/J4u7qK8PJ2BLqpqtaRS45MJlyrKzb0PRFfGzLtF1WdfBQj8UqHPqSpbSqzOiAlmcMWRHEAQsGkQ6NiHwSITatU34LH2I9hvEsTAaTC33QMWA6EOvQsifx6IgwiuvxPmxl+7yf8akX4lFEap3wWJz+TpKAn9MRiss8+44+sTe9UNrSgv7wMAU+o/KV3EHNoZAKEoP78YzDfXv2dEy0vLyurJkzrr3OGV3vHs2KXx8Wd0ZBQMJSQYPhBp+nEHUCKcYc8Ih+NGFbyNWm3JxKBY1TKOzZqDLmGX7MgsO+PZtAahiVRvXLb5BmLcFh9REmDo01GKMO50L1HhXSUN4Mwp/dDPI/Ho63vqg880b324JAUQdt86b9SwztgQqWyzKDf3UxBNjLbJwIPr/f7LEulj/PDhY8kwdBruqAMTS9s+oiVP8b4IEIqLIX42LfNuwYFvh/kFGu+fhAFCJK2iM3AWxHGPwt79IujDqwFzGGj6MvD2ZTA+uw4gA5rumAtvhJMxFHLN9QBXh6nFYxc0IYAA7MEUPGg/iCrRH3BkrbRrphafd2g7rE+J7KTOqVOUl6dJnOrt9Ao4YYPfH0uc1CkddwpAaALEGfjber//W50ygZhGQyuzphgq+IELEOLi0IhvRAwJZ+AXQEc/AnIqAesAVHA7OLAdCOwCB8sgajZBVrwLUjG+1S0ABFbsWDYO854LfRb1+ZIGCE2W+ObFW65lwX+KByC4hKAt+GRF99WogSGcd1wB7vqPHyEnTLLcQC6XOEBgOAdu+fihQSgubi/ovVs38MS8vCIFaMfEaNgSK6Ivbigre6WDA6Oi3NxnQfTV+nrMm0rLy8e21E5fBAjOyoz/I+I7QSxZ6QyNjbXXiQIEHX7rCAIpL3jEfMjD/winai3IzABpMpmPvwPBVXBEJoQ5GAiWAegPYu0c2QJ/fYcBAqEWo7AQf0e5M9ENB5Y6+RO4zJaV0+6YdfjODu6Vbnm8KD//H2C+vB4MM9+5vrz8xykYTJuZizoFIOTlvQHghOjYCViwzu/XyaM6tdStHHCKj6teCvPFpO5o0w6KdkYBxMhZgG8UkDUFYvhJcGrXQ5gDQEZ/kDDhvDgFsjbmu9+yBsGqq8bYzAuhX4Q+X9IAockS31RS9g0Y9iONaW1bS9bEcEiHdOlG3EQe9Szi+mY1dqjE/KOH4U//9SNopw4gEFBXU7Fl+J2Xn6gTPPToMj4v7yUCTokZZBWEuKh027Z4c83ThLy8exi4OqYNWxGdvqGsrEU7YF8DCLVPZczxoe4xMkSGG2HA7PIQxJbEAIL2OxgBZA4FB7ZCWgfgDDod8qh/gM1sWG+cCW/VW2CZCWfqIyCZCfHubJDLBqYivjVNzOwdBAgh9MMK9Ud8Ql9qZLJ3dSTsvLW3ZudX777w+EacGj1xw4/Pz59HzItjxvZRqd9fb3JIdMxFeXmfA9jOzG8IIV6qAV6JpVzuJICg86gMiIxZeaUc8vHWrZ2eIKv2mYzzvU7wceGy2KYOIDSSPTPs/jMgpz8K+4VpkORAGeNhnPoS1AvjIELbGjxHWoxiQGCfecjwwWdu6PF7MtE9F1svDRCaAoQlZWcxrKfJzR4XLa0DBI9XIdsjXQdFfXDrKC9Nv5xpAqdNGYr9FSEsWr0bzDpRk9YgJO+DwEQ2qZrDi8+d0OPVXDrywPZ4dLjakHpxuiTo4g5HqX98Xl6+rbWNHOGF/zMA/fWILQ+X+v3RJDbNqvclgMBLzKNYGM8R1Q1xz02XzFAj0eTDCe3so0FH/x0yZwLsmg1wVn0TZtXbsPsfBWPqw2GO+lXfBuWdC5F7BvDK6RChja7fQeslfs2Ytgm/ytfhZb4CqgWVso4OYsULh2SErrz2zJ6ZuTQqB53BNGgYuxiI5hypKPX7NS9Cwo6KkXBh/SHyRvphm7lwY3n51mi/qQYIE/Ly5jNQErO+60r9/nozYSo+Oq214awUN+gcZS4NfWcBBL17B54MOvafwHOTIKkalm8qjFNfAJ4bBVIVbQIEVqj+9INDB08uXtsonX1nyqU7204DhCbS//mizScIyW9E7vuRX1txUmTG6Ydl4bjxA6OZTSKWCU0iA+yoCGLx23tREXRJmMMkSqnwQSAF4ajzi+ePeaI7N0+8fU8cOfJoJYRmHuvfpI6OjdOhjy8w83YG9hJzDgkxGkRzwTyzBWeNl0r9/sbXzSaN9hWAULNwyEhfduXrQjhjwxELYS1VWFWVHECwfRMhTnkOvOMN2LuWwyi6AQiUg94903XacjLHQBz1KES/w8F2FZw35kLWvRnWHiTJs6BnoNOjr1EXYpkqhiLZKkBwyaNtddOn/O4dixYsiCMnb7y7MvXPFeXnPwXmWdGWGbitafbFjvQ6Pjf3T0R0bUydN0r9/hNj20g1QCjKy9M5Bo6J9kFEv1lXVhZ22u7kElre/5+GqD4vDIA7SYOg95NvDNSp70FtfhS05zXQuG+BpAHx+pdAiPnut2xi2E+zGwixOlkk3d58GiA0WYIbF6+fDGF+Ej5+W3YoDKcFD5chWYT+GQYcJ7yhHa3CYiDkMPbXhMAwtT3V/SusQYjWTPyA16l3JdXdc/Oc8d/u9h0U5wDGjhw5zRRiCQOJJpnSevXlpeXlmtGtzU9UXwAIXIIM9mW+RODjAB0M0tThJfH945gjIE55E3blOojVsyBtBXvURVBjr4N47XhI7XyoI3LEEGDqvVCbHoTY9zSIbJCb76G1Et+YtE24DCfiCXU3arifm+XUde5tuqpRZlJ2y0XF545uiM2Pc9915WMT8vIWMPBkTJ9V1cwjyss7ThUdYSPV7IwZMR/rb6wrK2skg1QChKJRo2ZDqaUxB1/IUqpoUxckanrvXphTRnrfN4Sa7IKDSDRYZ6yfm7p87PdhHPJjsJENtvZDvbsARuWb4TDHZqdLlPHTPcV3illqRGeMqye2mQYITVbl50/5RwllbXHPpjgAQrS6PjfdcBmXOEkhxydhsUJdnXQvezphU2MnxcS3g3vDE+qjW+cWJm3jTHwUHa9ZWFjo81jWvZFEMNkdaGE7Ef2o6eHYWv3eDhC4GIKnZjzJJM8VcKAit5rE/AyaS8n2FkCc/AJYDgTePhtc9SH46Edg9D8Vzp6XQZXvgyvXQNSVQtV+CgkPSGllT/IXeP0eVPLheJz/gt08RpsQ4tsGhIBlWV+5/WtjX42vQrc8RUV5edrsV59IjYFX+o0YcfqqVas6wiQli3Jz3wbRtOgsGNjFGRkFTfOZpAogjMvLyxdEa8AcjtkOl/tK/f5Y359OEyovzR6mjNpNJFSma4ZNqQJBU3dnghEAKRtKO+WygCP7g+RwkFUOQnUkXNduAyDoyEhzvZwZ7LGJ8lK9QGmA0ESixcs2DVBM2wCK+YC15oMQruwVCrmDBYg82LSnFhdOH4Ixw7Pdo/251TvwzhZtXogkeo7zPGxvoZlRfcu5o7osQ2J74+nI79q26lRWfouV+h6ItNlB2211pIMBTTtJpA9THW/kF8w3fFZevrIj7Rfl5n4XRD+MqfP3Ur//jo600Z3P8grjJigNE8IgVTskapV8qgCCnpsjM4ATXwRlT4FT9gyMEdNhb1oIDJwII3sS4BkKZ9s/gTXXuGYzDUpT0X+I+mGRcz9K6VhIpZVCejRxaB5ImxrELqWcE35xXoF23OuRZfzIkSeTEJrDIfbQKKdgcOK6PXvadSrWINprWU8yoM1rDYXorNKysmebTjpZgOC+ixUVxzCRNgFGfR20P1VlqLZ29OaKioquEHRoSeYxUta9K1xSjeRNaLFjdryFoBP/A1VXDmfPq8DuVyFrP4e0toPsECDsyGpFtAetahD0ZU+8ImYGY52uu0I83dZHGiA0Ef01dz3rHThq8idgjGv4qXWAoJWj508fjENGZEATym3ZU4PhQ7Lx7Ht+jOjvw/Txg3H3f8pRURcBCSkCCG4yc+fzQcULvljdbbsn3XHKJRB4asSZXrlzJVTUm7WVhEYp6NlmAzhuJYwRpyPwyR0wN9/oqlj1R1uofgDVAMIJs4TG2mMT9n8QWM6/xmq1oH70jUiW2puTxo2sPq2t2HFcT47gKcrPvwXMN7UwnetCpvmXzZs367wNjU4C/aHfVlAwRTjO69RALhZtotWbfEsAQQGjAkTaPNGsKKVogGUJ2+ebykpdSsClLT1GzCevKy/X4Y5dUuzF5pXSVPcl4dPZ6jidwV8BH7cIVLUBIvsQkKGtNhKs6sC1pQjtfhny89/BDPk1010bGgSCBfN+z6zAFV0ilB7QSRogNF8EunHp1mcAdUbYUVGX1gFChlfg2tNHYuV7O7F2j4XvfWkENuw8gJUfV7sa2e9+NR//Xr0bG3Y7KTMxhMfEsJzQ3NsXjFvWA/ZReggpkEBguXecR1qlpA39Wptff7uO44adYP8KmbCP+CM8oy+Gvem3oE9vBHE4SkFrDqLBBfUfchccJDIegf+JK/Cc/RPYrFntIm9WhwGz1j3bL948d+xplHrKvQSl2Kya5u24twnrZ+SthUNwbUbvQ6m3iWgAA8eDSFOnN8tiyETPry8rO7M1+05LAKG1HCWRUcazgKeV+v1dms6Yn+r/GFB9QQxRTErWQnsNWEU3Qgw+BeLNM11H8dDk30HmTAX2/Qs89DSYQ06C9d8xMANbwhu+DR8ES3iu8ZwT1JFVB0VJA4QWlrl46ZZfKsJPGjZK6wAhy2fgO6cNw33/LcOeEOErkzORbUos+/CAa0e7bMZwrN5cg/e3VENApnT/k7Ceu3nOmDNi6ZcOil3bByfJK3OGKK7bALLdSI/U3NjjEZRwz0Sr6Ccwi26Avfn3MNf8rHUMkBBAIGzDV/Go/Ud9A4vhXoznWxU7B5eazLW6wLEfLJ5/SD0xUTwz7eJn5ITc3IuZ6P4k+v1lqd9/Y1vOH60AhIS6ZOAT6TjnfLZjx+aEGkiwEj+CLO6X/RlRXX6qNQh6b9vHPgHU7YCx9gcuKRiO+Q9o13MQn/8ads7xMGe8COdfQyCdmlZmUO+kqGz2nWTOrtPZyQ6KkgYILSzzz5f4vybJeaJhs7YOEDyS8M0vD8Pit3diT5WNowpzcPSYTLy9sdaNcJic3w+rt1bghTW10AQgDUyKKdhfpIJ7y0L97762Z8eIp2CmfboJLkG2bWa/bojAFKXtoV0KEMKiZfbCGTYPqHsfRo0mv2zlat9hgKBQTQX4i/MUgmqwe7nVUQwNJX7ehAYaMq3dEI4S8oZbZuf+qidvjjEjR442pfxTbPhje+Ml4C2b6KLPy8o2tPdsKgACAfcQ0T2flZXphU/eE7W9QTf5nVf2OxaO/TYoGKGa62ADbTyuOBPq2MeAbYshdi4E5AjwqavBb50Ho/JVWAVXQI7/CcRLE4GI5qx5c/VAtnZ7zYjRuReU70ndCHt2S2mA0ML63Lh4zVQSWaubH2KR4MeYMEdNinT5KUMxINOAIIJp6IxhDNtm1NYp7K+18NH2GqzeVBtxVAwfiA3hjsltkAo4uX+cV7g9uVbStbtLAmtK4JnoMx8RQn0NWvVO4TjshuQxqXXYan2e2hmSENbaR/9u6en4zQvM0qVovl8twQ4e28Dd0IhtsSMAwYUykUG5/wwopc67df6Y5d21fvH2Wzh06AjDNI8QRDMAnAzmfBBpxKTTRJcToEOrl1lE728sK1sfb7t6q4zPza3PAdFePaFJ1piDNlAnhNiVU1a2a1WqcnW313krv1vLPTcYSt4Gofd+h21Obfaq8zCAfIBO0sQWIH2wB58KufttgCugjloEtvfB/PCqNvoOAwQW2EGrVB4VpzbGIkGxdUm1NEBoQcw/W7J5pBTsj0QmxvggRD/ujTWwRxX6IKXAgdogagIOqgMMyw7/beuQRFLhJI6aTTFyA3PZwpIuThCDeEDxF8cEkm4q3UCXS0AnYPrpEZ6bSdo3SalZOCMmKDfbXNQW2lUAIfXTV5yDxfJ3WGudqnOhu3Ny4UVSACE6znAcnE04QIHqL9x2weQ1qZ9BusXOlgCXQLJ3wFvEoWNAzXw3k+pe+x84A04G50yG2P08RGiz61/jwl9XV0HgzENBdhAy0FZgTAQgsPpYzMYRSQ2ql1VOA4QWFqz43vcyeejgTQxEMiY2pkeOJUqKZ70VOS4Pgi6pBAhKWA/fOmes9kJOLeyOZ1LpZ5KWgA5ktI7OOtyyZa5X1uQxZxUIEShgqHwByiVYQwDRjxW80fTO4UyO7k6KANcWbvTNCIciLIxduE30ze1N/h6e5e+48atuxGaEJySVAEHLgRT560Lq8F99fXSn5wtIetHTDTSSQPXKAVMy7cD/tPIVEe1ZykTEEnbRzyCLrgMcG3bVp6A9/wW2Pwuq+QzMFa6xq56fptVTVD9hwIHxhDGr7vyUja8XNJQGCC0sEjNT8dLPn2aS2nu4XQ1Ce+uswQG7WqmGwzwFGgQn4AQn/mrBuHbtlO2NL/17z5PAS8UwTvkCsmCPGGgFDwwXMjRSyX75plU1yhGqAPCMFLCHA66aWpPbRGLYY0+5qEksElvussSllIGmVcGtE1/Gk9af4JBZb1qo15mlRIPQ0LXO2eAofCj27jih+OppMfl6e966pkfUWALWU8btBqmfdZZcmHxQmYXgwSeCCq6EGDjVJUuy67aCdr8JZ9cyGLuXNzgFtwgStFesCRueb3tmVd/TWWPtie2mAUIrq3LDkg3XCJJ3pQ4gNN55yQME2lU8L394T9xU6TF1jQRKSiCnhsZl5Q+sGWioityAkZ3vU3tHQcnRknz5ioMjCHIwgQeRcqMjPCmmqGthooSdYioedO5HHWdHwEEYqHQmQGCd4ZICJbkF4y68eppLtJUuPVwCmx4s9I0eWP4hkd2pzIQsCA71g5pyPwy7Emr7U+ARp0PkXwDe+ybEe2fFARBgWZQ11Tuz+qAyZaUBQisv0Y+f+GSK15f5gasObZJgqaMmBpdnvklp4FhI7C2WyvndjfMLr0usdrrWwSIBV6v//PDMUF1orBQHrhdKXujyLHSKucFENUbgn3w/yp1xEbNaQ1cN+rNYs0gqfHFc2507JcF1N09UH96+oIcndjpY9l9b87SXydlCqKXaNbYz5KHMAqh+RwLDvwgaNgMi61BY710Fc7eOZugHdconUKt/CLn/yXYBAiC2rw06hZMXxGZz6oxR96w20wChlfX4ydNbBnostYeIBNcnqGnZSbGrl5SggjVG3dg7Z00s7+q+0/0lLoFJ80s8B/rLYcROLSpRV6YJcxZ1XYZCzZbsLDfvknC+kxDXURtTV6SzRvTH085v8Am+CqVDxlpI4dy8iRQBhEjDTArkWOcXn3vIk5GQjMQXLF2z0ySggSs/Tc+T4tOaEtGlolN2BNSM/wLZU8A1n4N3Pwcedgaw898wPv81oNkVj7oH+PckEO1sFyCwNN4UZ1tfSMXYelMbaYDQymoVv8SG2rf5MxAd0jRpU0c1CKneEAwqvWVe/oTm7RYLoLhrjMypnlSfb4+p4JKVv2chvu+QCjpk71NAmaGcDQx8ykwbDCe02TZ4JzwZ1VZVbWDfoEFB7Ki2UwkiqkowNMvEThKaMSZVRcAhH95U1+Jl/mbYS9zdhe35znaUKCm+8ZIQdiBkn/LLr43uMqrg+EaWfioqgf3LBhzZT1S+LWLzP6RQPEFjDOToi8Hb7oEM7AVJIFRwKbyH/wnK2QtQf9jbHoP85FoQBdsFCArmnXJW6McpHGKvaCoNENpYpluWfH4Hk/hpg9d1am87iewQlxef8JOb5476dWz90XOXjLRyQseUP3z+ikTaTdfpXAmMvnTFFTbRvUxScD2Psl7NxnhOO9x5HIJFsEKQFVnslDHLdTbRGi+FPg2Q2ChrandmZmZW1VQF7bKB+23kbndQHB8w5JW5mcx79hDb9WmEk5u5zkbiw6c4F8ucGxHSbg6NiJ6Saz2R2lqGFtF+W9nTfjVv9MZE2kjX6VwJ2EuNp6QUs8K8TO0ByY6PxR5zLeSht0P97zyI3f8GCcDR/zfwS6D8+bArSyE3/BZkhN1VGqjEW+qLlK28XzLnBF7u+Eh6d400QGhj/W58atvhUqmPWqNc7p6lt6p3BqoL7vn6EY1CukZetORnkN4rlW0etnPhV1rjDO2eIR/kvY48b/E0kZn1mk7CoyNaVBsAoamo9MfOPcB0oBUbrmVA+7ToI9VRSoHsSge+bSHmdf1UzYdBlflh6MCul/esuLzFzIH87KB+sKsrwHaKNAiMMpqOx5yHEIQXTj3PR/ctelRmzPane+t2HH/3hcdXdt9o0j03lUCgJH+c19z+EQRnhLWzqQcIjsoCH/sw5IgzYa2+DJ4dJTFRZOFoHv0mRt3L2gEIuyBGjqFzyg+6CJk0QGjj/f39m9syKneqGoQTMTZL2tQdrz7BeefmeYXHN+175MUrPhFSTWYRuqL8HwuS4X/vjmn12T4LL3lwAGPwRkU0UKdsbnwUdozVtqXMh/XuMS7bgKYg1nmROWTUyes3P3FGJAqnQby8FMPCRtfU4INqMRIP2k9iD4+OHPQRQJP6Mz+hPaKUeuZTfmfWorTTYkLy64xK9jLv81I4p3d2RI0tJPjED2DmFCG05mcwt/4JpDV2bkKmyAZtoCwNT7WFfctkviBmWnGzVXaGzLqrzTRAaEPyxcXFQky55D2laGpPAAh6LzvCueLWeYWNAMCAy5eM9inzMwH4FLhcOs4R/kfmtpjutbs22sHZb7EYfemR64jEuOjNOsriFpZHlMAoPunEBRAiIEEx2xyyZ5Q/OrtRYpnA4n7jPaKylGSy5jIBG1l4XP0dG/m4JvkVYpNNxTe3znpK6ehHCv3plnmH/KCz+ki3G78EapdNOtYntrxGCHk6O+2DlXUk5IznEdz8OLxjLoWz4Y8Q6++A4BDqCcfiAAiKjevlbPu38c+y7zyZBgjtrOWti7dcqAgLewJAsAXvMbzlhxSf2VhlOuqSZX9wgO8LbWMDwXDkrzY/ctZP+8427YUzmV8ih2eaT3mEOLth7zS9tbeV86Cjc27+wRcc+M2Wh879UWxL1nLfyYYKvpKMBkG5Zg8PnrfvxNviLCiOZiltcDpsCcx0dEbJP6+Tpjj6tmhbxNfcPveQvyXfZrqFZCSgnvJ8QmRNbriqp9JRlcGsM2ZbUJqcbsrfQd4xwKo5wOCzgKl3w96+DOZH14L0nqW6dswbDCURtDnnSO85VZ8lM+/eWjcNENpZud888mFWdc6AfYLJo5PZdGcRFHj6prnjz2k6hoJLFm8FMAqQUKTt1FSt2DrJ/9CcD7pzvAdv30xjv778x3Ue45dCf6BcJ6goqWvXSEUbMwwO/GXjQ/O/G9tjaHnOxSZXP5R46LkBRRZWOd/Fc/wDWG6OBd1D9N0IA5UeAxCi/hpSVJJlnX3b/LGvdc0KpHtpKoHQYu93TDN4FwjaszWmJKvNijZFsMb8AMbIM6EQBA04HlbFKog974BUDdiTC6PwYlgbfwuj9JcQOtSmTWZRhi08q42zg8eQa5s4+EoaIMSx5sVPbV5PSozrToCgdDIxJ3Ru8fxDlsYOueD8hyazN/t9EJnaVZfZcH822Xl5k2fnl3Hf1WlWuTjWOJWPjLp4+UwT5jJbKuHAiXC9dz1AYA79fNtD8+6InVtw5eA7PGp/wtolJi+2YTqedO5CDeWEz/lGipCeBhAaZq/A2xyYJ90+L3dLKtc73Vb7EuCn+w9kJ7CFKJjjPt0pAEFATfwdlHckYAiwzIIgL0h4AOkBhAkd7+is+SHMvS+GTXz142jp8sdQjvd2OTdwQ/sz7JtPpAFCHOt6y5KtPwTht90HEBiOUGVyl2dC8dW5jTxp8y9dsZDJuTCSCkprD8LvHzMbSv5k68Pn3BnHFNOPpEgC+RetPJYEvQhysho32bUAQfdtsHXRpofmRMxj7mhIPUVLiWh2YtMl7Md4POA8hCrK1XushWZ6EkBoYXgKHyGYeVLxhYPTkQ2JbYIO19IZGx2v+aKEdXLLlVOnQYDy6RyOCGeGJO21G03HFPl3TQD4KNQAACAASURBVLqp70xN927TMbjRFbYFOd0zy3qvw5PuIxXSACGOhfzJYx8NzMgYUMZMmXE83kmP8EPF8wp05sbYQnmXLt8P4v7a5qbBQThbZLgoogrbCXxx90ML0qaGTlqV2GZzz1880fD6XiThjNTZmrsbIJii7rSN989/IToOfgkGV4jVRHx4IiaGEA/CQn4EW/hQCJK9EiDot0MJepmsA18pXjA51AXb4qDuwvUCWZpzhZBV97nf6hajW5IHCCyyYBuDYQZ2hf1OXIDQkdJ0DBIK4v33dwSPm3Y1DlotbBogxLmHfr5ky1UeUhcqllOJVDY4HFbWJYVZkWV9+ebzD6k/7HW/gy8qOTbL9L3lsHJNvrH5HXS8veNm2BUfcmXgxN2LFlR3yVgP0k5GXrBktPDK5yRogs4L0Fzb1MUaBD0E2FPKHpr9cT1AWJmb6ah9W4mDg0UH6e8tysBK3IFP7DnQ4EfvteY5RlrOttDTtoT7jVLO0rX87oJ0+GPnrk7V0uzDskysJlWtvQdbKckBBJ1a3C78DoxDfgh7w10Q/kcg7V0NaIQElNEPsOsguDXg0AJAcDJ/Kuce+FXnSqhnt54GCB1cnxtKPhxjykEXgXgeIHQWMjfNbsvq1g423tLj7mGs1rEqOKJ4QWzCdKaRVy7/t+HIL6sW/GdUNHzHdY4LPLb9gQXfCGe0SZdUS2DoJc+M8EA9I0gdhUZyj+2piwECuA511eO2PXF+fb6OypU5Q7I4tJ1hGzKuPAnh8etUt+/Q1XjG+hG8rGmVO8bfkGp5p6I9jY+Y1T8wqOBbxV8kOxVtpttoLAG93zK59h0BHkttOgMmBxD0CckZE+EcegNo+FlQoe2Qn/4e2LMI5OyHgwzguJXgTX+GueOpMHBoUcPXMH4GBQmZU2hW1bqDeV3TACGJ1b/18fWT2ef7lhJ0DinOBTuGjiRIbdGaAPXb2+YWXh/b7tD5JdkyRx4wYIqWskVqDUL0z5lYGUH1g7KF5zYjzkntWA++1nIuWjo4G95npbCPJTdJR+TkcYFZtwKE8pC9v2jnwovqWTV5xcACRVVbtG5BxAUQtEZA4HM+A086f0YoonXoCzBTE0oJKIQcuksOyf9hGiSk9t3d9CB8owZ6/snCmq1PxHregRa7SRYghN85RgaczEOAQ38JOWwGVF05nHW3gQwfjEOL4bx8EoyQ9k9tKSAhdgw6yMLzb5pZe2YzbrPUiqnHt5YGCClYouJiFtaU0mmm5f0RDHkqMfXnhgQOSfZADkLq+OLzCxo5yoy+uOQsW3qfjrtxplDQxpf3LJz5Stx10g+2KYH8y0sGOVbOv4SsO9Z1hYpV23c3QCCs3lZw1jEobmCCCT7lOdwQzkd6UvEChIActvvu4CvZ1cKbUe8IG/Fz6RmhjIlvUr1e+m9l0Z/K95dff9/V0w5aW3PiUmxeUzsl2qbvNpKBn7opuEWM7jJlPghh8KodEjUwD1+IwoWdDFgDjoBx2B0QA6cB5AWvvRNy/S/D0bikl7n1qEXNeKpszDPmOo0ixlIpo97SVhogpHilmJlufWLjqXUZvlt8jppGpPkTkiFQ4NVrnnj72EWxaYHnl8gR2eZbksQxHRk+M4e8wZqiTY9/PR3m1RHBtfDsgEuWDfCx51WJ0OFhZ2nuQQCBoahuhf+BBbNih24tN04XxM/HCxAYoiJUlzXtVvlhkTDEM+Qy1zc4wvYNgBDW+nDQc++IiuHXXH21+/VIlwQloKWplmV/k8yav9Z7qcQo1lLnpKh3ow+hSb+A8j8BT9X/XI1QfWECOxLOoXdAjjof/MoxkKHKsGnBXeLWzGSks+Ht2F+XM3HQgv0HEhRDn6mWBgiduJRXvfeembdx5FzbdG5STJPMRug5uplbZxLTtzwb9KNbzx31m9hhjptfMjTk8+1yGjcY10w8Slq1Tih/58K52osnXRKQQN5FDw8mMeB/IDVGV2/R368bNQhhda5z99aHZl8bO726JSOv8Ji7/h4PQGDACZm+Ob4za1cCTDcv3VishOcmUto80b2EYQksWZtVtBYh7EPkLIZT8/V0dEPiEraXyQulqR7Re6YxP0akzZRpEBjWyAtgHrPQJTtyyh4HffQtEKIWNc1sNACY8S7483sgtv0BpGLduFuZI3s12dzP5KyqXyYuhb5TMw0QOriWuVctniiD5rBtY95/Pd4UuyUlLN81Ph+cw+JrDmX8H8Eq1B//qMq2gYWuyWBI2bZ0DvvFrLGNHGVyL33qUiLjgUS4zLX3us1cIYL24f7H5pV1cPoH/ePDL3hgrOkd8AZIjGiaeqmRcLoRIITzPdRd539g/u9ix+QsNX4Fg92c9m2aGJigFN0s59q3RusXv/SSgf0T/0sIzuCujODpgh3XYBrS+f3wcp30zbxz1tAWs2F2wXB6bRf2MpwvJT3EYI/L+t4Sk3hKAIIBy5MHMeMV8Of3g3kHjEm/A1u1cN6/CHLv8yBIWINmQB72e/Dbp0Fau3Qim3q+z9aEzMQ2Of3H05yKzb12IVI48DRA6Kgwr3nWm1drv8+wBgLy3wDdVX7/rPfjbeaaZ9d7swP2aIPMb0hlXEmg4ewm820o2uPXEdBeDM/IDx6cWVxcXK87mzS/xFOVZbwPaU5SbXoGtz4iFgS27d0ZobovbHz86+vjHfvB/lzhN0pmKOlZ5ggM1OCgzXt0NwIEfTJLhM7b/OC8J2PXTC03lhA5c90/a1UL4IGCekL0C32DvohG3v3FL23ycYVnPSmV31f3gnbAZEEfWiJwzu2zx23rq/NM9bzsp3GxVHQPoFM4t1FSABD07nYOvxcYMBni9dNc4iOr/2mQJ63Qv8DZ/SLsD74JT2gLlMyCVFqrwJoYpt1pK4EHxdnq8oPdOTEqqDRAaHfLNH9g9KWLrrOF5zf6jBVEIclyM6u65YrM+8run7Uh3iaLS3ZlC6dmsjLFJQx1AUj004lwtG2XyFlrMZ95+7yxjfwFhl6yeLw0zHUmE6m4PNGbj0ZrEXQGa7LVLpPVOZsemfNuvGM+OJ9jGnrZsm9nsPgtE/vikkG3AgTAVsEZ2x+e92r9i14CyRne94iDR4YBQsue4w7Ee1Uq+/SBcyoqWprnT/65qTDT9HyoSPWLSw699SHmbTBC5xXPHtcoG2ZvnU5njttZYX5fCPVLkOMLJyjVMaTaXaUFR8BUAARhwjnkJ8Duf0FWvAdQNkLHPQEduqs23Qs59R7X7scfXQm5/dmYCIq2oyUUSbYVHeadHVrbmfLqTW2nAUICq1V4ybIBEN6PLGGPioa16XeBFQKCnTWszCfJqH5s2wMNMejtdVNcsmYQCXGMNLPH19rGJsfxv/7rBdOaOcnkX/7UjwHhknckyr1Qr1LVtyVFFQp0+faHzj7oPXZbWqNxZ9zlDYwce7fNdIVJAQ0J21vK8O/dCBA0brQ5cNiOh89dUw8QnkOWCmIjAcP0n1ELAIHJs4PswAyai9K2JnnL4xvPcbzmIhHhAIlPIL3wKbIqFasf3Tpv3L29cPRdMWRylmf9hlB3LQlluio1DQDcm7oGCC2ggRYBQvs3+9jJ6IgFRdJNtqS7CI28CObhv4Hz6pEwQn7UDrsavqP/APXaKTAqV8c4JLbdjw3Pv4xg4Bxa0KoHY1fItEf1kQYICS7H6MsW3ago41bFUW/YMFrWh7NLwgKugvK95SHr8ZBZ80z5fRfsSbCr+mq5V63M5BB/LASPTbat2PpCUB05VLy1uu53iI2WSGUnvbCtEZcsK/SQuZCFc6I253QoMW03AgRFCAZRNXZPDECtXj5suE/s2UpQHr0UQjUDOsGgypnpm3PAjXJor9ywbFuxwXSjziGWoCKrvS56wO86MsW2HBgPiAPO94svHRPoAYPqEUPY8QiyhmTnPCJF7eww2ozVFsQJohOZiQs6wv5bUZBrDzgWlDkZYtfDUEqCTv0YavMiiI06Y6MFuLkX2i460MyC7wjv7Jp65tH26hwMv6cBQoKrPO7SkqFB8n6ggNxwE83VaXoTGzoImOUeS6n/GIqf8NrmyxseOzOhRDEjLllxDBv8rpHCxKPuR08QlICSFj+uhPd7Zfd/dV+CYukb1YqLReHmw2babPwVhhip/Q2i/h5xH33dCBAY2BGsrh0fS68dWDx0vGEeKCURTj/QABDCwWgM8xoxK/gXF9vGUebPL5GHXXD0k8yeefHViKPRHvmIRvw6S6r6n2HUfuPGWRMPamY9vUSVKwdPzFL7SwTk4Q2O0l0LENytEvuOuZkaGda4X0PknwV6dQbIOQBiW+dcandnOSrj5dc+rDn9i8WN/W7ardjHH0gDhCQWePRlK69XBDdbYvgD0tLZqkNrdISu9i0Q+mQuC9rOU5DBJ71VWFW2aEFdvEMYddlKbQP/YaKmhdb6CSewUa72g0l8bDjWlWUPnvtOvOPqS88VXPDYQMuTc5MhcA1YSFeH6f4vrCmKXxna9Mmuo1omdj7YWhOcFqsNCq3IPMaAehcIc9FHk3pphy9WuO/9XdZ3O5qUpnjZ+wMk+r2g2DgqyiCa6r2Zgr2lX0qbANshDjFEULMeMFAniGoMx6mzpVNDQlQr5irBxgFDWVXMqHCYKoWUB4hFla1ClR4K7Ljx3EkHtVOvtdT7VWHyEmaVqaFlY/VROCNM55foORvTl6u2lbDzLgZVbgDVaD44dl/f+qfaCM+tcrIm9Jtb1aZprfPn1fN6SAOEJNYkf37JINHPtwokC7WpofXDMfxxcE10OszQ1TbYLNnYQAgtFETLtsnd63Df1a3qwgoveXCALQauZdDIJIbcatVo7oYwBS1qlVLFomrEn8sWnRA3gOmMcXVdm0wjL1l+oinwV5vlYVLHadXrzl3DapJD6TqAAMbybQ+d3Silc2B5zkwPqpc3jgT3wSb7nf2B/qcNW7A7oWRetz3x8aHsGfAig0a4l7pOsjfog96BqJGkyhmo1R94IlXDTFUKqCTS/5QVBK7wqOABxaiAlBVsiwNBqOosx6oSXqs2ZKsg1k4KALeo2OigJBf3oKjuZgOt9r0PNg5jhI+FnmZfcnPaagoGYYf9JBsBhJb1fzb5/m2srj2LipN+yfvcPkgDhCSXNO+SFZcIKR7UEdTtAQT35hZl1YnwIBApHZrDxPyRcuy/hsh5fkeN3NbIF2B+iczPEtez8HQaeQe7HsfhG4D+S0dIEDurnJDv0p2PndWn7XK5568cQh76uSP5uwaTEaVNbryeqQAISW62OKprY4EE/WHLg2f/X+zjvALfBou/xP6ZEp49QsnDaFbNzjiabvWRG0o2zjSF58m4Izw62JkTznHxX2nt+VbxgqPjjhLqYDfpx9uRQOXSnMFZ3uBuTZIRBc89DSCEpxBhx2zqJ9nM7OdmiQhUOd78fnOr9qY3QHMJpAFCkrsif35JhsrxvQXwlNaVa63fHklziUeAq/48hwSxx3Jek8r4E3DgfYeMHAPm94PScwlEOElvVD2c5NCbVG+FepSgMkLyLmFX3l76z+QdLVM75uRa0xEKNUOGnUUy8x5IOSyaUKY3UwhrTRApcW3ZQ2ffHSsd5+mc3wgOXAcVXmeGsCy2j/bORkrA302LtvxYCnlH6nKQNIzeks5aiwLH3zlrYpq8KLktn1TtuhXGDI80XoZ2zFZhwNwzAYI+JFsKsWysQWAWYOW7V86t/mZSgunDldMAIQWLO/Ti5SebQrysuTxbBgnxAYToUBqpxcKWNDiau4DCTGBdCRDCKVEMAFYQtvk926cWlt93Tm0KxNZ9TRQXi1GfT5zE0vOYJByhNQVMEkx6nr07KbYiRoDF7L0PnrU8VsD2yv5LJdXNgaOdtkiFkPUN7+zKx1O1CDphGR1e/gjD+Xqq7dCK+LJb5xY8mKqxxtuOVqLdcgvo5kkg7IfAQPf1k+g/XOzbbUlJ+6TMgGmzL4Opf46Jml3Zc6p392aSHX33rl6aPTTbNoPUJBdB6GnfvZLpKiIHHAGavRkgAGLPqh1Tcqddvar9MId4N00fey4NEFKyoEwjLlteAhLnarKO5qUtgKBV+e2rrzU4SPXBG+/Uozdqrb4moNJh6wflNfajWLQg7BLfawrTyAuWFghP6HGInBPcG5DrfKi9EF11Y6+ZSWsD1bHhjgocV/bIgnryK51dDz7xLoR5lEsoZ3kelHOrLkv1ZItL1mSz8LwD8k2KasUi6fOS6ko56su3Lhj9n440oj/u7vO3gHAzgEXh/161/2gxfKDHyMl8y+exkS0Vsh3fwEG2yhhsOlVDPGyNEMIYrhwxlMkcSuQZDLV/AMtANgFZADwg4SJJLetYv2QWZLMy7t23p/9Ph16+p9dpO7gE2UHvwF9JM3BBoLr/hJwFO3ZHZc4rkemAtjB4iGuEjKjreyxAaGezOEKyFVJXZcxz/tGRfXWwPZsGCCla8fyLSvLYMDcBOt6maekbACE8q/DxoNipUhB/CAn7d3semNXjD8O8C5+YIkzjXsViGiAkwmc8RD2PRVhX0tuLBpJBmyfseeSseo/sHc8dkTXY2lhqwMplO/QefcDHdZZD1s+XbBxN0veJ4VjZ0f2SLPCylD379vljGmlEouu0/ll484O+BZZn0KQsu2IoUe0QKAxlGP2YRQ5IZAsKeAAymUkIwxOms3AsUkr/gXD9NjWgCCOKlgC+3ivRxAL1SYWbZwSMbiGmgOWYJQEV+r9+c9Hjbdt7l+TlD/TsuIvYORMQXsB8lmYGz4p9FwKL+403PFWlmqSoLwAEmzJWG+fUTOvN2p6uOKvSACGFUs6/eMXlUtI/tJpXlwYq5LYAglZpxxN63rNut9qp0daHhUI1S/WGJ8i/2Lpw7uspFGfSTRVe8qCP0f8CW+DHEmIsM4x6djf3BhSlfgsDn74AEHQuW8k1BZsfWrCj/vZXkjUCXmxi6ewkJ3A4zUKnArobl26eTkq8IcihcPhjkntXBS8unj/ukaYbIrQYx0nDeI5I9Q9/2j2ACEK4CrnW+oz+eew719HxReu2oPmrb0rrpkRAML8bZOcG3yy83pM+RuvvgrdglJzvYfVTFsY4CPa4nAGCYJHxbc/Z1j2x8rZXyCsEOX8PExQ1pPxO+iXthgaYqMaynWO8c/FpN3Tfq7pMA4QULte4M571qmF41zb5CDdyPmKnC394Wj6Ewj4FKRxEFzWlqMGpUQeZa0YSw+EdIPzXAt+364GP3gEakkx10bCAU14y8goqTxLC+S4RnUzgwaohXV/DMJp5NPcNgMBwdgery8buXvSd+rDF4FLPoabhvEYh50Q6F591+low002Lt1wAIR8VkciYZPpUUNfeOm90I6dLXoYBDsRaQd6RRGFuh6gHUNepvds3DbrjEoZDrMqZsNQOZv3NM69qXXeAhV0lQ7P7e0NnSNRcJtg4BggOIk0hqHUnrv5EgIWHLUVHemfVfFQPMIshcJTxPGB/qV4r1CtTfmtVkQc2WXeas2w3q2m6tC2BNEBI8Q4Z/Y2SMY4n63PtUsj1vgVt+A/ExummeCyd2Vw4LLJxcUMjtTOlkDpuc7s3RB9bMvQvtoL/3b72wAasap3nIZmxDrlw4UjhzTzNUMYc28AxppIjJZR0b0Qug0EL4KyPAgRFzkf+je8fjZeL6+njapYVHO1VO0cY84LPJCPnjtQtZhZOyaZbDMO8IXn8a91YPG/sL2L7D63EseTgHc1XUa8TiBgJ4tPIdWQ2rT3b0Zm5XjxBZmwBe15WwllWFbTfGrQAzXKupGJ0O55DVr+6YVNMCpzBVPcloTxFkmgQU50rMtf3qZ7bKJy8XMmsjXJQ/8PohLJ6/hNN051JFZsJVjhRmTvtjmpdUjGj5NtgNj7YsTP0hdyr0bsdrZMXRVwtpAFCXGLq0EM05OJnvu+T9u9cc51bus/BsEMjT8HDrqWW9G0uDBbcCAHmEInQDlvJTdnAGob42FahzyzHuyVHbd674bERNcCCVuIsI4MqLhZDVo/Kyhg4aJgkHg/lTLFJToMhJikyCpidiM07/Lx2Fg0fea2UPgoQwM7ybQ/NakSSpAlumqZuTsFSt9vEKcUvGTMmj31MSrnA3RdxmdKaNyuYf3/TuQU/jP3FehonCYtedQN/e823qhmoZmZznyLfRpusj0x2VinyfWxQ1aayuvx9oxaU6dwPbaKQNcWTPPmTKFsYa4ab5tAx0qmcJETGEUw1E4XDo4kwWH/2212syAOOkH82zrGuaSzr7C8aKvSiG97Ya3m13SiwGmXz6eZc+6145XGwP5cGCJ2zA6jw60+/5Xic4w52gBB7ekeiIFwnJ5cniihI4GoQHWCFSsXBGpOdAJSn/vYrKOBzyMxilgPAPICI+hEJb/iyGP4yaDDiNEnAptXMGiC0+u3oqwBBhX677eG513fOtu54q1fd+55ZMCzvRcU64VVHb9wRsKecB2+cX9go6iK0DEeboPfC6vGOj6t7arRkkmjmE6GlVAeICmJV4QiqtJBVC9j1EUOSpUdwIIOIs5nQH5D9iJwsVmwKHarrikQnKYqkXe7AZIMy46u+s2ueawQQlmfdaSBwfe8FBxqcSjjw3mzOrr61A+I46B9NA4RO2gKFl5SMCJFnDYEGiYNIgxD+YMdoLtuRb+PjUZNGOY0+69JNJKST5YQbDQOD5hciDRJiPz9hgNCWjbjpV6Vv+CAoR33T/8jMHpWe+EfLd+f0s4JvOMSH6wXsqCZBKGfpTfML58VupeAKz2RTOZ+4WqJeAxD0DDoOkrRvbTQpkhIR0Os20zTqJsqEGjEfuAKLXzgMChG8Y2hWbXlU1vwsvOxkf0AIToySbHXSkdlpzTJph1F+0QiMPJsWNJhOOq3DPtRwGiB04mIWfGPpfBjGowzSYVad2FPPatpNB59Q0SrMxh/1+iPQdYqKNtwSQGjcobZDtw0Qmg6w9wMEzaIoLPXVbQtnN7oBJrQUKa70s4VrR3oyvK9CeMc15LiIrxMDzos3zCs8LfbremB5/rgc7FqvAWUiH934eu55T7k5U9zXQOcKacvxueNAxAa9aQSdk2lBgzouuDT7UNMMfAJN46raz4rY8ySmd4d3V0iYJ/rOqTyoE20lsjZpgJCI1DpQp/DiZfc6wryyQ1C+A+33xEcTd3BuftjXH4GNHKOaA4RmfdYz5XREQgkjm4500mnPOkKBgv/f3pmAWVFcff9fVd13mZVhX0TABQEXkEVFUFAxCiqbcWLihibBaKLRGPclE1zemMXXV01EI+4avwFE1IiogCCIKCCIbILsmwwwwzDLvbe7qr6n+s4Mg6LODHOne4bTeYg+2F3n9O9U3/53Lee4vba+PHppyowcQsN5+ZuP0QIzGHBkbZphTC7WXzzfr3pxpbI3mneMsH0bvELldfgqr439IJ1r8hAkj+qC+Vse1qnvm5G/tBvF8JIDdou4U+1rOOQEU/K6JgndgsQq6YtwpGK51qjEG8HzLfgekUBIdYzMtrsu++ZwJvqbR7q2w6updi9Y7X9fyexve1njNVfBur0Ue2O+LhUTnbdPuGBjik3Vuflxr6/rKZX1LmNoW9NRNcXlV9wpPTEv9/iqefh9r2e0zhCxzd6+tcNIINQZ/I9caEb9ylTa8ZkjS1ZUP9V905ostBqdKrupblfp0INiZOzew2qYqR6hkkCoR5jf11Sny99tJ231KWfqiDqu02oAL4NgoiYCofFPBaSKNINcnlESP23FxNw6lW5OlV/fbnfcpOWnOjrtHcGt5jWxqZncVlqyt+vfr+xZWnm+yYMAzjcDLKNuAsGT699KllUTb5rmOVqjaDdTR7aqlkRLv4IcpIe/AnNaNr675gC3PoCIXciGIZkog45aEyCBUGtkdbug/RWvD7RF6D3NWdS0QCMJdeNIVx2cgCPVWq2Len3z0pVVL9Egsxo3+et+modnQCPzx54HxdTeYqY6PzqqS1GVQJiOdMT41wBrUzeBYEHDhpMzAHbhLG9x7OF8KG29IkYmLq/OwJkaOUtoZyZrhJncNNg2JuQJ7EIUHs5xPdR7J4FwqARrcX3Hq966Wgr+rDdATkMJtSBHp/4QAUvqLaJg/TFrp93YqL6U7n556WmhtOyZgBX9IcGsmCoPx2SXu39x1DdVAiG/R0iFN6ziiHepi0Awc/nOMXkIdb8XcscHEAtHmCpW31kkezj0PCOUEsBPIiPiBxTEklP4Q5zjzsbFwOx2smS5TO+cdvGeLY3L9+B5SwKhQWOiWdurpuXZlr4PqvarjBvU1Vob8/KwVVxFawRqja9OFzBIqdemFaw7obGJg8rbvTd/bR/GrDmci7TvQ6CFdm1Zcsw9F/eoWlsxK2+wdWafTxdyXdYzeV3N9/xLDjCRA/6TrXBj3wC7P4b1xa8AbQTCt55LLxtqU3tWDyQthUksplqxi7CrSoCZIrNv2wuYkv3q1DV9uciMCim45aFTQpeWfeaLC03MKAmEhg7o2Kfs9omO/7S4/nXTmWYwW69M2tbv34bY0Jibur3kGna9uKykfFBBwNcc/Fgs7spf38u2xWyuWdbBBtYUl1A81u2BEd1WV3+BybetWQLuoKr393eSXx3cstkXn+jxvwh1GAaZKIbc+ArCGx6DWalv8g1IuyWUaAE79hU0XK9rN+VDM7Z28XbZo++1JrtS8oi9HTkqrORyaJlMr9wIDgWu4srOTRtVPrkRuNsoXCSB4EOY2o99Ky0k9auuYiO8WrON/GiZKXBsh3Ss27IXO0scSLPzzKuia1XM7dZHGeXK1Mn7t3lV5Ur0xImGUoDJzV9ZuLeRY/1e95M9Rs+KMjVidSMotV2TONw7ac3xgqfNAnSrb0+/SW7yZCZOfmhU1yXV23LexBTBMLJqiryGAkFGOkIN+QJywViE+jwGufgK2LvmAMyFCneHPvVVIHIE1LrHYa++/7tlnWtyQ43kHJNeTLP0e8Twkgeru1w+Ne2aYow06wAAIABJREFUEOITuPdsVf6XAP9WKaYUt24VI+KPNBL0jcJNEgg+hanzmCnNHNhTBNjg/XubfXLmkMwqjDilJR4d2w9lCRe79iXwze44Vm7Zi6UbdmHlxmJsKUigJGFqMngZzSp2cO9PkfudnIbmZV/dJ2bEhvL2YSdHXTQilkZmhoUOLTLQrV1zHNMhHUe1S0fef1Zi865Yk17ioTVej5eWXdXYRw6+3e3un7LpaCXlTHDby5NQOcLmcgnN3AEPjjzm4+rXJKZggiVwzf5cGT8uRDWicE98HKxVf+jZ/WEN3Q5nVk/Y5eshs/uA93oWSibAs7pCfpILsXsauDLbR02uMw6m4mDMTKE1jUWNLkuH1IljIyPia6uzdd8W/48pmXtAtoUaCrBD+jmpy8WaKddlf7V+6t5VkcS1Lq3QNQchQALBx27R4coPWoA5b3Eu+/voxiGZNhUrLzqlNX57YVcc0TIdGRHbK9JU+VPtSI3i0hjG/msRwpzjqnM6orBUorDUQdE+ByWlDgpKHHy8uhDFZQlTJBvdOqTh/L5t0aZZBhIxF6s2FWLWil3o2j4LuWceiY4t0tA620azjCiiYRui2nvh8kc+wuwv93ijF03w0Fy6z8jyxO+3TMytqrbXlO7zrskb2jFmvRcCTqgUCFJIaJk494GLu35Q/V7jb/C/2Vz9sTYCQaX1BDtzLtxPfwm9byGs8z6HfLczdPPesHo+A7nhDU88MHc39KfDwawMqK7jwNuc7aX8VkUrITb8H0ThvCaxoFGrkMPCsczqWwE35yPaIcpXaqhOhjevHEEIpEBgSunQE/cvKb85L+8Hc6s3pcekwe6FBEKDoT64oQ5Xvt4CPH0GZ07FYiufHaq1eTMEqWAJhmZpAvf9tDuGn3kUIDU+WV2Ajq0z0Co7gqF/mo0BPVrggctP+o4FU8Rn2J8/wrJNRbhhSBfcdEl3ROwDX/ALVhdg4uyv8fexpyXL0ioJXjGd8MXa3Vi6oRCrvynGe0t2YtueOIS3aM2Yahp5EzSDqyV/uG14858XPZ2astm1Dn2KLrht6qrMZk72FJfLs02lBTOCENLOqHtHHXNANrz4Wy3utNnuh6rWCPzgC8xUbQhDn/QskNkZas45UG3OhtXn35BL7obV8wHINQ9CxyVEr4chPx0GXrgC6Pk00O4c6HXjgZLVUO0uhNVqCLD4BrBv/oPv7gCszAZa80WTKcJYo2ZdhGZaw2NDTImMygtKpnTolca3LWRMH7jaOHACgSklrScmu/E/5FZLD12jG6eTakSABEKNMKX2pM5jnmvmoL0RCb1TaykVre9f5S2YxuTb++Pkrq2xrbAcp9/yLqIhC62ybGzZJXHj8C64eWQPlJQ7+M+cr5EejaBZ2EZ6usCtE5ZgbyyBpY8N88TBl+uKMGfZFmSlR3DCsc3xzvyt+O8XO3Bhn1b4ensMxfv2If/Oc71ftXueXogXP9kG13tTmNI2zBvF8KpGeUfj3VUhvZkYVWY57LaNL134L1OGJxVRDFqbTz2l7e3Ntz7LOH6hLMltFbvynlHHvVTdz8TU7N8IsfdJXjkf9aMvMAGV2QdSO+DFi+F2Hwe7y00wxRPd5bcA294DHzAdbN8SYNkvoVvmgvd9Bs6y2xHa8rQ3zaU4g+z6N1gdx0DP7Abu7IZsfi7QvD/Y1hfAy6uN1P+oP75T11Klj7ZG7TtAeJVO7dg3DVsXgJnFRNWOQN0PU0qF/jnZKb+ZxEHq+hEJhNSxrVXLR1ySH0Va2gzNVf9k9cfGcux/X6WFGOb/4xxkp0fw/meb8evxyyqGYTWkZnjgsh64+pyjsHVXKc68cybiSkBpB2aawowGdD8iHe/9+SxwJjDkrvewcmfC2xkhLBdcc7gyuaTTvPwjFrD08fMRtQVe+XAd7nz5C291Q+WwtDmTNfJdFS7T4Fru5opds/mFEW82lh5Rn37+aeKGByH0HxXTt9w/6qgnqrftvhH6GbMSr9VcIJjOo5KfytqCPP4RiA6XQi28DqzoHchO18I67j6ojy8AK1kM1fcN6PSOULNPgc0cT5qZ/udETwQ/ez74nMFgxYsgTxoPfuQYuBtfhFh2tak96o1cqejxQLwAXO6EYhxc2gCvyhZdS0w/pAvrunhQJ5Cls9lZiB2gA95CmoZYyrQ8JpgCgblKikcnu4k7SBzUshvV8nQSCLUElsrT+/QZa28/4YL/WsIeUrlnsLFshTQjlG2yQ1jwyBAwxnH3s4vx/LxNFXs0GJTmeOLaXhh9akes27YPo/5nPspdCanMH+2lhejYnGPOX4ZCcI6n/7sKj09fi6JyU7fOCAmzyDH5I8mZ2a3gYtYDQ9C5TTqWbCzEyPs/gin5rCrySxhxsH+HSGMcQdBwuV4v42zUzpcvCmTxpVQ+C9Xbzpu4+lcOy0578KdtH6v+97EpGGpZeEfUZo7cG4DR3uOluQ030gJ2+S4ok/X5zHlQO96DWPkHaNEcevBCYPvbYMuv8/o0U8mFiTJrKMSgqVAfng5VugTsjIWQPOztoOEf9gHTxVA8Ezh7OZyvxiG8/hk4nX4JxbNhbX4aLNQGzC0FdDmgYp4vzKQq8rI/J1NAm62YyeJIphyVgilfvv+oWDro/ffKMbOK+6pFUDTHFn6R6niwS9w3xQjO+fMMulnVgkyvLpaPA1jaMotVHakwzhqlHqQFibUIdh1PJYFQR3Cpu0yzjldNexVCXcIYE7qRJFQyPxunHJ2NyXcP9F7SZ98zA2u+Ka8ouczMMgW8eNMpOKdnW08MlDoSsZiDsrjE/JVFuO35z6Hh4P28s9HtyGwPb2FJAk+9uwKvfbQdu0sPFAhmS9qT1/bFBX07oKjMRb+bpyOuJJTZ62h+Vhu1QDAvAGuBKiq9YOuU0btT19caT8tjn1poP31t36p9+sbz8nwMtKP4qE4CweskFffPADf9ZPATx0Mu/SXssjWeQFBnLYXa9CzsNfcCZni9otyx7D0Jos1guO93BUKtgUHz4KzMQ/iEcVAfDYVVPB8qrRsweCHk+70g4l9BDpwPxsrAFt0AnPkhmAiDyRLo8o2Qpd9Ali2BWP8s7PgOaJEFN70beKQNlFMCUfIFuGOSSJqnjMPJ7AseaQ+ETYmEENS+xbD2LgbTtSvHLJl6xxqOC76vF5RPads5xMtuYnzfeQzsCGiebgpF1q6Men31MTMuw2KahX8vhpc8XV+tUjs/TIAEQkB7yJFXTv0rE/xmzbi3Wi/oIwkKClcMbof/ubIv4o5E99++g4QSgDZfXdx7cb95V3/0PbalN2LguMpUmPf+zFtWgCsfXeiVuA+bF/8f+uGMrm0QspILvYpKE7jmic/w2dq93heM2elg/vnbnxyJOy41azs5ul83DWVOwhtpaOQCQUnNn98W2vwbNPHFiIf66CXyW/WyIrs+r1pfV/VxW5spumrlk03fMY8bM2I0AnVKPmBng30yGtz70pcoD7dDZMgiuOueg7X8FqgjxoD1+BPknNMhBrwPuX0a7JW3Q3b4KXiPRyBndPAW8Ypzt8Hd9B+Ir26FK1pAh5rD6vMalBBghQuBaAewJddD8QjEqe+DRTKhEoVgdjq0mQ75/HLYBW8li1ee9iF0Tk+wsg3Qlg0e7Qxn7T9grzRZkWs+3eCy8GJ7eHmfmsRhT/5R2em8dJgOFV3NEe/HGTKYZhave233mpitUnAaVpnUcrQ90p1eiwvp1EMkQALhEAGm8nKvdoMlxgutQ74O7dXgJk3mgsd+1R2j+h+DwvIETrhhhjcVYNYXeIfWmPGnATiuUw5e/3Q9/jB+CZpFw0iPms1jDBv2mF0JwhNC5n9HtdC47+e9MbhXewjGsLM4jkH3zkFZuQulHO9banDXHLx8+xle8wNufhcb9saqciQ1xhEEBjiWjo9Z9/zFr9YA+WF/SvHUlsdlYteqqndinQTCtzB6OQ68DguZcTzYgOnQ8WKor/4PDDbEifcDugiY1RssUQLV+yVoEQb/dAScEx6F1WIgMHsQZL8J4HYO+KcXwuEW7PN2w11wBcTuyWCmLDei3tQECt4DX3ErlCuhrHSws5eYlTRwZvUCk6VQIh2898uwWw+G+2FvWOUboPtN9QQMX3Se98/ESeMRbj8MmNamFvLA3CJPFGm3Tc4oVBXBqmmn0lOadXatsl9yxS7jjHWEThhwNVcnNTXk0cgu3MfFqdkXFayp8WV0Yr0QIIFQLxhT10jbMZP7RXT0XS1U82SKoWCOJoS4wrRxg3Bsuyws2VCEYfd/5L3wK9OwmQHCjx4ajE6tM/DSrK9x+8vLvcUEomK+VVRbMG3me728+Frg/D45+Nf1p3li46q/f4pZq/Z4osO8CzrnMMz9+zCPySUPzcC8tfu888zRmASCEUQhpQpkWfzUjRNz16euNzWtlvWUSGfw2Pp6FQhViJLz/CrUAjjqDqBjLpidBblzJvjSq8HlHmiVDvfsz8HWPQm+8VHoVueD95sId84w8NNfQWLVX2BvfhYy7WjYZy2BmtEbPPZF8hm2m4MN+hJY+7/gG/8GqAjcjJ6wBs2B88lIiKJpgDTrEBikfRysIQvgrLgd9qZ/wT35BfBoN7B5pwEIQ/b4C0THy8Cmt9r/iq6JWNI2tJBFcdc6OToqtqEuvUPngaMHwvFQ+gBmxa8TMnSe5m66VTEdU5c291/DoBn7sijmDmyei72H1hZdXRcCJBDqQq2Br+l46dT2OmK9wTnvZwoiBXG6oWW6hXmPnIuoxfHM9DW4b9JXSA4/Jn+pIlxh3l+HoHWzKMb/dxUenrQqufCQcUhhQzAgK6LRpW0GVmwsgXQ5TJnZ049Ow0t3nAHBBS7761zMWVNcdf9Ztovl40d474e7X/wcL8yuquXTaASCwyW4FFOl3HNZYynV3MDd/3vN6SlopkRoCWPo5C3yq0q/WZsphh++GzNLxpVtNj2AaQ4tFRiSRTMT0Z6wz5oDd/4wWEWfQvHm4GfNR6xggfdFn5h9GkKxLXDbXgK795NQ09uBuXs84SEjXWGdtQjy82th7XgN0FE4rc+B6Pcq4jO7I5zYBJgqSmYfEIuAn/MVsHES+Nqb4PR4BKL9JV4NCZZ9EnjLAXCX3AJ7x7/3b4KtiUDwlEoaFC9PMBXerpTzdpzZz6U5ZUtYHfIKmPUJmHhEJIZdbUUodJHFyscoS/dkKswNQzCzMLOGGSiZpaHlU7DlTdWTOAWl7x0ufpBAaCSRbnPF9HQL8fu5zW92TZ5AP1cTH4RZy0wbD19zIo7vmIW7J3yGaatKD8hlmBNVmPvw+ciK2ohLhdJyB44rEXNczF21C3e9sBqtsl3M/9swFJYlsLuoHEoqdGqbhcyIjfU7y3DeuFkoj5utjEkHwiyB5U8OR8QWeG3OBvzxhf2p+oM8guAlemLm11SVQbKbt365/TksatrJj1L1mO3Jz8nOCJX9XQj5K1711Vpt9eEhGza1PaoLDvOCq9jNkNkL7Ng/gn1xA5gq9fql7DUBaH8xeGw72IyTwLiAa7ZBthoI/UE3MJQBsOFmD0Ro4DS4c424mOP9ndN6KETfVyBnnAjhrgWUGUEAJEvzBALb8BrY2lugut4DdsxdUAVzwdO6QKo9wLzTwM124aodHZU3XkOx5I3aKbgs5HItCjWzlzPFJsUTsTfScsu31gWjngWrpDCjuWVbPWy4PxNwRmqt2pqPhmQ2j4PtiAiZZyPmuuzK0KjySdUTONXFB7rm0AiQQDg0fg179SX5ol00Ohw2XrDAM4NVMjo5AcJDgKsFmDT5DbyVxx6jllkak+8YhBaZEURDApbg3qiBOd6Yvw43PLMaOeE45v3jQmRETR7EiukUAMvW78EdExbjy+0lkNzeX12Pubhi4JEoLCrDih3F+Hp3Aizw2xzNhIK3ke1zJvWYLS+OSI4501FnAmaYW56YeSG3y19mWmfur5NwQCWBOrf/3QurVwoxhcm09zI3UXVaj4Ld7wWogtngn40AWCb04M/glH4J8dnFFcXLGFTryyBOHg81uy+El1yJQWafBDZwLpxPfgq7cDq4tyuBQab1Ahs0F3Lx72DveA6y8+/Au94NNasPdKgd2JkfAGseB1+T561v8I6ajiB8L5Vk0TOtWZlm7iYtInO1IyftLm42t+2V35TWBeaOF9uk5+SUdbS0HsS1uhgsdjrA07WptWK2nZocFZIvc1XoZ+HRJSvrYoOuqV8CJBDql2eDtNbxqilHc502QQlnUIMYrI0R86PCzDCsWQlu/j/5ojf/FrI4IhZHKKwRDguEBZAdslBWrvBVQdwkBUKrLAudWmehWaYF6brYvjuG1QUxxB1vfxXARJUISO5nNx94GqrihzH4AoElmLL+YZXtfXjdxFyaV61N3/qRcwsnt+sUtXePD8E5j5nOV1EWrB5NVDRVTSB43btaWmVuQ5k8B5yDle3yFLN7ykTwLZOAbeMr3twW0PlW4OgboWf1gZAFyXc6z4I+8z2zQAHugtGwzfSE2UbZ69/gzXpAfXgGbHcTnDa/gNXzn1CzekIkNsLpcBWsk/6J2PyfIFI4P7m1uJ4EQhU7b4TB1VpHChQSXzIn+10X6p2pas+quiQrMqKutEd6ayscP1HAPl9w9hNXOTNs27mPDUNx/ceMWqwLARIIdaEWhGsuyQ91ilq/d4Q9jmtEvNTCjeBIlpet9NXUdvSG2r2tip6o8O7BfI2ZP9WHin8sQcuBc5uVWe+SSIKSKMldrlx149aXRs06XFImN3SXNMPaTnGLX1ts7wMMqnny5e29fhvYlf191+zTMX2QsYr6WtpCov1osOwzYK26DUzHK6YxBOJZPWD1ehE8vS102W6wUDa0G4P8/Pew9kz3hEei5UBYffLhzO2PcNkqaBaGPOlJMJYOvmSMV3Gy/o/K9UQWNNzkFAFHQiP0NWN6rlT83Rj4vIwRpSZhQ60PvRA2+sClKYVao0vpBSQQUoo39Y13uPz1nozzf2nBTYrmwKsE79vL89Kbia8AdEBx52rioIbzp14rARYITMW55I8z5jy44flRtd5Slvpe1PQsxKaGj2M8/R8WioeaRITVVjD6d7NVVaW81fnJ0a/KhbwVhcfMwIeLMHj2yeBpR0I6xeBFi8EdkwNEeUJCW5lQ0bbgpSvAdKxCA1nJXQ/eIgQzsvbtZypFt+35bfKdmGfVNX17kavY+1paM21Z9iXLRZOsOpoimoFrlgRC4EJSB4cGz7Ladi6+WXDcprRoGeRCx953XJWMqfyq+/bKZnNCbb/6D/xCPLCkUcPrpop1BiZJ9EIF/bstz41cUIfI0iWHQEDnQ8iwuIrDymNwDppS+BCar8OlFcUcql9ZPdFQxchacpeSGVmzk6v+ve5b7an2zjNJJas9N+YS7+/NVEClAK+Di7W+xMzkVAp5M7XhbVw2648Ug7OR8dBMCTZNxPRnWBHbwqgkc60J+3kBCQQ/6dez7c6X/qdzPBJ5lDE+VECE6rn5FDZ3sK1PtRUIKXSvlk17v9XgBUo5D28tiz+Kibk13NtVS0N0eo0I7Hj96NYt+ea/cMhLGVh0/yrXGl1OJ9WVgJeZ0owuGNHgOpJhodQ5L4Z3dJrArl10QNrsupqg61JLgARCavn60voRl79+PmzrbwDrwQ7co+WLPz9utOkIBA2UK63e5KWh67dMPN9seqcjIAT2TrFPSRfiCa6dPmZMvOHHlQICoiHd8EYXvIRprtZsRrws5zfRn++oU1KmhnSbbCUJkEBoqj1hcJ7VvnOvsYLjPmirTVO9zaDcl2bMlSy+WMbtsYd79cWgxORgfpjV8yV9o7kR6TxiAe2S4/ENvYAxyITq1zcNoTTYKhUXv7Jzy+fXb+vUWqoJkEBINWGf2+885rmIslvcBq1u19JK89mdJmdeM60UyjZxRK/f8uzwaU3uBpvoDWkN7k5tcatA8d2MmdwJDbSor4nyPMhtKcWxzXWyfhceXTT18LntpnWnJBCaVjy//27GLrQ7xbblOVb5nUKnVewRr9xJULG46XBhUQ/3qbhjtmXu0g6/buuLIyfVQ5PUhA8E8vLA7+2V/hC4uplrKwQWa9hdAD7ccypNmuRoYPgmxrOvS7to95RU2qK2U0+ABELqGQfKQucxsyJxFF7PmfVnBp7BqlZCN95FgQ0KmCWglb1dcveGnH3OWysm5iYa1D4ZSwmBnfnIyAmHbuMMf+TajgIVQiEl1ppeoyYXg8uwhil1o9UhPoP19bZZ0NHICZBAaOQBrKv7La+Zmhl2EucjFHkAGl0bpq57Xb31+zqTCtYMQrsrGHP+oEvUnC0Tc2l/t99hSYH9oleQk5YevcJC4l7Nwy252cbvbUWsvqSR1iyYbI+aSTAdhoT7ntLhe+1w8VIqrJSCTuljkyQQfIQfBNNmRCEmik7iLr/Z4tYoaB2uvjU7CD764YOZkfa2lWsmhZZTtZYPbSpzloFGDPwIR4Pb1Pk52Ym02Dmcy7uZUr25KVXoJQMyCY5MjYTD9PAyWCtobu+RsP5puRkvwNm5oS7VHw9Tgo3qtkkgNKpwpdLZPH70pf07xKLxoRxsrNast6mhkkqLQW3bJHpRjG2U2v13SIVe2/zC0HWUGjmo0UqtX2seQ7hTp5YncpSMFUz+HIxnwKsaefiNImiYmtr8PaVDTwod+piNKqKsoKntfr63TgLB9xAE0IFL8kMd0u0emlsjwOK5XEa6Hx5iQRVpxf4LS70c05i369kR+wIYHXLJHwJM57dqI9OLzoXU13DJBjAubX9caUCr3I65jH/CuH5VxPE+GxXbeFiqowZEHiRTJBCCFI0A+tLjkvxQaUbkBCg+VDM5TDHei4E1me2SDHqPVpitNSZZnM/c8PwFOwIYBnIpQARMwuT41JZdbV0+TIvEaK5ZHwYV9VysSJMcIHdr6Yop8RzalRByPlf8LaWyZoaXXr+e5eXRPtBakmwKp5NAaApRbLh7YG3HTOkkgDMEY0M0Qz+X2V1MNUkzRxv4g5nqkXCYtNdLEf+YS7ztcmfOjudyk/V26SACtSRglibE38g+yuaxczXHUKFlX8VEW6bBmamjcNAjOMmZvGqqjBdLxlYzF/O0lfZ+mZO5IGv01t21REGnN0ECJBCaYFAb7JYG51lHdO7TRTN2OlPqDC5ETwUcKYDmgLJMitXKAs7JAjQNdyTXEZglZbKMaWsb0+pLCDUHUO8f/fUXqz78MO8wXmnWcHE43CztzG+VEY2U90ljiSEMegBj/FgtrTZMuGbZfxKHqbTY4AsdkxVCAGHKP+4EnPVKhRZplTlbWOULMKJ0Z2Vh7MMtZnS/30+ABAL1jvolMPaptG6lOUcXhVhfru2+nPFuHKw9GHK01pkaLMwAkfy5Sv5gKvO5VYutE8lTk4Ij+a9Ma+gEGPYxhT2M801SqqVKWPOYLlq47bnVWwEaIq3fQFNrNSGg8xFKWMceLcSG/kKjv+Th4wUSbbVWOUyrdM1gH7ASWNsAq2kKgW+LbgvgSkMpVzMjBFQxg9itoTdpFlqmeXxRSeyoz9fuWrO577WUp6Am8TvczyGBcLj3gIa6/7FP2a33ZTYXVqgjF7qLI0JdotI6koG1drlsoZXOhGJRcIQ4YGsGU0yHe0OgmksNSK2NCGBlgqNYMmun1NjCubMeKrFalfG1O3YU7cCHV5sMN3QQgUATKJh6XGZLufqIuGhzrGAlXS2e6CK13V6pcEsbhRnQiIIhBE87M+7p4WRWM42kGI4pFYlBYy/TsoALvUO5XTY6duF6lti1fkfkxG3PLVy2N4/KKwe6HwTdORIIQY8Q+UcEiAARIAJEwAcCJBB8gE4miQARIAJEgAgEnQAJhKBHiPwjAkSACBABIuADARIIPkAnk0SACBABIkAEgk6ABELQI0T+EQEiQASIABHwgQAJBB+gk0kiQASIABEgAkEnQAIh6BEi/4gAESACRIAI+ECABIIP0MkkESACRIAIEIGgEyCBEPQIkX9EgAgQASJABHwgQALBB+hkkggQASJABIhA0AmQQAh6hMg/IkAEiAARIAI+ECCB4AN0MkkEiAARIAJEIOgESCAEPULkHxEgAkSACBABHwiQQPABOpkkAkSACBABIhB0AiQQgh4h8o8IEAEiQASIgA8ESCD4AJ1MEgEiQASIABEIOgESCEGPEPlHBIgAESACRMAHAiQQfIBOJokAESACRIAIBJ0ACYSgR4j8IwJEgAgQASLgAwESCD5AJ5NEgAgQASJABIJOgARC0CNE/hEBIkAEiAAR8IEACQQfoJNJIkAEiAARIAJBJ0ACIegRIv+IABEgAkSACPhAgASCD9DJJBEgAkSACBCBoBMggRD0CJF/RIAIEAEiQAR8IEACwQfoZJIIEAEiQASIQNAJkEAIeoTIPyJABIgAESACPhAggeADdDJJBIgAESACRCDoBEggBD1C5B8RIAJEgAgQAR8IkEDwATqZJAJEgAgQASIQdAIkEIIeIfKPCBABIkAEiIAPBEgg+ACdTBIBIkAEiAARCDoBEghBjxD5RwSIABEgAkTABwIkEHyATiaJABEgAkSACASdAAmEoEeI/CMCRIAIEAEi4AMBEgg+QCeTRIAIEAEiQASCToAEQtAjRP4RASJABIgAEfCBAAkEH6CTSSJABIgAESACQSdAAiHoESL/iAARIAJEgAj4QIAEgg/QySQRIAJEgAgQgaATIIEQ9AiRf0SACBABIkAEfCBAAsEH6GSSCBABIkAEiEDQCZBACHqEyD8iQASIABEgAj4QIIHgA3QySQSIABEgAkQg6ARIIAQ9QuQfESACRIAIEAEfCJBA8AE6mSQCRIAIEAEiEHQCJBCCHiHyjwgQASJABIiADwRIIPgAnUwSASJABIgAEQg6ARIIQY8Q+UcEiAARIAJEwAcCJBB8gE4miQARIAJEgAgEnQAJhKBHiPwjAkSACBABIuA1pUstAAACUUlEQVQDARIIPkAnk0SACBABIkAEgk6ABELQI0T+EQEiQASIABHwgQAJBB+gk0kiQASIABEgAkEnQAIh6BEi/4gAESACRIAI+ECABIIP0MkkESACRIAIEIGgEyCBEPQIkX9EgAgQASJABHwgQALBB+hkkggQASJABIhA0AmQQAh6hMg/IkAEiAARIAI+ECCB4AN0MkkEiAARIAJEIOgESCAEPULkHxEgAkSACBABHwiQQPABOpkkAkSACBABIhB0AiQQgh4h8o8IEAEiQASIgA8ESCD4AJ1MEgEiQASIABEIOgESCEGPEPlHBIgAESACRMAHAiQQfIBOJokAESACRIAIBJ0ACYSgR4j8IwJEgAgQASLgAwESCD5AJ5NEgAgQASJABIJOgARC0CNE/hEBIkAEiAAR8IEACQQfoJNJIkAEiAARIAJBJ0ACIegRIv+IABEgAkSACPhAgASCD9DJJBEgAkSACBCBoBMggRD0CJF/RIAIEAEiQAR8IEACwQfoZJIIEAEiQASIQNAJkEAIeoTIPyJABIgAESACPhAggeADdDJJBIgAESACRCDoBEggBD1C5B8RIAJEgAgQAR8IkEDwATqZJAJEgAgQASIQdAIkEIIeIfKPCBABIkAEiIAPBEgg+ACdTBIBIkAEiAARCDoBEghBjxD5RwSIABEgAkTABwIkEHyATiaJABEgAkSACASdQKVAeIkxdkXQnSX/iAARIAJEgAgQgYYhoLV+iWmt1yilPmsYk43FCm8sjvrqJ1HyFT8ZJwJEgAikjgBDv/8PYRJVR9v1c1IAAAAASUVORK5CYII=;textOpacity=0;" vertex="1" parent="1">
          <mxGeometry x="616" y="669.29" width="280" height="196.54" as="geometry" />
        </mxCell>
        <mxCell id="h6RiRNKAuwsU3fVTqDMK-102" value="" style="rounded=0;arcSize=4;dashed=1;strokeWidth=1;shadow=0;comic=0;fontFamily=Verdana;fontSize=12;html=1;glass=0;opacity=40;fillColor=#dae8fc;strokeColor=#6c8ebf;dashPattern=1 1;" vertex="1" parent="1">
          <mxGeometry x="330" y="590.01" width="1230" height="369.99" as="geometry" />
        </mxCell>
        <mxCell id="h6RiRNKAuwsU3fVTqDMK-101" value="" style="rounded=0;arcSize=4;dashed=1;fillColor=#d5e8d4;strokeWidth=1;shadow=0;comic=0;fontFamily=Verdana;fontSize=12;html=1;glass=0;opacity=40;dashPattern=1 1;" vertex="1" parent="1">
          <mxGeometry x="320" y="230.01" width="1240" height="360" as="geometry" />
        </mxCell>
        <mxCell id="h6RiRNKAuwsU3fVTqDMK-32" value="" style="endArrow=none;dashed=1;html=1;fillColor=#ffe6cc;strokeWidth=2;strokeColor=#666666;" edge="1" parent="1">
          <mxGeometry width="50" height="50" relative="1" as="geometry">
            <mxPoint x="576.25" y="990.01" as="sourcePoint" />
            <mxPoint x="576" y="170" as="targetPoint" />
          </mxGeometry>
        </mxCell>
        <mxCell id="h6RiRNKAuwsU3fVTqDMK-33" value="Source" style="text;html=1;strokeColor=none;fillColor=none;align=center;verticalAlign=middle;whiteSpace=wrap;rounded=0;dashed=1;fontStyle=1;fontSize=28;fontColor=#666666;" vertex="1" parent="1">
          <mxGeometry x="360" y="190.01" width="240" height="20" as="geometry" />
        </mxCell>
        <mxCell id="h6RiRNKAuwsU3fVTqDMK-34" value="ClickStream Fanout for Analytics" style="outlineConnect=0;dashed=0;verticalLabelPosition=bottom;verticalAlign=top;align=center;html=1;shape=mxgraph.aws3.kinesis_streams;fillColor=#F58534;gradientColor=none;fontSize=18;whiteSpace=wrap;fontColor=#666666;fontStyle=1" vertex="1" parent="1">
          <mxGeometry x="640" y="374.04999999999995" width="60" height="63" as="geometry" />
        </mxCell>
        <mxCell id="h6RiRNKAuwsU3fVTqDMK-35" value="Customer &lt;br style=&quot;font-size: 18px;&quot;&gt;Analytics" style="outlineConnect=0;dashed=0;verticalLabelPosition=bottom;verticalAlign=top;align=center;html=1;shape=mxgraph.aws3.redshift;fillColor=#2E73B8;gradientColor=none;fontSize=18;fontColor=#666666;fontStyle=1" vertex="1" parent="1">
          <mxGeometry x="442.49999999999994" y="722.37" width="67.5" height="75" as="geometry" />
        </mxCell>
        <mxCell id="h6RiRNKAuwsU3fVTqDMK-36" value="DQM" style="text;html=1;strokeColor=none;align=center;verticalAlign=middle;whiteSpace=wrap;rounded=0;dashed=1;fontStyle=1;fontSize=30;fontColor=#666666;" vertex="1" parent="1">
          <mxGeometry x="710.5" y="190.01" width="210" height="20" as="geometry" />
        </mxCell>
        <mxCell id="h6RiRNKAuwsU3fVTqDMK-38" value="" style="outlineConnect=0;dashed=0;verticalLabelPosition=bottom;verticalAlign=top;align=center;html=1;shape=mxgraph.aws3.kinesis_streams;fillColor=#F58534;gradientColor=none;" vertex="1" parent="1">
          <mxGeometry x="950" y="287.54999999999995" width="60" height="63" as="geometry" />
        </mxCell>
        <mxCell id="h6RiRNKAuwsU3fVTqDMK-39" value="" style="outlineConnect=0;dashed=0;verticalLabelPosition=bottom;verticalAlign=top;align=center;html=1;shape=mxgraph.aws3.kinesis_streams;fillColor=#F58534;gradientColor=none;" vertex="1" parent="1">
          <mxGeometry x="950" y="374.59" width="60" height="63" as="geometry" />
        </mxCell>
        <mxCell id="h6RiRNKAuwsU3fVTqDMK-40" value="" style="outlineConnect=0;dashed=0;verticalLabelPosition=bottom;verticalAlign=top;align=center;html=1;shape=mxgraph.aws3.kinesis_streams;fillColor=#F58534;gradientColor=none;" vertex="1" parent="1">
          <mxGeometry x="950" y="460.55" width="60" height="63" as="geometry" />
        </mxCell>
        <mxCell id="h6RiRNKAuwsU3fVTqDMK-46" value="" style="endArrow=none;dashed=1;html=1;fillColor=#ffe6cc;strokeWidth=2;strokeColor=#666666;" edge="1" parent="1">
          <mxGeometry width="50" height="50" relative="1" as="geometry">
            <mxPoint x="1070" y="1000.02" as="sourcePoint" />
            <mxPoint x="1070" y="170.01" as="targetPoint" />
          </mxGeometry>
        </mxCell>
        <mxCell id="h6RiRNKAuwsU3fVTqDMK-47" value="SQL 1" style="shape=step;perimeter=stepPerimeter;whiteSpace=wrap;html=1;fixedSize=1;fillColor=#fff2cc;strokeColor=#d6b656;opacity=90;fontStyle=1;fontColor=#666666;fontSize=18;" vertex="1" parent="1">
          <mxGeometry x="705" y="629.74" width="120" height="50" as="geometry" />
        </mxCell>
        <mxCell id="h6RiRNKAuwsU3fVTqDMK-50" value="DQM" style="outlineConnect=0;dashed=0;verticalLabelPosition=bottom;verticalAlign=top;align=center;html=1;shape=mxgraph.aws3.redshift;fillColor=#2E73B8;gradientColor=none;fontSize=18;fontColor=#666666;fontStyle=1" vertex="1" parent="1">
          <mxGeometry x="946.25" y="722.37" width="67.5" height="75" as="geometry" />
        </mxCell>
        <mxCell id="h6RiRNKAuwsU3fVTqDMK-52" value="" style="shape=image;verticalLabelPosition=bottom;labelBackgroundColor=#ffffff;verticalAlign=top;aspect=fixed;imageAspect=0;image=data:image/png,iVBORw0KGgoAAAANSUhEUgAAAUkAAACZCAMAAACVHTgBAAABcVBMVEX///8YQG8Ct/EAM2cAN2oALGQUPm4QPG0ALmUANGjU3eMAOGoAMGYRPW3L0twAKmRhdpSossJ+jqZ0g50nS3gaRXX6+/z///Ww3vMAR5Dz9fcAJmH0///78+NpfZpDXoU8aJlOPWtkkbnZyL8sb5mmkJYxKGPm6OyNg4YAJ3DLta4AKWrIp6CffXzQ8//74NWv0+d8Y2+EstG+0uktQGjG5vQ5gKlgo8ZfY3jh/P+OnLHFzNYANXK0vcuZpLcAsfAzU3xKYoYAH16D0/VVbI3s3NiQgY1ag6Lf8//FsbNRVHkqOWsARIAAGVtTlL728OmtwNoAaaVhUWtBSHYaV4W/pKTt089wnMBJw/R5zfNkz/fGubuOjKR9jKsAGWSiyOFvYHGDi5d5Z3bbx7qi0O0rJmNOe6hUR2k8QnEAVJOJqcmzlZAAQ4c8PF9DUnLp3uCAdYdAmskAc66NaHANhrhINWZ4Xmqhm513kLWgqsKFeonULY0GAAAU8ElEQVR4nO1djZvTxLpvmMlXJ2natE29KdsC6xrZRfaooNBuS1q6K7iL1RUQLypcUBA8qPd86fWvv5lM0r6Tr6bb6h6O+T08D7vpJO/Mb96vmXnTLZUKFChQoECBAgUKFChQoECBAgUKFChQoECBAgUKFPh3RHkw7NU71Y7Zq/Xt0+7Mawu7VsWGphJCZEIwUgzXrJx2n15HlDsGkgUOOhHdoXXaHXvNUK4aREiAjnDttPv2WqEnJvLoQ3PLp9291wZOV5NSifT00ijUMh/KzXSF9CEp9dPu42uBiixnE+kBVU+7l/9OKPd6PZP+M02Y3VR0fSGRgqB25nfYZmcG848fx+mjqmBM6D9CUHd21WnkIdKLO73ZLeUxmWH8Z8w4q3MjlmdMWqO4j5SkpPgj9sN7yuL8qlIwGaCHIizKSNSaDd3QSERXJewE9xRMJjBZjmgk0aq1sm1ZttM3G5HUCIeusmAygckJx6SkdJx5e7vWwLx9B6wVTMaZrKhQ7WRhwN/hVDnblyfscsFknElOJeVGbFVo1TkqA6UsmIwx6UDrlYSQyFsezrIfrY4KmmCWPRZMxpisAZokzEzbeuPBmTM3zjy4ecv/1XZBCJea/hZbwWSMyRFYJhIWme0HN874uHHmW/9CBQFXysy7YDLKpA3X25Jv25fPzHHjS/+2DvCl6pBeKZiMMlkBblL2tyisMxA3fK2sKKCVr7gFk1EmByAwI99L3jzDg/pKC3hKvUsdZcFklMkeDDg0JT8bIfLGTdqsDsxbpueNBZNRJs05RbpLKXrjRoTKB1QFYYQ3CiZLCUzCCyN6IWrczLwHGmCSqm7B5EImv4wSeeOyd7UPQo5II3zBZAaTeoZO9gudjCDGJMgUWVD+NuonfSZr6Hdi0rJOWJVgnfTONd2XFXGkBqXocizi0Ga9edopobVEHKs/7Li4TSG79doSj3AG5qQp0hvF5qQ3cBbfMZNYdVUmsbuMRKdmjpqGL7AxExhjEiob8h/+IOIm36AXJ/P7pEaUSWzWZshZkTWoGoo625HXiaoY1f7i27xR9ZoGwnKwepVkrLUbwxxkWoNRW1PlUKJMkKjV80gsm7qBiM4ESl5PtXaXjhK6RZc27AMmsX/gdZVXSj8JsoGblCfRzFzAKISR61B8iLTYobAkK9rC4oTKpI1j50u62q4uqBCxe0pcokDE5iKJ/a5BYgJlb5h2J6qTZdBQd31PcJOj8jIbOtRA/z7IJOhcDiYHSE281zMKaZB1o5NSt+SJ9YaWcWMtTaKuNbOMvDxRkg9dJUyagDe2FwSuCIhNEaTS31ezG7FGJ2bSrirpVTOSUk1npEYyykRw+iQ4XS39Pl1M7/EwQY9nPQU/B7tqcB2oN9g4rj64Qcm8ceYmC1dwSclC94mZLAs48cbZA+Kb9gHMjBmgfUe95Pv6C8pLVDfZzVqTjAngRTMmoaMUcFiwcvnbL//75huBfvThASPL30/KZF9bVKMgy4lxwJqkuYQZUCfpxhpaLDFp8mx3QaEUeABj0oLmLagJE1sWYF+CsHAyJgeZ9XAMOk6g0hplqzLrfELhUi2HRJnEqbQbuYkMdZI3XUmNFflUmpBISbZPzmQ/HniTOkbiUWCSg0iPypj0QS4LlYWogVv5NXJ+tuhw3lNSR9wEWUO+DiNU2pMw6Qj5yo/0RnRgJlp8F0XUV1ZyTZ3HhRsJdPlmLuxvWDnQ4z2QLNdnXDoDl/9QkuwTMxkvP5JkmWAix/glE35BF3cKXkqOCZFjlxHnGWw3Gmwk+h5CgkSV97HDmCpL9L5ocU+AWQ1GTB4m3fqwNqj1Jo1o/b4R5honYDJafiSrqFs1TbPqamqki2jIERLVLKI1J3XTrE8ELUKm3oTKVY9EKR2pow6TGH2kApOocoRICSuNKhU40pMSo5lOcmc5wWdERdp8UTbDLLbzTCIjRDslFaF38FIkpTt0mOrZ5Z7LsyxxjqvK6zLB9eA1IcseVFV+aBj4+T7i+i9po9pcYoMrPZklgD4mkWcKZnkmMCFZn9eqcUuYLMjzGYdMooEzQ/o+S4fjQ5ZqsKnd49USA92u8OqvTjhH3u9yiicpszmwRhwhROAkOibPM3CxA4MTiDqc2x64UcWb66RnBrmolNB8DEvvBZU5HSCxdyn6fDgCiQmvITiq9Xado2TuX7hMWSDdaBgbcG4PmEGXux57g8auRpwG0MmS1clBpa4CxpZmsg5nUk5YV/Bp69xKHU5Dkt4MMrk8zgjthpsBMoovQyvc5sTMN/c5G8DxVahV5bUS6mQeKvnFx7JMOnDpLklJC7QyOOEIjucoerDbyUvCDtck4LoMiYylOYwzTuIoMH64fhYS96ciWQjUSdrhBasqzC+Il2WSS5HF5I3BGmyjhW1gDTyZJN7IZR/sEIXfeYV+CQLmqZLG2thw0YeTcxGHWxjqPJOlQSMjG9W1Dj+pyzLJHZinvY4CCSGBeTtt0I2EZR3rO7SoNtMtaNw45fUMC05ToMwwwEmxxU8AeGod1Umvzx2cskTSVTfqLZZkkoujYtp2D4wRoWpBklKzVe7xTJttF6gNSdtVh4ob1JcNAUmx8BaCK9+L6mSJbknLqh5bNxDkDmNeZkkmoTmwzfpEgFZSsGSEbjJdEGQkKAHLYwQlCzgUveuPElpP6pxzC8OYTvryey6enVp4kUHGSJgMErz1kkzCVYM6TG1mwnovNooqPLJL3QZ2wPCZ5sJzZZS+FQ+OY6QmnTtrNNc2uZuaHsMVfYpqWJVh1W0IMpFlqdkYmf1kw1iSSTguLf0gCppy8FTgyUj6637QvNkOKme36cc8sJlGhwrPB0j622+wmdRIH7jtlCkyzuyWZBJ2WEl/bBnMtMYUCQbSjNf6OtGjPi55Sj/SgFPs27INVhAZ1gMreKVm5tgXYEkmoRs30leU0EiDUAq2gZK2oUNw5/b+BRy5kHMcNlwGZxw9QiaFzLEvwCpMpjdz5NgwwAonS0VgnMD0wgmY9N2ODQRmMTmJGsFJsQqT6bYG/XjAG0gns6wbMqnQC5DJDOuD1cpMJ8GFnEwmxu7cWJLJQT4/2QeEn5hJSaMXuP3r9LkbxPwkMIucflJOXnnlhANjXuZ5v48TxO5AIU6gk751gxgn4fSpBsbCXm/lYnf6vrWTr1kOOCCmZk1dAJhPpi4c+D3MuJ/Mq5MSvcDlk+lWyhU8+fkkdyU1OPZjS4GTAs5JDu2GzdlIk2Al7OmcgEnfLZbBVCcs58J+AZUPNoO4NU6qMsM1REbinwdwgyAjhgTgFsZKmnlz+wIrMglXxpKalppDbxqsu2t5Fvpw9StlJP55ACclh3qbsGgmTUW4vaoVmYTrwNTVkZ1gBBUgMdxpyxz9aok5H/TCcoIM9Lm9x2S/xe19r8wkv9uZbIDc2VLwfQrcTluK46pw96349T8w5OR4GLcNJSRuvA74k69VmeR2YyU5KfXiyJbDQ3Zz4SY9Pxg1VwltBqD18MfFieAUThfiVPYj50yrMskrXLyuI7I/PDeUMjw4khI8lz3in7xo6IswgIcgiyeGO1YR9Ga0fS16lr8yk5EvU4jVnA65z+cHR5Gvs1DNSCrkdPnPV8qBKOwu9xquuqjQmPeCOjahkjgdFN1hXpnJCCMy6UFvXua/lULQ5oT0IwfsIzjr9lDgdSJ90zQ3anzNB1pQ7M1XcnkdbNYrfqGB5fQ7CfWpqzMZqfoQUMOs2KFEiT9p4Q4fO5HP8KTm0I8tv1qEH0bW2jwvrC5f9EHkTj+jBiPKvJeHaY1RtToZNbSk86PVmYxVIulYc32JQkwil+M6EU8jyZrcnVSro3gFU8pp55KoREvIiNbsTtIdZjWmeLRYTY5VH62NSTv+5VySTkhCubTGPzpSz0Khy4TEv31Ob+Z+HSgTvXhxnIwyVv2xIrwsrIHJUrmZTyKOlBmWzJw15upqC8UZrISCzayNkbKwBJXrYLLUj5dKJoDEKzQWl7WDPq4BCWXtmVtMlVwD43q5GpO5qCQJuWZptJhKCa2cAM3hxKjM3qxb+NWr62ay1F9oB2qsio3Cqi4ycH1h4rcUnG5k7hZsezqj7FIuPEuX18RkqdzNlChF63Rm6KmZc4Aba/KRIawO/8bRwg1kr4NpZfQSwcNaWGy7LiZLtplOiUTkdMXqR+p+IXRUXU/UhqgRmH4t3oovj9RkE5fViUMXEWwACUzmPKWN7XJVuih59oiayYdtyokvT0g6ihVKrQVOB1CT51CjMiExNdERmQQrY29B5nG53CltJpOeeo1wNKcWZEQ6i/ZonZ7gTQJfri5h1a39Xn91oNyRw7ck8h0PlYddrCIsy7qke9k5UnEXvqVtDyVVYUyOdSmElqWTaNZMTzzd8NZ5BCESSMRIJaNaHvu0B1UJez3VvX542bnX6ebv+5cwnNrIk+J1NP6eVloX+zWz2nUbbrdqxv/mid0LKtHrzcYMGRrUn7dqphHueBInocTKEhsP5UGP9rTRHdWHKXVSa4Vd8alZdd+zQIECBQoUKFCgQIECBQoUKFCgQIECBQoUOCXYdvrhTvHHppdA62P8Rtpnm92Pbv2RfYnjofmX0+3AEmidN2JMtr76+jr9/130zSkP5O07751uB5ZA67wYY3Ljzjc+k5eEN09ZJ982XnMm2xd9Jkv22T+iC5ZTnpUCzzwz+4EyGV6yy2Wb+xReSPyYnaeCp/OyosL8Z8TPYMGD42LB83wmue/ht0obhsckH228G+z5z+XVi9Rn2D8w2oaxwzzytvoJu3qJPCtNjxuCcOTK/l+N2v7YazUePfI/3fhn4/r+47EhXvwimOvNydhoj933gjFJVzePvQvdWyXarH33fdZq+j/0i/L3vmCWtkUChX+HvPSfMRqPvWc8gr2b3nvVbhtj9y9MbJMXy/XdZ/JJ86NQ+540P3cbknDU+Oxs6enhB+zyw/N0GB9d9Yfktj15I07eCrgtKtj9+FDFR7Q72+0PAibFc2en51VZktU2ZfKgrWLXVdXxF/6QvtPNO5r7MZZF//fSvTFW3S5WxWdsTLgjaq6AybmHY6XRxPqeb2P7Y1VtdiUVHfkj2TI+DJgUL/iy0ZFZb2rtZ3NLnD4XtcbH36vEoOPdeIuEYj+J991nclvcucpufdqW6/RbLgl6YZU222/Sh04fKyrpNlR00ZuZH9qoaXYkjQ1pdfw2vkAN6p6IaOe2jZBJ5dzZkmW/Lb70s7QfRPWc19vdJ9h3nBtvCe0PPLvYfa7/lZrH9g554Q1g+o7mP6V1XhCfec3fxnr7mVNq/aAin4ixvkP/v3RIXtBxbYkhk4rH5MaPyP/1/qsL895tj311vv8jaV6nYiXjGRV7rP/1VqzvPpOtYxRY1YH6WcneFS/esr07Ng3KZOtdVXnp/f/TtfGHpV2EfJPYPny5HiannwajQZ/FmJxFnI1D8oxdf4zv3qJDwoyE+2jH+7V1TD5jenSAxau+TvrDmb5i/7fOa/QxP6iBvjxEynsxJvev7DAfOYVRtsae+1SkauzpJBQb6TuLOPe0F/79U4USFUYcxuTTtsb8ydSb0PvqDnOg0zUHo9vaf5VSmbyn7QTD29eonW28Jft/RKG0K1z0RvjU2AuytY1D9MU8ik6v7bDr74p0VDsk1LafVfr0CJOvtE9Sezd9vvc+FYsCsVdCGwZ9Z1J3ryiPWJePrkeYbP2Mz81Zu4+0NeclD4/b4zvVq9tZTL6jBZdLrWvofyGTEh3SJe3u9eDzt9Hf5ky2OCZ3NSXMUp4qzatRJlu/KRiZ0b8R48WU8Z1GzU5mkut7IPXvPl3Wse8rOCan1xTAXetYRaSX9PVgJ8QvbbRnmt+PP9czmPy7FmpT62fqhyJM/qDNgsSW9lkak/e1iyHfzFh5JkutrbamaJr7KejdPlZ3qubkm+ZhEpN83wOpm9qebyaYtuCZPDZgnJ4eUHnK6P01sEi7eqj6+cHmYRaT78wMr/VbIpNv5mByV9u5HLR6aiQw6Y3tofm5QYx5xGk9xg1KyPQxSWAy0vdAqmc1Xg8PqG1kM0nl1b8Xyc56Is62eJd5wEsoi0nfpfvCj7UPk6w7jBLvon+kMqlo3watvBsuJzBJsf8YqzMfuHtFY2Ofvkpg8pLC9T2Uekk5urVxyG6MWLf2YYyA/WOWQ62MgDGPQ+Ynxb9x1wMmt7XQw29rNLhEmNw/DCd7V6QRM5nJ0vkwAZheU+lPW0qg6ZDJ0sbx3sy+PcaYnMSIE+n7LM690t7zIrj/ER+7D9SZP59j15+k1XFJabIZucd0Utvzf/USOMak4s9i6xVh07//I7l7NsZk6wlu+kxPr5Gd66lMXlKCaLml+sxvqWy4TyVMmfyKtW09n4/M00l2x36yTnJ9n627D9RGN9C+jbbod4wxua+xrKy0SyN5lSnH9Ps9mAecGPuH5JwXLqe3kUR7c1/T3+w7zr1DJDMm8Yvy5vvUsZGjR47z8BX2850Ik/QpRy8dZ/MY+xSlMNl6rOILZeenA5UFsNuK/EHF+WlLwzQ92h6rX5St0v7PKrC2J/iI0rp/LdlPcn2fMbl/qOsBx17m9etPXk7KmPRWVeRcxXFu4/YnpXtt/J5DvQm6u56EctvQhNHoys41Nq9PRKw18Z0PtgyfSW/xIot+yt5GSlMQtSO2AP4uHBL6hs35oaYIgoj2fBVq/XMcMHmHMfmvNkvwrxkaaSLNuMBM7zlS1Qa688k7bY/J6W+GSFz3UNkDO4nT5xrqjtz25MoOZfI7IxB76IuN9P08k+rlFyT0I6VjVbvyzaPS5thnsvWLoWlNSVReXPfsxzAk10XK0VpU0sP9erfR/frW/Tpbft6+5rqTQWmz/tIXfe9Hly3x97cmrlt9GSxDvqqzOd81O+yHKf148isr6W99Vfd71xp2WC9/qQfsbHe67qgTVsLbWz+63Wq/dK/ue8bN+sRtjL7m/P90a+Q995F1QAW2QrHTQCzX91Cq76NCBzH9uet6bffZcLxhfDXyRP7fWSZv5DYmv65x49K2YXpqcb95v1rJHyQ8Js9hCd8qJiz+jGyxdtKnBwisZaIN4POS5BWYY/+VsuZ14J8StjP9TW2e8lHDfwS2tcO1b038ObHddLufLm5WYDGcNZ7MFChQoECBAgUKFChQoMB/JP4ffweEmcXgSLwAAAAASUVORK5CYII=;strokeWidth=2;" vertex="1" parent="1">
          <mxGeometry x="1260.93" y="170.02" width="129" height="59.99" as="geometry" />
        </mxCell>
        <mxCell id="h6RiRNKAuwsU3fVTqDMK-56" value="SQL 2" style="shape=step;perimeter=stepPerimeter;whiteSpace=wrap;html=1;fixedSize=1;fillColor=#fff2cc;strokeColor=#d6b656;opacity=90;fontStyle=1;fontColor=#666666;fontSize=18;" vertex="1" parent="1">
          <mxGeometry x="705" y="702.24" width="120" height="50" as="geometry" />
        </mxCell>
        <mxCell id="h6RiRNKAuwsU3fVTqDMK-57" value="SQL 3" style="shape=step;perimeter=stepPerimeter;whiteSpace=wrap;html=1;fixedSize=1;opacity=90;fillColor=#fff2cc;strokeColor=#d6b656;fontStyle=1;fontColor=#666666;fontSize=18;" vertex="1" parent="1">
          <mxGeometry x="705" y="777.24" width="120" height="50" as="geometry" />
        </mxCell>
        <mxCell id="h6RiRNKAuwsU3fVTqDMK-58" value="SQL4" style="shape=step;perimeter=stepPerimeter;whiteSpace=wrap;html=1;fixedSize=1;fillColor=#fff2cc;strokeColor=#d6b656;opacity=90;fontStyle=1;fontColor=#666666;fontSize=18;" vertex="1" parent="1">
          <mxGeometry x="705" y="849.74" width="120" height="50" as="geometry" />
        </mxCell>
        <mxCell id="h6RiRNKAuwsU3fVTqDMK-59" value="Anodot Kinesis Data Streams" style="shape=image;verticalLabelPosition=bottom;labelBackgroundColor=none;verticalAlign=top;aspect=fixed;imageAspect=0;image=data:image/png,iVBORw0KGgoAAAANSUhEUgAAAggAAAEpCAYAAAD25NptAAAgAElEQVR4XuydBXhcxRbH/7vxpJqm7gr14qV4i2txd3fn8XB48ODhrg93LS4PL9JSoELdXdNU0niy2ff9Zrllu93IxmnO8PWjzd69M/ObmXP+58zcG18wGAzKihEwAkbACBgBI2AEwgj4TCDYfDACRsAIGAEjYAQiCZhAsDlhBIyAETACRsAIbEbABIJNCiNgBIyAETACRsAEgs0BI2AEjIARMAJGoGIClkGomJFdYQSMgBEwAkag0REwgdDohtw6bASMgBEwAkagYgImECpmZFcYASNgBIyAEWh0BEwgNLohtw4bASNgBIyAEaiYgAmEihnZFUbACBgBI2AEGh0BEwiNbsitw0bACBgBI2AEKiZgAqFiRnaFETACRsAIGIFGR8AEQqMbcuuwETACRsAIGIGKCZhAqJiRXWEEjIARMAJGoNERMIHQ6IbcOmwEjIARMAJGoGICJhAqZmRXGAEjYASMgBFodARMIDS6IbcOGwEjYASMgBGomIAJhIoZ2RVGwAgYASNgBBodgSoLhMJiadxcafpSKTs/qLQknwZ0lob1keL8jY6jddgIGAEjYASMwBZFoEoCIbcgqH++IeUW+LRjL6lpirQ2V/p5ptSmWVC3HuNTs5QQp/V50peTpREDpJZpWxS7GutMSUCatjQkrPp1lHy+Gru13cgIGAEjYASMQJUIVEkgXPaSVFAY1D0nSalJPufQgkEppyCoc5+RurX26a4TQu1ZtFq66jXpzmOlnm2r1MYt/kuZ2dJ9n0gt0qQL95WaJm/xXbYOGgEjYASMQAMnELNAyC8KauebfHrqLGmnXpv3bt4q6exnpKfOlDq0lOZnSje8Jd18hNS9jZSSKCXGS0UlUqBUSoiT8oqk4hLERuhzClG19/O4OCk5IfQnshQUSwVFUiAYisBT/7y/d11pUGI7JD4uJGLyqSsgxfullCQpKV7iGn7OdRTal5a0eSTP93ILQ+32+0Jt5fvVjfhXrZfu/jiUYbl4P23MvjTwuWPNMwJGwAgYgS2YQMwCITtfGn67dP9J0u59NyeDE77/06CG9/dpYab0yxxp9Expl94hB3jgNtLgrtLPs6TZy6U2zaVxc6TM7KCO2NGn4QOkdXnSmFnSb/OkNRuk5mlStwxpv8FSu5aSl4FfkCl9M0VClCAUEBD9O0l7D5RaNwu1bfUG6bOJUrvmUmFAGj9fylwfVEK8T9v3CG19LF8r/ThT4n6lpVKrptIh28mdqUAIULJyQlslUxchXIJKjPOpR1u59iJ8vOuqMldMIFSFmn3HCBgBI2AEapNAzAKBxtzyjoRTO28faav2UlKUyJ4MweIsadoS6fGvpHP2kjq2YvuBcwrS+79Kb/8ipTeRdukTcrKdW4Wi51G/SpMWSnv0lXq1DTn5zydJTZKlc/aWWjWRlq+Tbnlb6to65OSbp0hL10rvjpMGdZHOHh7KKCxZIz38uZSdJw3uJm3TLZTCp12fTJA6tQplHXq1k7buEMpsfD05qEVZPl03UuqYHso83PexNGOFdOIwqV2Lv4QHWYUbj6he1G8CoTanuN3bCBgBI2AEqkKgSgJh5XrpmW+kFetCDn9gZ6l/Z6l9i82fYOAMwhWvSHcdF3LCXkEgvDhauuQAafet//oeEf4rP0pH7iQN7RX6eVDS3BXSk19J+w4K/eFA5Ie/SzceGdoO8MpXk6WnvpZevjCUUUAg3PmBlNFEunh/KaNp6Eq2E176ISQorjhQGt4/tA1BWfrndw7dLlQX2wqH3iPddkxIzHhl/irp0S+kyw4MiZuqFhMIVSVn3zMCRsAIGIHaIlAlgUBj1uRIU5dIkxdLs5bzqKPUp510+A7SVh3+am55AmHM7JDT7pQeup7o/c0x0tyV0uUHSs1T/7rPhgLp2W+k5ETp3BHSutzQGQUi/PAyc5l08YvSu5eFnq5AIDzyeei8BG3zzguQFfhqivTGGOnGw0NCxyv07aHPpa3bS8fvEhITxz8q7dmXuoNKSgjtO3AWgf61bR46P1HVYgKhquTse0bACBgBI1BbBKosEGiQd7hvQ740L1P6bIL082zp2kOlfQaGmlyeQJi4ILRNQcqewn0e/1L6dipbC8FNDv/hjBev8bn3LFx2wF+HGacsDp1n4EmAnILQOxnGzPHpuxukZqkhgfDEV9Kw3tJB22yK8fvpIUGCQGjf8q/PEB+PfCF1zZBO2T3081/nhrYZEuKl3bYOve+hN9sr8ZUbGrIg9Jf6OBAZXhAgM5eH7t277V+ZDO8aDkMeuaO0Q8/K1WVXGQEjYASMgBGoLoFqCYTwynGAwVLpzbHSs99Kr1wYcvyxCAQc82P/k/IKpf0Hb9416uiQHor2yQBc/4b0xyJp5I5Sn7ahjAEHDu/9RPr46soJhLfGSDdUQiBQN09acKDyu2kcagyqZZpPVx0SOtdQ0SFF2kvG5Mmvgk7IhBfEz6psnxNcbZsH3RMW4YUtlDP38mnPftUdbvu+ETACRsAIGIHKEYhZIPw0M3RA8KidoleAIzzgLunKg0NZhFgEAnv9nG1gq4EtBh6BLKs8921oi+Cps4NqmvzXm4XmrJDOe05677KaEwg4cJx3eHtw8m/8HNRH4316/EypY1gGonLo/7qKl0yRsSCzwHkI7wmMWO9j1xsBI2AEjIARqCkCMQuED34LObO3Lg09gRBZOItw/CPSdYdJu2wVepKBQ4p3HCP1af/X1RxSjNxiwBHztMKXf0iX7C/3GKFXvAieMwQ46qteDqpnO5/O32fTFvBY5TWvSx9eGTrDUNEWQ2UyCAtXS+PnSYftsGmmgLdEnvm0dPG+0h7ViO5NINTUdLb7GAEjYASMQE0RiFkg8Mghb1Ls31E6YsfQY4Y85hgIhMQAjn/KUuk/x4eeGODAH4cGT989qL0H/hXpRxMIdApn/OSXofcjHD009LIlovclWdKUxUFt1cGn3u2kBz6VOJDII4acHyDrMHuF9M5Y6cPx0hfXhu5REwKBQ5hXvcrZh6CG9vK5A4nUN2FB6A2Itx0dekSyqsUEQlXJ2feMgBEwAkagtgjELBBoCE8vvDdO4skC9sd5j0BBSej3LnBo75ihoZchUUpKpce+kCYslAZ1lrbrHoq2yxIIZBF4BwKZCp5S4J0JvGuAlD6PEh6ybejdBbwc6cHPOPgQEggIFN6myBMRL/4gPXCStF2PmhEIvNWRRyp5mRLvUOCVyLRtdXboxUwn7vrXocmqDJQJhKpQs+8YASNgBIxAbRKokkCgQWQSePPgivWhvXNEAm8g7P7ni5DCXz+8KpvthKDW5fk0uEsoC8C7FBAUPCkQ+aIlRALvWJizMqjMbJ87AIjj53c5UIdXFmWF3sbIWw4RKhxeRETMWCb1aBPKYPCGRbISLVNDGYXwQnZj2Vq5jER4GxAk9I0+eY9RkjFAlJAlQazwOmbe+8C7HTgcWZ3fr2QCoTanuN3bCBgBI2AEqkKgygLBq8w7wIcTL+/XPLNNQJTPy4gq+7sLOPBIBgLn673EKLKT3jUV1V8VONG+Uxv1eY9VkpW48kAp48/XRNdUm+0+RsAIGAEjYARiJVBtgRBrhXb95gQQWRMXBt1jlDv08IlfTmXFCBgBI2AEjEB9EjCBUJ/0rW4jYASMgBEwAg2UgAmEBjow1iwjYASMgBEwAvVJwARCfdK3uo2AETACRsAINFACJhAa6MBYs4yAETACRsAI1CcBEwj1Sd/qNgJGwAgYASPQQAmYQGigA2PNMgJGwAgYASNQnwRMINQnfavbCBgBI2AEjEADJWACoYEOjDXLCBgBI2AEjEB9EjCBUJ/0rW4jYASMgBEwAg2UgAmEBjow1iwjYASMgBEwAvVJwARCfdK3uo2AETACRsAINFACJhAa6MBYs4yAETACRsAI1CcBEwj1Sd/qNgJGwAgYASPQQAmYQGigA2PNMgJGwAgYASNQnwRMINQnfavbCBgBI2AEjEADJWACoYEOjDXLCBgBI2AEjEB9EjCBUJ/0rW4jYASMgBEwAg2UgAmEBjow1iwjYASMgBEwAvVJwARCfdK3uo2AETACRsAINFACJhAa6MBYs4yAETACRsAI1CcBEwj1Sd/qNgJGwAgYASPQQAmYQGigA2PNMgJGwAgYASNQnwRMINQnfavbCBgBI2AEjEADJWACoYEOjDXLCBgBI2AEjEB9EjCBUJ/0rW4jYASMgBEwAg2UgAmEBjow1iwjYASMgBEwAvVJwARCfdK3uo2AETACRsAINFACJhAa6MBYs4yAETACRsAI1CcBEwj1Sd/qNgJGwAgYASPQQAmYQGigA2PNMgJGwAgYASNQnwRMINQnfavbCBgBI2AEjEADJWACoYEOjDXLCBgBI2AEjEB9EjCBUJ/0rW4jYASMgBEwAg2UgAmEBjow1iwjYASMgBEwAvVJIGaBEAwGlV9QqISEeCXEx29sOz8vLCxy/05OTlIgEFBxcYkSEhIUF+evkz6WlJSopCSgpKRE+Xy+OqnTKjECRsAIGAEjsCUSiFkgZK1dp6tvukuHHbiPDjtghGNSWlqq2fMW6JmX3lSH9u100ZknaeqM2Xr34y90wlGHqF+fXnXC7tOvvtO48X/ogjNOVJuMVnVSp1ViBIyAETACRmBLJBCzQFiVmaXjz7lCpx1/uE4+ZqTIHMyZv1BPPv+6JJ+uueQstW2docVLl2v8H9O047aD1L5t6zphN2X6LC1YvFR7DNtRTZuk1UmdVokRMAJGwAgYgS2RQLUEwklHj9SiJUv1/GvvakNOrs4+5Vht3buH47Q+e4OWrVilTh3aOWc9f9ESt+XQsX1bl23Izy9wf+/Qrq3i4+M2ss3JydW8hYuVk5un9JYt1KtHV8XH/fX5uvXZTgRwXbOmTbVV7+5KSkx031+ZuVrr1m9Qty4d3c8QL7Rj7vxFKiwqcvfr0a2zEhMStsSxtD4ZASNgBIyAEagxAtUSCPsN300vvP6elixboZOPPkzbDO6/0ZlPmjpDb436VCcefaj6bdVLjz37ihYvXaEO7dpo5apMZefkKT4hXqcff7gGbN1Hfr9fq9es1evvfOQEQGJigvLyCrT9kAE66ZjD3JmCRUuW650PP9PCxUuVmprixACC5PQTjlSzpk306Zff67eJk3X+6SeodUa6li5fqWdfeVuZa9YoJSlJhUXF2mZQP51yzEhXnxUjYASMgBEwAkYgOoEqC4RjRh7gDiL+NnGKTjzqUO2+8/buQKJXxvw2UU8+95ouPfdUbTu4v26680GN/W2SEwxcy1mGF994Xz26dtJ5px/vvvvSm6P0+8QpOuHIQ1zmYfwfU/Xymx/ouivP06C+W+nDz7/R6J/H6chD9le3rp00f+ES3fvYf3X2ycfosAP21mvvfqTvfxqnm6+52AmRJ194XeMnTdUFZ56oFs2aavSY3/TR59/o1msvcaLFihEwAkbACBgBI1DDAqFNRroyV69Ry5bNdfFZJ2u3nbff5MmBaAJh1twFeunxe1x2gPT/A0++qMVLl+rWf1zqnog467Lrtfcew3TqcYe7CJ8nEs6+/Hr16dlNl513mt547xNxzuCSc05R184d3eHIX36fpIz0lurds9tmAuH2+x7Tqsw1uuOGK9w2R/aGHPf9Hl07q10dnYuwiWcEjIARMAJG4O9IoMoZhOSkRI3Yfag4tFhcEtBFZ53s9v69xwujCYT5i5bp5Sfu3sjpsWdf1YzZc3X79Vdo/fpsnXnpddq6V3e1b9dm4zWTpsxUuzYZevDOG/TH1Bl65JmXFCgJaLshAzR0+21cJiAlOcnVG5lBmDhluu566GmlpqRo5+0Hu+t7du/s/m3FCBgBI2AEjIARKJtAlQXCPnsO09UXnSWcMOcLhgzoq1OPO0LNmzV1tcUqENasWavzrrxJQwb2VZdOHTZpcXqL5jr+yENc1oFzBT+PG6+Jk6dr0dLlIpNx6XmnqmunjpsJhNLSoHuaYvTYcZoybbYWLVmmgf36ODHDmQUrRsAIGAEjYASMQA1vMXiPORYXF+vTr0a79P9Rh+6rIw7ez0XzsQqEOL9fZ1x8rQ49YIQ7g+AdIuRphpTkZFHP9Nlz3VYBWwQUtixu+PcDGr7bUPfug8gMwugxv6pju7bq2b2L+/5Pv/yuB598UReffbJG7DHM5oQRMAJGwAgYASNQBoEqZxA8gcB92dvngCGRPWcFdtx2cMwCIS0lRQ8/86Jmz1mgE48+zD2OuD47W1+PHqthOwxRj+5d9fyr7ygza62OPfxAtW3dSitWZurOB5/S8N121rmnHbeZQLj8+jvc0w6nHDtSTdPSNGXGLD3x3Ou65NxTtNeuQ21SGAEjYASMgBEwArUpELg3zvrex551Bxd5SmD5qtWbPcVQ3hmEZk3S3JbBW6M+0ex5C51jLyoqVvNmTdxTChxKnDF7nt756HOtXJXlXqeMMOnQto3OPPlodeu8+RbDhMnT3KOWXMeroXPy8t1jkdzP2wqxmWEEjIARMAJGwAhsTiDmDAK/72DewiVqld5CrVq22OSOK1atVnb2BnXq2F7B0lJlZq1Rm9YZSk1J1rIVK53D79al08bvICYKCgvVoX1bscXAUwm82GjV6iz3joOUlGT3VkbOGbBtwWOVa9aud/fKzc1XixbN3Get0lu6z/ksJzdX7du2cYKA+63MzNKKVZnu90S0aN5U7dq0VovmzWwuGAEjYASMgBEwAuUQiFkg1BVNDiTy6uZov3Mp9Jkq/QuZYr2+rvpo9RgBI2AEjIARaKgEGqxAaKjArF1GwAgYASNgBBoDARMIjWGUrY9GwAgYASNgBGIkYAIhRmB2uREwAkbACBiBxkDABEJjGGXroxEwAkbACBiBGAmYQIgRmF1uBIyAETACRqAxEDCB0BhG2fpoBIyAETACRiBGAiYQYgRmlxsBI2AEjIARaAwETCA0hlG2PhoBI2AEjIARiJFAlQRCQWGReytiUKEXFlkxAkbACBgBI2AEtiwCMQsEfrviisw17lcvWzECRsAIGAEjYAS2TAIxC4RZcxepRfMmykhvsfFXMm+ZaKxXRsAIGAEjYAQaL4GYBcKEKbM0qG9PxcXFNV5q1nMjYASMgBEwAls4gZgFwvjJMzVkQB/5o/0WpS0clnXPCBgBI2AEjEBjIWACobGMtPXTCBgBI2AEjEAMBEwgxADLLjUCRsAIGAEj0FgImEBoLCNt/TQCRsAIGAEjEAMBEwgxwLJLjYARMAJGwAg0FgImEBrLSFs/jYARMAJGwAjEQMAEQgyw7FIjYASMgBEwAo2FgAmExjLS1k8jYASMgBEwAjEQqFeBECguUk7mEi0e/Y56tolX8pAj5WvZWfL5Y+iCXWoEjIARMAJGwAjUNIE6FwjBYKkCBfnasGqRlo3/Rot+/kAlG9Zo+OBWSuw8SPH73CJfUlpN99PuZwSMgBEwAkbACMRAoM4EAsKgpCBP65fM0appY7Xs9y+Vs3KhgqUBxcf5NXxwhhI7DVTc3jfKl9REPrII9rbGGIbSLjUCRsAIGAEjUHME6kQgFOflaN3CacqcPUErJnyj7OXzFAyUbOyFEwiDWkktu2pDj0OVlpqsJp37ydesveS37YaaG267kxEwAkbACBiByhGodYFQGgho8dhPNO/bt5S9dLZKS4o2a1mc3+cEQm5JnGZlxalrRpI67nWq/Fvtp6A/zmUZ4uITJH/1fkHUvHnzlJmZqR133FG+GshO8CuvA4GA4uPjN+tTeZ9VbmiqdtWECRPcL9IaNGhQ1W5Qx98qKgrNh8TExE1qhuuCBQuUn5+vXr16KTk5uY5b1nCrg01hYaFSU1MbbiOtZUbACPztCdS6QOAg4pS379eCH99XaXFhVGAIhBGD0rU+r0RTF+epd/tEtd/tZBW030mZsyYosCFTPbcbpvjuO1dLJDz99NP6/vvv9fLLL1frV1Xj/CdPnqxRo0Zp8eLFat++vc455xx17txZpaWl+uOPP/T+++9ryZIlm3wWrfMFBQV65513tGHDBh133HFq2bJlVEf53XffOUc5bNgwJSQklDnxLr74YudM77nnngY/Oek7DFeuXKmTTjpJGRkZG9uMMHjhhRe0dOlSXXLJJWrTpk2D709dNfCTTz4Rfx566KFy50JdtcfqMQJGYMskUHcC4YdRUbMHYN1EICzKVe8OqSpJSld+SZwSA9lata5IQw8cqfhdLpAvftNIM5Zh+c9//qNPP/1U3377bbUEAqLg3nvvVU5OjnbeeWcnBpo3b66XXnrJiQI+w/kNHTpU7777rlq3bq3nnnsu6q/Izs3N1e23366srCzdeuutTlB4JTs7W3feead++uknrV+/Xjh/HGl50fSRRx6ptLQ015aGXoiEx4wZI/q5xx57uHZ7JS8vTw8++KDmz5/vuHTo0KGhd6fO2ocAhRuitCYyYXXWcKvICBiBvxWBBikQerVPVW5hiYqKg2rVNEELsgIahkDY/ZIaEwikaEePHu3StNttt50btC+//FILFy7UwIEDtfvuu0d16Fz3448/Osd9xRVXaMSIEU50XHPNNc4p48gRCFdffbX23HNPffzxx7rhhhv0/PPPa5ttttlsciAQ/vWvfzmBcNttt20iENauXSuyHoiGjz76SPvss49OOeWUCgUCWx6XXnqpZs2a5bZTttpqK/3yyy9atmyZDjvsMBd1Tp061aXwd911VyduohVY0FeieRx47969XaaDe3Xp0kXTpk3TmjVrHCuyG6tXr9avv/6qrbfe2l1TXFysvfbaS506dYp6fz6nHdxz2223dQIB8fX111+rRYsW+u2331x2oTyBQMaGcaQttI+2JCUlufrmzJnj7tWkSRPXftqBcMO5tmrVyrUdRox/z549NXbsWMcIzmSDyioINsQh4zJ+/Hj17dvXzZmff/5Zs2fP1k477eT6Q/FE0MSJE9W1a1ftvffebjtl0qRJQgRRd0pKiptD3Kd79+6OyfLly122KNo2An3lz1FHHeXqgB91L1q0SIMHD3bzjDEm08UYkn3y+/1uriK0TFT8rWy0NdYI1BuBBikQev8pEAqLg8pomqD5NSwQMMbPPPOMS9NeddVV2n777fXPf/5Tc+fOdU6GCO3AAw90Tj9yb5yR+uKLL/TII4/opptucg4Yg3700Ue7tD5G+amnntItt9zijP+UKVN0/PHH6+6779YBBxwQk0DwLsaJ4SRxcpURCDgpHBzOCQFyxx13OMeHEKHfCAbaipO78cYb1bZt283ahVNBBLHlgVNF+NDfbt266R//+IdL/fM9on/OPPAZjg4xRJ18hnNPT093GZL+/ftvVgf1wxGhwvdx2Keeeqqrs2nTpk4s4GjLEggIFz5j2wgHz/VkdGgfogGhRvampKTEiZVrr73WteOyyy5zmQk+o/20A+fNdZxRQXR8/vnnatasWdSFSSaHOnv06OH6um7dOufYqQNWOGz6vMMOO7gsyGeffebuzxgwLv/+97/dHOIPbcR577vvvjrhhBN05ZVX6q677nLtYmzgF1meeOIJ8Yd5iiijrt9//931hzrIIiFe2Qbj/4gt+ka7nnzySTf+VoyAETACFRGoE4Ew9d2HtfCnD1RavPkBRRoYF+fTXgNbKjuvRNMW56lXu1AGobCk1GUQFq4OaOgBhyp+1wurnUEgEscJkfLHUeDYceIIhP32289FZURjGH0MbeSZAAQAWQEMNBE/4oJI9dBDD9XNN9/sIjfuzWc4N5z14Ycf7hwZ94ss5WUQqioQcFRkLHB8ON6OHTvq/PPPd+2gDQcffLBzKggWnFI0EUQ2BeFDxoHsxuWXX65DDjnE8cIB4xy5B1sqF1xwgXPM8EMY7b///u7cAA6KTAbfof7IEikQHnjgAZexYFuGLAhbQji1sgQCTvr666/Xdddd5+pm6wjxRztffPFFJzJwwNyDjA5jedFFFzkmROaMIeIEBmR7uBf3oL5HH33URfDRCgJhxowZeu2117RixQrXZxw5dSFaRo4c6e5JJI8YOPnkk3XMMce4uQArzprgpO+77z4n2si6INwQOYgYr27u4WVDwtsRLhC++uorNw70DwbPPvusyzq9/fbb4sAqYpUxIHNA3+gTW19WjIARMAIVEah1gcBTDMsnjtaaeZMVDAT+bE8w9P9g6P88ycjBxIJiacW6ErVuFq/CkqACpVJakl9rcoPq1m+g4nruVq1Dijic119/3UWIpIc5BMf/EQM4dQwqUVifPn1cqpqUb2Q6FoFARIgRxzGQQZg5c6ZzvkTqRIMYe5wMGQQcCQ4SR4HjqguB4J1BoJ84PaJ92kubiJxxVm+++aZz9GU5C0QP/SQNTvTJ370tDr4HH5wdTh5hRMExwvjss892PIhuEWHwJLMAm/ASKRAuvPBC59Q5RFqZMwivvPKKO6j3v//9zzl/to2ok1Q7UTiO+NhjjxVPSvz3v/912x4IF76DwIEHGYNzzz1Xu+yyi8smjRs3zokIBB5CpyyBQLaJDBRbAfSNLRaidbI2RxxxhIYPH+7qIGInS9KvXz/HirrIJiCYEKWItPfee8+JSYQq84mtlfPOO89t/0TbDggXCIwrjp+MEPWx5UEdjAkihAwGooU62X5gDMPPelRkIOxzI2AEGi+BWhcIPKK4Zt405a9eqPiEBCUmJCk+IV7xfp/8fp98QiQE3b8ln0rlE3/FEfNdX2mxgqUlimveXv72/av1GmZPIJBBIEo98cQTdeaZZ7o0MdEd/8e5YPjZYyeaCz9Z700TzyDjKEn7syeNUcYZYIwxykS1OJ0ffvjBORyMerSItDYyCKT6cZ44TJwXGQDaRESPgyRSRRjhoNq1a7fZ7EcQ4HCIbBEBZBhwuOyts8VBv3fbbTfh0InO+Tf7/GQb2JY466yznJNctWqV+z6RNHVVJBA8B8tTHXChzUT4ZWUQ3nrrLReF8yBAgloAACAASURBVCQEETLbIAgg0vy0n22i0047zQkEnDT79kT/ZCrCBQKH/XDGCAT6TL+qIxDI0nD2grMY1EtmYciQIW7bgPYMGDDAjQv9IgODMCUbgWjDwZPxoS0Iq2glXCCQKeKQLOODoCUDgyhjHBAI8KNe+oVAYgsDkWDFCBgBI1ARgVoXCIGSYs38+Bkt/e0L+XifQVyc4hISlJCYrMSkJCUmJSs5NUVdW6fKHyhUMFAo8a6EQJEUDIT+yCdfj90Vt8Mp8sWV/YhfRZ1FILDFwP4yKegPPvjAiQD2mknLEvWRKsegs3/O/xEKkWX69OkurYsBJl3PvTDyGGr2gMkk4ARwUKR8cUwIksjtCu7rCQQECs7X23OmTUR8lFjPIBAVc34CR0+/SD0TkSIYiKpJi/NvxBHjEVnYosBBkRkhBY7T5QzFQQcd5BwcgoDvUQeH4B5++GG3NYOAYN+c/XiEAfviZGaIlonkI0tkBgFHT6TPPYhy+S4HKMsSCGRncPhkMxAnbItwDoF+cWCU917QVuoha0C2xBM4kQIBMUeaviYFAhkVtjMQZGwX4Pxx6GzXsCWFKEBAIG74O1tXZHxgxTWcHahIIHDYEadPtgNRwn04m0Cm7JtvvnF/qJvzHYgpxBsC2YoRMAJGoCICtS4Q2FZYNOYzLfhxlDYsm6figvVua4HUqfvP73f79nsObKk4X+mf2w7B0P95mVFCqnwtusrfdz/5++wrXzVelhT+mCNOFONNpoI9Wg61EbkSfRKBkyYnEoz2EiQiUva6cWaktLmelC7ZBD7D0OPciNz5DAdHxB0tXewJBMQFTtGLsok42aqoikAgPU+qHseOyCB6xyEiGHCU7FvTXsRQtAIT75AiUTkRLfckQoULWyvci6cs+DlpcYQWoorIGKeOo0ZocPgOZxftsF2kQKD/OHRS7Bzmox28/6AsgUA6n60PMgK0g2wP4gBhRiYIUUPWBO5kbxA9zDXGu6YFAiIAR02bvAwC/4Yj2wCwQVQhULyDprQNgYMDJ4uBs6eNPMrKuYXIjIs3VuEZBDJWCCu2yxgrns5gXiPWvMdxESaMFy/PinyUtiIDYZ8bASPQeAnUvkAIBlW8Ya1Kc1ereO1yrZ05TivnTNK6VctVkJsjMgxsL+w1KF0JcX7JH+9EgT8tQ8rYSv5OQ+Rr3kFKbSVfWnqt/n4G9uxx+BhZDCpbBhj38MIpfvbISc17TwmQXo805t5nOGocFFkEnBf3Dy+IFtLxsRQcJ86aOsILaWbvICTOGbGCQPHaxr9J27N/TgqeLAUZBSL98EI0TnYADpzP4P9eQXR4ZxBwajhmL9LFESEQEBFkG8hY0H8ieVL2bMV4BWdJFI0TjyyIJhy5d3iSg3ZE2tzPKzxtQnbDe0QVsYIwiRwH7gWnsp5IKIs7c4GMEuc3wgtih+xILIXxIoKHRbQDoWXdi+wUWZzwwnhFE1yMN2KBw5eRopYxog18Zo84xjJydq0RaNwEal0glLLF8NFTWjv9J7Xt3E2t2nVQAs+pB6WCvA1avzpT61ctVb9OTRTXrK18KelSYiq7ClKgWMGcTCl7qdRxiOKGnlWtLYZYhhoHgXNgjzi88JIiHpWLxdDzfRwVWxMY8vDC4TYORsZaeGYfox9eiGLLeuMgwgQni5M+44wzXNRK4WAc5wjCC5E4h9qi9ZE9bc5XsGfPNkW4Q2abhezC6aef7g4segXHhbAgwg0v9Jv+V1QYB6Lh8P4ifOgvTrc2CnXRn3BRQj1sOZFRqYvivSshvC7GlzaU9zbNumib1WEEjMCWT6D2BUKgRPO+eVPzR7+r/KwlSk5povR2HdSqQxc1S89QcloTZ+x4m6IvEFCwOE/BgnUK5qxUMGeVVJwnX1prt8UQN+ioUIbBSswEOG1PhoEtB/a4q3qSHaFBSpsIni2V8IgUJ865Dvbzo70UKuZG2xeMgBEwAkag3gjUukDgLEFhznplzvjV/Zrn1TPHKS9ruduPbdoyQ81bt1GL1u3VqVWyfPlrFMzLUjB/rVQakJq0kb/jYPk6bit/x23kS+HFNaQWrBgBI2AEjIARMAK1SaD2BcKfreeRxaLcbK2eNd4JhVXTxih/zQopWKqUtCbavX9LxZUWhJ5YaNLaiQJf5+3lbzdAvuTm9mufa3MW2L2NgBEwAkbACEQQqDOBEKo3KF6cVLRhndYumqEVk77X8vFfq7Rwg4YPbKn4lCbyd99d/m47y5fRS74UhIFtKdisNQJGwAgYASNQ1wTqWCD81T2EQnFettYvmaOlYz5Uv04pSuh7gHwZ3eVLalqtNybWNUSrzwgYASNgBIzAlkag3gTClgbS+mMEjIARMAJGYEsiYAJhSxpN64sRMAJGwAgYgRoiYAKhhkDabYyAETACRsAIbEkETCBsSaNpfTECRsAIGAEjUEMETCDUEEi7jREwAkbACBiBLYmACYQtaTStL0bACBgBI2AEaoiACYQaAmm3MQJGwAgYASOwJRGIWSBMmjZbfXp2UQq/cMmKETACRsAIGAEjsEUSiFkgrMzM0rrsXLVrk674uLgtEop1yggYASNgBIxAYycQs0Dg1+BmZq3V2vU5CgZLGzs/678RMAJGwAgYgS2SQMwCYYukYJ0yAkbACBgBI2AENiFgAsEmhBEwAkbACBgBI7AZARMINimMgBEwAkbACBgBEwg2B4yAETACRsAIGIGKCVgGoWJGdoURMAJGwAgYgUZHwARCoxty67ARMAJGwAgYgYoJmEComJFdYQSMgBEwAkag0REwgdDohtw6bASMgBEwAkagYgIxCwRelLR6zTqtz85RaTBYcQ12hREwAkbACBgBI/C3IxCzQFi1eo3Wrc9R64wW9qrlv91wW4ONgBEwAkbACFSOQMwC4Y/pc9SrWyelpiRXrga7yggYASNgBIyAEfjbEYhZIIyfPFNDBvSR3+f723XWGmwEjIARMAJGwAhUjoAJhMpxsquMgBEwAkbACDQqAiYQGtVwW2eNgBEwAkbACFSOgAmEynGyq4yAETACRsAINCoCJhAa1XBbZ42AETACRsAIVI6ACYTKcbKrjIARMAJGwAg0KgImEBrVcFtnjYARMAJGwAhUjoAJhMpxsquMgBEwAkbACDQqAvUqEHhtc2lxoQqzs5Sc4JM/rZUUn9SoBsA6awSMgBEwAkagIRKoH4EQDKqkqEC5qxYrc9bvypw8WkO6piqp377y9xouxSU0RFbWJiNgBIyAETACjYZAnQoElzEoKVLOysVaOXWMMqeP1dp5fyhYlKfhgzOU2HmQ4ve5Rb6ktEYzANZRI2AEjIARMAINkUCdCYTSkhLlr8vUknGfadXUMcpeOkfFeeuFaIiP84cEQscB8g+/Xr6kVPnjEiW/vyEyszYZASNgBIyAEdjiCdS+QAgGlbc2U4vHfqxlE75R7spFKi7IkcJ+VbQTCINaqTgpXcuStlarZolqvc0B8ncYKMXFb/GDYB00AkbACBgBI9DQCNS6QCgtKda0UY9o/ugPVFKwQVJwMwZxfp+GD0rXhvxSTV2Sr17tk9R5xFnyDTxcpYpTMFCs+MRk+RAL1fglUWPGjNHcuXN14oknyleN+3gdIPtRVFSkxMTEze5X3mexToKSkhIFAoGo9UTe67333lNCQoIOOeSQWKupl+vz8vJcFik1NXUThsXFxRo3bpzWr1+v3XbbTU2bNq2X9lmlfxEoLS3VunXr1KJFC/ljzO4xnr///ruysrLceDZr1qzRoM3NzdXXX3+tyZMn6+STT1aXLl1qpe+so4kTJ2r+/Pnac889lZmZqe+++05HHHGEWrduXa06sUHYllatWmnEiBHVulfkl2n36NGjlZ2drX322UfJyX/9pmA+W7NmjVq2bBnznKuokQUFBaJf2J5Y53NF995SPq91gRAoLtKUt+/Xgh9GufMH0QoCYcSgdK3PK9HURXnq3SFRGTscodymfbR84ncqWrdc2+x7mOIHHRESCVUs//nPf/Tpp5/q22+/rdaEwNh99dVXevLJJ7VkyRJlZGTotttu00477SQ+++KLL/T0009r6dKlbmHy2Y477hi11RiPu+66yy2Cm266SW3btt14HRP4ww8/1BNPPOEMc4cOHfSPf/xDu+++e5kEjjzySKWlpemll16qIqW6+xriAIYLFy50/aJ/XuGzBx980Bm7W2+9dZPP6q6FoZo2bNigefPmubHhT02Iy7ruQ03Uh4O//vrr9c9//lN77LFHTLdknj/++OOaOXOmm+dVdZKIRgRKnz59otbvORTmVI8ePdy1sRZsxH333ad77rlH22677SZfLyws1IoVK5zD/+ijj/Svf/1LAwYMKLMK7MF///tf96d3797uev5fG4UggnqwTXfeeaf++OMPXXfddXr77bc1cODAmKpEDGLbEOi9evVy9hLb0rdvX8elJgt1MScWLVqkhx56yIkBr0yfPl0XXnih68fee+9dY9XC6q233tInn3yiG264QVtvvXWN3Bu7RRDKvOvYsWO1/EyNNKiaN2mAAiFXvTqkqiAQr4KigJomlmrZuoB2PvBwxe9+iXzxiVXucrhA4CZMfia+F52uXbtWGAAcLBFOWY5gxowZuv3229WtWzftt99+evnllzVr1ix98MEHblHdcccdblGhhl944QXnAN999101b958s7ZjODEaRFYIifbt22+85pdfftHVV1+tQw89VDvssIOeeuopd93nn39eZttYxCkpKc4Y5+fnu77xb5wc2Q4iAPrFREaA0Ka4uLioTGEBIxYw13EfFhb3SkpKcvfAAHqf8fecnJyN9WGs+YxroxXuNWnSJMFg++23d9+jTsQQyv65555zRqMigUDkQb1EAoyb1w7+TjbFi3yJTLjGq4M2YYzIAMGGdnCN16/09HTHauzYsbr77rt12GGH6aijjirT6SDy4uPj3ZziXtTVpEmTjWMFS8YEHrQN7vybtsOJfvN9PqONcKZttMMrXE9/qYOflzV23vX0i3oZC4wW96PAnp/DmflOfcwV7ks7+BksmCP0BU5cj2McNmyY+5y2epkfrw76wT1pu3dPGEQTCFwHMwp9pj7GjnvRFr7DNd440u/999/fzRXWWDTnz9jh4FkrV155pYYPH+76TD/oF7y4X1lzkrYgyrEVOCvqCi/vv/++W++rV6/WqlWrnPMtSyAw75i/999/v2NBexAH3vqjP8xPr3+MEeubtsHBm6/R1o7HmH559qqqAoF7eLYQprSJcSHIGT9+vBOFPXv21HHHHecEAs6csaHe8PnNPGbcabc3v/kZfaFP/J1gKjJajxQI3JdrvbmKE0eQMgcZX+wEn9Nfb/16c5oxZs5TP/ehcH/axXdpB99hDLDZ2GaCN+Yt7Qyfj9RTXoEBY8ic8u6JKPv3v/+tnXfeWaeddpprB9d4NgZetCHSZnlMaDufMb6sAfoQbnMZK+YS9+We3hrGFjBuFG8NeWuHflQ1qGmYAqF9qnILS1RUHFSrpglakBXQsANH1qhAwMkTARAhMJhER2QWPKeJIRoyZEhUsKTtUNHXXHONm7ikxy644AJnlDDgRL5EWbvssotL8V166aUuUqaeyFKeQKA9v/32m9sSIbom0/DOO++41HtZKTEEAosB4UKkg0EaOXKk69+PP/7o2oIRIMuxePFiHXvssU40RBaM3//+9z8X8cGkf//+OvDAAx0PlDeTcfny5W6CwvCAAw5w9ZKG5P4LFixwCxJnglCKtkXARP/yyy9dKpQ2ck/6RyqWBcsCZnKXJxBmz57txBeGlUVKlEFdH3/8sfbdd18NGjRIK1eu1LPPPuvaQaRAv+CKQR48eLAOOugg1xcMEW1H5NEmxhZhhkPgfkStpIi5b7TCnPCMGo6he/fuLr3L2GFoYc7ip0/cA26MJffGyUydOtUx2G677ZzzYY7igBl/2k0fuQd8KLTt4IMP3lhntLlFX3/99VfXV+YzW08YcH722WefOWNK+6jv7LPPdvU9+uijbqy5PyKV6y677DJX/5tvvumcLlESbYUdRgxnivHn3z/99JPrL3MDwYuo4rPwDAI/p9+ILwwsES7jw3pAGMJ6zpw5jhfrCCOO43/44YfdPU844QSdfvrpmw3DhAkTXD3UT5qddYlRxunDE/aMOX2INu8rEgik8HFO9J/1WJ5AoC8Iiueff945BdpzySWXOI4EE9wD3mQe99prLzeORLPt2rVz7JjL9D3auMKNsSGowTkwzwhKYs0gMM+xg6xzxmGbbbZxY0gW4sUXX3Q2hHsffvjhru2sMa7BdmBbEM1EyvwbFsuWLXNriL4yZsw/nCYOjXthFz3H7fUrXCCwhrgee8Xc5l7MB+wDtofgiLmEfUEMwI32Mr/ZQv7mm2+c3SFD5bWN+2FncP7MWdYedgmG1MP8xGYwJlOmTHG2lb7hA8IDtvBxoH7WBf3GgTOG2BpYwqFTp0465phj3M8RWowRvgGWCGtsFiLTs1nYAuwn3Fnf2FxEGX1j7rDumB98B3vWr18/1zbmI2uE/nBvvgcD5gZ/79y5s2NHe6pS6lYgFBdGbWNcnD9siyFXvf8UCIXFQWU0TdD8GhYITHwyABRUPeBRyUz0oUOHuoHn70TvkXulTEQ+f+yxx3TLLbc4I4rhYXBQjkxiFimfYehJkTFR+CzauYDyBEL42QMM+I033ugmL2KjrIJAwNlRJxMEgXLKKac4J3D++ec7o0ZURHswkJdffvkmKT3vviwWJqVntJn0fJ8Jz3YAbWMBM1lZfOedd54zUBg4tlUwwBh4JipCKlp6EEP7yCOPuMVOVMK1iAEiFYwIxoVFUJZAoG76gcFlMbNYMKw4cRYljuCKK65wjginwZjjuHH4tA9nQR/PPfdc12YyOThixu2HH35w0QW8yHK88sorbqxxTJFpZ48ZhgeHi8HB8H7//ffOsVLXzTff7AwECxlBiZEgbcr4EA0ff/zxzvARoWMo+E6bNm2cs6Zv8EF80ReEJvxfe+01J0bZ048szFOM6TPPPOMMNfVhfBgL2s948TMMLE6VtnI/DDJziOvoB3ww2hg+2LEmMPLTpk1zxvXee+91ggNDdsYZZ7i5hVDGuMGU9h199NGOQ7hAwAiSMWOsKT///LNjgCFjnmFscY60ja066mW+MPe4N9dEm1M4XbbXmDv0g/u/+uqrjhvzAmNKXQhjnJ4n6ML5lZdB8K4bNWrUxvR9WRkE1h9cWa8IATKB2AnmGQIVB0bfcGDMU9YW92IdIU5hGm1rAJvCtiPbXThC5jpzlrFACFd2i4E5hK3yxDTtZS1fdNFF7t44Zrb4EGI4/HPOOcc5X8aTNcfcZR5hI1gnCFzmDPYQG8SYeXaE/hBkMAaRkbknEKiLcWG8cIAIEsQ6whV7SqEehC5rmwCKdrBGWG9sC1EHwpxAg7lI2xGvCCn6QJDEOoQVdpxxZP0xDgRPzCtsOCKX+cgYRGbpEATUCWdYYJu5L9+lPZ7AxVYQ6GCLGUdPNGFLcPSsa2wLbWNNYW8YD65j/RKI8V34Mu8ptAe7ynrEV7GWsZsEUwhoRBBbMtTHOqGPzDuyGVUptS8QSoo1fdTjWjTmE3FgcdNDij7XZjLce/Rvpuz8Us1Ykq8ebZOVVxhQYUmpWjWJ18KsUu2030GKG3aufNV4iRJpQyYEk48JwSRhQWJUrrrqKmecMCgYPAwHUUz4gRnaysCxoFigGDgmIQPGIOAEUKhMED5j8IhwMUQ4OQxWtGigrC0G71qMGqIG54FTKes8A9dTB4afrQ0idBw2Ex4Hw4Rl4tBHHOupp57q2h0tTY3TxhChXnHECCKyBNyDyUoUgRNhosMOQ8XkxQmzyLk392CRYxwwgJFprkiBQBsZF8QIi5AFT9RRlkDAAfIZRonFgtPCMLDQWXg4MJwe7cWwXXvttXrggQdcf1gwRJY4P7aKGCPGgb6wcFHhiEYMEirfEy4YeC+VFzmWCAScIhEj445Rw4lhaFjAGE1YY1gxprDCUWKgcErMP5wJ4oS2YOz4Lm2HP22gYJQYY/jjZJh3kQXjj6EnokMA0WZ4MnfoK0YELow/US5rA+NUGYFAfRh1WNIHoij2vHHMREr0ifqZf2zNIHSYv+ECAeeB8WedYLDfeOMN5xg5X8NnjOFJJ53kHBbrFAOKaEIcIbLoS7RCu1gnfO6ddTjzzDPdd1gLGFAv5Q8/ovXIUlMCgfsy5swhuCLGmdfME9YRfcS50A4iVvqNoydjxGeIimhrkz4Q6SJGYYxAYI7gjBG/lRUIcGetIsaY67SN9UqKGqGB0CPKZowJMLAtBE6MI86c+YPAxFmzthgf1g7ZCMaT+cc8hydrmrUR7UC3JxBYc1yDY0NQEv3Sz3CBwDxjHWBTsMOsX/6NyMK2I1iwRThX2sgaZD3iuOHKeNM/fADXewKBM0bUefHFFztbgp2nz6zJaFsi1IsIPeuss5wPwZZhR/g/8472IZhhgUiBK3aK4IA5D0vqwcbChrnBfbBhrG0ED+uR+cB9GB98DXMEu4rQwg7AmPWLDUHMs86xbYhNL+uC/arqGYtaFwjB0lLlrFqq/PWr2Qz6cy0G/3zMkScagvIpqJapcSoJSrmFUmqiX4GgVCqfEuN8yi+WWrTKkK9lR8lX9XcjYARRbywEomcWASKACYNiJO3DhGYx4+CI+KOl8nFMRL5MBAaCQWbAmTRMdhYWE5MBZcBZhBhKHGysAgFVT7tef/11NxlJ/UaLerz7hh9SZJKTdWChsKgRLihKHDlRFAazrMNLGBn6wWLztiRQsmQjvIOSpG/JgDDhMVY4K4w5CxonxKJEGLBwaAcTP7xECgQcGZEL41KZQ4oYQyJU7u/t2zK21E+UwvjQb5Q97HbddVfXVowBix/jS5oSY4HRZn7g/HBSpKgxNiw8jFZlBQLRC9wQjd7BVRYzTgJjx5zAofKHezPf+D/GkQwCwo6ok/pwGkRtRBak1uFOe8mqILYwIhgZxERkYU4jZnBAHNbjesYD0YrxQiAyVggG5gT3oN2VFQjMG7JvXpSPIOD7GESiK9YBLLg3URTz1xMIOHuMHnOH9ce1zAXWEn/4nPXD+oMFTgHhhtiKVSBQN/OUP6xDnCJZFcQjYw2buhQIOHcvmMDAww0xwPpBcDGeiDfmbFmF+QtjsmU4U9ayJxAQxJUVCHyHrUi44GgoOHru563/SIHgHVLESRGsMF44UeY38xLRzdzj3qxn5jfbYkT7Ze2DewIBp469RWhgm1ijiM1IgQAn5jFRO3OFNrNlhhBhznnno5jLfM48w4Yy5tRFf7FjzElPIGDncNQIUgIInDVjUJZjZf0igvAbZPyYlzh577B5uEBgDWOLsP/4H9ofbrOYA/QRn8Rn2BtENcwQCAhc7CeZBdrEmsamkF3ge6wxPkcIsZ7oA9lGBDj3gU95B2nLyyzUukAoDQS0fPx3yln8h5KSU5WSmqak5CQlJsQpzu+X3xcSCEwe/vMeY0RYKFCoYEmBFCiSr3Uv+XvuIZ8/+oG68jrpfYYDYBJghFmEpKowPgwqBp1/UzAcRK5cz0BGFiI8voeB5JEfFgB/575E+xheogIGlMFjkuKco6Wmy9tiwNmxUBEXCBYmdnmHq7wMAlkP0nTcm0WM8eEeOAjEAYsYh0gbo50N4HoMMoucCUuUwmIn0vAEAmltGGKkMHAYB0QBThFnjHOCIX/H4VJXZIkUCBgFIi6YeQIBQ1RWBoEzAzg2UoiMHYKIgoqmzWRK6CsGFeODsOJ6to0QLvyf7zD32L/ks9oQCLQNB4XTY1sGxc98IDKrrEDA+cIBA8BYeIeX6Gu0jAZGB4FD37xtAIwjogihQnvoK0YrXCAgUnDMGDsirmhbDHwPI859SZUTvcGO8Ue0EcnSVpwJxg1REy4QMJZEa7Dn57QxvG2eQ6gJgYAAIBOBIyT6Yq0jKknrYjiJiOtSILB+EYmMDdEqxp520Q6iRBxuRQKBLBnzB8bMLZwDZ1lwkKz7ygoExBJrhHswNxkD1is2jHGJlkGIJhC8DAS2hiCCceUP6w27U1mBwFrAnuK0iYKxdwjOigQCHNheJDonSPOekKEN2Bi2PLDjrHfsGfMdkcj2lScQsBdcyzYiP2dtYiNx7pFbItgmAj9sC1kORBRziSwBAi8ygxAuENgGYK3QDrKw4az4Hm3Fj2CDsZlk5BgTbGOkQEBgcu9wgYAgRrxstdVWLrtLuxBwCMqqlFoXCIGSIk1771HN/2GUAgW5CgZDRor3GiQkpygpJVWpTZpoUNdm8pfkK1iSL5UUOlGgYCAkGOKS5N9qf8XtfHa1txi8xxxRZywKDBhG19ubZ4KSDkUFE9mFP3rnAWYvFvGAA+d6FiV9wpgyOHzmKWHSrqQKUY6RETT38wQCk5L0nHfmgUga40b7MB5kDryJitBgAkQrZBBoA6lpnAT9xaHwc9rLZGMSYpRYgNEK32OyotCJLHCwtJ+UFZEfk87b6+IzHALXeWcQaCdpNYwW0QiRL4ajIoFAFIDz8Q61oYJZ2GUJBASPd3iOhUI6nWwJfyf6Js2MkWNhkYbFAOLAWIBkO2gvaUKMAgu9LIHQtWtX1wYWH+OBqo9WMCjRMgikt1H+qHhSsuwfsniJ4hmLymQQYMw8w3DTdgQZ/4Z7tOfSvbMyzEUibww7DgSBR3twmghJ7oVDYawRUfSVucL8Y8wwPmRTiOS9MwiMEXUiqhCSiEQiKcQmApzsGgKR+7MVh4Hi5/zde8yRuQFvjBxto36yEYyDJ6aiCQTay5rBYCI8IzN89BuDjQDk+4wXGSlEGaxwfqSmmZ/edlxZAoH+0x4Kgox5QsROqcwZBK6L3GIgqmVt0UYEGAKYNYItYl0ztyoSCLSfcUXsEyGSmYE9UTKcKysQWOfYOr5DVgOu3Jv1ylwmG8FaYc5gm7Ad0QQCfRKgCQAAIABJREFUzpwAiSCLsUMQssVGlIuIr6xAYH7h4LGZtMNzahUJBJw58wAmZANZ72QLEEC0ATvA+DEfyP7yGfaA+esJBMaAQAPbhi3H3jHX6HtkUMZ9CRDJbsAEscnchgEZOdYHbLFD2PNwgYDdxGax/vk58wMbSh+xd7QHocHnZAQQ4sxh5kdlBAI2nvsjiNmi9M5iYWOqUmpdIJAJWDX1F62Y9K1yls5V/tqlKsrLUUlRoUoDJe6FivHxcRoxOF3x3u6BP17yJ0iJafI1YWuhu/zdh8nfeXupGhkEJjwHOlBvqEAGAIPBJMJQY0RI27JPxR4hxoE98fCC0cM5o3Yx1l4ah0HBoeOEmICkn/iMe/EZBpc6EB7hBQGCEWZfOrxQBwYqmvJj0qIsvYjZ+x71cz3qk89YcBg1+kdkyKTFmFCXt8eNEiZFFl64Fj4YD+6Bk0bc4JRwNiwAJj6TEeWNocbYYRQw3DhnnDeRIYYFQ0Y2AUcSXlDgKH8+I0OC8cSh4yzgxuc4ZSY7izK8v4gQnDHpQKIBDC17bdTF9UQvjBFGA2foPXlAXxln9qnZviH6YQGyUDFMGDt+Rl/Yq8YAsNAQf4gJ+uplmsL7guPw0qwYCuYN98OgEqWz8HHytJsIByOKk6LvOHrqoq8YMJjwGY7VO4eB4YQp9yFSYp7RDtqHIGS8IucVKUtEAQaasWdbwDNaOH32OHEKsOLfXnu5nvlLZoI20BciQaJdzkgwVjgz6sRwMW5Ej55DZJ2RWWDOM5dYU0S5MGc+8X3ahiChv7SNviBYmU/0lXFAyHCWBD58hvNE8OK0WJtcE9lvHCaMaSdikewW85E5ggClT6wrBAztok/h8wpHi9BkjniPvNEv2ovopk0U5ij3pP+IKhjxvfBCO0gXE/EzlxFD/B+HguGmb9gTBDGCC8eEo0CI45y4H/dlrL3C9cwTONAG1iFCF65EnAQasGeccTy0EafHXI+0Pawfxh47hsBjvbJ+EE5w4mwW848Ah/mI02TuInaZt8wf5jdtZR3CnLM2tIl1T1CD04M7Npf6EYiRY8Za955mQsRhJ7BjzB9v29I7ZOeJYsYUB03/CFoQ39g16sO5MibYPeY89hgRhI2gL4wjdow6Ycgaog3cC/+AXWOuMS60FR8RXhhTWLFGyJ5RcOTYQMQEdSGMmNNk1WCIzSY7REFIwY75ic2CE7ywQbQBhthaPmM+Yj9YK9wPHswfHD6CAdFDm8koee+SwU6x7rF1zA1EW7RMWWUEQx0IhICyZk1QUeY8JcdLgeyV2rBqiXLWrVFeTrbyczaoJD9Xu/RtoYSUJlJCqpTYRL7kZlKTdvI1aS0fpxhbdJa/0zbVEggVAfFSUl76lkgPox5eGDgv9cPCxaCxaCP31yI/Yx+ZiRLpJDEI7I3HUmgnTo2JHF6Y6N6Jdj7D8HqHgmgnZyWYgBgYohjazUTDGYYbSSI59rdY6CwQjJpXvMNJOEoyEyx6Fh0FJ4NAoE9MXOqnDiY+xoXUtlcwhuzbcW1kQeAQEXgZFxYbBpufe4UJj9HyXjqDgKCvFb0XwPs+7YZR5CHUssYBPtSBoSX9HllgQXqxvDeyecKtom2iiuYCY0k9GHGMBcaX+RVe4I+Bo3iOIXIrwntKBsdNFIY4w6DSV+875Z13KY8VnOhnRW+oYwzgUtEz5+F1MQ44b7JBzOnwgtFkXtA3b/6HP2NOfV5dCA22C7nOK+w541hieSyM9mMniHrDi/ckVPiLf7zPYezN57LmA/MeQw9LrxBQ4CzJesKB+VsRY5w5ES+iNLzgWL0XXjGnKJGHCGkjtow2VuZZetrKuo2WLS1rrrLthniqiUJbaYNnk8J5e+9QKI8Xc8F7BwV8OfsTOcewsYgM/ATXYHPC1wlj671zIRoHr03RbBbf9d4xURneZTHz7Bvtqmh+lMe91gUCTy5Mf/9RrRj/tZo0b6qWrdupWXprpTUPvS2rIC9H+dnr1L5FkvwpzaQEXk7hl4o2KJi3RsHcLKkwW75uQxU37LxqbTHEMgEZKJx5pENnwFGblXVEXp0sNFR2eDTAZ0Qm4Q64sm2MdAgV3YtIBGFD/URVODMKxsMzDl7dTHyMWrQ+EqlwzgDnjiEOn3yoaQwRETuRiFe8F5CEGzo+ox4izIqKNw7hIgZnB7vqOtuK6o78HAdDZiiy0I/I57tjvXdVrsegEQVHRoeIu2iOKVod3ql/BCwR4d+h0G8yKpFzirVU1vsNIvvF99l3Di/MJ75f1pMq0dgwL3G+kZEm9yAKjtVWeHWUNe/JHlZW2HIv5ga2JzKgqKrtqer8oH7marjQ516xzNWq1l2V72EraW80+8gYVMfxVqU99fGdWhcIboth+i+a982bypw5Tv5gUMlpaWraMkOt2ndSy3Yd1aR5C8XzbvfCHAVzVym4YaVUsE7Bolz3Gx197QYqbsCh8nfeTvJV/ZBifQBuKHWiSklFkR4jSorFAIb3AdVLxgHnQ5QVrnJJaZE+I3Ii1Wvl70GAlCyZIcRBVcTq36OX1kojYARiJVDrAoEGBUqKVbAuU+sWzdT8b15T1txJCgZKlJCYrMTkJDXPaK/B3ZvKV7AmdECR39kQ55evTT/5+x8mf+ve8qW1kqrxDoRYwdj1RsAIGAEjYAQaM4E6EQge4GBpQEW5G7Ry2ljN+/p1rV80zR1UTEiI1/CBHFIMujMGvlY9Fdd/pHxdtpcvqZnLIlgxAkbACBgBI2AE6o5AnQqEv4RCqQrWZ2n5pNFa+MO7KlizVHv2b6H4Fu3k73uI/F2HypeWXq2XItUdQqvJCBgBI2AEjMCWR6BeBIKHsTRQrPy1mVr1x/fqlJ6o+B67yJeWIVXjVzpveUNkPTICRsAIGAEjUPcE6lUg1H13rUYjYASMgBEwAkagMgRMIFSGkl1jBIyAETACRqCRETCB0MgG3LprBIyAETACRqAyBEwgVIaSXWMEjIARMAJGoJERMIHQyAbcumsEjIARMAJGoDIETCBUhpJdYwSMgBEwAkagkRGIWSBMmDJLg/r2rPL7xRsZX+uuETACRsAIGIG/JYGYBcLMuQuV3qKZWrVs3ih+WcXfclSt0UbACBgBI2AEqkkgZoGwISdXKzPXyueXfPJVs3r7uhEwAkbACBgBI9AQCcQsEOhEXn6BCouKpWCwIfbJ2mQEjIARMAJGwAhUk0CVBEI167SvGwEjYASMgBEwAg2cgAmEBj5A1jwjYASMgBEwAvVBwARCfVC3Oo2AETACRsAINHACJhAa+ABZ84yAETACRsAI1AcBEwj1Qd3qNAJGwAgYASPQwAmYQGjgA2TNMwJGwAgYASNQHwRMINQHdavTCBgBI2AEjEADJ2ACoYEPkDXPCBgBI2AEjEB9EIhZIJSWlmrhkhVakZml0lJ7UVJ9DJrVaQSMgBEwAkagtgnELBAWLlmukkCpunZsq/j4+Npun93fCBgBI2AEjIARqAcCMQuEiVNnqV+f7kpMSKiH5lqVRsAIGAEjYASMQF0QiFkgjJ88U0MG9JHfZ7+oqS4GyOowAkbACBgBI1AfBEwg1Ad1q9MIGAEjYASMQAMnYAKhgQ+QNc8IGAEjYASMQH0QMIFQH9StTiNgBIyAETACDZyACYQGPkDWPCNgBIyAETAC9UHABEJ9ULc6jYARMAJGwAg0cAImEBr4AFnzjIARMAJGwAjUBwETCPVB3eo0AkbACBgBI9DACdSrQCgNlKhww1qtmfmb2jSLU0KX7aTUdMnesdDAp401zwgYASNgBLZ0AvUiEIKlpSrMWafMGb9q8diPlbtsjnbZurkSewxV3M7nypeQsqVzt/4ZASNgBIyAEWjQBOpUIASDpSouyFPWrAma//3bWjvvDxXnb1CcTxo+OEOJnQYqft9b5Etq0qChWeOMgBEwAkbACGzpBOpEIJAxKCnMV/by+Zr1yTNaNX2sAkWF8v25lRAf53cCIaF9P2m3q+RPSlF8chMpPnFL52/9MwJGwAgYASPQIAnUukBAHKxdME1zv35VKyaNVklh3mYg4vx+jRjcSvlK1tyc5uqYnqj2u50of89dpbh4KRiUz+ev9tmE3NxcFRYWKj09vcYGI+jaFv33UpT3WSwN4D6UsuqJ5V41dW0gEJDf79+sTfw68HXr1ikpKUlpaWlRq8vPzxd/mjVrViu/EZS2wYr2hZeSkhLl5OS4tiUnJ9cIT/pL8epirNavX6+CggLXt+bNmyshhl9sRttpI99JSUmJqY3FxcXasGGD404f67rAgrbDIjU1dTP+dd0eq88IGIHqEah1gRAoKdbUt+/X/B/eV2lxQdTWxvl9Gj4oXdl5AU1dnKve7ZPUca/TFei5j3LXZqq0YINadewmf3pnCaFQxfLBBx9o/Pjxuvnmm6tlvHACq1ev1syZM7V27VrnBIYMGeIcHp9lZma6z3CUfLbNNtuoadOmUVuN0+LaoqIi9e3b1zkur2Bwly9frhkzZjiHirAZMGCAq6c+C07syy+/VOvWrbXddttt0hSc4/3336/tt99ehxxySNRm/vDDD+775513njp06FDprlBvXl6eY1SW08VBMcYZGRnaaqutFBcXt/H+Cxcu1DvvvKOddtpJO++88yafVbYROGHGAgfIvadNm+bGm/42adJEkydP1rvvvqtVq1a5sT/55JPVr1+/yt5eK1eudN/v1q2bRowYEZOjnz17tt544w0dfPDBbs7VdWG+v//++07Y0IayBGJku1gzzH/WAt+NFHZ13Q+rzwgYgRCB2hcIxUWa8vb9WvDDKJWWFJUpEEYMStf6vBJNXZSr3h1SlNxlW+UlZChv2UxtWLdO2+8/UvE7nCJfXNV/zfR//vMfffrpp/r222+rZYQQBa+88orGjBnjnDWO54ADDtBFF13kRMFLL72kX375xTkIPjvooIN0wQUXRK2TrMa///1vrVmzxgmXdu3abWSEOLjvvvu0ePFi55BwRIcffrjOPPPMep2/GHLa2rt3b5122mmbtAXHePTRR+vQQw/VlVdeGbWdsHv66af1zDPPOCde2UL/X3zxRe27774aNGhQ1K/hYLk/bdt///2VmPjXNtUff/yhW2+9VUceeaRrYyyRvVcZYu3tt9/WSSedpK5du+rjjz/W9OnTdfrppzvBdOqppyorK8s5SApOvk+fPpXtoubNm6d//etfzsGfddZZbtwrW5hzN9xwg6644go3H+u6rFixQqwx1sRll12mli1bVqoJzKfRo0dryZIljltNZvgq1QC7yAgYgagEGqRA6NU+VfnFUkFxqVqm+rRoTUDDDjxc8btfIl81ziWECwSiUSJ3HAjRGmXq1KnOuHfq1MkZ9bIiGSLUO+64wxnhffbZx0V8RG5vvvmmc+LUg6HDObz11lt677339Nprr22sJ3wkEAg4BOq97bbb1L59+40f//rrr3r++eeds+3Vq5ceeeQR18avvvqq3OmMocbR4ABxwBjs7Oxs19/OnTs70UIKGidKlEeb+RmfzZ071wmbnj17bpLNCK+QzAZCq23bttphhx1c5Ldo0SKX7SCKvvjii3XYYYeVKxCeeuop3XnnnS6F3qpVK/Xo0WOjM4cJ/SSqpN9t2rRxaXuE3e233+6c8HHHHefqjyxkEODGd7beemsX5c+aNctF5nz23//+dxOBQJv5HGdGn+GxbNky56yYAzh/olpY8f1Ro0bpgQcecI4YoQI77o1gIYI/++yzNXz4cF1yySXOuZNp4j7cA05kHBCRzLmOHTtuzGIsWLDACUGuQQRtu+225QoERCrZCvjBiHnjCYRLL73UZWbgyPjDgkL2hb4iRhE3MGcdMFfIytA/BB4/79Kly0a08GDukAUjG1KWaPEEAp8z/8m2wM2b02QK4Dp//nxX3+DBg902DH1/4oknNGfOHJdVYt1EE2/cH0Zk2qZMmeK+S/+87BxMaCcMqZf5wRxC1CHe6Dd/GGfWBOMFI7J/zFsKW0P8nOu6d+++CQfzIUagsRFosAIhr7BEhcVBtWqaoAVZCISRNSoQcHAvv/yyTjzxRO21117CYZH6xjliwI866ij3WXiK2pscX3/9tXMS1113nYYNG6bff/9dp5xyih566CFnnB577DHnQEhl//bbbzrjjDP04IMPOscRWcoTCDh19pRJlyNWiNq53//+978y5+m4ceN07733unbwhy2A888/3zm9q666ymUouC+GE+FBJEwm5J577nGGnL4jAOg72QocW2TB8J977rnO8V199dX68ccfXd+5J4YfJ0iWo7wMAuIA4853KDjWAw880P0bdjgy2GPIiYhxhGRacAw4fjIyiLPIglB59NFHNXDgQJclYKz4t3cmwePAZ1x77bXXunMp8MUxweOzzz7Ts88+65zM0qVL3edkCHBECLZJkyZpxx13dD9DYDD+8CIjgojBuZKlwCmxlUJ/cMjcE7GIKIUr48L8QdDQN7jiGLknWxNlZRBwsFyPqMRJwgjHirOnrhYtWrgxxMnRTqJ5+gcHRAX18znt32233dzYw5v6ERE4VkQe2yZkXdgyYs7wOcKlrOyAJxDgwZxlbiMWaCtj/dNPP7l1xs9xxDhq1hDZgyeffNLNdeq8++673TqMLIgzMk84bsaFtjKOsGcsmVOIHIQIAgm+zHfmIT/jM/rBWCAImAswYpwR3/SP8UHww4c5w/zeZZddGptfsP4aAUegbgVCcWFU7HFxfv21xZCj3u3TlPunQMhomqD5qwMadlDNCQQMIlEWGQCcJhEGhvX44493kQ+GnsgQ4+BFX17DMTSklYl4SFcTQRNxEDHfcsstzmA/99xzLhuAMcXwHnHEEe7f/D8WgcC1GLQPP/zQ7Z1jQG+88UbtueeeZU5fImyuwygiJOgLBh6xgIjBsdNPMhr0A6dB/2+66Sb985//1B577OG+M2HCBGc0vexKeIU4cc4XEDVff/31jiEOCF5kILjXscceW65AQGDRRhwU4onvwQ3jzBYBYghDTjaGgtMg0sURXn755Y5ltIN43AfWOBr6icjBoXAfImzEE+KCn3MPnCltQRy+8MILru1kiGDGPCFahRHOl/4hDhAViEDOMeD0EUg4QcZ+v/32c44J5072iHGjfzjzCy+80P3Ze++99fjjj7uzDPBDHOGQqIf5Qr3Mw7IEAlkQ5h/zgnvcddddTmjQVtq/6667uu0uHO/DDz/s6kB4kOHinjhP2JPKZ8zhReaAPjO2iAOEJfcgU4Yjpn9E/1zPGCCgI4snEMioMCcQVGR6mFOIPBw44gT+OGtEEFtU9B8eiBfaSpYi2oFctu4YR+YG6w6xgJNnTdBXbxzISPAzxh/RST1kBfnu2LFjXR3eVh3zDdGCMPDWFyKR7SnWN2v7iy++qNaWpPkaI/B3JVDrAqG0pFgzP31BS3/9SqWBYkmhE/l/FZ/i/EHtvHUT5RSUavayQnVtnaj8olIVlZSqZVq8lqwt1bZ77aO4GjiDwP4xxh7HhyMipUw08o9//MOlsTF8OC3S7dHSnOECwXNEtSkQiLa+++47t62A4zrhhBN0zjnnlHm6nWiX64j8SI/j+DjHQGRPJgOHgYP6+eefnWPAkJM1YJsDHkTen3zyiXPIOEEORUaWcIHA94ng4IbjqMoZBBwXThRjjfMnc/Dqq6+6PiIa+IMzJNrDeOOkEGTRSrhAIIPDdgSiiYg+/AxC//79XZvJQhAhMgfIHCAccYRkRGBEdE50S5TPfRhrHChiAieFY8Mx4XwQG0OHDnXOkDHiGuYbfaOPbEPhHImOydpQD44M4YaowCFX5gwCWQnEKOcUcIBkCdgiIbsUfgaBtjLmMIUXfaStZChwqJ5AQBjQJhwizBFMpOr5DmKRLQwEF1E//YEZYqksgRB+BoG6cfzwoW1kLY455hj3VbJMbAsgVhE8iFLmIcIwWvEEwjfffOPaDk8ORdJuskpkrhgnsglc4501QYSwHUSb2bpirSMemLfff/+9E03MdcaDDBFnhlj/ZOM+//xzt4YiA4W/q8G3dhuBWAjUukDgMcf8tavcmxP9Pr9T4n6/Tz4FFXo4MOgeY0zkaUb5VBL0Kd7nU+jhMcmvUgVKg0pMbS5fs9bVeooBI4UTJAWMsyEqIrrxniTA8JIGxclhXIi2o6XYuQ6jTyRC5DZx4kRnbHAqpCkxNhh+HBRGDydV1S0Gojf26BErOCOiR4y7t2caOdg4MSIejDuCh7/j7D2BQBsx8ERSCAQiWurge55AwFHCCsdBFqQ8gUAkirHFcWPwYxEIRIAYdoQBkT2OAiNO5ElkzlzBKcDzo48+ctmUWASCt4/vReThAoG0MmKL+r0sCeKPlDXXIaQQCDhOBALOojoCge0sMgrMN6Jo6sLJEcnSJ9L2RNKVEQiMF06L7QwyGggqRAnpfOadd0gxXCCQame8yTIgjhCczG3EVrhAgDl9hwGOEpFDpoYIHPHAHzIUnpMPnxteBoHxQxggWnDGOG0yEfBDsJC54T4ISs4UwIW5EItAYE0gENh2QCBQBxkY7k2/yI6xhcZ4licQWEvMW75L5oF2kMFA7HmFbZDws0GxGFi71gj8nQnUukAoLSnRgu/f1eoZPys+Pk5JiclKSEpUYkKi4hPiXVo2PiFOLVIT5QsGJP6UBhQsLZECxQoGitzP/B23kX/gYfL546vMG6eHQfGMCg4Uo0lGgb1qDB+GkJ+RusSxREuxs8eKwcMJk1LGwRF5ECVyKI2ULwKDSJ2Ii2gY58fhr8jinUEgesGoepEKToRoh9Qn4oPv4iz5NwKlLIFABMuhK1LNOBBEBYYZgUD0RsSP4Scyol0wwTCStqVPRMX0A2GB0SR6LE8g4GA4kEfamuiYfuDkic7LO4PA9gURJVEwTgiHR3vIFtA/sh44GNrAnjuCgTQ990XUsIUR7bBceAYBB4EjI3rEGSHkiI5xUpw3GDlypMsW0X4cNg6O/uJ4cJrRBAJtIdpnbnB2hXGvTAaBsSTqJ81O+h4hhWMnUqWdnOfAESEQPDFZ1hYDY0M/mWPMU7Y86AftoY5oAoG+0S/EFg6csUbMUid9JTvAHGCrgyge8YJjRbgR0ZMRYa0yvrQ5/Gkbb354AoE5TTaEehgrzjQwH7kv2z0IZjJdOGYENuuNDAJzgPYwf6MdEA7PIEQKBNrJ2iPjwWFHxD9rk/nCvC8rg+AJBLYZyIwx3+g3PMluEEiwldSQ3kFSZQNoXzQCMRKoE4Ew58tXteDHUS6TUFqcHzowFpegOARCQqKSU1K0U+/m8geLnSgQ4oA/lPgE+VJayb/1/vIPPlo+XpxUxRL+FINnsDFGOEyiZwQDAoFUJT/HyEU7LIXRwKmR0sX4sYePccb58hlOg2gII8q9iNhx/tGMnicQ2EYIfw8CB7iILjF0GFOEA44cYxUtvesh8fZjiZ5pC+ldDL/3CB7paNqFIyJSInLFMOPod999d+d0cYIYSJxCtP6HbzEgPkjzIoC4L99HbOEEyhMIZDWog8ITFOz54jBwMjgSsjqIIIw0kT7nRdgj5u9sC5HmJxqPLOECgfsxFog0zkuwX09kzDYCkSWRK06TjBLOD4fGdxBPZQkEhAT76mQecDzwrYxAYPyIdGHL2JINof2MsXemhXuyNmgjwqYsgYDww5EhXhEZjCVZCM8RRxMIiC2cKE9OwJU5S5R8zTXXuAwJ/0YcMh8ZDxw785axff311933vMONMIq29eQJBO7FoUTGiywGc5Kx5mAwY8EBRu/QIyLRyyIhEhgnxj/ae0PKEwhk/hhrBDJih3FhXTNWZAIrEghk5hCHsGAOkTGgjd4aMYFQRaNrX/tbE6h1gcAWw4al85SzZJryVy1S9uJpyl6xSLnZ61RcWKDS0oB41TKHFOP5pQy8CCkuSb6kplKzDvJl9JC/RRf5Wvdxf6/Oi5IQBezDYvhwQESUODuMHdEpho0oBGOOs+bfkU8M4GiJRnE2nKjneqItbx8YB8IeL59xTz5jqwHDS3SD0QwvRDhE9xjl8EKEhBjAWCEyMHq0i4gbY49h997i530PY0h0x2E873r6Rzqdg2M4NKJl7sOWBSKI63EC3iFFnAAOmHpwzhhlIk2vkG4mo4EzwMEQDSOsOPfAwU4cCWcaiBSJ5NjjDS98jlOkT/SD8cAZsMdNnyk4FcYKYUT0SjtJG5PpoW+kpfk712HEvYKY4UkRhBjcMfiME5kA2sTYwYyfIwroF9kg2uA9MsdnCDHa571HgYODjLPXDhw0Ywsj7ke/+Tvs2J7BqcCcsWNc6Rv78kT7zDnmAO3DGTIW9JM2klWgjRQ4IRph6L1Jk5/zaCDtggHtZHwRCsxh7sP9mbt8n3q4L//GKbMdgZiAE/WzBuBLVoPCfZmnjB19Rezxb+YydcGITBbjxjkV7uUVPqNtZELYAoE7AhXBzfyHDe1hXBFJzD+2OmgbhfmJ4KYPfI/zM+GF62AMQzJzzEPYct6AehkHtoEYJ4QS7aGdtJefk+FiXJgHiHeY0U/q5TwIaw323J82MveZ3whtO3/wt/Zx1vhqEKh1gcCvdF44+l3lLpyk1m3bKy0txf1ehsK8XOVmr9X6rExtyFqhHXo2VwJnDFLSpaSmod/oGJ+sYEmRfPlZUput5B84sloZhMpwwmlgXDA4GFscX3jBuBKZ4EQx3FwX7VHIyM8wXESmGM7wQhRZ0Yt0qIP7hb/amJR7pEDw7hWtXThWBAJnEEivU7yMBtsWRLdkUTDa3mc4IdL9OONwR8D3w5+T5zPq9F4t7UVbnHMgkgsvOCZS417xHieLjNCi9dmrh89wvhj+cJ44NAx9tK0c+hBtnLhn5OuSK5on9NO7X6yRpTc20V5THdlGxAYp/fCCUyNKJgtAu/nDfK1sQRTAwWs3jpDsEfOa7Qkcd7T7hb++GnGE8EAkeoX+kAnwHgksb22U9SpbKEjBAAAfkElEQVRsbxwQYOHigzoQsty7rDeSenODe8fCIxq38tpeWc52nRHYEgjUvkAoKdaUdx7Uop8/ki9YrGbpbdS2W0+17dJDKalNnFMJlBQpKd4vnz/B/b6FYEmBgtnLFFy3WMG8LHeQ0d97T8XtcnG13qQY64BhbCKdMIY13MBW9p70E+McWbhXVV4tGx7Ve/cs716IHfaqSfdGPtdNloQzAaSgw99sWFabMcCVcYxl8auuAfecerhwqQyDyo5VQ7mO+RKePaBdoUO+/2/vPMCkqs43/s7MNjrLLkgVEEFBQOy9YddYEk2PxiSmaWJ6j9EUTTeJqcb0Ho2xxaiJUbEEFSNEQQUU6UtdYJddtkz5P7+D1/9kmNXZPqzv9fFZdufee875ne983/t9587Mrt+B0dE+U4HheQoqHFSXCvkOh0gg5etbWyKsPf3rynXXnnZ9rgmYwP8S6HaBgBNp3FSjF+6/Qavm3a2Wuk1Kp5Mqr+iv4eMmauSEyRo2YqQqyhJSQ63SW1cqU7dGam3cuZ0wYJjiE49VYvo5ig3ao9Nf2GQDMAETMAETMAETeGUC3S4QotJfJpVUw6YaLZ9zg9YvekSNtWuVDl/5LA2qrNKR+1Yq3sJ+cnrnMwiDRig29iDFp56pGM8ixBMWB688nz7DBEzABEzABLqEQI8IhKinoTTZ0qRtq5/T2vn3avPieapb+7zimaRmzximkrJSxSonKDZqphITj5aqJipWUmFh0CVT7ZuYgAmYgAmYQOEEelQgvNStTEatOxq0bfUSrV/4sGqXzNMhkwapdNwBiu15mOJVe0ll/S0MCp9Hn2kCJmACJmACXUqgdwTCi0PgLZDJpgY1bFipwf0Sig8dJ5X169RbGbuUjm9mAiZgAiZgAq9SAr0qEF6lzD1sEzABEzABEyh6AhYIRT9F7qAJmIAJmIAJ9DwBC4SeZ+4WTcAETMAETKDoCVggFP0UuYMmYAImYAIm0PMELBB6nrlbNAETMAETMIGiJ2CBUPRT5A6agAmYgAmYQM8TaLdAWLBoifabspdKSwv/gpieH5ZbNAETMAETMAET6AyBdguE5atqwhfIjBs9otPfmtaZjvtaEzABEzABEzCB7iPQboHAN62tXLNOGzZv3eWbDruvm76zCZiACZiACZhATxJot0Doyc65LRMwARMwARMwgd4hYIHQO9zdqgmYgAmYgAkUNQELhKKeHnfOBEzABEzABHqHgAVC73B3qyZgAiZgAiZQ1AQsEIp6etw5EzABEzABE+gdAhYIvcPdrZqACZiACZhAUROwQCjq6XHnTMAETMAETKB3CFgg9A53t2oCJmACJmACRU2gQwKhqalZza2tUqaox+bOmYAJmIAJmIAJdJBAuwXC9oZGrdtYGz5uORaLdbBZX2YCJmACJmACJlDMBNotEBY/v0KVQwaretgQxePxYh6b+2YCJmACJmACJtBBAu0WCPMXLtHMqZOUSCQ62KQvMwETMAETMAETKHYC7RYITzy1WLOmT1Hc2wvFPrfunwmYgAmYgAl0mIAFQofR+UITMAETMAET6LsELBD67tx6ZCZgAiZgAibQYQIWCB1G5wtNwARMwARMoO8SsEDou3PrkZmACZiACZhAhwlYIHQYnS80ARMwARMwgb5LwAKh786tR2YCJmACJmACHSZggdBhdL7QBEzABEzABPougV4VCKnWFm3fuFor59yovfcoUcWs8xWrHCfF/AmNfdfkPDITMAETMIHdgUCPC4RMOq1kc6Pq169UzRP3aeXcW5Wsr9Xs/atUNm6mSk6+UrHyAbsDO/fRBEzABEzABPosgR4TCJEw2LZ6qTYsekRrnrhHDetXKJNOqSQR1+z9q1U2doYSJ12uWPlAxagi+NMa+6zheWAmYAImYALFTaBHBEJr43ZtWbFIm5bMV82Ce1Vf84IyqeRLZIJAmFklVY5X/cSz1H9AhQaNnabYkNGSvxCquC3IvTMBEzABE+iTBLpdIKRTSa2ae4eW3X+j6tYsUTrZugvIRDwWBEJDMqElmxIaP7xMY064SPF9TlUmnghVhkRJqRTv3BdELVu2TBs3btShhx7aJV9VzVdep1IplZSU7DKml3utUEtasWKFNm/erKlTp6pfv36FXtZl58HqmWee0f77768hQ4Z02X2jG7W2tgZ+FRUV/3PvlpYWLV26VGVlZdprr7265IvBaIf7lpeXv/QtpE8//bRWrlwZ/jZlyhSNGTOm4DEmk0m98MILYgx777136GtfOOD07LPPqqamRvvss4/GjRuXd1jr168P458xY4YGDOj7W4JwYa6ZZ3+LbV+wdI+hEALdLhB4EHHhjddo+UO3KN3anLdPCIQTZw7TtsakFq1q1ORRZRp1zAVqGnmoNiyZr3T9Bk06+CiVTDyyUyLhpz/9qe6//3797ne/69QiJ/g/9dRTuummm7Rq1SqNGjVK733ve7XnnnsqnU7rySef1F//+letXr1ao0ePDq+15WhfbpJ+85vf6JFHHtHnPve5dgWvQia+kHMeeOABXX311frWt76l6dOnF3JJOAdnytiHDh3aprBoaGjQjTfeKH6+9a1vDedGR21trb73ve+psrJS73nPe9S/f/+C245ObGpqCuKK+3L9f//7X/3xj3/U2972thDU7r77bv3whz8MpyPwXve614XXCj3q6+v185//XPy85JJLVFVVtculiAjGUlpaGvoR2w22zObOnauvfe1rGjx4sN797nfr2GOPzYvknnvu0fXXX6+vf/3rmjBhQqHYdtvzWNN/+MMf9MY3vlEHHHDAbjsObBLhz5roDtG/24Jxx/MS6DmB8ODNSidbXlkgrGzQ5NH9lSwfph3JhMpSddqwtUWHn3GuSo66RLGSjmdqOLO///3vuu+++zolEBAFBE2C2+GHH65bbrklLDYCOoHxm9/8ppqbm8NriIjhw4frF7/4Rbsz4WuvvTb09bvf/a7Gjx/f4yZ811136aMf/ah++9vf6qCDDiq4/S1btujss88OAebCCy/Mex3ZPOJn+/btOvHEE0MWHx04sCuuuELV1dX65Cc/qYEDBxbcdnQiguBLX/qSPvCBD+iEE04IlYIHH3xQxx9/fBBtF1xwgTZt2iREI4KPCs2IESMKbmfr1q265pprtG3bNn32s5/VHnvsscu1GzZsCMGWKghCZ3eoMnzmM5/R/Pnzg80heNsSZ7feequ+8Y1v6Je//GWovvT1A/v597//rSOPPDJw2V0P/NPnP//5sA4uuuii3XUY7ncPEShKgbD3qP5qaE6qpTWjqkGlWr45pSMRCMde1mUCgQBOhowDJPgRJP75z3+GQEKGecwxx+TdOmBeHnroIX31q18NwZPghuggkCEQCBiIh0984hNhEf7tb38LCxJH2lbmQbb7n//8RwsXLgxCgKyNfiEQ7r33Xn3wgx8MlYqxY8eGfhFMydIpwz/66KOhRD979uwgRAhcVEnI6igVE/joR5QtIGoIlDiKgw8+WPvtt1/IcPMdkUAgm6ekPGjQIB199NEvZcsEecbOa4yN/2mf7JwAf+qppwYnxJZO7sG1BHHKtlxHP2HAeKjI/OMf/wjjiQTCkiVLRNY6cuTIwIDXli9fHoIZvHiN7IixciDayPBPP/10nX/++SGAc+6+++4buHzxi1/UpEmT9Ja3vEWHHHJIaHvmzJmh0oMtwJDtlWnTpgWhF22D8Lc5c+aE9p944okgcPIJhLq6uiDufvzjHwfhQZWEfjMu+rJu3boQWBkDc06FBnaIJgRFFHQff/xxPfbYY+FvBCcy+7YOxj9v3rwwTjiddtppwY4QKoyPwMbPo446Kow99/jXv/4VbJe1AXfWBZURruH/YcOGhXvSh1yBAAfshYoJPBlPZFdsRWDHXE/bbQmxHTt2BNvEztleW7t2bRgzW2wcVOcI0lTv2A7C5iPxSLUIu+Mc2qdNtsawJfrGOmRODjvssDDP+ao5VIPgTT+Zd/rPfHEu42G+Z82aFdrGRpjfxYsXhzWEjTN2rqfPcHv++efDGLCfxsZGPfzww2EszGVbB3PHGuAcrmO98jtzgW1iI/zOXLIFRJuMjQO2kydPDvONHdBXfnIOtkefGM8PfvCDMD4qZqwd2MGd6/AJcEskOred20Pxy810M4GiFAiTXxQIza0ZVQ8q1QtdLBAIamSOd955pz72sY+FxYeTZ0HjmCknElhwkvmyPhzR97//fX3hC18IjmHRokV6/etfHyoHOA7uTYDkvgT9N7/5zSHb4p65B+KAUi3lb5wCQoCA+e1vfzuUwHlt4sSJIZDy2qc//emwsG+77baQwRKocACU43/0ox8pyt5xYjhPFj19/MpXvhIWPVUUgh/XEdgvu+yyUF7P9xxFJBAIaJTIo+c3ED+IlHe+852hbZwwAe+1r31tCNAEZhizN8/Y82UqCCmYRAEWZ0twot+MFcdKFeLjH/94cIiILEQPTpwAw7YLzxCwBUL7jI2gcuCBBwZBgEBgnPQBXlxz1VVX6dJLLw1z8qc//Skww5nTDtWGD33oQ0HwIYhuuOGG4IDZi+dviDSC9+WXXx4cLbwQWTjefAKB6371q1+FrSaCNIH1He94R+BDu1RH+B0BcdZZZ4V5QLjAlv4jKChpf+c73wmihmoHgQ2bzFetIAAx/9gFAZb5oJ8wZZ4ZH7ZB0LvyyitfElLZ9oht/OUvfwlC69xzzw39QHjBEkFBMCRI0SdYRBUEghXzzNzQN0Q2lRvsgWDOvxEsCAD6Bq98QRL7YjuOvmOfrA2C86c+9SkdccQRoRqDiGFeYMVcs84Iooh1xkl1iJ/YJzZDwMSGuDc8eI3K1hve8IZdqojYJKKc9ukjgph23/72t4dgzRpi/RGIYUB1kPtz/imnnKIzzjhDVGCYu/POOy+IUIQt7DmH33/yk5+8JHiy2SNsuB+JBzYbCS3uhY/CTvE3bAFxvw9/+MPhPH7CiPFiA5zLMyHYKWsCH8Bagj9VLIQAggL7O+eccwIHzmXOEEYkHdyD+fRhAj0iEBbddK1WPHyr0q1tbDEk4jphxlDVNSb19KpGhQpCU1LNyXSoIKzYlNLhp5+tkqMv7XQF4fbbbw9lbzJ6FheBnYDBwmaR4xRZhDgLAifOPPtAALDAcOwsVBT3c889F4IMzgoHzHYCr+HAWHA4SpwDTiP3IKthQRJwcGSIDfpDoKCNO+64IzgmnCLBjQXP33Em9JGMnuD6s5/9TNddd11wDuyTEtBwbL///e/D+byOk2Kc7JlTdieTQHQQ0POV8SOBgGOi77AjCDFOMmnK0NyfbIRgRp++/OUvhyCCQ8Vp01a+I1sgEEBogyoCDpR+ci33ZQywoH+IAUQcgYLMn0yWv9Gfk08+OTxbQh+4Fw+SfeQjHwmOnuBM1o9AwBkiwAiAsGNeECBcg0AgKNA2NsI5ZFyMm8D861//OgQY2iEoEYAI/m1tMSAS4I3oZG5x+ieddFKwMQIhmTrBKp9AQNS9733vCwEKPlQREIv0jbHmHryOndBnggptI8z4neCCPZJZX3zxxSH4trXd8a53vSuMDQGFoEAMw5JrqbhhK/BG2EUCAQaMgfYQwYgH7JCxsoaoXiF4EXTY3Pvf/36deeaZu2SpkUBAzGFnVFeYe+aL+UCsIFTJjJkT5oZ5Y73QL64hm//zn/8cqnnMNRk94huxTQDkJ4EUHrmVDNY2Agthx7WIa3wEYpHMPRIIBF5sC1aMm0QDTogH1hm2CiN8C+yYR2yaCiU2lG+tsQ7xIQhI/AH2ytYe/eD+VC3pG31hHrA9/AxVCXwZtoTAQ6xRWUFoIADwGQhl+oPQohLC31gT2BX+ifl4zWteE9Y4/gbbQPz7MIFuFwjpVEo1Cx5Q7bKF4d0IMWV2Ug8/dv47Fsto8qhyNSUzWrclpeGDS9SczCiVzmhAeUK1DRlNmDZdiUnHdOohRRYQzgK1TtaJI+Ani5/FRnkPZU0wpvRGOTC3FIkTYcHi6MjEcORkVogAAhAOAUdO4KGCQKaDoyCQ4UxyD0rtLHxEB8GJagFOAqdIlSL7GQSCClkYzo/MDAfJ9QQDMgMCNpkC++s4FtqjxIjjwungoAlu0ZYDwZbMFKeTr3Sd+wwCQYgxE/TJ5AislHw5cFqRAyXTbY9AeNOb3hTY4SDJcrKfQcDZRc6cecG5U+GBN9kqYoExkeFSxqaKw9jZEuiIQIAlFQTEIkEOPjhvgh8iiO0nnG0hzyDkEwjMCXPBmNesWRPum08gkO1iQ4hM5hRBhS0RbAj6uQf2Q7+xM4I5VQCcPAEVMcXccC0B/OXKx9kCgXsQ7JlbhC+laP6NIGKLKxIIVANgQkCnQkDFA3GA6KXCgtDDnhEVCGDGToaa/dwJ44kEAmMmAMI4etYnEs/0ByHJnMCD8wim2DmihnknIGIXVJmoiGC3zCcHmTIBEMFH9p97IHxhhX2RKBBAqQJh55F98zfWJkEWG6HfzCViBrGCSGXuEC/R9hRig2QDdrnjpg+sJwI2WyBsOSEmYYXAZLzMJZVJHuyFMfOEfVMdwFcxV1QrqLLBnP4hJplv+sv1nI9PyhYItIO/oi3sjDXGuNrzjh6H0b5LoNsFAqKgdtki7di4QiWlZSorK1dJaYlK4rHwEQexF9VCSfh05ZjSiol/EogzmZRi6VZlUiklho5SfNR+nfoY5kggUNrFceCkyKjImFhcBF8cD86WRUhgJdvKPQjaBCIU+XHHHRfUPc6X7Jd7EKhxBJQiCdwsfLJ4Mrncg4WNUyEQ4YBR8GQDiBcWbrZAoA0CJFkIi53zyUCpYJBBERxyBQLtEzBxpIyRa3EW0T4qwQJnni+jjAQCfUEI4SRxfGRVZC5kTfzkWrI7nDJtkcW1RyAgaBABlPLJ4nGmBBzY4+BwtARmxEKQlZlMEASMh0wpEgiwImh1RiCQNXMPSv4IENpifDhe7ouAw44IXmTFVIDaU0HIFggICDJjghfBJXuLgVI5c0agIuujH9FeeL53DSAW6Q+ssDPsCvsm2FBGprLTXoFAwGe+6QsZJlkwdp8rEBDViGS2GLBFgh22TyULMUqlJqqeMQ4qKpTHc4VKrkDAvrFpxk0lgnlB/FBBQSBTKYARgZy5J3gSsLMFAuKbKgI2i8ihfQI1TLPfOROtS9YX7dAXnjlAlCPisgUwPgLW3JMqRGQj7N0jFFiTrBfaIXiz5phrhGG+yglts7YI+swVY4zsHGFF5YNqAAkL22jMI/cl88de6WN0PjaLP4NbIQIBO2YdIRTYMoMhVSsSAR8m0O0CIZVs1eLbr9eax++SMiklEiUhsygtq1BpebnKKipU0a+/Jozop3iyWZlUi5RqllKtUiYppVPhExVjex2nxCEXKpbI/0BdIVOJY6c0SeCjfEdmgAigBEp5ngDE4mDxU0ome8n3xHKUZaC2WfA4gAULFoQHt3AQZMMESfYkCdycT1aRu11BnwkwBEMcDRk0WRACBdHBtW0JBAIHzhDxQemS+7MvSuDHmXIvnDL7x9yLqgNtkaHTZ/pG1oDzpcLxcgKBe9Ee7VA1IGiQ0VJJwEmSlSC4GDsBiqoMZWCCIU4q31s8s7cYCI7MDRUNHD7sGQvBBSfIPRENCDIqNFR6cMA4NBxhPoFARQQ2CAy2KXCChWwxIDxw8Dhpgjdt4Ny5D4KN4INQ4DkJ9qvJQtsSCIg+7IsAQgbM/GcLBBw5QZzAxXkEMuac7SEe8KQfVBL4HV6MATFHcM09YIfIQlSxxUDApsqF4EIk8Fp7BQJBGPbYOVk/toQQicYUVRBgwXnYEdUEslf6wVwyt9gF42crAvthbPmqc5FAoCqGjcGeLQHsj0DJ/RCR2C9bWzzkyt/giDiFJXaBcGA9Mk+0zT0IvrzGNVQQWRu5n78RMb355pvDNfQH4ctYsgUCggmRjQji+RaqEtgn/cKXIKYIuNgm7BFniAp8DH4h30Gghh8CH7tFbJH5Y3cIQqpDVDmpzmB3+AsSEXwYbBGuPEiKvSDY8Cn5BAL+DTvAr/E6yQgimzmhbwgDKhz4IR8m0O0Cgex/5dw7teKhm1W3dplam7aRAobAxH+UEcpKS3X8jEolYunwWvif7QfeN17WX7Eh4xWfeqriU05RrBMflpT9NseojI2zIMhRpiTIUQGgpIcqb+vhPRwY2wyU/AgCOD4WFqqe16gC4Oij13DOZFH5npwm0yPjwplzPuKJjBqHhpPKJxAI9tFT5AQfFjsBgmBAYKPfBBGyC0rBOASyOdrHoRDooof9GDuBOF/ZOaog4KTIcBARBE2CBUGNwMw4GQMigEDGOAni3Je+R89f5C61bIGAk2c+CLQ4dJwfHMjICDCUUXFibJHgvOCMOCGgtiUQCCjwoPRMwCQ4FCIQcJRsVRBwKImTZZLVEXyYH/qI4MMJEwwQQ20JBNgzr4hRMlbumS0QmDu2dxgbNse9mDMyVjjTd8raZO7sWxN4qH7lE5q0RTWH4Eww4t7YERUytmQ6IhB4SJA9deaZ+/G8DUEIe6IPkUAggDFOAitigSAXPVgXPSCJqMueO4Js7hEJBMZC0MdGaRMbwCYQ7tgvwhjRQrWCdhANrBVYEvQRyXCMnjdhj57tIQ7WCkwQWm19LgUBH/tFGFAV5LxsgUDVEOHA+OkndoB9YCf4ArYFENOsaw4SDWwYoZBv3FH2H701lzXAfVg7zCGsEUuU/mkHe6NPVFiYbx4IZr0gHhDU8GPs+QRC9EAulRUEDraHP8H3Md+0xbX5qp0Ol68+At0vEDIZtdTVKtOwSa1b1mnL0se0YemT2rqxRjsa6pVKJlUSk06YOUyl7DPESxQrHaBY/2qpeoriY/bf+ZHLA6oUG1DVrd/PgFhg0aHCcXQ4h+jDdCLTQKlTMcAJRo4M55376WrRazxXwGImuOGYCDLZB6IFR8D5lDdxooW+Xx71jyCh/cjZkTlGzyDgOAn8uXueBHSuxZnyOg4UR5F94EgRQNHT5pwPn9xPdKTfVCYYZ+47IciKcOLsBfO2s+iAFXvA+R6EwrHjcPN9Wh3ijUBV6AcnRfOJ08v3Lo1XWu6Mi7byjYsKRdRHAgA2AaPoiJ5V4CdiCNZtZazMIXOfr+TN/RAq2AT/Iz4JTFQ1ooPgSaDEjuADQ4Jovr1uriEDJaBnHwhKMm/mMfegb9z3lT4xkTXDHHFetuDk2sh+4ElmjAhCEGQf7I0jKhEFBFnGnfthPvwN7tk2wP1ZV/DFHqnAUVFDtCMyObAF7BFbIBBi77lZMpUwAi7ir5CDdhEx+WykretJLBCu2QfrF/ZUo7gnDBljW/aSe2/WcyRUCu03FQ7ajWwk8iWMxW9xLITiq+OcbhcIfLTy4tuv05ZnHtYe48arauRolZZXhAJBU2O9tm3eqG0b1mramIFKDB6hWL9hoWoQHk5ItiizfZNUv0YaM0uJwy/u1BZDe6YUh4KSR7lnHwRIHroqNIhH17KAyTxxormOOd9zDu3pa/a5lKHJMskyKHkWcpDdsLeZfeCcyEg6+xHPOHREAk4vOhAzCJC2sqlC+lxM55BxErCxmejA+SImO/IhTy83NgQsc5UtRrBFeBZqR1QY8tk1YqYnggOCg7WAMMo+EF1sLVD9QSAUevAR6pTUow924rkbsnyeI8knapgnnq+gupF9II6oTLT1uSCF9ueV5o81mn3AnApTocK3K/rhe5hAIQS6XyCkklp23w1aPucmNW5epYp+A1Q5crSqR+2pwcOqVTFgkErLSsXHLcdSKWVaG5Rp2qZM/Xpltm+Qko2KDRiu+NTTlJh5Xqgw+GibAE6Phwp5xgCH78MEdhcCiEm2AtiuyveZIS83DrZjeNaG6gl76TzIyMN9PkzABDpOoNsFAs8TNG/fpk2L52n9049p07OPqnHz2pCpDKqs1pDqERo6fKTGVvdTrHGzMjtqldmxZefDiYNGKD56lmJjDlR8zAGK9aP8ufN9Dz5MwARMwARMwAS6j0D3C4QX+87bHVsa6rR56Xytf/oRbVg0Vztqa6RMWv0GDNSx+1UqkW4KAiA2cLhiYw9SbOzBio+arlj5YH/tc/fZgO9sAiZgAiZgArsQ6DGBsLPljPjgpJbtW7V15WLVLJijmvn3KN1Ur9kzKlXSf6DiE49TfPwRig2fpFjFEG8p2GhNwARMwARMoBcI9LBA+P8RIhRad9Rr2+rntHbubZo6pkKl085QrGqiYuUDO/WJib3A0U2agAmYgAmYQJ8i0GsCoU9R9GBMwARMwARMoI8RsEDoYxPq4ZiACZiACZhAVxCwQOgKir6HCZiACZiACfQxAhYIfWxCPRwTMAETMAET6AoCFghdQdH3MAETMAETMIE+RsACoY9NqIdjAiZgAiZgAl1BwAKhKyj6HiZgAiZgAibQxwi0WyA8+cxSTZ64p/pVlPcxFB6OCZiACZiACZhARKDdAmH9xlptrduukSOG9cg3v3mqTMAETMAETMAEep5AuwUC31e+cfNWba2rVzqd6fkeu0UTMAETMAETMIFuJ9BugdDtPXIDJmACJmACJmACvU7AAqHXp8AdMAETMAETMIHiI2CBUHxz4h6ZgAmYgAmYQK8TsEDo9SlwB0zABEzABEyg+AhYIBTfnLhHJmACJmACJtDrBCwQen0K3AETMAETMAETKD4CFgjFNyfukQmYgAmYgAn0OgELhF6fAnfABEzABEzABIqPgAVC8c2Je2QCJmACJmACvU7AAqHXp8AdMAETMAETMIHiI2CBUHxz4h6ZgAmYgAmYQK8T+D8Y7miVRSznmQAAAABJRU5ErkJggg==;imageBorder=#008DE0;fontSize=18;fontColor=#666666;fontStyle=1" vertex="1" parent="1">
          <mxGeometry x="1130" y="294.05" width="390.43" height="223" as="geometry" />
        </mxCell>
        <mxCell id="h6RiRNKAuwsU3fVTqDMK-60" value="Anodot RedShift Query Streams" style="shape=image;verticalLabelPosition=bottom;labelBackgroundColor=none;verticalAlign=top;aspect=fixed;imageAspect=0;image=data:image/png,iVBORw0KGgoAAAANSUhEUgAAAggAAAF1CAYAAACNqBLhAAAgAElEQVR4XuydB3RVRdeG3/QECC2hhN47goCKiogFC4pgQbH33nsvWD4r9t67qCBWBEREpEhR6b33lkAIkE7+9cz9T7gJN5UkmmSftbIIueecmXlmZu9375lzblBWVlaW7DACRsAIGAEjYASMgB+BIBMINh6MgBEwAkbACBiB3ARMINiYMAJGwAgYASNgBPYjYALBBoURMAJGwAgYASNgAsHGgBEwAkbACBgBI1AwAcsgFMzIzjACRsAIGAEjUOkImECodF1uDTYCRsAIGAEjUDABEwgFM7IzjIARMAJGwAhUOgImECpdl1uDjYARMAJGwAgUTMAEQsGM7AwjYASMgBEwApWOQLEFQkq6tG2ntDNZSsuQQoKl6lFSbHWpakSl42gNNgJGwAgYASNQoQgUWSDwYuYtO6UZy6UF66TEPVJqRpaCg4KcQGjfUOrZWoqrKQUH+1ilZkibdkix1aSqkRWKX5k2BiG2cYfUqLZPkNlhBIyAETACRqC0CBRZIGxLkkZOz9K0ZdLBzYJ0UFMpOlLanSrNWyv9tTJLHRoGaVBPqWFtX7U3bJfenyCd1l3q1FgKDiqt5lTs+y7e6ON4az+pfo2K3VZrnREwAkbACPy7BIokEMgeTFrsc1KnHpylAT2CFBqyrwEZe6Xx87L05dQgnXKwdGo3KTxUWrZZum+YdH1f6ah2+zIL/27Ty1/p3/0lPTJCeudKqXszKciEVvnrRKuxETACRqCcECiSQEjPlH74W/rxb+n+gVLLevu3MilZenG0VD1SGtBdSk6XlmyU3h4vnd5DOqiJVL+m1KCWnLhYulGqFilVi/L9vn231KzOvnvvzfJlINZuk9j3UL2K1KCmFFdr/7KT06T1CdLmRIm6RoX70vH1avjK8o6EXdKO3VK9mtKeVGnNNikx2XcO96Z8ficrsnyTFL/Ll/WoVVVq21CKCM1ZduZe37LLmq3SnjQpLESqU11qHCtVCS+5kfDtTGnICOntK6UezU0glBxZu5MRMAJGwAjkJlAkgZCRKf08Wxo+TbrpJKl78/2B8t3RU5f4HHRstDRrlbRwvfT7IqlbM5/D7t7Ct08B5/nUd1KTWCklTVq+RUpLz1Kfjr4MBOVNXy5NXOjbx6Asn+PG8R/XySc2vCiapY/Ji6VFG3xlk+3Yu9cnPMhadGm6z7H/uVRuiaRNnMR1rOvvTvE599Bg6bQeUpMYsiG+zxA5mZk+MXFIK+mMQ30igIN9AfPXSePn++7BQdnsv+jYSOrd3sehJA4TCCVB0e5hBIyAETAChSFQJIHADdmY+N5vUo0q0pmH+SL9yLDARe1KkdYlSEs2SG+Nl844xOfUidyJ1HH2V72dpZSMIBfl92rr27dQt4bUuLY0d430yhipbQOfk6fMjdulCQt82YTrT/Q5chzzL3OlX+dLPVpIXZv6RMTmHdKYuRKZ+At6+e7DMXq29OVUqUaU1LmJ1LGx73eyACOm+cRIizoSSyYIGeqEgJm+PEsjpgfp6XOz1LWZL7/P5suhP0phoXKihswBWZQZK3zi6PjOPkFREvsuTCAUZkjbOUbACBgBI1ASBIosEEjjE4H/9I/P6bWOk1rXl1rU9Tn+3Ol3KpnfHgQEwsbEID01WOrQaF9GgMj8gS99IuK+gb5lCA6WHBavl976VeraTLrkaJ+T/vEvKSREOvfInIKFTMEnf0gnHOTbJOkJhDfGSX3aSRf2zhnh83TGHZ/52jTkLN9SiJelSE7L0rXvBblsBBsFqQsbM+/5Qnr8bKmbX0aFzMS3M6SkFOnavnmLqKJ0ogmEotCyc42AETACRuBACBRZIFAY0fSSTdL0ZdLKrVJquhQZLjWN5ckGqV2DfQ69MAKhUUyQ7uzvi/q9Y9VW6YLXpFcv8QkB/2PHHumrqb7U/gsX+VL/7D3gEUqWMPwP7vPSzz7nfX4vn6ghg/D5ZOma46SebXJG97uSpf5DpQt7+bIObLL0DjIKz/4gbdkhvXCxTyDMXyvd+6V0XV+pb+d9Sw/sS6BO7KloF2DfQnE6zQRCcajZNUbACBgBI1AcAsUSCF5BCAPW6Jdu8v3gjNPSfWl5Uuve2ntBGYSDmwfpsj5ShN9Sxbh50h2fSjeckLXfEkZaZpBzzNt2+QREdJSvRmQ32HCIY2Z5gywEDpplhlMPli48yvf+AAQCGy2vOGZ/8YFj7/ukdPvJ0oldcm5u5LPXxvqWPt65ylcmGx5ZcqHtLJ+QUWlex5d58G9PYTqHvQt/LpNWb5UoK/cxZ400arZ03hG+pZXcB+KH5Rn2Z9hhBIyAETACRuBACByQQPAvGOeMk2QfwOzVvicYiKhxkkUVCGx0HPGn9NxP0uDDAzcvLVOKqSad3dOXrVi9TRo317ePAMHAUgfvEuJNjxMXSwN7FF4gnIBA6OdblvB/+gGn/fpYCUftCQT+hkhigyTtZ2Mlf2O/xGGtfAIkrz0auVvGpkqWPiYt8r18KveRlBLk9nSwP6Na5P6fhwQHqVMj6eGzDmRI2LVGwAgYASNgBKQiCQSi8vXbfS9GIkIOdPD65aE/+V63fNkxvvOKIxB+mCk99YP05U05nbR/meEhUs2qvicRRk73LXf06SA1r+t77TPOnf0Jb46TDm1ZOgLBqw9PTmzd6dtEuTZeWrDeVy9EBj+F2aRIBoFlEx7rDJRBWLxB+mCidE5P30bM3O9B4P+1q/naaocRMAJGwAgYgQMhUCSBQPqedXCeODgnj8ieyrw4Stq805fC5ymHogoE7sHmv0velL66SWoR4H0L/o3+a4VvI2LvDr6NiDyq6B04awQLDrWwSwyFzSAQ8bMfAmfO0wvewf/JaHw+SdqZIt3dX4opgUcdyVLc9LH02FnSSV0LJzoOZHDYtUbACBgBI1B5CRRJIBAhfzJJWrVFblNh4wDr4KzJ45BJ+196tO+lSKTe7x4mXXWMdHSHnA6cpxgC7UHgUcEr38GxZ+nO/kE5vnuAzYHJqRLLDLy8aMoSBEKWzu4ZpGM67utMIvI/FvkelezX1ScQyCoUtAehsAKBZZXf5vui/ltPydkuHsPkfRGTl0gPnp53xqUoQ88EQlFo2blGwAgYASNwIASKJBBYX5+5Qvp0ki+V3b+b1KGhVCXC984ANtf9PEuat8737P8xHXxPAbBR8NZPpMNb+/YUkP730uN5CQREAHsKXh0j9e+epYE9glwUjuNduI41/yy1bxTk9jnwIqZ3xvuWGy472ueMidzJLPB+hKlLpfOOlC7p7dsTUVICgWWFP5dm6aXRQS7tz1ICew/YHMk+hWFTshQTHaRbTs75hEZxO8wEQnHJ2XVGwAgYASNQVAJFEgjcnNcPswmRtxuuTfC9NRCny5sGecEQGwd5qRFiAIfNQcr9g9+lX+dJtav60v18mROf5yUQvLJ+meNz8ul7pegIX9aA9XyECWl2Hq2kTnxHxHczfY9csv+BevFaZr5dkgwD2Y4rj/U9WVFSAoFtgnyb5dg5vjIoG/GDQCC7wPIKL09qz/sditozAc43gVACEO0WRsAIGAEjUCgCRRYI3BUHyNMCPE7IRjycISIBhx9XwxfBk1XwP1ieWLA+S9uSgtS4dpYOahrkdvfzyCBRd6OYwGvq3HvFZmnd9iwl7QlSeJjvq6QRBnVq7HO8bKBkKYM9B7tSfRspeScCb0Gkjhw8Gkg9qQv1RzTg0P0PnD4vS2rG/avn3AiI6GAfBk9G8AZGDv5GeZTNhkje6sgLmxBK1JEllpL6amYTCIUa03aSETACRsAIlACBYgkEr1ycI0sLLD3gBPl+gvy+YZBMAml5NhHiRIsSVVMG1/IdBzy9EKgcnDvn8cNeA+/7EkqAU6Fu4bWPDEdBLAp1w1wnTVks3fix9Pgg3zsaCvNkRHHKsWuMgBEwAkbACByQQDB8ZUtgc2KW3vo1SJf2zlLj2KLIq7Ktp5VmBIyAETAC5Z+ACYRy1Ic8VsnbI1m+KKlli3LUfKuqETACRsAIlCEBEwhlCNuKMgJGwAgYASNQXgiYQCgvPWX1NAJGwAgYASNQhgRMIJQhbCvKCBgBI2AEjEB5IWACobz0lNXTCBgBI2AEjEAZEjCBUIawrSgjYASMgBEwAuWFgAmE8tJTVk8jYASMgBEwAmVIwARCGcK2ooyAETACRsAIlBcCJhDKS09ZPY2AETACRsAIlCEBEwhlCNuKMgJGwAgYASNQXgiYQCgvPWX1NAJGwAgYASNQhgRMIJQhbCvKCBgBI2AEjEB5IWACobz0lNXTCBgBI2AEjEAZEjCBUIawrSgjYASMgBEwAuWFgAmE8tJTVk8jYASMgBEwAmVIwARCGcK2ooyAETACRsAIlBcCJhDKS09ZPY2AETACRsAIlCEBEwhlCNuKMgJGwAgYASNQXgiYQCgvPWX1NAJGwAgYASNQhgRMIJQhbCvKCBgBI2AEjEB5IWACobz0lNXTCBgBI2AEjEAZEjCBUIawrSgjYASMgBEwAuWFgAmE8tJTVk8jYASMgBEwAmVIwARCGcK2ooyAETACRsAIlBcCJhDKS09ZPY2AETACRsAIlCEBEwhlCNuKMgJGwAgYASNQXgiYQCgvPWX1NAJGwAgYASNQhgRMIJQhbCvKCBgBI2AEjEB5IWACobz0lNXTCBgBI2AEjEAZEjCBUIawrSgjYASMgBEwAuWFgAmE8tJTVk8jYASMgBEwAmVIwARCGcK2ooyAETACRsAIlBcCJhDKS09ZPY2AETACRsAIlCEBEwhlCNuKMgJGwAgYASNQXgiYQCgvPWX1NAJGwAgYASNQhgRMIJQhbCvKCBgBI2AEjEB5IWACobz0lNXTCBgBI2AEjEAZEjCBUIawrSgjYASMgBEwAuWFgAmEctJTWVlZ+mXCZMXWrqUundsrJDi4wJrv3rNHc+YvVlBQkHr26Frg+blPSEtP1+y5C7Vo2QrVqB6to3r2UK2aNYp8H7vACBgBI2AEyh+BAxIIK1atcU6rQVw9HX/0EYqKjCx/BA6wxskpqZoy/W9NnDI9+06hoSHOkbZt1Vw9uh6kWjWrH2Ap0t69e3X5zfepc4e2uuGKCxQeFlbgPTdu3qI3P/xCQUHBeuSuG/M8f/Xa9Rr96x9q1KC+jut9uCIjI5SZuVdffvuTfh43UVFREWrfuqUGn3GK4urVLbBcO8EIGAEjYATKP4FiCwQcyM/jftdbHw1T+9YtdMl5Z6pD21bln0gRW5C0a7eGfz9a3476RR3atlSN6tWVkZGhrdsStHHzVrVv01IXDBqg1i2bFfHOOU/PzMzU2ZffrIMP6qC7brhS4eEFC4T1GzfrhTc+kIKC9dyQu/Isf8Xqtfpu1Dg1bdxAJx9/tBN6K9es06vvfKLq0dV01mknqWFcPVWrVlXzFy3RqLG/q//Jx6ld6xYKDQk5oHbZxUbACBgBI/DfJFBsgbBx0xZ98tV3mjRtpmrXqqGB/fq6n8p2IBC+HDlKv036U7dcfbHatWnpEKSmpmnSnzP1+Ygf1KfXYbriwrMLFfXnxa80BUJGZqZSUlIVEhKsyIgItyQx45+5evujL3Vs757qf+Kxqla1iqsa7Xzzg2Eui8GyRVhYaGXrcmuvETACRqBSECi2QJj+12x98tW3atSwgVJSUxUVEaFLzztTdWJrZ4Nbsnyllq1crY7tWmv9hs2au3CJIsLD1K1LR7Vr1VI7k5L068SpItKtXaumTjyml+Lq70ths+6+LX67S+GvWb9B1apWVdfOHdS1UzvnxPYkJ2v+oqVasnzVfp2FozuoY1u1buGL3Hcm7dJfs+dp4eJlCg8Pd3UiXe85PsoaNe53t8bfqEE9zfh7rlatXa96dWJ1ygl9XCQd6PAEwu9Tpuvum65Up/Ztsk9bvmqN3v9suIKDg3X95eerft067jOyC9P/nuOi9JrVo9XzkK5q1qRRjmg8PmG7ps6cpVVr1qlObIyOPbKnrr7jQcfOP4OwbsMmjZs4RQkJO1S3ToyOPLSbmjdt7MrxMghZCtKdN1yuydP+0qYt29S4QX0d2r2L6teNdedt2Rqv2fMXqU5Mbcdl1ryFGj9xiqb9Pcctk7Rt1cIxp6y/58zXnzNn68jDuql5k0YaeMoJqhJV+ZaWKoV1sEYaASNQqQkUSyAkJ6do5KhfNGXa37r43NO1bOUaFy1fePbAHJvhvh/9q775YaxbP8dJVqsWpQ2btykzPVODBpyoCZNnOKcYHhGmpStWu+j1raGPOkeHw549f6GeefldBUlq0byxS9nv2JGkM/r31XlnnqaEHYkaNfY3jf/jz+xOJBpGDJAmv+icgS5ljqP/6ItvNGveIsXVixXnbN6yTUce2l0XDT7dOcrMvXt17e0PKSQkRIk7k1xWhKh9+cq1atakgV5/7tGA6fT8BAJr+x98PkKpaem67vLz1LhBnOYuWKyPho3U2vUbXbnbd+x05Vx6/pk66vBDFBEertVrN+jltz/WkmUr1SCurnbvSVZYWIhWr92oY3sfprtuuMotMUz7e7aGPPOqIiPC1bJZE63bsFkZmRm6+uLBbk+ITyC8r6XLV6tZk4bak5wiYG7YuFWHdu+sqy4arLh6dTRn/iJ9+MU3Thyce2Z/jf71d40aN9EJgtjaNZ1o6tvnSM1buEQLl65wf2/cKE6xtWrqgduvdxsY7TACRsAIGIGKRaBYAmH5ytV677Phqh4d7VLNRPEff/mtEwdsZAsL9aWdWZf/fPgPLuo9f9AA5xDXbdjonNqadRt1xQWD1P+kY92muH/mLND9Tzyv88/qr0vOPVPsoL/29oedsHju0XtUtUqktiXs0BsffKYNm7bq8ftuUd06sdqbudcJEI4sZWnqjH/03qfD3X6Iyy84S9WqVNEHX4xw0TMC5ugjDnUi4Icx4/XVt6N09oB+Oun43q4OV958v1av26C7b7pKR/XsrtCwUA0b8aO7/umH79QhBx+0X+/nJRDYhzBx6gy99eEwHX7Iwbr20vO0Y+dO54jXrd/khFWXju21PTFRr7/3uXji4KqLB6tV8yZ66a2PNHna37ru8vN1WPeDHM8RP4xxwuLInt2yBcLlN93r2vzqUw8rLDxM8fE79MgzLyk9I1NvPDfEZSqef/19JzjOPfMU9T/pOLeU8MPo8Ro9fqIuOHuATjzmKM2et1Dvffq1OnVoqwvOOk0RERGOI9mPk4/vrZOO662qVaK0d2+Wfvtjqt78aJhuuNy3xBAZGakgFJwdRsAIGAEjUKEIFFkgENmTTsdZnXbScTr9lL5uGeD9z4e7yP2y885Ui2ZNsgUC6/OIiCMP654N7sEnX9CiJSv14v/ud5vfOPZmZem0c6/WId066+G7bnQZhM1bt7msQs0avqcAWFL4aewEfffzr7rj+svVtXP7HJ2xbIVPuLDkceUFg9ShXWu3rPHuJ1+pRZPGOn/QaYqNqeWuSU1N1WNDXxcO/tZrL1XjhnFOIBBR33njFdllLl2+Ulff/rBbIjiz/4l5CgTE0CEHd1ZM7ZpKz8jQ2nUbXbTN7v9rLhmsNq2auyzLh8NGqs+Rh+q8M/s78cOBWBn+/RhdffE5LtJ/7LnX1KRRA7dvgbQ/B1mPc9wmxfbZAuGCa25X1SpV9dozDyk0NNRlIojuyawgkOgXMggsMTzz8F1ujwEH9Xj/8xE64ZheGnz6KfsJhCpVojR1xizHrV/fo92P94TK+IlT9fr7n+umqy5ywsf2IFQoe2CNMQJGwAhkEyiyQIjfvkNfjvxJi5eu1FUXn+N2smdl+bIFo8ZNcI7v+KOPzBYIw0aO0o1XXujWxr3j8aGva/mqtXrygdtUv55vXZ7j9AuvV8d2LfX4/bf5nGJGhuYvXuaiVsTCzqTd2r4j0T22d9t1l6p7l07Z11Kvr0aO0pQZf+vCcwbqhD693GcTJk9zaf5T+vbRmf1PynaSfPbmh59r2szZuueWq9WqRTMnEBo3rK/brrssO23OMsGlN96rKy8c5NLvuQ8vgwCTunVjVCUiQqlpaS7bcVDHdrrt2kvdkokTAqN/dcKqXt1Y90ihd9C2ZSvW6KarLnR7OF5++xO3RDDgpOPckwMcgTYpjpswSU+/+p7q1Kqlww89WD26dlLXTu1dNoQ9Gnk9xTBlOtmBr3VMr8NcZid3BsEEglkII2AEjIARKLJAYB36lXc+0db4BDVpGOciV44diUlav2mz+p94jM4/6zTnYBENxRUIOESeAPj06+/Vs0cXdW7fVmFhYZq3cLEWLF6eQyCQMRj72yS3nHHisUfpgkGnuXM5EBcsf5x28vEa2O945zi9g7T62AmT9dAd17unDw5EIPhvUkxArHz3s3sS4PLzz9IR/y+ORv44Vh99OdJtfKz3/6LBfwieeuKxytybqTc/+MJlZ04+rrdw1nkJBP6+bMUq/fzrRP0zZ77b31G/ToyL7rt16WQCwea3ETACRsAIFJtAkQRCWlq6xk6YpHc//VqtmzfNTn/7Ss9yTxPg0C6/YJC6dGx3QAJh1+49GnTpTTqud0/dccMVrgQ22Y36ZYK+/ekXJxBwggiJmbPmufcxtGzeVNdcPNil+b2DXfcIAfYPnD2wX/aOe/YtPPvqu1q8dIXuvfUatyxSUgKBsmfNXaCX3v5YbVo2c0ss0dWqadzvk/Xlt6PU7/ijNaBfXwX/v1hhOYUfxAtPLTz54lsuG0B9veUVli0GX36LDu7iew8CywVsXmQJhg2LtGfxspV68c0PRD+99uwjbgNkoPcgWAah2PPFLjQCRsAIVBoCRRIIrG+zyY69BkSp/mlyiLHEwJ4D9iUQDf84ZnyxMwgbNm3RJTfcrTNOPUGXDD7DOU+yFh8N+8ZlENg30L1LR3mPEu7cuUtXXDhI7f1e1sRmRB4XZNMiSxNkFnhxEVv5efySzYDNmzZyj2fGxtQuUYHAkxAjf/rFvTeAZZe+fXppweKlbuNfTO1ari6+txJmieURBBH7H6jzE0PfcH+DcYtmjZ144K2V9zw61D19wFMMbPa89YEnNWjASe5FRjwNkrRrjxMgvNXxqYfvUEhwSIkLBJZsXn33U7fB9KjDe6hKVFSOrEylmTnWUCNgBIxABSdQaIGAkyJSZ3nh8EO66ppLzt3PMeB03/n4K9WsEa2LzjldM/6ZU2yBQBR8y32PadO2BA08+Ti3SY7H8f6Zu9C9u4Ad/i5L8RPLGD+55/QP694lR3exr6B9m1buZU5fjPjRvfKYjXUcv/4+1T3OeONVF7lr2YpfkhkEyuCRxtff/0x1Y2N13WXnqXbtmk40jfh+jFq2aOqeUMhIz9Dk6f8oIz3dbUpE4CAqWBaJqVXTLU+kpqXqj6l/uQxNn16HOIEQEhqi+x4f6vYunNX/BDVqWN/9zrVscHz4zhu1ZVt8iQuEBYuX6amX3nZLJAgEHn+sjK/YruB2wZpnBIyAEVChBUJySoomTpmh8X9M1emnnBDwy394NPGrb392X+4zeGA/t7GQ5+l5dI5XBHvHmx8O05p1G3TrtZfkWKa48e5H1apFU9189cXZUfO7nw535/KoX7vWLd3rjH/5fbLb68BLk1jXnzz974Bd2e/4Pjqj/wkuup45a657AmLlmvVuWaJZ44Y6o/+J6tyhjXvDIe9BeOh/L7oo/uJzz1D0/28OJJNx3+PP6+wBJ6lf3z77lUOan1dOs9+ADIb3YiZO5NHFsb9Ndo9YDjj5OPeeA5ZJJk+bqdHjJ7l3MXC0aNrIMeUlSzwVgBgb9/sUt5zCo4pRVaLchkWcf5tWzXTZeYPceSkpKXrnk6/cS514tDEiIsyJJp5M4IVT8GdTJJs6eVGSd8yau9A9Nnlot4PcY6aLlq5w/+d10Lw1MSoyQpwz/IfR6n34Iep9xCFuKYMDdizZ8JQD/f3ykw/mWNKxOWUEjIARMAIVg0ChBcK/1Vyc5c5duxUaHKyq//+63+LWhXvt2r3bPXXBc/2k8/+tgz0DPAFB5qJaHnXBGXMOb5DkC6DyOhAdnMfbHnHupX3AccfOJCe8yOb4b/ws7bLt/kbACBgBI1A2BP7zAqFsMFgpRsAIGAEjYASMgD8BEwg2HoyAETACRsAIGIH9CJhAsEFhBIyAETACRsAImECwMWAEjIARMAJGwAgUTMAyCAUzsjOMgBEwAkbACFQ6AiYQKl2XW4ONgBEwAkbACBRMwARCwYzsDCNgBIyAETAClY6ACYRK1+XWYCNgBIyAETACBRMwgVAwIzvDCBgBI2AEjEClI2ACodJ1uTXYCBgBI2AEjEDBBIosEPgSJV59nJKa5r4zwA4jYASMgBEwAkag4hEokkDgy3nit+/Unj3JCg0LVZCCKh4Ra5ERMAJGwAgYASNQ+G9zhNXOpN3atDVe9erUdt92GBxkAsHGkBEwAkbACBiBikigSBmEhB07tWXbdrVp2cTEQUUcDdYmI2AEjIARMAL/T6BIAiF+e6K2xu9Qu1ZNDaARMAJGwAgYASNQgQmYQKjAnWtNMwJGwAgYASNQXAImEIpLzq4zAkbACBgBI1CBCZhAqMCda00zAkbACBgBI1BcAiYQikvOrjMCRsAIGAEjUIEJmECowJ1rTTMCRsAIGAEjUFwC/6pA2J6Uop+nL9e8TWlKzqAJ3psZgxQWGqxjOzfQkW1qKToytLjts+uMgBEwAkbACBiBYhD4VwTC9l0pGjNjhX6ctlzLN+xQaHRdJWfukwe0IyoiVO2a1VNczQj1alVLR7SuaUKhGB1slxgBI2AEjIARKA6BMhcIG7bt0mOfT9HfSzcpPilFmZl7FRPXWBlZIdn5AxoSGR6qhnEx7oVMNaJC1aJulK49prFqVw0vTjvtGiNgBIyAETACRqAIBMpcIKzcmKhrXh6jJesSsqtZvU5DKSQsR7XDQ0PUuGFs9t/qVg/XowNbqW71iCI0z041AkbACBgBI2AEikOgVAVCUnKqpjdakRYAACAASURBVC3eqszgMDWrW00Na0VqS0KSrnlpjJau355d36oxcQoJy+n4Q0ND1NRPINSJDteQgS0VFRqkBau3adWWJDWsG6NDW8coMiy4OG23a4yAETACRsAIGIE8CJSaQMCJv/HDP1q2JVk169ZXZFSU20MQFZShcVNmKyFxV5EEQkhWpqqkbNPKDfHanZquKlWqqGOHtmoZV12DD4tT49qR1slGwAgYASNgBIxACREoNYHw26zVGjp8huKTs1SnQSOFRkSKL39MS0nR8sVLlJycXCSBkJ6WqpWLFml3coq7rmaNaHXs2F71a1fVpUc1VMcG1UoIid3GCBgBI2AEjIARKDWBMN4JhOlKSFa2QAB3SkqKVi5ZopQiCoS01FQtW7hQqamp2QKhgxMIVXRZr0bq2NAEgg1nI2AEjIARMAIlRaDUBMKE2Wv03PDpit+zL4NQUQVCWlqaFi5cqHnz5umoo45SkyZN9uuf3bt3KzMzU9WrV8+37/bu3as//vhD06ZNU6tWrdS3b19FR0cfcH+vXbtWv//+u9q1a6cePXoU6367du3STz/9pLp166pnz56Kiooq1n3+7YvS09O1c+dOxcTE7FeVHTt2OPYZGRk65phj3FJWYY74+HhNmDBB9erV08EHH6yqVavme9nGjRtVv3590d9jxozR1q1bdfHFFxemKDvHCBgBI1AmBEwglABmHOfw4cP12Wef6aGHHnIiwf/YsGGD3njjDW3atEm33nqrOnTokGepX3/9tV599VXhxM4880xdeumlql279gHXctKkSa5uZ511lq677jp3v4SEBE2cOFHjx4/X0Ucf7crL76AdV199tQ466CDddtttAR3sAVe0lG/A0tYzzzyjX3/9VbDGofsfK1eu1PPPP+8yXU8++aRiY/c9SZNf1RYvXqwHHnhAXbp00VVXXeVEVF4HfXHZZZfp6aef1imnnKKbbrpJc+fO1eTJk0u59XZ7I2AEjEDhCVR6gZCV5b29cR+0oKAg8XfvM/7PT14HAgFnE0ggcB3LIrNnzxbnHXrooapWLfByCOXdc889LoJ98cUXnbPJfXCOVx+vjgXVj3vglB588EEnEC655BKNHDlSr7/+uotcqQ/C5aKLLipQIOD8EAi33367atWqlV0XLvTnFej/+d08r7bk1T/+9/e/b379xHlkcRYsWKD58+dr0KBBCgkJcZd75a9atSpbIDz11FMFCgSvfv4CARHlCYRA7SJL8dVXX2nAgAGO4Y033qg5c+Zo6tSp+zEsKsfCT3070wgYASOQP4FKLxCmT5+uzZs3q06dOi6K69evnzPuixYt0pQpU1yq+ZBDDlG3bt0UGhr4lc+eQPjkk09cZOg5jcMOO8wtExC14gD27Nnj0s+BMgKUgxMnek1MTNRpp53mHAjX4tBYFvjrr7+0bds2HXHEEW6pgJQ2jqlly5Y68cQTFRaW810S/l3vLxAuuOACVxb3oqxRo0bpvPPOK7RA6NixoxM6ZERatGjhsg84ZkQHEflxxx3nUucwpN3UN9Cyi+ew161b50QRafo2bdq4trIUs3r1atd2nCifUV7Xrl1dBobU/4wZM5zAob9w+BwsCzRq1EjBwYEffYUzHCnz5JNPdsskOGz6mr+xnENWhfPyEwj0McsE1Hv79u2ujh999JG6d+/usiwsX6xYsUIzZ850de/cubNjRnnr1693WRu4NG7cOFsgkNX45ZdfFB4erpNOOskxhMHff/+tTp06uT63wwgYASNQVgQqvUAYMmSIc5A4BIz+u+++K6LIJ554Qg0aNHBGevny5brjjjt0xRVXBOwXTyDgUHD+ERERYs8BTpFIu2nTpi5aR4iQmg+0xEBKm6wBmQiWF7iWqJ6y3377bbemzX25B3XCueAUEQX8jcj+lltuyXPc+AuE66+/Pvu8b7/9Vm+99ZbOPffcQgsEHBwOmrK3bNmic845R3fddZcGDx7snDipciL1+++/3zle2tSwYcP96sY5OFhS+QgV2sj9EEak3YmoX375ZScCcMBwpp8o69RTT9Vzzz3n9kTQbzVq1HDX4pjpw2bNmgXM+iC4KA8H/c0337hzXnrpJcGBa7k/+xMQd/kJBPpl6NCh+vPPP52Yoc9YskFoIRBw6tQPoUIZOHqWdq655hrXrssvv1zPPvusW2LwMgg///yzHn30USeq3nvvPSdWPvzwQ40bN84tX9DndhgBI2AEyoqACYQhQ/T9998750/2IC4uzjlajPSwYcOc07j33nudoSe6D3R4AgFHe+WVVzpHSxT6v//9T71793b7CPgsP4Hg3RdnwVo/17Zt21Yff/yxc5IIlNNPP12//fZbtshgSQMny0ZG1sq/++67MhEIkZGRjgWscNZEvj/88IPGjh3rnOoXX3zh6o4Tb9++vRM4eXEjC/LPP/+4DAhtwLkTeSOOcLiIJjIUOFb4Pf74405I3Hnnna5/EAj8jXNGjx7tHCz86QfqmfvwFwgIF7IGOG76HkFDxuLhhx92GaX8BML777/v+oaMEUsV9DeCgf0nCATEB/dmXCEaqRPCg7FGBiOQQGATKQwRp4xBMlePPPKIE4ZwKGjjY1kZDSvHCBiBykHABMKQIW53/2uvveacGQfRGw4AA00kyb9EwHnt2s+9BwFRsGTJEudEWZbAueE0D0QgUD9S70TJJ5xwgotUES5EvDgbNtfhpPI6SjKD4O1BQDzh8IhucWAsp+Dozz//fB1//PHOSePg8tr8SOTPsou3FEEqHufJ3xAIOHPuS4YCkcWB82Y/B/8iDhBMCChS8Oz1IDVPOh+BFWivh79AQGCxxPTKK6+4NsAVjjh6Mjp5CQQyOGQhWOK4++67dfjhh7ulHgQG+0YQCGRYqCd/JzuC46f/GWtkFwIJBDILa9ascaKCZRzaTR8jQLyNpZXDLFkrjYAR+C8QMIGQSyDgtHD4RKMYcyJK1qiJWEnD55dB8DYpIhBIQb/wwgsuwif9z1MOJSEQSLeTMfAXCDgUou5/QyDACSeJQ2ZNn0iZDMixxx7rHDgCgmg80IGzZnkH8dO6dWu39DJr1iyXOchLIJAtYFkC4UFK3l8gkOanDuzJIL0f6PFQf4Hw6aefuuWQd955x92vT58+hRIIlINAIMtEBoW9BYgc7ykGhBHZCX74DOFEO1maIWOSn0BgrDFuOI+20KePPfaY29tghxEwAkagLAmYQMglEHDopOqJAIkMSQuz65+IMq/H0LwMAuvFpIbZpMeGR6JfnBUOg4xERREI7KlgbwWOn2wL7WaDHpmFESNGuCcx2DhI5oX1/bwOHCZ7M5YtW+YiZTY4ci/W9f0FAuv0CA+cO0sISUlJuu+++1xZrM+TkmfzIqLMWy7g+kDvMPAXCF9++aWL8Hn8k3cQELEjtOg3Mj/5LTEgahBAiD/EEO/A4HzaTF3hw5IA92aJASZsWCxIICA+EAU333yzu552kSFhmcEOI2AEjEBZEjCBEGCJAWNO+pgonQ1ovMOATYM4r/wyCCwpsAzAsgQvTlq6dKlLjbO5rKBNit5989qD4C0xeBkEshk4SZYYyjqDwFIAGwnZGMjjeiy/sMcCh8aOfp4kwNGxCY+1/bwOnqLgyQ8cLS9eqlmzpnOgZHFwkIg1nDWZAO7JUwMsCfCEB+2HKWv9RP6k9sn4IBJw1ETugZ46yb1JkZdcIU6oNxE7Io4XF7FMkZ9AYPMlfcJGTaJ7hAUvuIIL+xK4lgzDwIED3aZSnvCgDM5BPOa1xAArNjSykZS+RlzmtTm2LA2FlWUEjEDlI1DpBcIHH3zgNsnxdAE73zlY5yftjCHHgSAOMNisaZM+9z/YvMhmONau2QnPY384Bp6vx3Hx3gHugYMgdc46N4+xea+M9u6Fs8XRvvnmm+7xQ9axKZc0OssT1I89EqSgyVKwxk+kihPFGRGNk+bHQeY+cLA4RjYAUif/PQFEq2RMWLZg/Z71fzbXEaX7H7QHB45T5IkCOPDEAhsLYcOaufdoIc6btXTS6pTNuTje3PcjsqZeZB+I5Gk/goyszRlnnJG9B4HMAuzhghDg/s2bN3ebE3HmOGg+gwUbI2kfYgJW/u9R4GkC6s6mSvY6ePsU6H8yPPQPT65QZ8TO2Wefvd89aAN7L/hBkLA5E8dP9oR2IkwQCTh52gUHNnNyPoIR0cT4os/gRpaKJQX6DZHFQVv4G8stvEyJ/RV2GAEjYATKmkClFwj5AceJEwl7m90+//xzsW7tf5D67dWrl0spc+CQuAZnFWhTI2vmRM04V/+DrANLGaTvi3OQSSDrwXp17gOnSmo+v/ckeNfgxBBNOCf/AwY8Eupt5KSdPMpJGt8TBjh2hACOj0wKDhgBwN4MIn3/AweMWCJChhUiiojfv46II2+TIhsfOfjcK4+2ensQEGZ8xj0QAuwRIMrn3t7BZywjePfyrw/n0d/0mfeyJR6F9PaR+J/r7QFBuFBvWCD6cr+kicwBjGhrXu9l8L+v/6ZNxAJji6xUYfqtOGPGrjECRsAI5EfABEIRxgdOncjU/8DwE1kX1rETpXKfQBkEIs3ifr8BzoXd8mQych9ExDjQwjgpMghEwoEyCOynyO9RO17ygxjgex94nTGRPU4SZkTN/gcZCaLqQO9H8M5j5z8ZCzICF1544X4OmOiaDAhRee53S8ABHrkzCHz/AT+FOegrMgC53+ZIvbkHoqAkD4QlmQ2yGYwRnn7Jb4mmJMu2exkBI2AEchMoRYGwWs99nfPrnincvs2x4g5C0u1E9DzFQZq9oNceF0SCJ0iI4hEa7FHIfT8yDGQ8eAwQcVXeD7IRZIFY8qHN7F+wzYnlvVet/kag/BIoNYFgX/dcfgeF1dwIGAEjYASMQKkJhKkLN+iFETO0ITFDtes3UFhkpKLCQhSUmaZZcxZo16492fSrxsQpJCznY1yhoSFq2nDfN+ntzUjXjvWrtG17knanpqtmjWh17txezepG6+IjG6pl3cJ9La91uREwAkbACBgBI1AwgVITCJu379bYv1Zp/rqdCqtWQ7Wiq6hejXBlpafpzZFTtH7rziIJhKphQTq6WZjitydp7bYkpWcFq33rZurUpKYOa1FD0ZGBv0ipYAR2hhEwAkbACBgBI5CbQKkJBArK3JulDQl7lJEl1a4WoejIEK3etFNXvzRaS9dvz65LdJ0GCgrJueErLDRETfwyCHWiw/XY6a0UWy1cibtTtSUxWdWrRSmu5v7v27duNgJGwAgYASNgBA6MQKkKhEBVW705Ude/8osWrInP3h1eq34jZSpnBiAiLESNGviWGIIkxdWM0MMDWqpOtL1R7sC63K42AkbACBgBI1AwgTIXCIm7U/TNpCX6fc5a/bNss5KS0xTboInSMoOV5VffKhGhiqsfo6jwYLWpV1Vdm1TX8R1qq2qELSUU3K12hhEwAkbACBiBAyNQ5gKB6qalZ2rh2nj9uWC92MyYuLeqUjODsgUCGYPwsBB1a1tfnRpWU6dG0WoeG6WwkOADa61dbQSMgBEwAkbACBSKwL8iELyaeUJhU2KGMv3TBywrBAWpVYPqambCoFAdaScZASNgBIyAEShJAv+qQCjJhti9jIARMAJGwAgYgZIjYAKh5FjanYyAETACRsAIVBgCJhAqTFdaQ4yAETACRsAIlBwBEwglx9LuZASMgBEwAkagwhAokkBI2LFTW7YlqHWLJgoJticKKswosIYYASNgBIyAEchFoEgCIWnXHm3aEq9aNaNVq2Z1Ewk2nIyAETACRsAIVFACRRIIGZmZSkxMUvyOnUrPyFCONxtVUEDWLCNgBIyAETAClZFAkQQCgDIzM5WSmqaMjEzTB5VxxFibjYARMAJGoFIQKLJAqBRUrJFGwAgYASNgBCo5ARMIlXwAWPONgBEwAkbACAQiYALBxoURMAJGwAgYASOwHwETCDYojIARMAJGwAgYARMINgaMgBEwAkbACBiBgglYBqFgRnaGETACRsAIGIFKR8AEQqXrcmuwETACRsAIGIGCCZhAKJiRnWEEjIARMAJGoNIRMIFQ6brcGmwEjIARMAJGoGACRRIIWVlZ2rV7j9Zu2KIdO3dp7969BZdgZxgBI2AEjIARMALljkCRBMLuPcnauHmboqIiVa9ObYWGhJS7BluFjYARMAJGwAgYgYIJFEkgeF/33Kp5YxMHBbO1M4yAETACRsAIlFsCRRII8dsTtTV+h9q1alpuG2wVNwJGwAgYASNgBAomYAKhYEZ2hhEwAkbACBiBSkfABEKl63JrsBEwAkbACBiBggmYQCiYkZ1hBIyAETACRqDSETCBUOm63BpsBIyAETACRqBgAiYQCmZkZxgBI2AEjIARqHQE/lWBkJaRqU0Ju5WYsleZ7p1LWdkdEBwUpLo1oxRbLVyhIUGVrmOswUbACBgBI2AE/k0C/4pAQBhsiN+lBau3adSfy7V0R4j2ZGT5yQMpMjxUJ3ZrqiPb1FTz2CqKjQ5XmAmFf3OsWNlGwAgYASNQiQiUuUDYk5KuP+at049Tl2nCnDXalZKuug2aKHVvcA6BEBURqgb1YxQRFqzuTao7odCtaQ1FhAZXou6xphoBI2AEjIAR+HcIlLlAWLkxUde+MkaL1yZkt7hWvUbKDArNQSAiLESNGsRm/61+jXA9MqCV6laP+HdIWalGwAgYASNgBCoRgVIVCOkZmdq8I1lZQcGKjgpT1YhQrduSqKtfGqOl67dnY46ObaCg0PAc2MNCQ9Sk4T6BUCc6XI8ObKlaVcKUsCtFSXvSVLVKpOrViFRIsO1RqERj1ppqBIyAETACZUCg1ARCQlKypi/aqJnLExRWNVr1a1dT/RoRSklO0dBhf2jtlsTs5lWNiVNIWM7MQGhoiJr6CYToiGCd1qGqdu9J0arNiUrYna7WzZuoe8va6tQwWtUi7YujymC8WBFGwAgYASNQSQiUmkD4c+EGPff1NG3YmanYuIYKjYhUeGiwwvama9bcBdq1a0+RBMLejHQlrF2pDdt2KHNvlmrWiFbHTu3VOLaaLjuqkVrXq1JJusyaaQSMgBEwAkag9AmUmkAY/89qDR0+XQkpUp0GjZxA4EhJSdHKJUuUkpxcJIGQlpqqZQsXKjU11V2HQOjQsb3q166iy3o1UseG1UqflpVgBIyAETACRqCSECg1gfDb7NUa+vUMxSdnVXiBkJmZqW3btmnr1q1q3LixatSosd/wSU9P1969exURkf8my6ysLK1du1br169XrVq11KJFC4WH59yfUZyxuXPnTq1evVqxsbGKi4vLvgV15wgJKXiJJi0tTcuWLVPVqlXVsGFDhYbm3FhanHr9169B0G7YsEH0S6NGjQrsv9JoT159VxJlMSbi4+PVtWtXBQcX7gkhxvKmTZu0e/duNW3aVFFRUflWBVHPvcPCwrR582b3w3WB5klJtOlA7kE/L1682M0H6lgSc+9A6pPXtdgSfirDHCwNfnbPwhEoNYEwYfYaPTd8uuL3VHyBkJycrN9//13jxo3TRRddpIMOOigH/aSkJE2ZMkX8e/TRR6tOnTp59s78+fP11VdfOWfeq1cvnXXWWapZs2bhejOfs+bOnav333/flT9w4EAlJCRo5syZWrJkiTM0CJtDDjnEOcG8DhzJ0KFDnWg5++yzVb169QOu13/9BoiDb775xjE655xzVK9evRxV3rNnj+j/atWqlZp4YEy8++672X1Xksy47x9//KF33nmn0M5wx44d+vHHH51YvOyyy9SkSZM8q7R9+3b9+uuvTlQeccQRbh6MGjVKV1xxhbp06VKSTSmRe9HPjz/+uOvLyy+/3Anqsj6oAyIKoYKo6ty5c/ZcQ7DCkM8QXvXr19cxxxzjxuWCBQs0ceLE/aqLgDv00EPVvn377M/ow2nTpgnxybxv1qyZ+wyBRHDCvQh6Dj744BzXlTULK+/fJWACoQT479q1S19//bU+++wzPfTQQ+rdu3eOu3oGFaeMw2/QoEGepb744osaOXKkTj75ZDfxMaKRkb7lmQM5Jk2apAcffNCVf/755zsj/fPPPztDiEGijieccIL7PC+jiLO86qqrnAC6/fbbFRMTcyBVKhfXLl++XC+//LLItNx5550uqvQ/cK5//vmnTjnlFHXo0KFU2oRDuP/++3XmmWfqhhtuKNEy7rvvPjfe/v777wIzAV7BW7Zs0dtvv63Zs2frscceU7t27fKsE1m1YcOGOQd36qmn6rvvvnNi58knn3SC5792MBfOPfdcValSRU888US+c7U06r5u3TpNnjzZ9ceiRYvcXLv66quzhfsvv/yit956y83b2rVrO0d+/PHH66677nLjkODCOxizBBqJiYkaMmSIsyccZAIZU08//bQTILfccouOPfZYZwfmzZunESNGuOsITAYNGqQjjzyyNJpq9ywHBCq9QGBCkiolAty4caPatGmj6Ohop55XrlzpJg1OwT8tn7tf/QXCrbfe6tLvQUFBLipnEhNhEsETbaLIA6VWKYdJicFdsWKFbrrpJmdAMzIyspcuWHqgrs2bN3dZCJwXxhqH3rp1a1dmXoe/QGDCP//8866dRHKkjMku0I7bbrtN3bp1C3gbf4GAkOA6RAL1of4YKxwB/ycSIeMAU7ISLJfkdZBZoe20rW7duu58DBeihfYRffIZ5yGuaDupVSIdmNIOyuGAA+fnxcLjTPRFWfQxaWTqzAF72kXf8XlugcDfSK9zDm1EGCK0Lr74YpeZgQeGmftimLkPdac+RGn5LeXQ13DAqcKRTA3i0BMIONjTTz/djU0iRjh594MV44OxRlTJeIUhopT68jf6g//DkB+uLaxAoG7wJrKl3WPGjHFj2hMI9AOfkzFgfNNunCxjikwVUSyRMGLBEwicQz/AnnZyD7jhmKh/7iUPyoUl59Ae2kx76BPYen3OfdasWeM+Z24wHymfv8OCduMkObylMs6n7pR78803O/6eQOC6VatWufvRv4wxr27UiTHK9dyXejDnORhr3JP6cj79RV3zO3DyjCePW/fu3YVNgRXHHXfc4YQAgQjc/ve//2nOnDkaP3686xfq4h3Ml5deesmNiddeey27bMbYq6++KsQG44A5j8ig/7ADZCcIFugv2pPf3C0HPs6qeAAEKr1A+Pjjj/XXX3+5yY3xeOCBB9zE/vzzz53xwdhjXC644AKXpgt0eAKBSec5Vwwq0f8ZZ5zhDCWRE8YCRZ47CuWeGMpPPvlEH330kZvQXHvllVc6Z0A6F8OF4+D/pHQxHESvOCHuT/2OOuqoQgmE/v37a+rUqa4ehx12mLvHCy+84CIWMgN5tdMTCLDCQJPuxLDTRsQMUS5G+tlnn3XcvvjiC1fOPffcEzANjUHDWJHCX7p0qbuG+5100kkuosHwffvtt64cz9hSLhFep06d3P2JtBALpErhhlFD9ORl1LjXm2++KdL2GEcEIvcm/QpHyqQvOnbs6JZRqJOXQSDSwlGMHTvWCT3Oo18REZxPufQLzhODzRjAWeBgcA44HsoIdHCv77//3qXjuQ7G3ItlDeqKY8BJ0H7GJeMB7vQfBv2HH35wdaN9iF3EyuGHH67p06e7DAFOl35GSOE0r7/+eufoyCoVlEGgbtznyy+/dJyZDwgFBAgCAdY4NeYR5VN3smj0I32CKEDEUSfGsicQqO+MGTMcl1atWrmU94cffui4c33u9XX6ibY+88wzznExH5hTOHk4wQsH+dNPPzknioiDNxxOPPFEJzCHDx/uHCECAQE2YMAAFzWzPEhdYUOanvGAQKAtjDPKZSxQh759+7ry+J3xx+eIB8Y+c4rxyb0RBmQVaSesGAOUl3sJ0n880D8IOcoiwqe/cwsE+gK7hR2AHRkHljhh7B3UjbHMfEbMX3vtte4jGDCn+EFoI2w8gYBgYKmJscxyEOOIfoFJfsHHAfgfu/Q/TqDSCwRSbxjXHj16uInBZPrggw/c33AIpPJwKHzO2mR+AgG1jqMkQieaxkgNHjzYqfM33njDGVUmY6BUNAbhn3/+0VNPPeWMHkYGo4bhQv1zDwwg5+BIcISnnXaam7gYTCY0AiWvwz+DgLHACRHVYAAx0jhBjC6fYXADHZ5AwJBixHEMGEDugWHBoLF0MXr0aBdpEVXjXDgHY5P78PZuIBAwyBginC+GDqPIGjdMcYYIBgwn90YIsT5MmTicfv36ub6jHbQToYIRxyjnPohAMZqcy3IJzg7nhhHHKeH4iYwRNtddd537P2xwKJSLEUXEsPbO2Pj000+dcSayR/zhoBBItKVPnz7OKSP6MLSvv/56wH0bGHPKvPfee915pIIRBTgqOBCR4wjatm3rlp4QNQgJ2kgbYIYgQTQR+eLwiS5vvPFGF72/8sor7jPGCO3kc9LWLDUxpgsSCIxb6oaAPu+881x0yxgkU/Poo486p4Njp58Y29SNvqLORMyMC4QSooTx7AkEWFE36kl2hN9Jb/M5/Zk7gwAn2sO4Qhh5LHD6zAVYcX+WP6gHc9ZL1V9yySWOCUKYLBFzlD0+9CFRM31K/9MWHD7iCYFAv9B/9D0Ont9pG+3nINPH/9l7hEggsCD69sYnNgAhx/iZMGGC6wfa6+/MA801WLNswDjyFwjcg31A8GGOMR/gwDn+2SnmFllCxiY8mNuejcFOcD1zEjuHTWLMEaAwRr2N1ggs5iVznXFpR+UjYAJhyBBnYBEKGB3P6HkCgd3dRCoYkrzW4rwMAkaSSI/16FmzZjnHzWQjE4BhyU8geEMP44EjJnWIQyBSwEGxZovDIZJBdGCEcEQ4eqIZHB/OqzACAUPtHThhDDJl4vQwmnntjPYEApHLww8/7CIQxBM/tB0O3AOn0bNnT+cwqStr94EODBDOzsseEH1i8MiSYPAw1uzJIONBdI7Re+SRR5wTRgTg2Gjzc88955wBkfyll17q1QJllQAAIABJREFUxARZi0DRuicQcMCICwQWhhGngEPDmGOEcQ5Eezgu+CP4MKj8UAZjgTHx3nvvOZFAqh6HjTHmfvz/uOOOcwIJ0YmjROgF2tiJ82B8IHhwkmwaY7kA4YJDwVHefffdri4Yc+qCkyC6ROzAiX6kLTBFkPEvjGDCPRESRPCww3nRPzBCkOYnEHDKsII/IojyuAfCjQiZvkYo4kgpE1HGfMKRM5aJlvMSCETZOFicD/9yb5jCO1AGyBMI1IU5xTim3Qh5InfGJEKcjACZEcrGQXM/BAMim7GOGEAIs5zImj3s4YPIYIzBB1HGGGBMMueoF3ONJaXffvvNtZFzEfJci5ikHxAOMKDf2C+CqOBz5gbZJu5Hv1B2fkdeAoF9H4wt5ihjiSwBY+LCCy/MsewBF0QgNoOsKGOIezJX6T94I4JpD9czHmDDWMa2ICYJRshOkJ1k/0tBT6tUPvdZ8VtsAmHIEKeyMd7eLl8MMBMF54XRI6ImaiFqzy+D4L9JEcNMtIJqx0AQ5RyIQKB+OEHECo6ISI6oDqOFwSQqCrSD2auvfwbBEwg4IQQIDgDjT0o4v8gm0CZFHDrOC0eDuMDIYqwxMggkhAMiK9BB3XEsOGc4Ey1h3EnJIxAwwAgEBBBOGQeIQyL6xxngQDHWOAAMMqzJurRs2dI50EBZC08gLFy40F2LwSbdinHE8OJEWPOnHDjjVLk/ywaUj9OhbhhUjtwCASGHaMGBeuMFwUi0R+QWSCBQB5woTgdnjZigLTgcnA1OwX+TInWHC+1DkDLWcEws2cCQviaaxEnixBEIiDT6BLZEhLSDzyk3P4FAH+FIcN60G4eYe5MiZeFoGd+IFgQf45FxxpJbXgKB8UI/EuUzhpkv9DNjO9DGXE8gMJ9oN46LjAiRNuMWR4hYZNwgnmHOUzr0BftMGN8skzCfqRt1pU9w3LAgg5B7kyIZIDKKjE/2fTA+ER0EEMwHHC1lkcXiWsYXzGBA1oJlLMQA/cncRVRfc801LjNVVIGAkGTvAf2NQKKvWb5h/tIObx8N5yGU+AzByjiECXOVsUzZBEMs6bBcgSgmg0DmBxuCUEZks2TEPMIuIjZyP8FT8d2jtdAEQi6BwERmwmEYMHw4UQws0TzOoCCBgKFhmQEjjoPEcBGtIDj+SwKBaALH7O3Ax7EX9DilJxAwOBhoDDCOgXVoBAxpWDIf/A2j4kWzeT2FQaaA6I0oBQFGGhRnjcMIJBAwvPAlosOxYKT9BQJr8xg7nBJ1IhuU1xKDv0DAQRC95ycQMPiMAfZMEOHjyHAwuQUCzog0uZfVIHJDIJBizyuDQJaBz4jmyD4QURNxIp5wKF7GxHuKwV8g4IRYosFp8Dl1xFmwzo7DPFCBgNMjG4ZDwjHjKKgPO+mJXmHG3hWcEe3E6SN02AfA+TijvAQC8wSRx+eIIgQ5Qo2nIgK9k6EggUAWkLlK24n+EaqIK1LtLH8gEBDE/gKB8pgHiFzEISILgeI9xcD4xLEi0MicwRrBgCCjjxi3jEmEE44ZFvQnwg5WtJ/onoN7I+oY5wXNtUAZBJYwWBZCAJNJY0xRH/qZpQGyBRzsY6BMlhEQL4gjrqWdjHWu42+cxw/zBdEIf+YUAgEWiCGuJ9ODqDGBUPkEgwmEXAKBSYwxwNlg4EgtkirFOJF6zk8goM4xkjhbnByOgvVBUswY1P+KQMCYkdHAIZF6JXXtpXRJiWIIAm1K8gQCBpDIifNwRjgn7ocRxqiQjcDA4lTyeyyP+5HyJIrB4ZLWxdHAnrQx5RApsx5MFoG/45BxgvQJxhtDjZFGnJAJwngTUeIsA73kJlAGoTACgSif5RM2hiJKKJN+hiFOBgOLOEFcIgzZL8LnGGD+n98eBEQp0RyGmYwF/UH0xnjDISAy88og4Mww/PQB5yKKYORFm0TYB5JBYLwjkulH+hSxi7OhzcwNlikY6zhe+ojNtTgt+pQxAof8BALr98wzHCtpbTJReT0+W5BAoJ3eY5SwJyPgvZ+EOUgmiznqLxAQpzhBnC5LSjhmnC3ROCKDz4iq+Z05wngkg4WQ5T70O/OA8YrgZfySnaE8xDJznnlAJgHBh/Dx5kdxMggsf5CJIKPDPRG2RP7MP+YFY4l5AQva6m1cRqwz36gjBxkF9q0wlhET2C3mLpkH7sMYZJkIoYe9oJ22xGACIV8C8dsTtTV+h9q1yvkseKCLysuLkog6ci8xMGlwXDgoHCWpXowYkyQ/gUAUiIHE6OGIiIQwqDg+jE5JCgQmLdFbcZYYMBqkDskekKb0j2aISHFSgTb4eQKBjABroERQZFowgOw1wCHjmHDOOCYEUn5rrThdnCBsYIzBJQXOfUkBcz8MMo4IhpRPpElf4ExwvOwjwPnSVxh3HBICAeMZSOQUVyB470HAsGJ82UiKQ8fgwxIhQMRIVIyxZrMmGSjahEMh65JXBoExBUecLO2hvdyXTAWpd5x/XgKBOni72mkb5eEE6AeyLIy5AxUIXnqaOUG9WCaBB3yJZCkXoUh2hawKY5K+QFAx1nCygTYpwgpB7mWdiOIRWXllnAoSCIgWxAxLfQg56kodKQchhcAkm+AvEBhrnI/Q5P5kCcjQIErJQrFEgcChnogvMgCIChwpe0zILpDGp80c3r1xsvQ7S2zUCXEFA/bT4HwLegNifpsUEQWINMYX7GGGcIAbT5lgpxBZnJfXUzNcR6bP24NAxgA+ZBAYg8xD2sxSBEs5ZBHsSQYTCJVOIHgvEsHJeJMJZ4ODw9DyO06UCcI6NBPK/8CYszeADXlMau7hPabEBkUcFRMN54bR5r6ocgy3/4Fjw8lSHucRwXiPk3Et9cM4EQl4qWeMGffGiDHhMdo4q9wH6/MIFVKvtIWIFKOFccx9cH8iCyJh/wPjSNofI4F4wGlgUHDc1I178hn1gQXGi2UV6oTDxOj4H3AiJYpxY70ah8s9MHIYW7hhYBEIGGLWSGGD4SN1zPUYcKInljuoB2WSAcFI47BwnN6rpCkbo4yBJqWKAUTM4RToZ/qO/iJK9F5tzO+U571qmc9xOnDkHP5PfUnj05/0GWWTqiXKgxEih/V/L6OACPC+T4Q6wYzMC/0GA2880h4YIIgQT4wb+o6/ee8c8NpLOd5z+jhv+sdzdt77C7y2wQMHSH8yfqgr7YcJWRH63//wnqDgXIQKjom/MTa5l/f+Ae4DQ9rLOKVclkdgyFijTtSdNnKef5qdtiOoEFAISngSsdPO3GMGUcijed47BWDJ+IEF11Iu888b37ST8UJdPG7Ukbp4GSbO557MB/qbe9Cv3s5/7k+dGZ84edqAPeBc2FNfGNJGBBKsGWsIYO/dEXClL7mGPR1kfXIfZBYQD9QZG8B9uSdjyntFO+2lrizz8Dv1oX1eBtCzD4yD/J488PZEUG/uz/XMXfqXvuRfyqQt3ntHKp97tBZX+iWG/IYARpYfT+2TSiX163/wGY7BW//jM65hsgV6KQ67i0ndYfT9DwwwEaP3kpWiDk3KxHAEepIBY8j6a2G+bwGDQbobp+h/eJu8/Nchvef1vcgCx8P6M2l+okGyHBgsmCFqct+PKIvNfrCi/l7E553H+rS3SZHMhudQvfIQCN4eBPY8+F+PcMBpcl/v4HPSzDjrkjz8648wwOHRj4wLdoLTDjaXIdSIPr1o06sDDtfLTuXFoqD6Fvc6//vSb7nrhhBAoCFivDLyGkce68J+pwNOl0ifJRHEGpkfHCgMEQzey4y8OjIGWUYpKPrmfK+ujJXC1Ifz+eH8QJFy7rGeuz/ya7u/PeA+pPIRv7kPxibLEwV9X4tnY/xtU0Hjoyifeyy4pjDsinJvO7d8ETCBUIT+wmD5R3+ew8JgFfZ1yDhM7uPvuLgP9/BSy0WoUo5TMT5ENLkP7l3Y9UMiC9roH3l77eQe+YkMUppssuMRQJ6wIIrB2NDe3Mbey0TkZwxZfuAZdaIqshK5DTepc6Ix0ty5lzLgkNvZ0Q7KK80v4KF/yRBRd6JHIkCehmB9mwgUtjDxPzDCgTZUFnccFPc6IujcdYN5Qf1e3PIQS2R6GJ9kgRBQjC/GHv0XqC75vSWzuPUo6+sC2RHqwLjkx1L5Zd0jVl5eBEpNIPw2a7WeGz5DCZXg2xxtePkIsOTAWjrCoCS+p4GUMPcjZR3o8UtSvd7b70rT6Re1f6k3GSLEAA6PPR4siZjhz0kSTqT3EVEsnxQmM1DUvrDzjYARKD6BUhMIv/6zWkOHT9f2FFX4r3suPn670ggYASNgBIzAf5NAqQmEhWvi9eI3M7V4025VrxOniKgo1Y0OV/WwvRo7eZYSduzbIFc1Jk4hYRE5CIWGhqhpw31ftRqivaqenqBFqzdrQ/wu1awRrYO7dFSnJjV1Xs841a+R8/r/Jm6rlREwAkbACBiB8kGg1ARC5t4sJe1J1Zw1O5SeFaImsVVUJzpcG+OTdNOrv2jZhu3ZhKrFxik4NH+BEFstTPf2a6bqkSFavy1JK7ckqWG92urYsLoiwoIVnM83GZaPrrBaGgEjYASMgBH47xAoNYHgNRGhwIEDx4ev3Jioq18araXr9wmEGnUbKSs4NAeV8LAQNW6wL4OAuHjs9FaqWz1Ce92u9ywFBweZMPjvjCWriREwAkbACFQgAqUuEHKzWrslUbe+MV6zVmyRJx5i4hq7LIP/ERUeqgZxMe5PCIumMVG675Tmio22pYQKNP6sKUbACBgBI/AfJVDmAgEOSXvSNHLyEr0/eo7Wbk1S3YZNlZwh+T/8VTUyTHH1aiumWpgGHFxXx7aPUVR4ThHxH2Vq1TICRsAIGAEjUO4J/CsCwaPGHoURk5borzUpSt/3Phv3cUhwsE7q0VjHdaitKuE5lx/KPXVrgBEwAkbACBiB/ziBf1Ug/MfZWPWMgBEwAkbACFRaAiYQKm3XW8ONgBEwAkbACORNwASCjQ4jYASMgBEwAkZgPwImEGxQGAEjYASMgBEwAgcmEBK279SW+O1q27KJvVfeBpMRMAJGwAgYgQpMoEgZhB2JSdq8LUFNG9VXhH3rWAUeFtY0I2AEjIARqOwEiiQQUlJStXmb7w2INatXs+8Kr+yjx9pvBIyAETACFZZAkQQCFPYkp2jLtu3atXuPe+WxHUbACBgBI2AEjEDFI1BkgVDxEFiLjIARMAJGwAgYgdwETCDYmDACRsAIGAEjYAT2I2ACwQaFETACRsAIGAEjYALBxoARMAJGwAgYASNQMAHLIBTMyM4wAkbACBgBI1DpCJhAqHRdbg02AkbACBgBI1AwARMIBTOyM4yAETACRsAIVDoCJhAqXZdbg42AETACRsAIFEzABELBjOwMI2AEjIARMAKVjkCRBUJqWroSk3YpJSVNWbI3KVa6EWMNNgJGwAgYgUpBoEgCIS09XfEJiUpOSVVYWKh9o2OlGCLWSCNgBIyAEaiMBIokEBKTdmvz1njVrxOjatWqKDgoqDIyszYbASNgBIyAEajwBIokEBJ27HRf1NSmZRMTBxV+aFgDjYARMAJGoDITKJJAiN+eqK3xO9SuVdPKzMzabgSMgBEwAkagwhMwgVDhu9gaaASMgBEwAkag6ARMIBSdmV1hBIyAETACRqDCEzCBUOG72BpoBIyAETACRqDoBEwgFJ2ZXWEEjIARMAJGoMITMIFQ4bvYGmgEjIARMAJGoOgE/lWBkJCUrJ/+XK45G9KUnJHzrYxhocE6vmsj9W5TS9FRoUVvmV1hBIyAETACRsAIFJvAvyIQtiel6Kdpy/T91GVauTlRETXqKTkzSFn/rxF4/VJUZKhaN6mr+jUidFTrWjqqbS1FR5pQKHZP24VGwAgYASNgBIpAoMwFwvptSXr440matXyLduxKUebeLMXENVZ6VkiOakeGh6phXIyCg6RqkaFqXidKNxzbRDHVwovQPDvVCBgBI2AEjIARKA6BMhcIKzcm6pqXxmjJ+oTs+lav00AKyen4w0JD1KRhbPY5daPD9ejprVS3ekRx2mnXGAEjYASMgBEwAkUgUKoCIWlPqqYu3qLMoDA1qxetxrUitGX7LicQlq7fnl3NqjFxCgnL6fhDQ0PU1E8g1IkO15CBLRUVGqT5q7ZpxeadalQvRoe1jlVUeHARmmynGgEjYASMgBEwAgURKDWBMG/VNr323V9avjVFNevFKSIy0u0hqBKUod/+nKOExF1FEgjBWZkK371FK9fHa09ahqpWraKOHduqRf3qOv/wBmpSO7KgttrnRsAIGAEjYASMQCEJlJpAGD9rtYYOn6GE5CzVadBIoRGRYvNhamqKli9eopTk5CIJhPTUVK1YtEh7UlLcdTVrRKtDx/aKq11Vlx7VUB0bVCtkk+00I2AEjIARMAJGoCACpSYQfpu1Ws8Nn66EZGULBCqTkpKilUuKLhDSUlO1bOFCpaam5hAI9WtX0WW9GqljQxMIBXW2fW4EjIARMAJGoLAESk0gTJi9xgmE+D37MggVVSCkpaVp/vz5mjdvnnr37q2mTff/tsvdu3crMzNT0dHRCgoilxL42Lt3r37//XdNnTpVrVu31oknnqjq1asXtj/zPG/NmjX67bff1L59ex166KHZ56WnpysrK0vh4QU/HZKUlKQffvhB9erV0xFHHKGoqKgDrtd//Qbbt2/XtGnTRL/Q5po1a5Z5ldeuXavx48fv13clURHuu3DhQl199dUKDS36Y8QZGRlO9IeEhJSr8UCbZ8yYoe7du6tDhw75zknmbUJCgmJiYtwcfuutt9SuXTsdf/zxJdEFJXoP5vLcuXM1ZcoU9e/fXw0bNizR+5fUzagnwV5YWJgbO3b8NwmYQCiBftm1a5e+/vprffbZZ3rooYecSPA/NmzYoDfeeEObNm3Sbbfd5gx9XseXX36p1157zTmkM888U5dccolq1ap1wLWcNGmSHnzwQZ111lm67rrrnJh599139ccffwiBc/jhh+vaa6/VwQcfnKexpB1XXXWVDjroIN1+++3OYFb0Y/ny5Xr55ZedY7jzzjv3E39bt27Vtm3b1KBBA9WoUaNUcGDs77//fjcebrjhhhIt47777tPIkSP1999/F8vBU7cnn3xSRx99tO64445i1W3nzp1av3696tSpo9q1ays4uPQ3HX/zzTd69dVX3ZiHa35lvv3223r99df1+eefq1mzZm6OnH766XrqqaeK1d7SvAi7gR0aOnSo3nnnHR1yyCGlWVzAezNXsHUEE4ytDz/8UHFxce5cbA22CHarVq1ytu2MM85wNokx8PTTT7ux6H/QJsTOjTfemOM+L774ooYPH+7m5WmnnaaIiAgX7CDmKHPy5Mlq1KiRHn300X9F2Jc5+FIosNILBAYfg4qonoFNFMXv/J3/c6Bw8zMg/gIBJ3zkkUe667iGH5Ty7NmzxXlE79WqBV4Oobx7771X06dP1/PPP6+uXbu6+1AX6sDn1NWrD//nM8ooSIX7CwSyEq+88oqWLVumU089VUSBTOZOnTrppptuckYw0OEvEG699VY36fzL5j6w8+pC3by655c1oU1e2/zvx9+5nmv5nR+PqcfF6zvO8/oqv7I4x+tXr5+96/w/88rJLRCaNGni6uQd77//vnMcd999t0444YTsceL1DSyoo38Z+c1j7zqPI//6CwQcWqA+z4uh1we0x+PpP54LIxD8x53XFx6D+Ph4zZo1S/Xr13fC0esXruFc//4K1G7uM3HiRD3wwANOfOKsIyMjXV29jIbXNu7n9Rn3LUqfe/Xyrvnuu++cEPcXCHnN+ZUrVzqnhiOjXOYlAgFhRDtzj8n8xrzXB9Qn9/jzH7eBxoF/GygzkL3i/sOGDXP2w18geG0L1Cf+Yye3rfPq6405yi1ofmFDJkyY4OweNgF2nkDYuHGj44gQJPghkzNq1ChdccUVGjRokObMmSPGlHfw+bhx45ydQkR4ImD06NHOhi1evFiPP/646w/GzYoVK5yYJuvWt29fJ1zJ/BUmQ1oK/rXc37LSCwRS+ajd2NhYt0zAQCSS4XdSy6TgSUP26NHDDc5AhycQPv74YzfoPYeAem/btq1LwSIQ9uzZo27dugWMvJlILC2giomoqMfAgQOVnJzsUobU4Z9//hERa8+ePV0Wgkm4dOlSNW/eXCeddFK+EaC/QDj55JPFBPOuS0xM1AsvvKBFixa5zID/EoR/ez2BQNnw2Lx5s7sHk5AJSBalbt26blkEgwJDJvxRRx0lHGugA76rV692ogjl36pVK1c+kQURBm1HiPAZ5eGEOnfurKpVq7r+2bJli+uvBQsWuNv36dPHCZy8BBPl4ZC4H31D/1epUsUZEYwfnOgn2telSxdXN/8MAkYIh+g5Xowb9cAYnXfeeWrTpo1YiqEMjCHOhLLgc8wxx+RpqBgzO3bscFEPRg6OcMOw/vnnn8KRcz1s+Jy6Mw4Qm7QJsUfkxZII/cM4gxvjg/ryNxwdTBGChx12mGNYkEAg4uO+GFxS6vQLY5DME3Vs0aKFa3/jxo3dGGUuUB79znyBI+l4uAU66Ldvv/3WRYII6wEDBrgxz5jEYXAPuHAObFmi496MA8YMB33HZ/mJZBjhTFhWoC+8CPf66693ooQ5Sr3JrNG3ZNSoN+UzdynzlFNOcXOMPmVuMld+/vlnt0TBXOceM2fOdOOUvsIJ5j5oC/OY+U7fUR79QHksTeJ8mf+0jfnI8iJc+Ix0PPenr1l+hDtzmezVX3/95a6hTyiDrAcCAf6MR9rAfER0UVfqzP3gwnjiWs7j74wdODMmGcOMP/5t2bKlux+Zw/wCJhw2YwHWH330UbZAgCscsZGXXXaZC0aoE1kx2v+///0vBy7GAdezNMo5zAcOxuKzzz7rOFJnxDkCgX594oknXHmPPPKIsxP0H+20o3gEKr1AGDJkiFOwnlNnfZGokeiAScmgxrAQMRPh5CcQSI8hNDAiGEqMO0YEh0WKEsPBEgOTMPeBcUERf/XVVy4Nh+NlAlEX6oShwJExUb0lAQwFE37dunW68sorXR3zOvwFAkaRA+PAJMRAvPfee27S8xnGNtDhCQT+pT5MSH7HwN5zzz0699xzXf0oC244H4wLbQq0FkoExOfPPPOM44Wh5HrEEW3nM5wzEQVGiXOISmBKypE06k8//eQcA84QvtQLw4jjChTpsBeEVDgOnPQj/Y7IwPERBbNcQDmIjrvuusv1oScQLr/8cv3666/OKVx44YWuLjg2UqOMFW+JhvQpxpt70K8IBBwaEWte+0k4hyia66gX/6ds7oUzgweGDkbck3oTdV100UUaO3asW8KiPrCA4cUXX+w+Y48B44q/M35w7jjfl156yTkxDGl+SwzcE8awpj8RooiDhx9+2N0fJ4phR5jRfkQyKW7mAfXEEVJ3nGugPQ6w5BqcM46OfqWPuAc/OGPEAZk1jD9ccA4wwvh7ewOYx3ml02GFk4EDYwQO9DEcSD9TJvOTrALjjHvieJ577jn16tXLLcXxOeOYfmaJAYFAfyEMmS+ktGFLWykPxxZojw5zlvFEVghnzvzjOhw9KXT6F7FOvyEwEAv0O7xxogQQX3zxhWsD85dMAeOP9jPePCZ8xjygf/iXa5iD3I+xwByi7vQlPGFOfWHCfMaeMO8oD0eMYGBuIP7Zr1KYvQ3wY1z6ZxDgj51ApBLpI2ywm4iGSy+9NIfZQdQwTgkusJvMHcYjtgrxgShlvnAtAoH6IiSwt9hP+pD2H3vssc4+FJT5KJ4LrdhXmUAYMkTff/+9c/5MUozyLbfc4hT3p59+6iYd+wqYVDiy/AQCjpz74DxwQIgMDAxqmc/yEwjefTESOF2MLlEixhODwjobRoksA/Vjgn3yyScuzUhqG2NCO4oiEJj4tNFzZpRNNiCvSMwTCBgnJj+sEAa//PKLKxvnSb1JuVN3DC/1xEjkxQ0DhXNgEmOcmfwIFgwChhoDhfPBKOHIiU4wZDhvUqk4L/5GvakHDu+CCy5w/RAoasUQYhyJZHBAGB34IhJxqhjGMWPGOKPFfWDL5xhWHBisiHLpY4wO9YUhzhODi2DAEQ0ePFjnn3++i+gxYBhUnEwggYATJaPD8hT9fPbZZ7tyGD/sGcEBIf6I4HGURJ2MRbIC9BlZBxwP5TMOEBXUl3MRt9QHA0r7yCggkI477jjHmDIK2oNA1gFxRAR38803u3GHA8O5YoQ9gcD4hBXOiXohEH788UdX/379+uW5R4O5grO45pprXPoZUYz4ICNDHXG68EBMUFc4cj79gIhkDNL/uSNQb8wxjrgGp8zcYTzh9FkeIvrE8Y4YMcJF9DBmnOP8vfYyznILBHgy7rANCDTqhXNlrtP31DvQ4QkEbAHjECGLICCTQr8g7rAVOGnaz3m0D/HKGGNuMd4Yp/BG2DLPEBEIGAQGdWc8IQyI+nGyiBHGLHaN+7BPCt60i/6lDETXBx984MYIzhpeLD2S2mdsIXoQUbQZ3gU53EACAQcPK8adJ5DI1DFvsbXewXm0h/mEEKaNBB2IDeYc4pb+oo2eQCAbQduxE4gKhJo3lhAOlWFTdUnLFRMIQ4Y4p0t0520eJBpgohC9kFLjhwHH5MtPIPhvUmSSEXURNTERUfAHIhCoH/Vg8OO0MB44AJwLxpv0MYa2KALBuwajgVPGaaDuif7yyyD4b1JEGDApceSkPYkwzznnHGdoceo4EYxpoIMJTCTnPQFCapSIghQ/DpHoivtyPy+6IJKivvyLOCAyxCkhRDAqlM/vGKBAez08gcDaJtfixIhQcRgYTuqNw6XecPacHudiEElnUzcvy5JbIGAUYUKdvD0kRM+IHzbFBRII1AEngTP1si38jeUNxhxPoPhvUqTucKF9CCWEEEsxiAEcNkINkYfgoI8RCAgP2kP74Ukf8jlCqCCBgMhBkCxZssQZcu6HsaWtpKY9gYAhRzzgyDvFm84WAAAgAElEQVR27OhS4/QFjic/45xbIBAFI5LoT5wh4hGnTp/ipHAKOFEiedLNsPGi9kCpb+YiTpK5SN+RBfDfpMj4JIonfU82jvbiCKk/96ZPAgkE2s1YQQwhnDiwHcx75mp+AgFn5zll6oYoRSAw/uk/yvVS6oxLxDx9ztiCCf/SDgQF/cq85bzcmxRJ9SN4aBuZBn7H3rGMgMiAKeKVf+EDBwQVgQecGVeICYIBxA3thSFZvryWXP+vvfuAr7us/gd+2qTpTOjetLKXqODm51bcC/fELe69N+IWVJy49wT3Age4EAUVEBBkF1pGd9PSPf6v95f/U26v9yY3IelIzgN5Ncn9fp/xOetzzvN8vynrricIpVoHN7pkfXSbX4QfGZdme4WeGYPuGl8lDQb8BJ/HZ9lKsXaESlWBPtt6QwRVPchGAiIBqCUgAx1Ih2p/SRDqCAIlln3JRhkDZywoMwoMvFWCwJg4fQYrm8WEB4IgMOCy310IAsfMWFolCIzLGjltRiQQl7KnrKb+KYyy5kZPMQgGsjBZq+AskDN6xi6z4mibEQ7jCoqnnHJKRc582e9WymxGEE444YQqKAlUxq4lCDJXVSBZEyfdKkEwR86wEASZE4IA51qCoD+B3ho5SFss9QSBo3WoiuzLob1WCALHBi+By2OkHDTyJDPk4JoRBNk1XaVfyqm2r/wMi0YEAfkSfPtCEGxpWRNMZe2CGaeswsJGCkEgM0HI71SGOHlVFvqPfDY7KFZPEOil7F7pWxCVqdMRAaWeIAjo1olMIPWNghbiJLAgW+YoINYSBPpuDbJNwcWcEXrnNHoiCHQeIROc6DhbYlfm2GytpYJQSxDYHkzZniAnS7ZuBIU/Qob9DsFEimsJAhJJv+ik+/Xrc1sPgqdSOwJvXLZBrwRLWTs/YNtGFcO/SCViSt5sEGYqN84F1RJbZ0MQ5WbnSpoRBDppbDbMftkQv2WtngBSaURSXIcA0YGiZ/pkp65RNWHjyKFKoGol34wcsjuVOzJhr7BF/t1r66G3qsdQDfT9XVcShDqCwIA4D8pve4ADYHwcECPtiSBwUBy2LJTiUk6ZJkOk7LsLQRC8ZUUcg8eDOCEZGeeEefdGEOz9cUacYgmQnKJDQbJRWS22ztky2GZNMJGZcV5IhpKjfhCAWoKAeCiPC26cC2KBHAmKgqEAIlvXj1KicqR1NMpaG1UQWiEIshaEQTDjhJVdjWm+toFkQBywx1Q5JPOHI2fHeSkRNzuD4Br3yZgEKnvpsFHGNwan1owgKGcrO9NTZwDIRh/KxgNFEMhPJUI2BnuBUEWBbtcSBI6Z7ARYBET5n3ytRxUN8WnU2BV5IhzIi/uRTJk9gsTxw0IAgzddtUb6JfgreQsSAlqjJvOEPUzMA4li4+yV3MzLepStVVdgSX9cB3eHbxtVEBAEwdS4+mIP5FHO+LRaQaglCCoCArwtFnpfdJ3O0X1zqSUIPudvkENrgBVfo5IDJ4HXnAR1tqFax14EfWtUvWAT8Ic7HyAhUmFQWePHVBqQJT4QaWWnzaqptWuuryDQc32aJ92EN5nAEbET/P3rd+SlksOXlGod0snekRgNObQ1Yy3wQoZghDyYs/Xom44aNysIfacJSRAabDFg3Jyb/V/MWRCkfBx/TwQBa1daZFxKaJyqPUnG1dshxdJvszMIZYuhVBBKSdEWQ18rCAKZjFnp1f4r58MxcDLm29tjjgzXnjJsOFqlTvPjNHwmW+RMZJycXLPmUJFtGdmCIMKgOQGEheNG1jhfAUmw5TxVGGSxnJ4xERKfKWW7V2CRxeuv0VmK/hIEc0GK7P/LZsmUExIQy/aUAIdY0gOZpIy3lKvNr9kZBOs1b6QCqbG/axzrhQOn34wgkBf8lI094WB8T7fIxGSesqzaLYb+VBDIT9lZBovIkCknD99agiBrYyscPHINA0+JONhGX5u9ZEqVzp696ozrEDEZuL1l5MHvOH7BGEFAOvXP1pTA2RrCRi8aNbKDEful28gEuSnby2TpPV2lG+wBkVcxoUPGRUSbEQS2QycFKPMX5Mi6WeutgoDg0ScZvPHpAF1AMlUK9F9LEIyj0kIuzm/AWJUBwVRBQH7oqXND5GB8ZIv+us9ZBWRC9Q7BscUBH0mNChB5Ihm2c8wJUaZztpB6a/UEAVZ8DlnL7s2HrvC1yCCCy58hAUiT9fpdszNR1um6cgYBuYCdKgX9oEPWx57YLgyy9Q2BYU8QZH/2tGX+5Q2IgrCMgGFivYzWfjqF43BrG+ddni5QLueA3Of3AhfF59hkqYyLsvqssODSl8NlzjkwSIGTgRq3HIAyP4arD6zavqxzCJwf56b8L5Ni1PWNgbuOczUnGTan7GCWDEyGyuCV042pbOnAVW0TcGQOiAUnxHGVx0Nhw8GU/V8OHbtnwEgDzMyvtjF6/cEXSeA4HAJEBmRwnL1sBUGw/2hMDkpmKsskK5mQ0ixnJ4BxQIKXdRgTjuXpFGNbJydoXtYokJONIOd38LRnK8viNH2vzIuE6Nu4AjDc4OdnlQHlaDrEQdsPFnwc7pKJyWZshSjpyppgVvseBfNCClRfOGfVAPoHG2vRn7FkhQiHtSET5uA+Ga+fBTElcvIjK/olaJGj+btOQPV7QU/1CKFxAE8Qlm0KdPVzk8HTO+u2j21+HDeSqcGqPG2AUMvo6Dq90sqJf/3Co1YePidHum98/auYCPZsSlCW4drXF7gLQUB4zIGOmV+xM7YhMNbbpy0F/QkctqTg43fIG/skY4HE5/owB33TFdUAW07lcJ6AS9/dI/Bq9MzaYU9ObE1yQCdrmwBW3msBByRXVks+CLosH162lGS8bML6ECbrZQOIgDMKZFgqMtYBE9izH33QR4EYvsgOfTEv50HMwXUqCoi8tcMFvvyAqiJ7pitIt8/Zu9K+xIAus0Vks95HwK5sr6hSsgM2XF6qxt7ZG32FG7moBMFP/2yfz0Pe/K6c42kU1mx/SFAQjUIIyA9GPrMeZA2BgFVuL/SNHFQ+c1u9xfbQx7IVq2LJspVx8P7/+yrh+tuGwquWGQ+FLnvZnKlgUNsYA2ehXKeBEwv21ajELbvjZGUptU22IEto9JrmVsTK+DkZ2XN9E3xkk/XPA5trISoCAAOSYSASSou1TaBHQGRbZZ0yLgZeiIFghAggM4K2AK4ECjcOr7a5T2kUETJ3xsxx185RYC2HFAUz8y0lZ31xkuUMgkDs/vKiKxmu7LU24PmME+aYB7KRNV2hC9Yi0MGL/AVFe6wIjwAtEJa/J1LmgBiVJz3MF2bu7csbBc2BrsKnP69MNhcOWR+1DblESHvKiuuxbKRX1ofM1bsbzhsJog+Cg3WXN/EhB8g28gbbQhDKIUVzKnYmMAjiAka9fSIByJ9WsG90VsFn5mesVrB3rUApMLMNmbWtMARP9l7e01DmgwyoshRy1ZMO6lsAJkvzaSW4IdS19ljbP7nCr9nWgM/oXiExtfcW+yy6pWpjfYhpbUM6ZPSN3v9Qv1ZjWZ+1DcZLjIqcW8VuIP3BUOorCUIfpCn7qw/sHAkn2uxFQPXdY/v6YZC1TbleptzbwZ9m0y2HK5Xs6huC0+y9APXXCk6CPGdT22T8+uipTCcAyCatz6E7mQxH4GdOs74/jkRwbNZkErJIThVBqHeSxnAmQCmz/vXVcFDirq8gyMxl/YPVZEXmAz8Zn6y+HEijIzLc+iydUy7Ea7Dm1Uq/HH/93AQopLXZ2z9b6dc1MnIZdT1BIH96UFtGljkLQErPts8EXa1Um1QUkAeZbGmIAh1DyGob+xSYB0PmAmcp97Nb+ihDN09yrq/CCVb0b09/RTndtr76KihdcV4gX0zUqlXs/tcNIkFYECeeel4sq/lzz+DIv+a4+ytFf2eoRCtgq6g4odxK1tPTWErr+lNmtL9e3x8CoeIhQyyvcu3v3AfyPuV1wU1QRPxsKznw1t/MfiDntif05UyBrT/B1jZJIaWlSqYypBLk813ZzMdWFDKqzG0bJFsiMJQQGDSCcOYFC+Kk/HPPQ0lXci2JQCKQCCQCwwiBQSMIf7v0hvj4D8+LRas2x+SZs2PUmDExrqMtRm7ZGOdf+J9Yvea2Ay7jp8yKtlE7/p2D9va2mD/nthf2bN28KbpvXBBLlnfHmvWbYuJenXH44YfEPjO64tijZsd+0/OE6jDS21xqIpAIJAKJwCAjMGgEYfHKtXHm+QvikoXd0T6+KyZ3jYsZXaNjy6YN8Zkfnh2LlnRvX1orBGFCx4h40L6jY8WqNbFwyerYsHVEHLT//Dh83sS42x26YsKYvv8t+0HGNrtPBBKBRCARSAT2WAQGjSBAZOvWbXHDirWxZduImDS+IyaMaYsFN3XHcSefHlcsWrEdtM5ps2NEW8cOII5qb4t5NRWEaZ0dccIx+8fUCR3RvXZDLOleH53jx8TMvRr/lbg9ViI58UQgEUgEEoFEYDdAYFAJQqP1Lbh5Vbzi07+NSxbc9oz6pJlzY0vsWAEYPaot5s6+dYthRETMnjg63vW4/WJaZ+M/ubwbYJlTSAQSgUQgEUgEhgwCO50grLplQ/zsnCviDxdeH/+64qZYtXZDTJs9LzZsGRnbamAdN7o9Zs2cEuM6RsbBsybEEfO64oGHTK7OMWRLBBKBRCARSAQSgcFFYKcTBMvZuGlLXL5oeZx72Y1x9iWLYuWWcbF+izrBbRShY1R73PWgmXGnuRPi0DmdcYcpY6K9beTgopG9JwKJQCKQCCQCicCt1fvBepNiK/gWonBz95bYWls++P+vxd1nZmfMT2LQCpR5TSKQCCQCiUAiMKAI7FKCMKAryc4SgUQgEUgEEoFEYMAQSIIwYFBmR4lAIpAIJAKJwNBBIAnC0JFlriQRSAQSgUQgERgwBJIgDBiU2VEikAgkAolAIjB0EOgTQVi+sjsWL10eB+w7L9pG5hMFQ0cNciWJQCKQCCQCicCOCPSJIKy+ZW3ctHhZTOzqjMmTupIkpDYlAolAIpAIJAJDFIE+EQR/3nRl95pYunxlbNq0eYcXGw1RfHJZiUAikAgkAonAsESgTwQBQlu2bI0NGzcGslD36oJhCWAuOhFIBBKBRCARGIoI9JkgDEUQck2JQCKQCCQCiUAisCMCSRBSIxKBRCARSAQSgUTgfxBIgpBKkQgkAolAIpAIJAJJEFIHEoFEIBFIBBKBRKB3BLKC0DtGeUUikAgkAolAIjDsEEiCMOxEngtOBBKBRCARSAR6RyAJQu8Y5RWJQCKQCCQCicCwQyAJwrATeS44EUgEEoFEIBHoHYF+E4Rt2/I1Sb3Dm1ckAolAIpAIJAJ7JgJ9IghIweo1a2PhjYuje80tsXVrkoQ9U+w560QgEUgEEoFEoGcE+kQQblm7Lm68eWmMGzc2ZkydFG1tbYlvIpAIJAKJQCKQCAxBBPpEELb/ued99k5yMASVIZeUCCQCiUAikAgUBPpEEJatWBVLlq2Mg/efnwgmAolAIpAIJAKJwBBGIAnCEBZuLi0RSAQSgUQgEegvAkkQ+otc3pcIJAKJQCKQCAxhBJIgDGHh5tISgUQgEUgEEoH+IpAEob/I5X2JQCKQCCQCicAQRiAJwhAWbi4tEUgEEoFEIBHoLwK7lCBs3LQlFi1dHSvWbY0tde9cGjliRMycNDamd3XEqLaR/V1f3pcIJAKJQCKQCCQC/UBglxCEDZu2xMIlq+Pia5fE6edeHVd3t8ctm7dFeXvziIgY3dEeRx85L446YGLsO3VczNgriUI/5Ju3JAKJQCKQCCQC/UJgpxOEW9Zvij9ceF388m9XxZ8uvj78PH32vNiwdWTUFhHGjm6P2TOnxOj2kXGXeZ1x1P4T4x77TIzRo7Ka0C9J502JQCKQCCQCiUAfENjpBOGaG1fFSz91Rvz3+uXbpzlxxtzYOqJ9h2mPHtUWc2dP3f47FYTjH7d/TO8a3Yfl5aWJQCKQCCQCiUAi0B8EBpUgbNy8JW5cvja2jRgZXeM6onNMWyxc3B3HnXxGXLFoxfb5Tpg6O0a2d+ww/1HtbTFvzm0EYVpnR7z38fvFxHGjYnn3uli1dmNMGDemOqfQPtKmRLZEIBFIBBKBRCARGCgEBo0gLF21Ls75z8L459UromNCV8yYPCFmdI2ODevWxSd+cHYsXLJq+xrGT5kVbaN2rAy0t7fF/BqC0Dl6ZDziwLGx5pZ1sWBxd6xctzkO2GdeHLnf5LjT3p3RNWbHCsRAAZT9JAKJQCKQCCQCwxGBQSMIf7v0hjjx1L/HDd1bYuqsOdE+ekx0tI+M9q0b48KLLo01a9b2iSBs3bwpll53ddy0bFVs2botJu7VGYcddkjMnTYhXnDfuXHAjHHDUX655kQgEUgEEoFEYFAQGDSCcOYFC+KkU8+N5esjps2eWxEEbf369XHN5ZfH+nXr+kQQNm7YEFdeemls2LChug9BOPSwQ2Lm5HHx/PvMjcPmTBgUgLLTRCARSAQSgURgOCIwaAThrAsRhPNi2bptQ54gbNmyJZYsWRKLFy+OefPmxcSJE/9HlzZu3Bjbtm2L0aN7PmTpmgULFsTChQtj8uTJsd9++/V6TyuKu2rVqrj22mtj6tSpMWfOnFZuabiGyy+/PMaPHx9z586NUaNG9aufPemmdevWxaJFiyrZ7b333jFmzK1Ed2e27u7uuOaaa26X7JrNV79Lly6Nu971rjFyZN+fENq6dWts3rw5RowYsdvrA1myq5tvvrla6/z582PGjBnR3j4w25P8wE033VThyW4nTBjYpMX8Ozo6oq2tLW644Ybq69BDD41x41qrnpofH8VXWftee+3VoxrzWRo7d9+NN95Y+Td+aXdr7PO///1vNa073OEOu8ROW8HEPMmBDNnM7t4GjSB4lPHE086NZWuHPkFguGeddVb89re/jec+97lx5zvfeQe5c/B/+ctfwr8PetCDYvr06U314t///nf84Ac/iOuuuy7ue9/7xpOf/OSGhKOviqXfL3/5y/GABzwgjjnmmO23b9q0Kf75z3/Gv/71r7jXve4VRx55ZNOuly1bFh/5yEcq5/e0pz0turq6+jqNPe565OCHP/xhCIRPf/rTq4BS29auXRu+Ojs7B4TINQLo4osvji9+8Ytx//vfP57whCcMKIZf+MIX4k9/+lN85StfqYJPXxvS+bvf/a7SiQc+8IF9vb26XlVw9erVVaAbO3bsoDjOW265Jf7whz/EGWecEStW3HpA+lGPelQ88pGPHDA95gd+9atfxZ///Od45StfWWHSrAkU5iQIIxK9Yc93fPe7362C3/3ud7/4zW9+Ez/+8Y/j+OOPr4J2K8GGnvJTZ555Zhx77LH/46fq9fr3v/99NUc+g//42c9+Vt13j3vco19yHsyb2OcHP/jBisi/8IUvjJkzZw7mcA37Ngfk87LLLqsI6J3udKeYNGlSdS0S/fe//z0uvPDCStclanDdZ599KtIKW/fXNjqhj6OOOmr7ryV6f/3rX4Mv5q/333//7Z8Z+6KLLqpix+GHH95v0l87hyQIA6BGa9asiVNPPTW+/e1vx7ve9a7KgGsbof7yl7+sHJPgPHv27KajfvzjH4+f/OQn8ZjHPKZSoDve8Y4DwoYRlHe+853xpCc9KV7+8pdvH//SSy+Nz3zmM5XjeN3rXhcveMELms5NxvLiF7+4UtrXv/71MWXKlAFAb/fu4qqrropPfvKTFet/4xvfWGVete2Pf/xjZbCPfexj47DDDhuUxej/7W9/ezzxiU+MV7ziFQM6xtve9rYq0CCIgnNfm6zN/Yccckg87nGP6+vt1fUc6mmnnVaR57vd7W69Bsv+DELPyZEtIjKy4oMOOqgKkq1m4L2Nyw989atfrfBgx/WJQu39SJFAfcUVV8TDH/7wOPDAA3vs3rw/8YlPVBUDpOab3/xmfPazn43vf//7cfDBB7dEEAQmfso99KneT9VOAJlAjN1Dt5Grz3/+8/GOd7wjHvawh/UGxU7/XHB93vOeVwXZE044oSJSO7NJJBDDf/zjH6HKyhfwlQiAdt5558WnP/3pQCJVcP/zn/9UskTwVGYQdeRG86/f8T2vfe1r4xnPeEb1e8kckvH+97+/kvdrXvOaeOhDH1p9Ro/YEHtkx2zx6KOPrioVt6cNe4Jw/fXXB8OWARIyY5MZK8MREIWjbD2V5WsJAqEVAiCYCKKUArNjdEcccUTD0p5xlHvf9773Vf8KBAgC5okZ6gszNNa+++5bZbKUQklTRYKz6ymLaEQQVq5cWZEamYnvX/3qV8eLXvSilgiCTJaTmzZtWpUpmb9MF3Z+puRKrUiFDKcw6Uady45kotZmXUr52DNCZe22NGQyrrO1Yb3KwmRXsnfjaHCQkTXDQqA3lrMwsgwyNlbJ9vwsqzPn8nktQTC2scqWEaM8/fTTq8zq8Y9/fIWHMfQDU/2Yu/mQW08GS9Zkr5wLR9kBYy8E4dGPfnRl+HTT3PRd+oOVrSl40NVZs2ZV6yIDOuJn38s8fO4Lhr0RBGuR4ZCN+dgiMwYMS8Z/wQUXVPMREK3BeGSjf7YjW2omD2uFH5IKPwSaLnGGsiCZGD275JJLqtI2POiE+cOq4NqTflnzz3/+80rXzfH5z39+VZWDmT7Nj23py/rI1/d8Ad3rya7Mld+wXnifffbZ8dOf/nQ7QbAOzh6GfAyZ2aaC35e+9KXKLzzzmc+MRzziEdU8YOtasrIFIMDAmb6q1PAtkgYVn1YIAvnBi27QFbIS+AtB0K/1FjsrWw/0G2mEPcx+8YtfbCcIyCDdps9szRoFRetyf6MtG9fwD+zH9zCDPWJUdJifhMvy5csrLPgBazcHGFoLvP3MD/jMusiXfr/1rW+t+ioEwXV0hL2wJ/OurdRYc9Eh9m/MEqD5miuvvLKyc2P56kkPEAB6zE6QBARBcC8EAWFEzCQZYoBqLky/853vVDZifaWZt89VG1QO4azRC75IpZqfkdAhl/DSDx+PZNsuLLGnlcpSTwRi2BMEjJ9AOSIK8+53v7tSRAwda+fwOA0B4N73vndDLAtB+NSnPrU9a3Afw5KxMyJZBUE+9alPbchuKcXXv/71+MY3vlERClk6Bkq5OTeBk9PwxXAoAcaK4XOaz372sytC0azVEwRrlP1SWvOnfM961rNaIgjGMB9zZnDW+OAHPzje/OY3V8MzBuvnkAU3WQfHWN+QCAYqq2GMjF9/nCVmzJnBjdN0LYduXA4VtvovshOEXcd5vvSlL21KSDhEwYiz4lQ4R1gIBhwOh21dDNyWgjkVgoBAXX311ZUjkOlyHqo9ficbUNq8+93vXlWLZIf6FYjIk8w4DAGnUTMva1XWdR99JGPZg2xDxaaQo4ID3JUfZcfmwVmau3UgcP/3f/9XZRwCgmDD6XFESOurXvWqikypKvVUQdCfOVlTqR6Zj2zSFhjc2Aqnp8JB3sqlxiIzAc086XMjZyUz5dzcx0nLVuF17rnnViVjROD888+PE088sZKHPuksfUJE4KZv+t+MxOvrlFNOqbbSYAgbsmc/yrTsRgYnaJmjgCOI2dKBf7OtNHPRJ2cuYJKtf9k5G4CNzxFwvoQfMVeZO+dPf9kz7FTuBAJBwz3WpcEYJvTwox/9aCWzpzzlKdW9vREENkjPzc84/JB5+EIQEDDBhh8wnvXYYkRCrbkkDsYjn1JBoPe2Up7znOdUOkr/+T76huA1OqdDZyU95EY3YGQMOsPWzQ+xMo556+Oe97xnIMVkwkewTXOkv+5D6tgiu0c2yJkOIQgIo/nTHfe4Rn/HHXdc5WNgzN+ai0ZP+Xj40is6jZQiHPpW0aUPzRqia0305mMf+1hFBmsJwsknn1zpuSoCjE866aT41re+Vdkm4l1sw1z5Yr7EfN/znvdUvoCPhg8cBH82XwhCqU4gOLCkZ3BgD/05V1S7xmFPEJR4ODSOgvEyDqzt17/+dcX2gE2od7nLXeIDH/hAjwRBIMHgGDXD5IAQAkL73Oc+VxEQQhVM6pugwACMQdE4vIc85CHVXqOAhikKPli9rJVxO59AsVQdzJ/DaJUgMGqOw/0UjqIyulYqCJyJIM0IGRnnpS9OnIPjPDBcBsfYGUKjwCgQCBAUX2Cn4Awe4VGJMUeGxakrl3EiAhWixoBkYMbjQOEhGNoqkRUrgzY6RIlICLaIxcte9rJqLH0YS6CAMedNdogGYyZXTpEDJA+OTRZKN6zNmIKgL4SDIxeAlLI5IPrECZBPo2ADP2PKgOgGHeKcZIxwgDNyIgPiqDhG80DKBG3fwxFpQkg4EYQECeAIOe8SmGRoAiw50zG60xNBoJf6oLfkiUSyF8Ta7wQdOgs7AVwgVj3h2K39nHPOqfRfdaDRoT1rIVMZMZkJMLJxxAVZp5McrvEERUGATriOrOBEZwQrMmnUkKLvfe978aMf/ajSHWswLrkgo+zoLW95S7XVQYawE1wQBePWbyuVMeiE7TrZM13h3GGPJCAIdOvDH/5wFTSsAwlWYTCmwGrNxvQZHUaWzVPWiVxIDMxTSZltvOQlL6nuE3jIsDeCAH/BEmbsRbCDNTtCENgoGxKM6ba5IeWCqJ/pscBHzn5fCAI56pe8nLliP3ykeQqijexOP/e5z30q4o10mRvfwW75DSRFH/wA0ms8esfPkBkblOSYF/8KWwHXmtgLX0I/+ApzMx7Sx558mSObl4AhKdZIvuxH8KULiJu16rf4FfaK7FuzeNDT9jC9MC5sza+WIPDtH/rQhyqiTr+sl/5Kqmrtgr+Ei/nAm02X2MAOip+kJ4UgmCsyrW+VPP7ZPOGMfN6eKkIShOOPr1j0e9/73urwjeyLgglaDhoJEIX9Y3SNWqkgEOwb3vCGao+Qw3egD4ujhD7riSCUfo0pyHC62CyFZhyUi/FxRkgH49Q/5fGzOVhHKwSBM0UIBPcEcAkAACAASURBVEEGiF0LIq0SBCUxDpyDYYQcFUfKSDkMpAthkXlQUgG5UeM4rZXjlKm63yEyDozyq47Yd+U8ZVgUH6PG8FUlBDZrxsY5Tg7W2gRmwbbR3nIhCAILZ6lxLJyCICzwMF6BE1kU6OCP8DFkRigQcWIyEcQISUBKkBhG7WfzMw9BBK5Kq4heI4Lgmq997WtVX5yktchmBX6kQONIkANORwbPWaimwNaaBGXORV+Cm+85Kr8nWw5RkObAYEnXBUUBrLczCPB+05veVAUSZ2zIW5bDsdvmKgSBrH1G962ZY6af1s4pNzuI55CkuQqAsnt64F9rN3dyMDZbICcYk7lAIcCSNYdo7GbOEGklx6LjCJUgXksQBHa6y+7gC0eZpHU06pc9s0N98B/FjgQU9go3QVMAIzuyQCAERXLkE2TMvhc82YI9ZLJDGiUpsLFW1QWEti8EwfgIj2qX+cDVmPotFQSBi+8Q1M2FzrEhODUjCGyb3tE19shG2R79FvwaYUXvBGA6yLb8TP/YOMJnXgK4/gRFiZB+6Q298jmbQMhgQGf5nDJX/gNJK1sMyDtfWSojcEQQzRGJYOdsgr91DdKL4LFr8uCbVDxslyDqbI4NICg9tWYEAT58Jt9GV1U2+EcJQO3Zn5Ic8rH0s2wT8gv0Q3yBE3/BR/I5yKJYID5IJOkZ0sz/OJdxe546SYJw/PFVQKA4xRlTLE5etsWoZIOcarNDR40OKRISAXOQCIKs//YQBPNj6LYcKAWj4Rg5E9mBDJgRtEIQBAdOhzHJ7igvx6B/fdkXbFQmbHRIUUBnOBgsByCYM0COk4Ph1GWvjZq5l1Kr7wUSgZujZaSw5yQQIIrO8SBvKgUcCUcne+f4MWtYG1d5zfoaZayFICjRuZdzUJ6XSQnyqjYcJYcPZw5N/9Zp/OLcy3ZTPUGAA9LC6blWc1peWZSRNyII5sCBu89cyjkGesVBwaj2kKK5w8X6OAxB2n3m516ZINlySGQryMp+yBq2HBOZ+LwVgmAeSJQxOGjOWvZjbBWCQhBULDh2GY1xNRmjYN/TQbp6gkD3rJdjVnmT8XOkdKA2u5IdISoqDdbls2YkpBWCICjAhP6ohMjiZPnlLES9DiMnAg1dLZloOaRIfwR7ctJf2ZITQGDHzjytVEsQXO93bJwtIM5le4VN9oUgCHaqD+xRpYis6g8pIh3G4+8ELYTCeK5nc80IAhtDxvg0+sB2BE7Bttmjk9atyqRvfssakTHVIjpIzoInu1EtKcSWTMhfcDd/ekCXJCbGp9fstP6QIrshQwFXkoZc2Crjk9kN/PkIxK08UcIHmZdKGfuhuz6TIOpPYqBq1x+CAEt6Tk8Ef7YuiNNdvsRWgLGsCak0TwGeb3AtMi7+IGdkpJqCOPsq21z0A7Gz1WhtmqTngAMO6HHOPX2YBKGOIAgyskVOkbOhwIycMWFtPVUQOFEOBpPjxCm+gIDZIhy7C0FAhAo7NT+GiQwpTzECFZBGhl4IAofJ4Qh62KuMAIGR0Ql0Mi9ZGIWHSbN3PzBGmP7tb3+rxlXK5QgofCOCwIDhy5EyLCXYWoKgZMhAZBgcdKNtjUYEQbVIMOiJIHDWMklETFXJfBHHeoLAwanOMGiEi+EjCFh8swqC7IfD5axlrLYjOEOPlgn4pSRcnmKoJQgyKJgJyAK/QIIQ0FtVjIEgCJyvki+ZswMle6SQniMjhSBwfvApLzNDHsgHMSlbUo3sp54gyKg4QP0hswghZwrveoJAbwUJTp8smu259pUgqFIIQj0RBPagOoC4qPDwGa5HpGBCBhw1uZX9azZBF8jVfGsJgp/pItIhk0WA2RdSzMn3hSDA2fwEEFmlPugUHfNVkguVEoFIoLSXjdAbvzeCULbEyIoM9IMkNHunRE8Ewb38AMLFZ9IxiYLf808CtspRLUFgJ3QBKVXlgys5+Nda6R2bJhf+ji7qm10iDCorfEnZBjUe30DH+Gv+DxlBFPSJtEp8entyq1EFwf3GUXGhD/qBNf02/0JIkAGPj/OX9Ij/olO2ExAHW41ikjiC8CAMEkX2Rl/5Att8PjOO8ZIg3M43KWKxtRUEwlT6EmyUPCkGIXKSypI9EQSZpnIj1i6T4rgFB8qIze4uBIFScV6lcVKUkLPDrMtTAvVrLQRBtgYThEJWzEFQYD8rxXFKyvtKeJxas6Y/uNgjpdycAYeo1Ms4KX7JwDgsMmE4ArVshVPhUGUlqhfkw2lwfpxco2yyvwTBXFSRbMvIbMtTC0rGMigyFgg4OSTJmRU4FGPl4JudQUBKOQxr4qh9KSNaj7XBpVkFgSwRMgRGEOawZbEyL9sBZHN7KwjkhxQgZWTFMdF1TrSWIFgvx62xAZkMecmQ2JKg2KjpE/lAMK0XVvAu+MFSv3AiX2PTB7blXuRbpafZVpYxB4MglLM4dAph4iNkwg7kcdB+JgMBgb5oSJ8Mkq1x6krlMmTzF5yRS3JEwgXFssWAcJfyeqtnENgR8kQO7hHs4FjK++aNSMNRFo6Eqf4gvwJNTxUEa4c3exDQyaTRQeQi754IAmKkH+RaciJL55MQJHZsbsh1LUEgd8Ger3INEo3QqYQgCHwvveBHEAR6UzJx2LuH/pIbeflcFVLQZi9wZ+/kwKfBEgHvrVzfbIsBUUFSbFuoTJgfXwc3lRXEVpWSHSAuxtLKy7f4Pg3u/ILtUTrFzsrTDYgFgsHm+SXrtIZGL+5rtaSQFYQGWwyUtSiksi2hCHTNXlJTthgEAM6TM3UPhXOf7MZnA0kQGLCMtz9bDLXvQaAoHINA3OoZBMEfkWKwnAzG7aCXfUyBSbCUuTKC2hd51CulIMAQGSQDxOzLS3MYkgBvXv6FIULhGsRD0JERMBQOCmmBr98zMplAo73QnggCYsEZNdpiKO9BMD9GrfrB+ZgbR4VwCYKM0rrtaWr2ZFVEOJpmFQTXwZJDEzA4cpmYjIyB20JoRhDMAblAlhz8gg+HJ3sQ0GEyEAQBboIXJy6Iy0zgW0sQ6IGtKmRRWZYucNjOpVhLszdvKgMLYErd8Oe0ydt2jeBhO0kQtSaOXPVLmZ4M2BnCaD+2PA7WyPkNBkFAAFQ6lITZoYAj60MKzdF8OH3km2w4cIGe7apCsTuygRM8bUPwE2yHU3c94icQq0bBqC9nEPQrkAr05CH7Zbt0gj4Vgk8/kTfyYWMycjJG/hsdUizvQSALhIjfEFh7ejNjTwRBlZH+I7r0h2+h/6ou5sH26F0tQWDvgiBdsxWJdNmW8C+9p68qm7ZNrJkdqirA0gFdQZYd64ceI3Fl+0KFEulXJXEvgm7NJbvvKbg2Iwiq0mRrjuzbuPrkM1QG6BKyT6fZWbOg7j4VqnIGQXWovAALfsbXxCFJF9u4PU8yDHuCwJgpXu3rOTkirAxrExDKM7mCEWOvbQKEw4sUmXBUHDhoAuccGb3vfVaeFyZgRlrbOABOkHG4jsLqCzMu70HgfDgiCozJ6r88Klge8xM06xuiQvnNgTLWvw2Q82BI+uTIZDIOL9U2Y3PcnBZHwjFz7JwC7Mrz4uaDIMBFtmItmHIJmKVPhieYygQF1/KYmAy4nEdQWkYQlKidDSALcxQEXSdTsK+o4mNdnApiwPEpT9q6qH07GcNE8pAITkVm4XPyYpjutR6Ej174nqEWWfmcscHKNX6Gh71ecirvTnCvPo0BK9hz7ByvjLqU4AsW5ChQkIN7/WtscuLUyZY+FtnB3hzMxRz87HMYerwK9tYFp/JegrI2v0c44O9zZNZcZTUcoOtrG+coC4WVeQkgsrZSDYCD3xnXGGwJXiXjca110IXi/Gv758RkjPC3dtfbsycrsueoyVgfhSDIvGW+ri12Zj3sE8Gqt0+VCJlp0XFzN08/w5lO0UG6CxMyLa8k9pkqQFlPbd8CjL5kbOW9BYgNedAFOkp2BWPysg73sG1zkN27hg3RNdeaFxnC3pqtU7/0jJ3pg+2ZI6wEZ33UNnjIWm05uc/83asffdK5ss7yDL7xBWOyNEdypA/sSf/FRkrwEpDIAkHiA62FTZZHB8t82CW9L68LpyflgLK5lPemFP0vb9UsJX3Xmou5mUs5H1V7fQmy1mRtsGYT1uZ3fLjrYVd0qeBC12BM9r63ZtgakyzpgM8RBnZaXmhU1meLhh8r73gwrvHNtWyvFjvULyzpnXmybwRFn/y6+3p6aVbxV/RN/4WU6ZPekLM1wLiQvlarBY2uG/YEoSfwCIPgyos87MP6qm0+Y9zKo6W5x1cj5oZBOmTCsdY2DFdW0dMLX3qbK8V0grq+URYBtpW3alEw5e3aF3foj8PSR+1rosvz+iVTt4+nLIhgyFAYDeOGmc9qm8CplGyPueCln9qsX1/lkKIsVKu9puw1ctTlpHm5X4bAYdUac3n9qZL1QDZj0BX9c6JIGqcig5SdKW3ayhKEkZ5GQbi2OlWPaytzbYZhK/eWa1Qw6ufGGSuB9vXVtYWYFRtQXlUhqHeuiDGHSL+MTUdhaBvH9hNZ0QH9FIJQHgHzWbEzZEwpuJ7Y6g9BdqCxP02AcNalPgDrq5SpfV/er99sjHo8ynXl97V63Vf5C9T1pBOeAhfb14xTb1/1c2g100QoVU5ksciCCg//xXfQ9fIOh9K/fmXHrfzNi1pbauXxvN70vjcsm8nF3Mtcit/ku627XodVSeliK397o6/r66vO9rSevvZV+dtt9avtoZdlK1bFkmUr4+D9d3zdbKNbhuLfYhDsyh8wKWumxBSotz/CVK7nBPVTm9n6TB+MulUjbYQ5Y6g3ztJ3q39kyLysUV+1zTr10dP8ZBPIAcckq2cwpSJizfX9cRg9vYNekLefLvNWlah3GEqgAo+SYj3r5jDrg537EZPB/CNTxlQ6FuBkKDCTvVpDyd7qTQ6m/XnNcX8Mvqd7ygup6uVEt1shlz31TafqdcD15E8PamVrywTBlF057FfeRud+5VdVPFlr7aute9Kz2yNz/bKpens1dzK7PfY6UPIbTLk1mqNDsh6rUylQHVM9KFWr8lhhvQ4N1OusBwqz/vRTHiOut9/ix1ohNP0Zd1feM2gE4awLFlR/rGn5uvxzz7tSwDtzbCU85UElyt7+Ulwr8+JsSrmx0RMJHBQiIIsZzKDfylxrrzHv8od4BFZ4IApD0YH0FZtWroefbFTQQRJKEOaYBUPVt3Kiu5X+8pqBRQDZU0Wgz2yvtz80NbCjZ287E4FBIwi/P39BnHTaubFifRKEnSnQHCsRSAQSgUQgERgIBAaNIFx23bL4xI//EZfduDa6ps2M0WPHxoyujugatTV+85cLYtnK2/bgx0+ZFW2jRu+wnvb2tpg/59Y/nqG1x9bo2rwiLrv25li0bHVM3KszjrjzYXHHeRPjmfeeFTO6drx/IMDJPhKBRCARSAQSgeGKwKARhK3Kges3xUXXrYyNW0fG/KnjYlrX6Fi0pDte/qnfxJU33Po32bUJU2fFyPaeCcLUCaPinY/ZNyaObY9FS1fH1Td3x6zpk+KwOV0xqm1kjBgxXEWY604EEoFEIBFIBAYegUEjCGWq//9PXEeMqP6Pa25cFcedfHpcseg2grDX9LmxbWT7DqvrGNUWe8++rYIwrbMjTjhm/5jeNTr81Wz7kSP8l8Rg4LUie0wEEoFEIBEY9ggMOkGoR/j6JavidZ87M86/anFs2SrUR0yZtXds2ta2w6VjO9pj9qwp1e9G+ouDU8fEWx+1T0ydkFsJw15rE4BEIBFIBBKBQUdgpxMEK1qzbmP89Jwr4mtnXBTXLV4dU2ftHWs371gKGDemPebMnBJTO0fFY+4yPR5w0OQY27EjiRh0dHKARCARSAQSgURgmCKwSwhCwXr12o3x47MvjwsWro9NW3ckCB5teuiRc+JBh0xJYjBMlTOXnQgkAolAIrDrENilBGHXLTtHTgQSgUQgEUgEEoGeEEiCkPqRCCQCiUAikAgkAv+DQBKEVIpEIBFIBBKBRCARSIKQOpAIJAKJQCKQCCQCvSPQpwrC8pXdsXjpijhov3n5Xvnesc0rEoFEIBFIBBKBPRaBPhGEld2r4+Yly2PenJkxZnRHkoQ9Vuw58UQgEUgEEoFEoGcE+kQQ1m/YEIuXrIhtsS26OifsFn/qNAWcCCQCiUAikAgkAgOPQJ8IguHXrVsfi5etiDVr11evO86WCCQCiUAikAgkAkMPgT4ThKEHQa4oEUgEEoFEIBFIBOoRSIKQOpEIJAKJQCKQCCQC/4NAEoRUikQgEUgEEoFEIBFIgpA6kAgkAolAIpAIJAK9I5AVhN4xyisSgUQgEUgEEoFhh0AShGEn8lxwIpAIJAKJQCLQOwJJEHrHKK9IBBKBRCARSASGHQJJEIadyHPBiUAikAgkAolA7wgkQegdo7wiEUgEEoFEIBEYdgj0mSBs2LgxVq5aE167nC9SHHb6kgtOBBKBRCARGCYI9IkgbNy4KZYuXxnrN2yM0aNHxYgRI4cJTLnMRCARSAQSgURgeCHQJ4KwavWa6q85zpw+JTrHj8u/5ji8dCVXmwgkAolAIjCMEOgTQVi+sjsWL10RB+03L8nBMFKSXGoikAgkAonA8EOgTwRh2YpVsWTZyjh4//nDD6lccSKQCCQCiUAiMIwQSIIwjISdS00EEoFEIBFIBFpFIAlCq0jldYlAIpAIJAKJwDBCIAnCMBJ2LjURSAQSgUQgEWgVgSQIrSKV1yUCiUAikAgkAsMIgSQIw0jYudREIBFIBBKBRKBVBHYpQVjevS5++tcr4oIbNsa6Tdt2mPOo9pHxsCP3jgccPDm6xra3up68LhFIBBKBRCARSAQGAIFdQhCWr14XP//rlfGTc66I6xZ3x9iJM2PdlhFRSxHGjW6P/eZNj+ldHXH/AyfF/Q5KojAA8s4uEoFEIBFIBBKBlhDY6QRh4ZLV8Y6v/TkuvOrm6F63MbZu3RZTZu0dm7a17TDhMR3tMWfWlBgxImJ8R1vMnzo2XnP0/JgyoaOlheVFiUAikAgkAolAItB/BHY6QbjmxlXxkpPPiMsXLd8+665psyPadgz8o9rbYt6cqduvmd7ZEe89Zv+Y3jW6/6vNOxOBRCARSAQSgUSgJQQGlSCsXrsh/nLpzbFl5KjYd0Zn7D15TCxZsaYiCFcsWrF9guOnzIq2UTsG/vb2tphfQxCmdXbE8Y/fL8a0RVx87dK46qZVsfeMqXHvg6bG2I4dqw8trTwvSgQSgUQgEUgEEoGmCAwaQbjomiXxiR+dF9cs3RCTZs6O0WPGxPjRbTF+5Jb409//HSu6b+kTQRixdUu0rb4prly4NNZv2hwTJkyIOx52cOwzszOOPWpOzJ8yJsWcCCQCiUAikAgkAgOEwKARhN+fvyA+dtq5sXx9xLTZc6N99K0BfMP69XH15ZfH+nXr+kQQNm7YEFdfemms27Chum/iXp1x6GGHxMzJ4+P595kTh82ZMECQZDeJQCKQCCQCiUAiMGgE4awLFsSJCMK6HQnC+vXr45p+EoQrL700NvwPQRgXz7/P3CQIqcuJQCKQCCQCicAAIjBoBOEPF15XEYRla7ftUEFIgjCA0tuJXZ155plx3XXXxaMe9aiYNm1ajyNv23brA6sjRoyIrVu3xurVq8PvJk6cuBNn3NpQtXNt7Y6+XbVw4cL41a9+FXe7293iTne6U7S3D+w7Pf7zn//EP/7xj6rvu9zlLn2bXF6dCCQCiUAPCCRBSPVoCYH3vOc98Ze//CU++clPxqGHHtr0no0bN8ZFF10UM2fOjDlz5sTy5cvjuOOOi87OzvjKV77S0lg76yJzvfrqq2PkyJFx4IEHDsqw5557brzmNa+JF77whfHMZz4zRo8e2KdwfvSjH8UXvvCFqu9nP/vZg7KG7DQRSASGJwLDniBs3ry5ym5lu1u2bIlRo0ZVAcP35TO/a2vr/UkJ/bjHva6XLepXq//M58bRyjjlOvfpo9xbvjeP8rue1LXM3TX6MpbxZfO+yvr8rnxexnavL61g4ftCEE4++eTtwbSsT5/WYG433XRTPOhBD4oXvOAF8frXv74a789//nM1zgMe8ICGWNTiVPryb5lbT2su1xfMzN33tZm6dW7atKmaCyysy+9URN7whjdER0dHfO1rX9tBXo3wrcVVP77K3GrnXSv7RgTB2MhJwb+3ufYk60IQnvGMZ8TTnva07X3W6mv9+mvxhktZAxnSDXgUffB5Wat+YOBfGGrW7ZpGaxmeLjVXnQgMHQSGPUE4++yz48Ybb4zJkyeHcu3jHve4mDp1avz73/+O8847rwp8Srf3uMc9Yty4cU0lz3Hq55xzzokbbrgh5s6dG/e6171i1qxZlfMUOPV37bXXVtm1kvP8+fMr5/vHP/6xKsNz1EuXLo0HP/jBccEFF8SYMWMqh3zFFVdUc3rIQx5SlfebBUzjrFq1qrrXWjj7u971rlX5mSO/+OKLQ8l7xowZcdlll1WO/Z73vGccdthh1TxWrFgRF154YVx66aVVALDmQw45pMp6C0E48cQT45prrqn6Np/x48fHf//734Cj9RjjU5/6VBx11FHxpCc9KY4++uj49a9/XfVhe6IeJ1WGe9/73hVOsLZWOFnHAQccUM3fmguZqhcAPP/2t7/FwQcfXFUDzO2ggw6qyIgnXWBy8803x+mnnx7Lli2LffbZpyIwguTXv/71OPXUU6u1v/KVr4z73//+MWnSpIYyXrduXbW2f/3rX1Vwv+Md7xhHHHFE7LXXXhWOxvbZ4sWLqzGsicyU/2srCHC9/vrr44wzzqhkbt7GNVfrtx760N3dHXe4wx3iPve5T9VPM5kjCJ///Ofjfve7X+y///7VGunrne9850o2+jTeX//612pu8+bNq2RDB2B62mmnVdeRz/nnnx/Tp0+PRzziETFlypRKBj/+8Y/j8MMPr/R1zZo1VT/OAT384Q+v+qZHf//73ytMVJZcB5NWiOzQcaO5kkRgaCIw7AnC8ccfX+0Rc5YCxac//em4/PLL48Mf/nDlcAUYwfYVr3hFvOQlL2moBa658sor4wMf+EAV4DjfJUuWVA7zbW97Wzh38dnPfjZkk4Idx4tA6PPII4+srvn9739fOWnk4d3vfnd86EMfiquuuqoKWGPHjq2yXQH7Ix/5SNO9/FtuuSW++MUvxne/+90qWAsynPnrXve6KmDJkr/1rW9VpX+EwRwFU5+7/stf/nL85je/qcZEFjj5d7zjHXHf+943TjjhhGqLQQXBGNaiL8Hwfe97X/zgBz+Id73rXVVA8dnee+9dBb5XvepV8bznPa+as/Gt6f3vf3+FsbWaAxICA2v82Mc+FoKxIIPMPPShD40Xv/jFFYFo1ARauAu8gqwtDWTMGMccc0y1DlscxhEcjY90vPWtb423v/3tFREk+0c+8pHVdeRS35Can/3sZ/G5z32uIm3IBdLxrGc9K2TuSBVStHbt2upzZOHRj350tXaEpZYgmJv1CK7Wj1wJtrBz7cte9rJqeDLSD/1473vf21TmCAKZ0DHBnQ4gLK997WsrQkZ36ZL5IhqLFi2q8Kb31mqeiAO8u7q6qjGRHzI2V4T5+c9/frUG95oL/UVKEDN9I85IBoL8+Mc/vsKRLLIlAonAno1AEoTjj6+c/0tf+tJ42MMeVjltAVM2KMMU7AUb5MG/jZrMSoD8xje+EW984xurzFrgEqhl0T4XHDlaZWAld05d9q4U/9GPfrT6nSzWvYLpc57znCrAu26//farCMu3v/3t+NKXvlTd1yijLte7X/C65JJLqkCokvHmN7+5moNM2jjWan3f+973qqAk4/SZICPDlMULAgKE/e1PfOIT288gCO4f/OAH4y1veUs136c85SlVcEEYBGhZryAICz8XgvCZz3ymyljNQ2lfdeG3v/1tdZ8+BFifuV4VBVlBEgR6Qa0ngoBIWAdCIGjDCGYFN+cfVEoQGCTQelQoBD4l9W9+85tNLRmusJA9C37OKyCVGnz++c9/VkRDsEVCkCqZtbMBK1eu3E4QzMu2iwoBfUEC9EuuMEBekB3XIGV0QoB/+tOfXlUaGjUEwbkQZADmSJagjYi+/OUvr859qGIgnfTgF7/4RfU5svvUpz51u36qpJC9ChGiSFbIXzOCcNJJJ4Wx6Tl9QqZ/97vfVUSFvOCQLRFIBPZsBJIgHH985bA5xBKEOGuOVSalXCuLE6QdtGvUZGAf//jHq2xQlolUKB/LqGTwP/nJT6qAwfHrSzaHFCAOqgiCokAoo1XOlV0KyrIwmfvs2bOrrFwAfPWrX10FjEan4VUFlJMFd9mfrz/84Q9Vn/oxjnIw0mAeguUpp5xSkQnExb3KzLZIzEfFQIAQsOFTDinKRJ/73OdWeAkGAoR5OSRni6QZQRB84GQLw7hwgoHxZLDwE7xVUgQzpEWFw/ZPszMgpYIgGD7mMY+pMnhbCMrzqjbmBwcBUaUHYbFu2T2C0gpBUEH46U9/Gl/96lcrAlnmJigiRmSNIKgeIRMC+4IFCyrS4bNSQSA3VRVz9L0KDcwRMxn9vvvuW5EqegZDuoeMwLvZFkv9IUVzRVBUAl70ohdVpNUc9atKZD5IK91+5zvfWemZ7N9c4W4NiA6SjHQ1IwjkR5eQE5gglbayYIKg5hbDnh0YcvaJAASSINQRhLKP77E+DlAwU1oVyAXKRk3AF/w4ZRkhh25PVrlXOZaTtgUha+ZElbttFdgvFqgQkkYEgeNWvkcQZIGCnEqH6kIjgiD4yepLiRth+PnPf15ln80IgvkKEoKeaoVgzdkjNrJ7pfd6gmDrBJlRYrZ1IUjLQAUgZKkZQUCKfMmUZde1OMniESPletjLnJENFQrj97bFUAiC7RgEwVwQBKQB3gJzCVrGUqFAQFolCLAlgz/96U+VTpCtqscTn/jECmPVIoRJlQLhRHZUaGoJvwoatwAACdlJREFUwpOf/ORqbuYB7zIf2yNK83TDEyBnnXVWhYP1w1ewhlWzCkLtUwwIgu0K4yMIqhMIlj5k9ao0T3jCEyrCqyJWTxDojjMI8HzsYx9b4YcMIre1Wwy2IFQLVNpg4nyGrSGEAuFE+LIlAonAno1AEoQ6gsDBCnayKQe/ZLi2BgRMGXSjhgTIwJRv7aXL2Dlo2TinL9j5TGB/4AMfWAUYgdk+vcffZM2NCIIAz9m77oc//GGVxSMW+qjPqBEbe9gyZl8yelULxEBgQDQaVRAKQRBE7KMrVasmcPx+Vuq2/toKAoLgzIS1wkug9bnMuAQ15XRZK6JUthj0BydbOu6Fje0KY/leliyjVt3wvQAvoxWcyKKnLYZmBEG1REYvgCMZghgSI9O1HWGvHs4CnopNo0oF+arguNfcEA6ZswBvXGsyb+sVeJXfBXkVB/pTewYBFu43noOAiIaf3acKQTeQlzIn1SCZPjk0IwhwkvUL9ogMEoZ0qOyohKlmWCe5ISD6Q0gQCCRHowcqDb/85S+rcwb6sFYEUSUB8bRG2xN0zRYNUgAbJAZJVj1jJ4gwG8iWCCQCezYCSRAabDE4sW+/WQal3KsCYL9aWbVREyQ5d/vHnKxgx3kKIDJ+n3OenL6ysWqCoCBYyGyVhBsRBNeZg/1kJW5ZmUDc6EVF5UkJZxoEV2cMnIgXqIxpbioV9VsMhSAImPrWj9P55ekAGaR9d2uvfQ+CUrqAhIQgHzJpVQ0BAoFx0PHYY4+tyviFIAhWApTMFU6IBZyMiSjJUAVbmbj9b0+EIB0qJzDtD0HwRIeAaL8fyRDIkBJzQALhIvhbI8zsw9c3QRDBsMdenlyABZ2QXSvze1JDoCQjmAum8IaH4Fzeg6APBMIanfh3ZkAAd1ZChUIVR2AmDxUa9zs/0uzdE+UMAp1wiFUFCMlA8lQK6LEzBdZvvvp0iBEmKkv0i+65HmFxNoLOO+tCnrDXp8oA8uFciK0Qh0ltjSB71mFbQd/IrHtUcLIlAonAno3AsCcI3/nOd6qgZX+fc9MEb4FK5i8D9vsSeAXO2iYYc872vAVfgdzBNCfEnU4XNJTOHWRTRRAEOWCZGXIgSMk0bTc4NKafcgZBOVhmKUDJbgVcwaM4+dp5cOYCgNK0aoM+zMH8BFn3ChYqG8bRrwDssJ2AruQteAkAMmV73zJswUC2abvBoUfOvxxAkxlb8/e///0Ko1Iytx5nHwQlGbxzB7ZLVAL0XYuTa+BkW8N4KhNK9DJve9syY2RBkIJHbROUlPDh6joHE20fGFOgJ1M/Wxe5IDWCoPW6XqCEJVnri0zq9/r9bG0ycgFRRi9om5NKjb18WyYwh61KTHlaAFYqEoIt8mFc/dmSsC1jjeZpXFUD6xNwlezLZ8r9ZC7o08XahoTBBcExPzoEQ9eTGfm7h+xs26juuEd1B9Fxj4oRXbn73e9ekRW6SVdgWfCxTWHNKjC2cNyH9BgL9gUTuotw6DvPIOzZgSFnnwhAYNgThJ7UgHPlJAU3TXYlGNY2AQgJcJZAUy1wn8BfH2zKZ37f0xv1ag8plkfcOObSn60KAaS2edTsTW96U1XaNWdzKPPui6qXv3VhXc2cvECL6DgZLwjZxqgfy/z0UV66Uz+HnnAyfxi4V4D1jgXYy3Rrm6zayf1C7HpapyqFOSFatesqLy2SHQuiMvJ6+aqiCKoafFSC6uXrd/bkzbmV1ykbF7kRkOtxhg0iRebWj6giWeZY21RVHHYsb4EsL1+qfcFVub70WR7TLL9HEMohRbjTo3q9JQvr9lkjnTCua/Td7DBlX3Qwr00EEoHdA4EkCH2Qg71rJeraxiEql7cSpFodirNVkua4bT/UH9CTTbqmtgkkMvud8fx52dN35kH526HEVoJiq+uvv04FBfYCcG2DjwrEQLy+GJ4ycOPUy1dFwBMXu6o5p2DLQgCvbWRtXj29wKu3OXuiAY7ORDQjc731kZ8nAonA0ERgEAnCgjjx1PNi2br8Y019VR3ZqPcTcNgOiCEgu1OzVWEbwCOISuAy3Wx7JgIOrqo4OIPQyuvE98xV5qwTgUSgPwgMGkE484IFcVL+uef+yCTvSQQSgUQgEUgEdjkCg0YQ/n7ZDfHxH/4jFq7cFJNnzo5RY8bE+I62GLl1U/zrgkti9ZrbDpyNnzIr2kbt+Ffu2tvbYv6c25793rZ5U6y+6bq4eXl3rFm3MSbu1Rl3OvyQ2GdGVxz7f7Nj32nN/07CLkc5J5AIJAKJQCKQCOxhCAwaQViyam388cLr4+KF3dE+rjOmdI2LGXuNjs0b1senTvtrLFyyajtUrRCECR0j4+j9x8Sq7jWxcOnqWLdlRBy037w4fN7EOGJ+Z0wY3b6HQZ/TTQQSgUQgEUgEdl8EBo0gWPLWrdvippXrYvO2ETFp/KgYP7otFtzUHcedfHpcsWjFdlQ6p82JEW23/vnY0ka1t8W8mgrCtM6OOOGY/WNqZ0d037Ihlq1eH53jx8T0rjG7L7o5s0QgEUgEEoFEYA9FYFAJQiNMFty8Kl7x6d/GJQuWVS/I0SbNnBtbYscKwOhRbTF39q1bDCMiYvakMfGux+4b0zp33IrYQ3HPaScCiUAikAgkArs1AjudIHSv3RC/PvfqcIjx3P/eGKtu2RDTZs+LDVtGxq104dY2bnR7zJo5pTq3cOicCXHk/K6434GTYmxH224NaE4uEUgEEoFEIBEYCgjsdIIAtI2bt8SVN6yIf15+U/zl4oWxbNPY2LBFneC21tHeFnc7ZFbcee/OOGTW+Nh78phobxs5FDDPNSQCiUAikAgkArs9AruEIBRUEIWrblgZi1dvjq3bdiQII0ZEzJ/RGXtPGp3EYLdXo5xgIpAIJAKJwFBDYJcShKEGZq4nEUgEEoFEIBEYKggkQRgqksx1JAKJQCKQCCQCA4hAEoQBBDO7SgQSgUQgEUgEhgoCSRCGiiRzHYlAIpAIJAKJwAAi0CeCsHxldyxeujwO2HdetI3MJwoGUA7ZVSKQCCQCiUAisFsh0CeCsOaWtXHj4mWxV9eEmDJpryQJu5UoczKJQCKQCCQCicDAIdAngrBly9ZY1b06lixfGRs2bood3mw0cHPKnhKBRCARSAQSgURgFyPQJ4Jgrlu2bo2NGzdV/yZB2MXSy+ETgUQgEUgEEoFBQqDPBGGQ5pHdJgKJQCKQCCQCicBuhEAShN1IGDmVRCARSAQSgURgd0EgCcLuIomcRyKQCCQCiUAisBshkARhNxJGTiURSAQSgUQgEdhdEEiCsLtIIueRCCQCiUAikAjsRggkQdiNhJFTSQQSgUQgEUgEdhcEkiDsLpLIeSQCiUAikAgkArsRAv8PN2zOV7+0eTAAAAAASUVORK5CYII=;imageBorder=#008DE0;fontColor=#666666;fontSize=18;fontStyle=1;sketch=0;" vertex="1" parent="1">
          <mxGeometry x="1130.43" y="620" width="390" height="279.74" as="geometry" />
        </mxCell>
        <mxCell id="h6RiRNKAuwsU3fVTqDMK-64" value="Realtime Anomaly Detection" style="text;html=1;align=center;verticalAlign=middle;whiteSpace=wrap;rounded=1;fontStyle=1;fontSize=21;fontColor=#666666;fillColor=#99FFCC;strokeColor=#000000;horizontal=0;" vertex="1" parent="1">
          <mxGeometry x="320" y="230.01" width="80" height="360" as="geometry" />
        </mxCell>
        <mxCell id="h6RiRNKAuwsU3fVTqDMK-67" value="" style="endArrow=classic;html=1;fontSize=14;strokeWidth=3;startArrow=none;startFill=0;fillColor=#ffe6cc;exitX=1;exitY=0.5;exitDx=0;exitDy=0;exitPerimeter=0;verticalAlign=middle;strokeColor=#d79b00;" edge="1" parent="1" source="h6RiRNKAuwsU3fVTqDMK-34" target="h6RiRNKAuwsU3fVTqDMK-37">
          <mxGeometry width="50" height="50" relative="1" as="geometry">
            <mxPoint x="387.5" y="457.01" as="sourcePoint" />
            <mxPoint x="567.5" y="357.51" as="targetPoint" />
            <Array as="points" />
          </mxGeometry>
        </mxCell>
        <mxCell id="h6RiRNKAuwsU3fVTqDMK-69" value="" style="endArrow=classic;html=1;fontSize=14;strokeWidth=3;startArrow=none;startFill=0;fillColor=#ffe6cc;exitX=0.855;exitY=0.145;exitDx=0;exitDy=0;exitPerimeter=0;verticalAlign=middle;strokeColor=#d79b00;" edge="1" parent="1" source="h6RiRNKAuwsU3fVTqDMK-37" target="h6RiRNKAuwsU3fVTqDMK-38">
          <mxGeometry width="50" height="50" relative="1" as="geometry">
            <mxPoint x="780" y="318.54999999999995" as="sourcePoint" />
            <mxPoint x="945" y="318.54999999999995" as="targetPoint" />
            <Array as="points">
              <mxPoint x="840" y="350.54999999999995" />
              <mxPoint x="840" y="318.54999999999995" />
            </Array>
          </mxGeometry>
        </mxCell>
        <mxCell id="h6RiRNKAuwsU3fVTqDMK-71" value="" style="endArrow=classic;html=1;fontSize=14;strokeWidth=3;startArrow=none;startFill=0;fillColor=#ffe6cc;exitX=1;exitY=0.5;exitDx=0;exitDy=0;exitPerimeter=0;verticalAlign=middle;strokeColor=#d79b00;" edge="1" parent="1" source="h6RiRNKAuwsU3fVTqDMK-37" target="h6RiRNKAuwsU3fVTqDMK-39">
          <mxGeometry width="50" height="50" relative="1" as="geometry">
            <mxPoint x="788.9949999999999" y="366.49" as="sourcePoint" />
            <mxPoint x="960" y="328.9346153846153" as="targetPoint" />
            <Array as="points" />
          </mxGeometry>
        </mxCell>
        <mxCell id="h6RiRNKAuwsU3fVTqDMK-72" value="" style="endArrow=classic;html=1;fontSize=14;strokeWidth=3;startArrow=none;startFill=0;fillColor=#ffe6cc;exitX=0.855;exitY=0.855;exitDx=0;exitDy=0;exitPerimeter=0;verticalAlign=middle;strokeColor=#d79b00;" edge="1" parent="1" source="h6RiRNKAuwsU3fVTqDMK-37" target="h6RiRNKAuwsU3fVTqDMK-40">
          <mxGeometry width="50" height="50" relative="1" as="geometry">
            <mxPoint x="799" y="392.05" as="sourcePoint" />
            <mxPoint x="960" y="412.175" as="targetPoint" />
            <Array as="points">
              <mxPoint x="840" y="460.55" />
              <mxPoint x="840" y="491.55" />
            </Array>
          </mxGeometry>
        </mxCell>
        <mxCell id="h6RiRNKAuwsU3fVTqDMK-76" value="" style="endArrow=classic;html=1;fontSize=14;strokeWidth=3;startArrow=none;startFill=0;fillColor=#1ba1e2;verticalAlign=middle;entryX=0;entryY=0.5;entryDx=0;entryDy=0;opacity=90;strokeColor=#008DE0;" edge="1" parent="1" source="h6RiRNKAuwsU3fVTqDMK-35" target="h6RiRNKAuwsU3fVTqDMK-47">
          <mxGeometry width="50" height="50" relative="1" as="geometry">
            <mxPoint x="479.99999999999994" y="563.3" as="sourcePoint" />
            <mxPoint x="645" y="563.3" as="targetPoint" />
            <Array as="points">
              <mxPoint x="600" y="654.29" />
            </Array>
          </mxGeometry>
        </mxCell>
        <mxCell id="h6RiRNKAuwsU3fVTqDMK-78" value="" style="endArrow=classic;html=1;fontSize=14;strokeWidth=3;startArrow=none;startFill=0;fillColor=#1ba1e2;verticalAlign=middle;entryX=0;entryY=0.5;entryDx=0;entryDy=0;strokeColor=#008DE0;" edge="1" parent="1" source="h6RiRNKAuwsU3fVTqDMK-35" target="h6RiRNKAuwsU3fVTqDMK-56">
          <mxGeometry width="50" height="50" relative="1" as="geometry">
            <mxPoint x="444.99999999999994" y="778.29" as="sourcePoint" />
            <mxPoint x="690" y="668.3" as="targetPoint" />
            <Array as="points">
              <mxPoint x="600" y="727.29" />
            </Array>
          </mxGeometry>
        </mxCell>
        <mxCell id="h6RiRNKAuwsU3fVTqDMK-80" value="" style="endArrow=classic;html=1;fontSize=14;strokeWidth=3;startArrow=none;startFill=0;fillColor=#1ba1e2;verticalAlign=middle;entryX=0;entryY=0.5;entryDx=0;entryDy=0;strokeColor=#008DE0;" edge="1" parent="1" source="h6RiRNKAuwsU3fVTqDMK-35" target="h6RiRNKAuwsU3fVTqDMK-57">
          <mxGeometry width="50" height="50" relative="1" as="geometry">
            <mxPoint x="449.99999999999994" y="733.3" as="sourcePoint" />
            <mxPoint x="670" y="815.8" as="targetPoint" />
            <Array as="points">
              <mxPoint x="600" y="802.29" />
            </Array>
          </mxGeometry>
        </mxCell>
        <mxCell id="h6RiRNKAuwsU3fVTqDMK-82" value="" style="endArrow=classic;html=1;fontSize=14;strokeWidth=3;startArrow=none;startFill=0;fillColor=#1ba1e2;verticalAlign=middle;entryX=0;entryY=0.5;entryDx=0;entryDy=0;strokeColor=#008DE0;" edge="1" parent="1" source="h6RiRNKAuwsU3fVTqDMK-35" target="h6RiRNKAuwsU3fVTqDMK-58">
          <mxGeometry width="50" height="50" relative="1" as="geometry">
            <mxPoint x="459.99999999999994" y="793.3" as="sourcePoint" />
            <mxPoint x="690" y="815.8" as="targetPoint" />
            <Array as="points">
              <mxPoint x="600" y="874.29" />
            </Array>
          </mxGeometry>
        </mxCell>
        <mxCell id="h6RiRNKAuwsU3fVTqDMK-84" value="" style="endArrow=classic;html=1;fontSize=14;strokeWidth=3;startArrow=none;startFill=0;fillColor=#1ba1e2;exitX=1;exitY=0.5;exitDx=0;exitDy=0;verticalAlign=middle;opacity=90;strokeColor=#008DE0;" edge="1" parent="1" source="h6RiRNKAuwsU3fVTqDMK-47" target="h6RiRNKAuwsU3fVTqDMK-50">
          <mxGeometry width="50" height="50" relative="1" as="geometry">
            <mxPoint x="840" y="741.03" as="sourcePoint" />
            <mxPoint x="1085" y="631.04" as="targetPoint" />
            <Array as="points" />
          </mxGeometry>
        </mxCell>
        <mxCell id="h6RiRNKAuwsU3fVTqDMK-86" value="" style="endArrow=classic;html=1;fontSize=14;strokeWidth=3;startArrow=none;startFill=0;fillColor=#1ba1e2;verticalAlign=middle;strokeColor=#008DE0;exitX=1;exitY=0.5;exitDx=0;exitDy=0;" edge="1" parent="1" source="h6RiRNKAuwsU3fVTqDMK-56" target="h6RiRNKAuwsU3fVTqDMK-50">
          <mxGeometry width="50" height="50" relative="1" as="geometry">
            <mxPoint x="850" y="937.6020689655172" as="sourcePoint" />
            <mxPoint x="940" y="751.04" as="targetPoint" />
            <Array as="points" />
          </mxGeometry>
        </mxCell>
        <mxCell id="h6RiRNKAuwsU3fVTqDMK-88" value="" style="endArrow=classic;html=1;fontSize=14;strokeWidth=3;startArrow=none;startFill=0;fillColor=#1ba1e2;verticalAlign=middle;strokeColor=#008DE0;exitX=1;exitY=0.5;exitDx=0;exitDy=0;" edge="1" parent="1" source="h6RiRNKAuwsU3fVTqDMK-57" target="h6RiRNKAuwsU3fVTqDMK-50">
          <mxGeometry width="50" height="50" relative="1" as="geometry">
            <mxPoint x="810" y="738.54" as="sourcePoint" />
            <mxPoint x="990" y="751.04" as="targetPoint" />
            <Array as="points" />
          </mxGeometry>
        </mxCell>
        <mxCell id="h6RiRNKAuwsU3fVTqDMK-90" value="" style="endArrow=classic;html=1;fontSize=14;strokeWidth=3;startArrow=none;startFill=0;fillColor=#ffe6cc;exitX=1;exitY=0.5;exitDx=0;exitDy=0;exitPerimeter=0;verticalAlign=middle;strokeColor=#d79b00;entryX=0;entryY=0.25;entryDx=0;entryDy=0;" edge="1" parent="1" source="h6RiRNKAuwsU3fVTqDMK-38" target="h6RiRNKAuwsU3fVTqDMK-59">
          <mxGeometry width="50" height="50" relative="1" as="geometry">
            <mxPoint x="1000.0049999999999" y="383.45000000000005" as="sourcePoint" />
            <mxPoint x="1160" y="400.01" as="targetPoint" />
            <Array as="points">
              <mxPoint x="1040" y="319.01" />
              <mxPoint x="1100" y="346.01" />
            </Array>
          </mxGeometry>
        </mxCell>
        <mxCell id="h6RiRNKAuwsU3fVTqDMK-91" value="" style="endArrow=classic;html=1;fontSize=14;strokeWidth=3;startArrow=none;startFill=0;fillColor=#ffe6cc;exitX=1;exitY=0.5;exitDx=0;exitDy=0;exitPerimeter=0;verticalAlign=middle;strokeColor=#d79b00;entryX=0;entryY=0.5;entryDx=0;entryDy=0;" edge="1" parent="1" source="h6RiRNKAuwsU3fVTqDMK-39" target="h6RiRNKAuwsU3fVTqDMK-59">
          <mxGeometry width="50" height="50" relative="1" as="geometry">
            <mxPoint x="988.9949999999999" y="437.95000000000005" as="sourcePoint" />
            <mxPoint x="1180" y="430.01" as="targetPoint" />
            <Array as="points" />
          </mxGeometry>
        </mxCell>
        <mxCell id="h6RiRNKAuwsU3fVTqDMK-92" value="" style="endArrow=classic;html=1;fontSize=14;strokeWidth=3;startArrow=none;startFill=0;fillColor=#ffe6cc;exitX=1;exitY=0.5;exitDx=0;exitDy=0;exitPerimeter=0;verticalAlign=middle;strokeColor=#d79b00;entryX=0;entryY=0.75;entryDx=0;entryDy=0;" edge="1" parent="1" source="h6RiRNKAuwsU3fVTqDMK-40" target="h6RiRNKAuwsU3fVTqDMK-59">
          <mxGeometry width="50" height="50" relative="1" as="geometry">
            <mxPoint x="1000.0049999999999" y="487.95000000000005" as="sourcePoint" />
            <mxPoint x="1180" y="430.01" as="targetPoint" />
            <Array as="points">
              <mxPoint x="1040" y="492.01" />
              <mxPoint x="1100" y="465.01" />
            </Array>
          </mxGeometry>
        </mxCell>
        <mxCell id="h6RiRNKAuwsU3fVTqDMK-93" value="" style="endArrow=classic;html=1;fontSize=14;strokeWidth=3;startArrow=none;startFill=0;fillColor=#1ba1e2;verticalAlign=middle;strokeColor=#008DE0;entryX=0;entryY=0.5;entryDx=0;entryDy=0;" edge="1" parent="1" source="h6RiRNKAuwsU3fVTqDMK-50" target="h6RiRNKAuwsU3fVTqDMK-60">
          <mxGeometry width="50" height="50" relative="1" as="geometry">
            <mxPoint x="1070" y="735.3" as="sourcePoint" />
            <mxPoint x="1260" y="755.3" as="targetPoint" />
            <Array as="points" />
          </mxGeometry>
        </mxCell>
        <mxCell id="h6RiRNKAuwsU3fVTqDMK-97" value="" style="endArrow=classic;html=1;fontSize=14;strokeWidth=3;startArrow=none;startFill=0;fillColor=#1ba1e2;verticalAlign=middle;strokeColor=#008DE0;exitX=1;exitY=0.5;exitDx=0;exitDy=0;" edge="1" parent="1" source="h6RiRNKAuwsU3fVTqDMK-58" target="h6RiRNKAuwsU3fVTqDMK-50">
          <mxGeometry width="50" height="50" relative="1" as="geometry">
            <mxPoint x="810" y="813.54" as="sourcePoint" />
            <mxPoint x="980" y="785.8024175824175" as="targetPoint" />
            <Array as="points" />
          </mxGeometry>
        </mxCell>
        <mxCell id="h6RiRNKAuwsU3fVTqDMK-104" value="Offline Anomaly Detection" style="text;html=1;align=center;verticalAlign=middle;whiteSpace=wrap;rounded=1;fontStyle=1;fontSize=21;fontColor=#666666;strokeColor=#000000;horizontal=0;fillColor=#99CCFF;" vertex="1" parent="1">
          <mxGeometry x="320" y="590.01" width="80" height="369.99" as="geometry" />
        </mxCell>
        <mxCell id="h6RiRNKAuwsU3fVTqDMK-105" value="ClickStream" style="outlineConnect=0;dashed=0;verticalLabelPosition=bottom;verticalAlign=top;align=center;html=1;shape=mxgraph.aws3.kinesis_streams;fillColor=#F58534;gradientColor=none;fontSize=18;fontColor=#666666;fontStyle=1" vertex="1" parent="1">
          <mxGeometry x="450" y="374.59000000000003" width="60" height="63" as="geometry" />
        </mxCell>
        <mxCell id="h6RiRNKAuwsU3fVTqDMK-106" value="" style="endArrow=classic;html=1;fontSize=14;strokeWidth=3;startArrow=none;startFill=0;fillColor=#ffe6cc;exitX=1;exitY=0.5;exitDx=0;exitDy=0;exitPerimeter=0;verticalAlign=middle;strokeColor=#d79b00;entryX=0;entryY=0.5;entryDx=0;entryDy=0;entryPerimeter=0;" edge="1" parent="1" source="h6RiRNKAuwsU3fVTqDMK-105" target="h6RiRNKAuwsU3fVTqDMK-34">
          <mxGeometry width="50" height="50" relative="1" as="geometry">
            <mxPoint x="710" y="415.5500000000002" as="sourcePoint" />
            <mxPoint x="791" y="415.9287012987015" as="targetPoint" />
            <Array as="points" />
          </mxGeometry>
        </mxCell>
        <mxCell id="h6RiRNKAuwsU3fVTqDMK-37" value="" style="outlineConnect=0;dashed=0;verticalLabelPosition=bottom;verticalAlign=top;align=center;html=1;shape=mxgraph.aws3.lambda_function;fillColor=#F58534;gradientColor=none;fontSize=19;fontColor=#666666;whiteSpace=wrap;" vertex="1" parent="1">
          <mxGeometry x="781" y="370.09" width="69" height="72" as="geometry" />
        </mxCell>
        <mxCell id="h6RiRNKAuwsU3fVTqDMK-107" value="Sub Streams" style="text;html=1;strokeColor=none;align=center;verticalAlign=middle;whiteSpace=wrap;rounded=0;dashed=1;fontStyle=1;fontSize=18;fontColor=#666666;" vertex="1" parent="1">
          <mxGeometry x="880" y="540" width="210" height="20" as="geometry" />
        </mxCell>
        <mxCell id="h6RiRNKAuwsU3fVTqDMK-110" value="Transformation&lt;br&gt;Lambda" style="text;html=1;strokeColor=none;align=center;verticalAlign=middle;whiteSpace=wrap;rounded=0;dashed=1;fontStyle=1;fontSize=18;fontColor=#666666;" vertex="1" parent="1">
          <mxGeometry x="660" y="340" width="210" height="20" as="geometry" />
        </mxCell>
        <mxCell id="h6RiRNKAuwsU3fVTqDMK-117" value="CICD Job" style="text;html=1;strokeColor=none;align=center;verticalAlign=middle;whiteSpace=wrap;rounded=0;dashed=1;fontStyle=1;fontSize=18;fontColor=#666666;" vertex="1" parent="1">
          <mxGeometry x="660" y="920" width="210" height="20" as="geometry" />
        </mxCell>
        <mxCell id="h6RiRNKAuwsU3fVTqDMK-119" value="" style="rounded=0;whiteSpace=wrap;html=1;dashed=1;dashPattern=1 1;labelBackgroundColor=none;sketch=0;strokeColor=#000000;strokeWidth=1;fillColor=#99CCFF;gradientColor=none;fontSize=18;fontColor=#666666;opacity=0;" vertex="1" parent="1">
          <mxGeometry x="1030" y="450" width="120" height="60" as="geometry" />
        </mxCell>
      </root>
    </mxGraphModel>
  </diagram>
</mxfile>
